<svg width="51" height="51" viewBox="0 0 51 51" fill="none" xmlns="http://www.w3.org/2000/svg">
<rect x="0.888672" y="0.433594" width="49.8919" height="49.8919" fill="white"/>
<path d="M0.888672 2.43359C0.888672 1.32902 1.7841 0.433594 2.88867 0.433594H9.20399V8.74891H0.888672V2.43359Z" fill="black"/>
<path d="M0.888672 8.75H9.20399V15.0653C9.20399 16.1699 8.30856 17.0653 7.20399 17.0653H0.888672V8.75Z" fill="black"/>
<path d="M9.20358 0.433594H17.5189V6.74891C17.5189 7.85348 16.6235 8.74891 15.5189 8.74891H9.20358V0.433594Z" fill="black"/>
<path d="M17.5195 10.75C17.5195 9.64543 18.4149 8.75 19.5195 8.75H25.8348V17.0653H17.5195V10.75Z" fill="black"/>
<path d="M25.8344 2.43359C25.8344 1.32902 26.7298 0.433594 27.8344 0.433594H34.1497V8.74891H25.8344V2.43359Z" fill="black"/>
<rect x="25.8344" y="8.75" width="8.31532" height="8.31532" fill="black"/>
<rect x="25.8344" y="17.0625" width="8.31532" height="8.31532" fill="black"/>
<path d="M9.20358 19.0625C9.20358 17.9579 10.099 17.0625 11.2036 17.0625H17.5189V25.3778H9.20358V19.0625Z" fill="black"/>
<path d="M0.888672 27.3789C0.888672 26.2743 1.7841 25.3789 2.88867 25.3789H9.20399V33.6942H0.888672V27.3789Z" fill="black"/>
<rect x="0.888672" y="33.6953" width="8.31532" height="8.31532" fill="black"/>
<rect x="0.888672" y="42.0117" width="8.31532" height="8.31532" fill="black"/>
<rect x="9.20358" y="42.0117" width="8.31532" height="8.31532" fill="black"/>
<path d="M17.5195 42.0117H25.8348V48.327C25.8348 49.4316 24.9394 50.327 23.8348 50.327H17.5195V42.0117Z" fill="black"/>
<rect x="17.5195" y="33.6953" width="8.31532" height="8.31532" fill="black"/>
<rect x="17.5195" y="25.3789" width="8.31532" height="8.31532" fill="black"/>
<rect x="9.20358" y="25.3789" width="8.31532" height="8.31532" fill="black"/>
<path d="M25.8344 33.6953H34.1497V40.0106C34.1497 41.1152 33.2543 42.0106 32.1497 42.0106H25.8344V33.6953Z" fill="black"/>
<rect x="34.1503" y="17.0625" width="8.31532" height="8.31532" fill="black"/>
<rect x="42.4653" y="17.0625" width="8.31532" height="8.31532" fill="black"/>
<rect x="42.4653" y="25.3789" width="8.31532" height="8.31532" fill="black"/>
<rect x="34.1503" y="25.3789" width="8.31532" height="8.31532" fill="black"/>
<path d="M34.1503 44.0117C34.1503 42.9071 35.0458 42.0117 36.1503 42.0117H42.4656V50.327H34.1503V44.0117Z" fill="black"/>
<path d="M42.4653 42.0117H50.7806V48.327C50.7806 49.4316 49.8851 50.327 48.7806 50.327H42.4653V42.0117Z" fill="black"/>
<rect x="42.4653" y="33.6953" width="8.31532" height="8.31532" fill="black"/>
<path d="M42.4653 2.43359C42.4653 1.32902 43.3607 0.433594 44.4653 0.433594H50.7806V6.74891C50.7806 7.85348 49.8851 8.74891 48.7806 8.74891H42.4653V2.43359Z" fill="black"/>
</svg>
