<svg width="51" height="51" viewBox="0 0 51 51" fill="none" xmlns="http://www.w3.org/2000/svg">
<path d="M0.774414 4.43359C0.774414 2.22445 2.56528 0.433594 4.77441 0.433594H5.08973C7.29887 0.433594 9.08973 2.22446 9.08973 4.43359V4.74891C9.08973 6.95805 7.29887 8.74891 5.08973 8.74891H4.77441C2.56527 8.74891 0.774414 6.95805 0.774414 4.74891V4.43359Z" fill="black"/>
<path d="M0.774414 12.75C0.774414 10.5409 2.56528 8.75 4.77441 8.75H5.08973C7.29887 8.75 9.08973 10.5409 9.08973 12.75V13.0653C9.08973 15.2745 7.29887 17.0653 5.08973 17.0653H4.77441C2.56527 17.0653 0.774414 15.2745 0.774414 13.0653V12.75Z" fill="black"/>
<path d="M9.08932 4.43359C9.08932 2.22445 10.8802 0.433594 13.0893 0.433594H13.4046C15.6138 0.433594 17.4046 2.22446 17.4046 4.43359V4.74891C17.4046 6.95805 15.6138 8.74891 13.4046 8.74891H13.0893C10.8802 8.74891 9.08932 6.95805 9.08932 4.74891V4.43359Z" fill="black"/>
<path d="M17.4052 12.75C17.4052 10.5409 19.1961 8.75 21.4052 8.75H21.7206C23.9297 8.75 25.7206 10.5409 25.7206 12.75V13.0653C25.7206 15.2745 23.9297 17.0653 21.7206 17.0653H21.4052C19.1961 17.0653 17.4052 15.2745 17.4052 13.0653V12.75Z" fill="black"/>
<path d="M25.7202 4.43359C25.7202 2.22445 27.511 0.433594 29.7202 0.433594H30.0355C32.2446 0.433594 34.0355 2.22446 34.0355 4.43359V4.74891C34.0355 6.95805 32.2446 8.74891 30.0355 8.74891H29.7202C27.511 8.74891 25.7202 6.95805 25.7202 4.74891V4.43359Z" fill="black"/>
<rect x="25.7202" y="8.75" width="8.31532" height="8.31532" rx="4" fill="black"/>
<path d="M25.7202 21.0625C25.7202 18.8534 27.511 17.0625 29.7202 17.0625H30.0355C32.2446 17.0625 34.0355 18.8534 34.0355 21.0625V21.3778C34.0355 23.587 32.2446 25.3778 30.0355 25.3778H29.7202C27.511 25.3778 25.7202 23.587 25.7202 21.3778V21.0625Z" fill="black"/>
<path d="M9.08932 21.0625C9.08932 18.8534 10.8802 17.0625 13.0893 17.0625H13.4046C15.6138 17.0625 17.4046 18.8534 17.4046 21.0625V21.3778C17.4046 23.587 15.6138 25.3778 13.4046 25.3778H13.0893C10.8802 25.3778 9.08932 23.587 9.08932 21.3778V21.0625Z" fill="black"/>
<path d="M0.774414 29.3789C0.774414 27.1698 2.56528 25.3789 4.77441 25.3789H5.08973C7.29887 25.3789 9.08973 27.1698 9.08973 29.3789V29.6942C9.08973 31.9034 7.29887 33.6942 5.08973 33.6942H4.77441C2.56527 33.6942 0.774414 31.9034 0.774414 29.6942V29.3789Z" fill="black"/>
<rect x="0.774414" y="33.6953" width="8.31532" height="8.31532" rx="4" fill="black"/>
<path d="M0.774414 46.0117C0.774414 43.8026 2.56528 42.0117 4.77441 42.0117H5.08973C7.29887 42.0117 9.08973 43.8026 9.08973 46.0117V46.327C9.08973 48.5362 7.29887 50.327 5.08973 50.327H4.77441C2.56527 50.327 0.774414 48.5362 0.774414 46.327V46.0117Z" fill="black"/>
<rect x="9.08932" y="42.0117" width="8.31532" height="8.31532" rx="4" fill="black"/>
<path d="M17.4052 46.0117C17.4052 43.8026 19.1961 42.0117 21.4052 42.0117H21.7206C23.9297 42.0117 25.7206 43.8026 25.7206 46.0117V46.327C25.7206 48.5362 23.9297 50.327 21.7206 50.327H21.4052C19.1961 50.327 17.4052 48.5362 17.4052 46.327V46.0117Z" fill="black"/>
<rect x="17.4052" y="33.6953" width="8.31532" height="8.31532" rx="4" fill="black"/>
<path d="M17.4052 29.3789C17.4052 27.1698 19.1961 25.3789 21.4052 25.3789H21.7206C23.9297 25.3789 25.7206 27.1698 25.7206 29.3789V29.6942C25.7206 31.9034 23.9297 33.6942 21.7206 33.6942H21.4052C19.1961 33.6942 17.4052 31.9034 17.4052 29.6942V29.3789Z" fill="black"/>
<rect x="9.08932" y="25.3789" width="8.31532" height="8.31532" rx="4" fill="black"/>
<path d="M25.7202 37.6953C25.7202 35.4862 27.511 33.6953 29.7202 33.6953H30.0355C32.2446 33.6953 34.0355 35.4862 34.0355 37.6953V38.0106C34.0355 40.2198 32.2446 42.0106 30.0355 42.0106H29.7202C27.511 42.0106 25.7202 40.2198 25.7202 38.0106V37.6953Z" fill="black"/>
<rect x="34.0361" y="17.0625" width="8.31532" height="8.31532" rx="4" fill="black"/>
<path d="M42.351 21.0625C42.351 18.8534 44.1418 17.0625 46.351 17.0625H46.6663C48.8754 17.0625 50.6663 18.8534 50.6663 21.0625V21.3778C50.6663 23.587 48.8754 25.3778 46.6663 25.3778H46.351C44.1418 25.3778 42.351 23.587 42.351 21.3778V21.0625Z" fill="black"/>
<rect x="42.351" y="25.3789" width="8.31532" height="8.31532" rx="4" fill="black"/>
<path d="M34.0361 29.3789C34.0361 27.1698 35.8269 25.3789 38.0361 25.3789H38.3514C40.5605 25.3789 42.3514 27.1698 42.3514 29.3789V29.6942C42.3514 31.9034 40.5605 33.6942 38.3514 33.6942H38.0361C35.8269 33.6942 34.0361 31.9034 34.0361 29.6942V29.3789Z" fill="black"/>
<path d="M34.0361 46.0117C34.0361 43.8026 35.8269 42.0117 38.0361 42.0117H38.3514C40.5605 42.0117 42.3514 43.8026 42.3514 46.0117V46.327C42.3514 48.5362 40.5605 50.327 38.3514 50.327H38.0361C35.8269 50.327 34.0361 48.5362 34.0361 46.327V46.0117Z" fill="black"/>
<path d="M42.351 46.0117C42.351 43.8026 44.1418 42.0117 46.351 42.0117H46.6663C48.8754 42.0117 50.6663 43.8026 50.6663 46.0117V46.327C50.6663 48.5362 48.8754 50.327 46.6663 50.327H46.351C44.1418 50.327 42.351 48.5362 42.351 46.327V46.0117Z" fill="black"/>
<rect x="42.351" y="33.6953" width="8.31532" height="8.31532" rx="4" fill="black"/>
<path d="M42.351 4.43359C42.351 2.22445 44.1418 0.433594 46.351 0.433594H46.6663C48.8754 0.433594 50.6663 2.22446 50.6663 4.43359V4.74891C50.6663 6.95805 48.8754 8.74891 46.6663 8.74891H46.351C44.1418 8.74891 42.351 6.95805 42.351 4.74891V4.43359Z" fill="black"/>
</svg>
