<svg width="50" height="51" viewBox="0 0 50 51" fill="none" xmlns="http://www.w3.org/2000/svg">
<path d="M0.00292969 4.43359C0.00292969 2.22445 1.79379 0.433594 4.00293 0.433594H8.31825V8.74891H0.00292969V4.43359Z" fill="black"/>
<path d="M0.00292969 8.75H8.31825V13.0653C8.31825 15.2745 6.52739 17.0653 4.31825 17.0653H0.00292969V8.75Z" fill="black"/>
<rect x="8.31784" y="0.433594" width="8.31532" height="8.31532" fill="black"/>
<rect x="16.6338" y="8.75" width="8.31532" height="8.31532" fill="black"/>
<rect x="24.9487" y="0.433594" width="8.31532" height="8.31532" fill="black"/>
<rect x="24.9487" y="8.75" width="8.31532" height="8.31532" fill="black"/>
<rect x="24.9487" y="17.0625" width="8.31532" height="8.31532" fill="black"/>
<rect x="8.31784" y="17.0625" width="8.31532" height="8.31532" fill="black"/>
<rect x="0.00292969" y="25.3789" width="8.31532" height="8.31532" fill="black"/>
<rect x="0.00292969" y="33.6953" width="8.31532" height="8.31532" fill="black"/>
<rect x="0.00292969" y="42.0117" width="8.31532" height="8.31532" fill="black"/>
<rect x="8.31784" y="42.0117" width="8.31532" height="8.31532" fill="black"/>
<rect x="16.6338" y="42.0117" width="8.31532" height="8.31532" fill="black"/>
<rect x="16.6338" y="33.6953" width="8.31532" height="8.31532" fill="black"/>
<rect x="16.6338" y="25.3789" width="8.31532" height="8.31532" fill="black"/>
<rect x="8.31784" y="25.3789" width="8.31532" height="8.31532" fill="black"/>
<rect x="24.9487" y="33.6953" width="8.31532" height="8.31532" fill="black"/>
<rect x="33.2646" y="17.0625" width="8.31532" height="8.31532" fill="black"/>
<rect x="41.5795" y="17.0625" width="8.31532" height="8.31532" fill="black"/>
<rect x="41.5795" y="25.3789" width="8.31532" height="8.31532" fill="black"/>
<rect x="33.2646" y="25.3789" width="8.31532" height="8.31532" fill="black"/>
<rect x="33.2646" y="42.0117" width="8.31532" height="8.31532" fill="black"/>
<rect x="41.5795" y="42.0117" width="8.31532" height="8.31532" fill="black"/>
<rect x="41.5795" y="33.6953" width="8.31532" height="8.31532" fill="black"/>
<rect x="41.5795" y="0.433594" width="8.31532" height="8.31532" fill="black"/>
</svg>
