<svg width="51" height="51" viewBox="0 0 51 51" fill="none" xmlns="http://www.w3.org/2000/svg">
<path d="M0.661133 4.43359C0.661133 2.22445 2.45199 0.433594 4.66113 0.433594H8.97645V8.74891H0.661133V4.43359Z" fill="black"/>
<path d="M0.661133 8.75H8.97645V13.0653C8.97645 15.2745 7.18559 17.0653 4.97645 17.0653H4.66113C2.45199 17.0653 0.661133 15.2745 0.661133 13.0653V8.75Z" fill="black"/>
<path d="M8.97604 0.433594H13.2914C15.5005 0.433594 17.2914 2.22446 17.2914 4.43359V4.74891C17.2914 6.95805 15.5005 8.74891 13.2914 8.74891H8.97604V0.433594Z" fill="black"/>
<path d="M17.292 12.75C17.292 10.5409 19.0828 8.75 21.292 8.75H25.6073V17.0653H21.292C19.0828 17.0653 17.292 15.2745 17.292 13.0653V12.75Z" fill="black"/>
<path d="M25.6069 4.43359C25.6069 2.22445 27.3977 0.433594 29.6069 0.433594H29.9222C32.1313 0.433594 33.9222 2.22446 33.9222 4.43359V8.74891H25.6069V4.43359Z" fill="black"/>
<rect x="25.6069" y="8.75" width="8.31532" height="8.31532" fill="black"/>
<path d="M25.6069 17.0625H33.9222V25.3778H29.6069C27.3977 25.3778 25.6069 23.587 25.6069 21.3778V17.0625Z" fill="black"/>
<path d="M8.97604 21.0625C8.97604 18.8534 10.7669 17.0625 12.976 17.0625H13.2914C15.5005 17.0625 17.2914 18.8534 17.2914 21.0625V25.3778H8.97604V21.0625Z" fill="black"/>
<path d="M0.661133 29.3789C0.661133 27.1698 2.45199 25.3789 4.66113 25.3789H8.97645V33.6942H0.661133V29.3789Z" fill="black"/>
<rect x="0.661133" y="33.6953" width="8.31532" height="8.31532" fill="black"/>
<path d="M0.661133 42.0117H8.97645V50.327H4.66113C2.45199 50.327 0.661133 48.5362 0.661133 46.327V42.0117Z" fill="black"/>
<rect x="8.97604" y="42.0117" width="8.31532" height="8.31532" fill="black"/>
<path d="M17.292 42.0117H25.6073V46.327C25.6073 48.5362 23.8164 50.327 21.6073 50.327H17.292V42.0117Z" fill="black"/>
<rect x="17.292" y="33.6953" width="8.31532" height="8.31532" fill="black"/>
<path d="M17.292 25.3789H21.6073C23.8164 25.3789 25.6073 27.1698 25.6073 29.3789V33.6942H17.292V25.3789Z" fill="black"/>
<rect x="8.97604" y="25.3789" width="8.31532" height="8.31532" fill="black"/>
<path d="M25.6069 33.6953H29.9222C32.1313 33.6953 33.9222 35.4862 33.9222 37.6953V38.0106C33.9222 40.2198 32.1313 42.0106 29.9222 42.0106H25.6069V33.6953Z" fill="black"/>
<rect x="33.9228" y="17.0625" width="8.31532" height="8.31532" fill="black"/>
<path d="M42.2377 17.0625H46.5531C48.7622 17.0625 50.553 18.8534 50.553 21.0625V25.3778H42.2377V17.0625Z" fill="black"/>
<rect x="42.2377" y="25.3789" width="8.31532" height="8.31532" fill="black"/>
<path d="M33.9228 25.3789H42.2381V33.6942H37.9228C35.7136 33.6942 33.9228 31.9034 33.9228 29.6942V25.3789Z" fill="black"/>
<path d="M33.9228 46.0117C33.9228 43.8026 35.7137 42.0117 37.9228 42.0117H42.2381V50.327H37.9228C35.7136 50.327 33.9228 48.5362 33.9228 46.327V46.0117Z" fill="black"/>
<path d="M42.2377 42.0117H50.553V46.327C50.553 48.5362 48.7622 50.327 46.553 50.327H42.2377V42.0117Z" fill="black"/>
<rect x="42.2377" y="33.6953" width="8.31532" height="8.31532" fill="black"/>
<path d="M42.2377 3.43359C42.2377 1.77674 43.5809 0.433594 45.2377 0.433594H47.5531C49.2099 0.433594 50.553 1.77674 50.553 3.43359V5.74891C50.553 7.40577 49.2099 8.74891 47.553 8.74891H45.2377C43.5809 8.74891 42.2377 7.40576 42.2377 5.74891V3.43359Z" fill="black"/>
</svg>
