<svg width="51" height="51" viewBox="0 0 51 51" fill="none" xmlns="http://www.w3.org/2000/svg">
<rect x="0.888672" y="0.433472" width="49.8919" height="49.8919" fill="white"/>
<path d="M0.888672 2.43347C0.888672 1.3289 1.7841 0.433472 2.88867 0.433472H9.20399V8.74879H0.888672V2.43347Z" fill="black"/>
<path d="M0.888672 8.74878H9.20399V15.0641C9.20399 16.1687 8.30856 17.0641 7.20399 17.0641H0.888672V8.74878Z" fill="black"/>
<path d="M9.20312 0.433472H17.5184V6.74879C17.5184 7.85336 16.623 8.74879 15.5184 8.74879H9.20312V0.433472Z" fill="black"/>
<path d="M17.5195 10.7488C17.5195 9.64421 18.415 8.74878 19.5195 8.74878H25.8348V17.0641H17.5195V10.7488Z" fill="black"/>
<path d="M25.834 2.43347C25.834 1.3289 26.7294 0.433472 27.834 0.433472H34.1493V8.74879H25.834V2.43347Z" fill="black"/>
<rect x="25.834" y="8.74878" width="8.31532" height="8.31532" fill="black"/>
<rect x="25.834" y="17.0641" width="8.31532" height="8.31532" fill="black"/>
<path d="M9.20312 19.0641C9.20312 17.9595 10.0986 17.0641 11.2031 17.0641H17.5184V25.3794H9.20312V19.0641Z" fill="black"/>
<path d="M0.888672 27.3795C0.888672 26.2749 1.7841 25.3795 2.88867 25.3795H9.20399V33.6948H0.888672V27.3795Z" fill="black"/>
<rect x="0.888672" y="33.6948" width="8.31532" height="8.31532" fill="black"/>
<rect x="0.888672" y="42.01" width="8.31532" height="8.31532" fill="black"/>
<rect x="9.20312" y="42.01" width="8.31532" height="8.31532" fill="black"/>
<path d="M17.5195 42.01H25.8348V48.3253C25.8348 49.4299 24.9394 50.3253 23.8348 50.3253H17.5195V42.01Z" fill="black"/>
<rect x="17.5195" y="33.6948" width="8.31532" height="8.31532" fill="black"/>
<rect x="17.5195" y="25.3795" width="8.31532" height="8.31532" fill="black"/>
<rect x="9.20312" y="25.3795" width="8.31532" height="8.31532" fill="black"/>
<path d="M25.834 33.6948H34.1493V40.0101C34.1493 41.1147 33.2539 42.0101 32.1493 42.0101H25.834V33.6948Z" fill="black"/>
<rect x="34.1504" y="17.0641" width="8.31532" height="8.31532" fill="black"/>
<rect x="42.4648" y="17.0641" width="8.31532" height="8.31532" fill="black"/>
<rect x="42.4648" y="25.3795" width="8.31532" height="8.31532" fill="black"/>
<rect x="34.1504" y="25.3795" width="8.31532" height="8.31532" fill="black"/>
<path d="M34.1504 44.01C34.1504 42.9054 35.0458 42.01 36.1504 42.01H42.4657V50.3253H34.1504V44.01Z" fill="black"/>
<path d="M42.4648 42.01H50.7802V48.3253C50.7802 49.4299 49.8847 50.3253 48.7802 50.3253H42.4648V42.01Z" fill="black"/>
<rect x="42.4648" y="33.6948" width="8.31532" height="8.31532" fill="black"/>
<path d="M42.4648 2.43347C42.4648 1.3289 43.3603 0.433472 44.4648 0.433472H50.7802V6.74879C50.7802 7.85336 49.8847 8.74879 48.7802 8.74879H42.4648V2.43347Z" fill="black"/>
</svg>
