<svg width="51" height="51" viewBox="0 0 51 51" fill="none" xmlns="http://www.w3.org/2000/svg">
<path d="M0.661133 4.43347C0.661133 2.22433 2.45199 0.433472 4.66113 0.433472H8.97645V8.74879H0.661133V4.43347Z" fill="black"/>
<path d="M0.661133 8.74878H8.97645V13.0641C8.97645 15.2732 7.18559 17.0641 4.97645 17.0641H4.66113C2.45199 17.0641 0.661133 15.2732 0.661133 13.0641V8.74878Z" fill="black"/>
<path d="M8.97559 0.433472H13.2909C15.5 0.433472 17.2909 2.22433 17.2909 4.43347V4.74879C17.2909 6.95793 15.5 8.74879 13.2909 8.74879H8.97559V0.433472Z" fill="black"/>
<path d="M17.292 12.7488C17.292 10.5396 19.0829 8.74878 21.292 8.74878H25.6073V17.0641H21.292C19.0829 17.0641 17.292 15.2732 17.292 13.0641V12.7488Z" fill="black"/>
<path d="M25.6064 4.43347C25.6064 2.22433 27.3973 0.433472 29.6064 0.433472H29.9218C32.1309 0.433472 33.9218 2.22433 33.9218 4.43347V8.74879H25.6064V4.43347Z" fill="black"/>
<rect x="25.6064" y="8.74878" width="8.31532" height="8.31532" fill="black"/>
<path d="M25.6064 17.0641H33.9218V25.3794H29.6064C27.3973 25.3794 25.6064 23.5885 25.6064 21.3794V17.0641Z" fill="black"/>
<path d="M8.97559 21.0641C8.97559 18.8549 10.7664 17.0641 12.9756 17.0641H13.2909C15.5 17.0641 17.2909 18.8549 17.2909 21.0641V25.3794H8.97559V21.0641Z" fill="black"/>
<path d="M0.661133 29.3795C0.661133 27.1704 2.45199 25.3795 4.66113 25.3795H8.97645V33.6948H0.661133V29.3795Z" fill="black"/>
<rect x="0.661133" y="33.6948" width="8.31532" height="8.31532" fill="black"/>
<path d="M0.661133 42.01H8.97645V50.3253H4.66113C2.45199 50.3253 0.661133 48.5345 0.661133 46.3253V42.01Z" fill="black"/>
<rect x="8.97559" y="42.01" width="8.31532" height="8.31532" fill="black"/>
<path d="M17.292 42.01H25.6073V46.3253C25.6073 48.5345 23.8164 50.3253 21.6073 50.3253H17.292V42.01Z" fill="black"/>
<rect x="17.292" y="33.6948" width="8.31532" height="8.31532" fill="black"/>
<path d="M17.292 25.3795H21.6073C23.8165 25.3795 25.6073 27.1704 25.6073 29.3795V33.6948H17.292V25.3795Z" fill="black"/>
<rect x="8.97559" y="25.3795" width="8.31532" height="8.31532" fill="black"/>
<path d="M25.6064 33.6948H29.9218C32.1309 33.6948 33.9218 35.4857 33.9218 37.6948V38.0101C33.9218 40.2193 32.1309 42.0101 29.9218 42.0101H25.6064V33.6948Z" fill="black"/>
<rect x="33.9229" y="17.0641" width="8.31532" height="8.31532" fill="black"/>
<path d="M42.2373 17.0641H46.5526C48.7618 17.0641 50.5526 18.8549 50.5526 21.0641V25.3794H42.2373V17.0641Z" fill="black"/>
<rect x="42.2373" y="25.3795" width="8.31532" height="8.31532" fill="black"/>
<path d="M33.9229 25.3795H42.2382V33.6948H37.9228C35.7137 33.6948 33.9229 31.904 33.9229 29.6948V25.3795Z" fill="black"/>
<path d="M33.9229 46.01C33.9229 43.8009 35.7137 42.01 37.9229 42.01H42.2382V50.3253H37.9228C35.7137 50.3253 33.9229 48.5345 33.9229 46.3253V46.01Z" fill="black"/>
<path d="M42.2373 42.01H50.5526V46.3253C50.5526 48.5345 48.7618 50.3253 46.5526 50.3253H42.2373V42.01Z" fill="black"/>
<rect x="42.2373" y="33.6948" width="8.31532" height="8.31532" fill="black"/>
<path d="M42.2373 3.43347C42.2373 1.77662 43.5805 0.433472 45.2373 0.433472H47.5526C49.2095 0.433472 50.5526 1.77662 50.5526 3.43347V5.74879C50.5526 7.40564 49.2095 8.74879 47.5526 8.74879H45.2373C43.5804 8.74879 42.2373 7.40564 42.2373 5.74879V3.43347Z" fill="black"/>
</svg>
