<svg width="51" height="50" viewBox="0 0 51 50" fill="none" xmlns="http://www.w3.org/2000/svg">
<path d="M4.5 0L5.51031 3.10942H8.77975L6.13472 5.03115L7.14503 8.14058L4.5 6.21885L1.85497 8.14058L2.86528 5.03115L0.220246 3.10942H3.48969L4.5 0Z" fill="black"/>
<path d="M21 0L21.8981 3.10942H24.8042L22.4531 5.03115L23.3511 8.14058L21 6.21885L18.6489 8.14058L19.5469 5.03115L17.1958 3.10942H20.1019L21 0Z" fill="black"/>
<path d="M38 0L39.1226 3.10942H42.7553L39.8164 5.03115L40.9389 8.14058L38 6.21885L35.0611 8.14058L36.1836 5.03115L33.2447 3.10942H36.8774L38 0Z" fill="black"/>
<path d="M47 0L47.8981 3.10942H50.8042L48.4531 5.03115L49.3511 8.14058L47 6.21885L44.6489 8.14058L45.5469 5.03115L43.1958 3.10942H46.1019L47 0Z" fill="black"/>
<path d="M38 9L39.1226 11.7639H42.7553L39.8164 13.4721L40.9389 16.2361L38 14.5279L35.0611 16.2361L36.1836 13.4721L33.2447 11.7639H36.8774L38 9Z" fill="black"/>
<path d="M29 17L29.8981 19.7639H32.8042L30.4531 21.4721L31.3511 24.2361L29 22.5279L26.6489 24.2361L27.5469 21.4721L25.1958 19.7639H28.1019L29 17Z" fill="black"/>
<path d="M13 25L13.8981 28.1094H16.8042L14.4531 30.0312L15.3511 33.1406L13 31.2188L10.6489 33.1406L11.5469 30.0312L9.19577 28.1094H12.1019L13 25Z" fill="black"/>
<path d="M38 25L39.1226 28.1094H42.7553L39.8164 30.0312L40.9389 33.1406L38 31.2188L35.0611 33.1406L36.1836 30.0312L33.2447 28.1094H36.8774L38 25Z" fill="black"/>
<path d="M47 34L47.8981 36.7639H50.8042L48.4531 38.4721L49.3511 41.2361L47 39.5279L44.6489 41.2361L45.5469 38.4721L43.1958 36.7639H46.1019L47 34Z" fill="black"/>
<path d="M4.5 41L5.51031 44.1094H8.77975L6.13472 46.0312L7.14503 49.1406L4.5 47.2188L1.85497 49.1406L2.86528 46.0312L0.220246 44.1094H3.48969L4.5 41Z" fill="black"/>
<path d="M21 41L21.8981 44.1094H24.8042L22.4531 46.0312L23.3511 49.1406L21 47.2188L18.6489 49.1406L19.5469 46.0312L17.1958 44.1094H20.1019L21 41Z" fill="black"/>
<path d="M29 41L29.8981 44.1094H32.8042L30.4531 46.0312L31.3511 49.1406L29 47.2188L26.6489 49.1406L27.5469 46.0312L25.1958 44.1094H28.1019L29 41Z" fill="black"/>
<path d="M29 9L29.8981 11.7639H32.8042L30.4531 13.4721L31.3511 16.2361L29 14.5279L26.6489 16.2361L27.5469 13.4721L25.1958 11.7639H28.1019L29 9Z" fill="black"/>
<path d="M21 17L21.8981 19.7639H24.8042L22.4531 21.4721L23.3511 24.2361L21 22.5279L18.6489 24.2361L19.5469 21.4721L17.1958 19.7639H20.1019L21 17Z" fill="black"/>
<path d="M4.5 25L5.51031 28.1094H8.77975L6.13472 30.0312L7.14503 33.1406L4.5 31.2188L1.85497 33.1406L2.86528 30.0312L0.220246 28.1094H3.48969L4.5 25Z" fill="black"/>
<path d="M4.5 9L5.51031 11.7639H8.77975L6.13472 13.4721L7.14503 16.2361L4.5 14.5279L1.85497 16.2361L2.86528 13.4721L0.220246 11.7639H3.48969L4.5 9Z" fill="black"/>
</svg>
