<svg width="51" height="51" viewBox="0 0 51 51" fill="none" xmlns="http://www.w3.org/2000/svg">
<path d="M0.774414 4.43347C0.774414 2.22433 2.56528 0.433472 4.77441 0.433472H5.08973C7.29887 0.433472 9.08973 2.22433 9.08973 4.43347V4.74879C9.08973 6.95793 7.29887 8.74879 5.08973 8.74879H4.77441C2.56527 8.74879 0.774414 6.95793 0.774414 4.74879V4.43347Z" fill="black"/>
<path d="M0.774414 12.7488C0.774414 10.5396 2.56528 8.74878 4.77441 8.74878H5.08973C7.29887 8.74878 9.08973 10.5396 9.08973 12.7488V13.0641C9.08973 15.2732 7.29887 17.0641 5.08973 17.0641H4.77441C2.56527 17.0641 0.774414 15.2732 0.774414 13.0641V12.7488Z" fill="black"/>
<path d="M9.08887 4.43347C9.08887 2.22433 10.8797 0.433472 13.0889 0.433472H13.4042C15.6133 0.433472 17.4042 2.22433 17.4042 4.43347V4.74879C17.4042 6.95793 15.6133 8.74879 13.4042 8.74879H13.0889C10.8797 8.74879 9.08887 6.95793 9.08887 4.74879V4.43347Z" fill="black"/>
<path d="M17.4053 12.7488C17.4053 10.5396 19.1961 8.74878 21.4053 8.74878H21.7206C23.9297 8.74878 25.7206 10.5396 25.7206 12.7488V13.0641C25.7206 15.2732 23.9297 17.0641 21.7206 17.0641H21.4053C19.1961 17.0641 17.4053 15.2732 17.4053 13.0641V12.7488Z" fill="black"/>
<path d="M25.7197 4.43347C25.7197 2.22433 27.5106 0.433472 29.7197 0.433472H30.035C32.2442 0.433472 34.035 2.22433 34.035 4.43347V4.74879C34.035 6.95793 32.2442 8.74879 30.035 8.74879H29.7197C27.5106 8.74879 25.7197 6.95793 25.7197 4.74879V4.43347Z" fill="black"/>
<rect x="25.7197" y="8.74878" width="8.31532" height="8.31532" rx="4" fill="black"/>
<path d="M25.7197 21.0641C25.7197 18.8549 27.5106 17.0641 29.7197 17.0641H30.035C32.2442 17.0641 34.035 18.8549 34.035 21.0641V21.3794C34.035 23.5885 32.2442 25.3794 30.035 25.3794H29.7197C27.5106 25.3794 25.7197 23.5885 25.7197 21.3794V21.0641Z" fill="black"/>
<path d="M9.08887 21.0641C9.08887 18.8549 10.8797 17.0641 13.0889 17.0641H13.4042C15.6133 17.0641 17.4042 18.8549 17.4042 21.0641V21.3794C17.4042 23.5885 15.6133 25.3794 13.4042 25.3794H13.0889C10.8797 25.3794 9.08887 23.5885 9.08887 21.3794V21.0641Z" fill="black"/>
<path d="M0.774414 29.3795C0.774414 27.1704 2.56528 25.3795 4.77441 25.3795H5.08973C7.29887 25.3795 9.08973 27.1704 9.08973 29.3795V29.6948C9.08973 31.904 7.29887 33.6948 5.08973 33.6948H4.77441C2.56527 33.6948 0.774414 31.904 0.774414 29.6948V29.3795Z" fill="black"/>
<rect x="0.774414" y="33.6948" width="8.31532" height="8.31532" rx="4" fill="black"/>
<path d="M0.774414 46.01C0.774414 43.8009 2.56528 42.01 4.77441 42.01H5.08973C7.29887 42.01 9.08973 43.8009 9.08973 46.01V46.3253C9.08973 48.5345 7.29887 50.3253 5.08973 50.3253H4.77441C2.56527 50.3253 0.774414 48.5345 0.774414 46.3253V46.01Z" fill="black"/>
<rect x="9.08887" y="42.01" width="8.31532" height="8.31532" rx="4" fill="black"/>
<path d="M17.4053 46.01C17.4053 43.8009 19.1961 42.01 21.4053 42.01H21.7206C23.9297 42.01 25.7206 43.8009 25.7206 46.01V46.3253C25.7206 48.5345 23.9297 50.3253 21.7206 50.3253H21.4053C19.1961 50.3253 17.4053 48.5345 17.4053 46.3253V46.01Z" fill="black"/>
<rect x="17.4053" y="33.6948" width="8.31532" height="8.31532" rx="4" fill="black"/>
<path d="M17.4053 29.3795C17.4053 27.1704 19.1961 25.3795 21.4053 25.3795H21.7206C23.9297 25.3795 25.7206 27.1704 25.7206 29.3795V29.6948C25.7206 31.904 23.9297 33.6948 21.7206 33.6948H21.4053C19.1961 33.6948 17.4053 31.904 17.4053 29.6948V29.3795Z" fill="black"/>
<rect x="9.08887" y="25.3795" width="8.31532" height="8.31532" rx="4" fill="black"/>
<path d="M25.7197 37.6948C25.7197 35.4857 27.5106 33.6948 29.7197 33.6948H30.035C32.2442 33.6948 34.035 35.4857 34.035 37.6948V38.0101C34.035 40.2193 32.2442 42.0101 30.035 42.0101H29.7197C27.5106 42.0101 25.7197 40.2193 25.7197 38.0101V37.6948Z" fill="black"/>
<rect x="34.0361" y="17.0641" width="8.31532" height="8.31532" rx="4" fill="black"/>
<path d="M42.3506 21.0641C42.3506 18.8549 44.1414 17.0641 46.3506 17.0641H46.6659C48.875 17.0641 50.6659 18.8549 50.6659 21.0641V21.3794C50.6659 23.5885 48.875 25.3794 46.6659 25.3794H46.3506C44.1414 25.3794 42.3506 23.5885 42.3506 21.3794V21.0641Z" fill="black"/>
<rect x="42.3506" y="25.3795" width="8.31532" height="8.31532" rx="4" fill="black"/>
<path d="M34.0361 29.3795C34.0361 27.1704 35.827 25.3795 38.0361 25.3795H38.3515C40.5606 25.3795 42.3514 27.1704 42.3514 29.3795V29.6948C42.3514 31.904 40.5606 33.6948 38.3514 33.6948H38.0361C35.827 33.6948 34.0361 31.904 34.0361 29.6948V29.3795Z" fill="black"/>
<path d="M34.0361 46.01C34.0361 43.8009 35.827 42.01 38.0361 42.01H38.3515C40.5606 42.01 42.3514 43.8009 42.3514 46.01V46.3253C42.3514 48.5345 40.5606 50.3253 38.3514 50.3253H38.0361C35.827 50.3253 34.0361 48.5345 34.0361 46.3253V46.01Z" fill="black"/>
<path d="M42.3506 46.01C42.3506 43.8009 44.1414 42.01 46.3506 42.01H46.6659C48.875 42.01 50.6659 43.8009 50.6659 46.01V46.3253C50.6659 48.5345 48.875 50.3253 46.6659 50.3253H46.3506C44.1414 50.3253 42.3506 48.5345 42.3506 46.3253V46.01Z" fill="black"/>
<rect x="42.3506" y="33.6948" width="8.31532" height="8.31532" rx="4" fill="black"/>
<path d="M42.3506 4.43347C42.3506 2.22433 44.1414 0.433472 46.3506 0.433472H46.6659C48.875 0.433472 50.6659 2.22433 50.6659 4.43347V4.74879C50.6659 6.95793 48.875 8.74879 46.6659 8.74879H46.3506C44.1414 8.74879 42.3506 6.95793 42.3506 4.74879V4.43347Z" fill="black"/>
</svg>
