<svg width="51" height="51" viewBox="0 0 51 51" fill="none" xmlns="http://www.w3.org/2000/svg">
<path d="M0.546875 2.43347C0.546875 1.3289 1.44231 0.433472 2.54688 0.433472H8.86219V8.74879H0.546875V2.43347Z" fill="black"/>
<path d="M0.546875 8.74878H8.86219V15.0641C8.86219 16.1687 7.96676 17.0641 6.86219 17.0641H2.54687C1.4423 17.0641 0.546875 16.1687 0.546875 15.0641V8.74878Z" fill="black"/>
<path d="M8.86133 0.433472H15.1766C16.2812 0.433472 17.1766 1.3289 17.1766 2.43347V6.74879C17.1766 7.85336 16.2812 8.74879 15.1766 8.74879H8.86133V0.433472Z" fill="black"/>
<path d="M17.1777 10.7488C17.1777 9.64421 18.0732 8.74878 19.1777 8.74878H25.4931V17.0641H19.1777C18.0732 17.0641 17.1777 16.1687 17.1777 15.0641V10.7488Z" fill="black"/>
<path d="M25.4922 2.43347C25.4922 1.3289 26.3876 0.433472 27.4922 0.433472H31.8075C32.9121 0.433472 33.8075 1.3289 33.8075 2.43347V8.74879H25.4922V2.43347Z" fill="black"/>
<rect x="25.4922" y="8.74878" width="8.31532" height="8.31532" fill="black"/>
<path d="M25.4922 17.0641H33.8075V25.3794H27.4922C26.3876 25.3794 25.4922 24.484 25.4922 23.3794V17.0641Z" fill="black"/>
<path d="M8.86133 19.0641C8.86133 17.9595 9.75676 17.0641 10.8613 17.0641H15.1766C16.2812 17.0641 17.1766 17.9595 17.1766 19.0641V25.3794H8.86133V19.0641Z" fill="black"/>
<path d="M0.546875 27.3795C0.546875 26.2749 1.44231 25.3795 2.54688 25.3795H8.86219V33.6948H0.546875V27.3795Z" fill="black"/>
<rect x="0.546875" y="33.6948" width="8.31532" height="8.31532" fill="black"/>
<path d="M0.546875 42.01H8.86219V50.3253H2.54687C1.4423 50.3253 0.546875 49.4299 0.546875 48.3253V42.01Z" fill="black"/>
<rect x="8.86133" y="42.01" width="8.31532" height="8.31532" fill="black"/>
<path d="M17.1777 42.01H25.4931V48.3253C25.4931 49.4299 24.5976 50.3253 23.4931 50.3253H17.1777V42.01Z" fill="black"/>
<rect x="17.1777" y="33.6948" width="8.31532" height="8.31532" fill="black"/>
<path d="M17.1777 25.3795H23.4931C24.5976 25.3795 25.4931 26.2749 25.4931 27.3795V33.6948H17.1777V25.3795Z" fill="black"/>
<rect x="8.86133" y="25.3795" width="8.31532" height="8.31532" fill="black"/>
<path d="M25.4922 33.6948H31.8075C32.9121 33.6948 33.8075 34.5903 33.8075 35.6948V40.0101C33.8075 41.1147 32.9121 42.0101 31.8075 42.0101H25.4922V33.6948Z" fill="black"/>
<rect x="33.8086" y="17.0641" width="8.31532" height="8.31532" fill="black"/>
<path d="M42.123 17.0641H48.4384C49.5429 17.0641 50.4384 17.9595 50.4384 19.0641V25.3794H42.123V17.0641Z" fill="black"/>
<rect x="42.123" y="25.3795" width="8.31532" height="8.31532" fill="black"/>
<path d="M33.8086 25.3795H42.1239V33.6948H35.8086C34.704 33.6948 33.8086 32.7994 33.8086 31.6948V25.3795Z" fill="black"/>
<path d="M33.8086 44.01C33.8086 42.9054 34.704 42.01 35.8086 42.01H42.1239V50.3253H35.8086C34.704 50.3253 33.8086 49.4299 33.8086 48.3253V44.01Z" fill="black"/>
<path d="M42.123 42.01H50.4384V48.3253C50.4384 49.4299 49.5429 50.3253 48.4384 50.3253H42.123V42.01Z" fill="black"/>
<rect x="42.123" y="33.6948" width="8.31532" height="8.31532" fill="black"/>
<rect x="42.123" y="0.433472" width="8.31532" height="8.31532" rx="2" fill="black"/>
</svg>
