<svg width="51" height="51" viewBox="0 0 51 51" fill="none" xmlns="http://www.w3.org/2000/svg">
<rect x="0.433594" y="0.433472" width="8.31532" height="8.31532" fill="black"/>
<rect x="0.433594" y="8.74878" width="8.31532" height="8.31532" fill="black"/>
<rect x="8.74805" y="0.433472" width="8.31532" height="8.31532" fill="black"/>
<rect x="17.0645" y="8.74878" width="8.31532" height="8.31532" fill="black"/>
<rect x="25.3789" y="0.433472" width="8.31532" height="8.31532" fill="black"/>
<rect x="25.3789" y="8.74878" width="8.31532" height="8.31532" fill="black"/>
<rect x="25.3789" y="17.0641" width="8.31532" height="8.31532" fill="black"/>
<rect x="8.74805" y="17.0641" width="8.31532" height="8.31532" fill="black"/>
<rect x="0.433594" y="25.3795" width="8.31532" height="8.31532" fill="black"/>
<rect x="0.433594" y="33.6948" width="8.31532" height="8.31532" fill="black"/>
<rect x="0.433594" y="42.01" width="8.31532" height="8.31532" fill="black"/>
<rect x="8.74805" y="42.01" width="8.31532" height="8.31532" fill="black"/>
<rect x="17.0645" y="42.01" width="8.31532" height="8.31532" fill="black"/>
<rect x="17.0645" y="33.6948" width="8.31532" height="8.31532" fill="black"/>
<rect x="17.0645" y="25.3795" width="8.31532" height="8.31532" fill="black"/>
<rect x="8.74805" y="25.3795" width="8.31532" height="8.31532" fill="black"/>
<rect x="25.3789" y="33.6948" width="8.31532" height="8.31532" fill="black"/>
<rect x="33.6953" y="17.0641" width="8.31532" height="8.31532" fill="black"/>
<rect x="42.0098" y="17.0641" width="8.31532" height="8.31532" fill="black"/>
<rect x="42.0098" y="25.3795" width="8.31532" height="8.31532" fill="black"/>
<rect x="33.6953" y="25.3795" width="8.31532" height="8.31532" fill="black"/>
<rect x="33.6953" y="42.01" width="8.31532" height="8.31532" fill="black"/>
<rect x="42.0098" y="42.01" width="8.31532" height="8.31532" fill="black"/>
<rect x="42.0098" y="33.6948" width="8.31532" height="8.31532" fill="black"/>
<rect x="42.0098" y="0.433472" width="8.31532" height="8.31532" fill="black"/>
</svg>
