<svg width="50" height="50" viewBox="0 0 50 50" fill="none" xmlns="http://www.w3.org/2000/svg">
<path d="M2.78198 0.4375C2.78198 0.195508 2.99589 0 3.26066 0H3.73934C4.00411 0 4.21801 0.195508 4.21801 0.4375V2.36387L6.04297 1.40137C6.27184 1.28105 6.56503 1.35215 6.69666 1.56133L6.936 1.94004C7.06764 2.14922 6.98985 2.41719 6.76098 2.5375L4.93603 3.5L6.76098 4.4625C6.98985 4.58281 7.06764 4.85078 6.936 5.05996L6.69666 5.43867C6.56503 5.64785 6.27184 5.72031 6.04297 5.59863L4.21801 4.63613V6.5625C4.21801 6.80449 4.00411 7 3.73934 7H3.26066C2.99589 7 2.78198 6.80449 2.78198 6.5625V4.63613L0.95703 5.6C0.728163 5.72031 0.434973 5.64922 0.303337 5.44004L0.0639986 5.06133C-0.0676375 4.85215 0.0101475 4.58418 0.239015 4.46387L2.06397 3.5L0.239015 2.5375C0.0101475 2.41719 -0.0676375 2.14922 0.0639986 1.94004L0.303337 1.56133C0.434973 1.35078 0.728163 1.27969 0.95703 1.4L2.78198 2.3625V0.4375Z" fill="black"/>
<path d="M2.78198 9.4375C2.78198 9.19551 2.99589 9 3.26066 9H3.73934C4.00411 9 4.21801 9.19551 4.21801 9.4375V11.3639L6.04297 10.4014C6.27184 10.2811 6.56503 10.3521 6.69666 10.5613L6.936 10.94C7.06764 11.1492 6.98985 11.4172 6.76098 11.5375L4.93603 12.5L6.76098 13.4625C6.98985 13.5828 7.06764 13.8508 6.936 14.06L6.69666 14.4387C6.56503 14.6479 6.27184 14.7203 6.04297 14.5986L4.21801 13.6361V15.5625C4.21801 15.8045 4.00411 16 3.73934 16H3.26066C2.99589 16 2.78198 15.8045 2.78198 15.5625V13.6361L0.95703 14.6C0.728163 14.7203 0.434973 14.6492 0.303337 14.44L0.0639986 14.0613C-0.0676375 13.8521 0.0101475 13.5842 0.239015 13.4639L2.06397 12.5L0.239015 11.5375C0.0101475 11.4172 -0.0676375 11.1492 0.0639986 10.94L0.303337 10.5613C0.434973 10.3508 0.728163 10.2797 0.95703 10.4L2.78198 11.3625V9.4375Z" fill="black"/>
<path d="M19.782 17.5C19.782 17.2234 19.9959 17 20.2607 17H20.7393C21.0041 17 21.218 17.2234 21.218 17.5V19.7016L23.043 18.6016C23.2718 18.4641 23.565 18.5453 23.6967 18.7844L23.936 19.2172C24.0676 19.4562 23.9899 19.7625 23.761 19.9L21.936 21L23.761 22.1C23.9899 22.2375 24.0676 22.5438 23.936 22.7828L23.6967 23.2156C23.565 23.4547 23.2718 23.5375 23.043 23.3984L21.218 22.2984V24.5C21.218 24.7766 21.0041 25 20.7393 25H20.2607C19.9959 25 19.782 24.7766 19.782 24.5V22.2984L17.957 23.4C17.7282 23.5375 17.435 23.4562 17.3033 23.2172L17.064 22.7844C16.9324 22.5453 17.0101 22.2391 17.239 22.1016L19.064 21L17.239 19.9C17.0101 19.7625 16.9324 19.4562 17.064 19.2172L17.3033 18.7844C17.435 18.5437 17.7282 18.4625 17.957 18.6L19.782 19.7V17.5Z" fill="black"/>
<path d="M2.78198 27.5C2.78198 27.2234 2.99589 27 3.26066 27H3.73934C4.00411 27 4.21801 27.2234 4.21801 27.5V29.7016L6.04297 28.6016C6.27184 28.4641 6.56503 28.5453 6.69666 28.7844L6.936 29.2172C7.06764 29.4562 6.98985 29.7625 6.76098 29.9L4.93603 31L6.76098 32.1C6.98985 32.2375 7.06764 32.5438 6.936 32.7828L6.69666 33.2156C6.56503 33.4547 6.27184 33.5375 6.04297 33.3984L4.21801 32.2984V34.5C4.21801 34.7766 4.00411 35 3.73934 35H3.26066C2.99589 35 2.78198 34.7766 2.78198 34.5V32.2984L0.95703 33.4C0.728163 33.5375 0.434973 33.4562 0.303337 33.2172L0.0639986 32.7844C-0.0676375 32.5453 0.0101475 32.2391 0.239015 32.1016L2.06397 31L0.239015 29.9C0.0101475 29.7625 -0.0676375 29.4562 0.0639986 29.2172L0.303337 28.7844C0.434973 28.5437 0.728163 28.4625 0.95703 28.6L2.78198 29.7V27.5Z" fill="black"/>
<path d="M9.78198 27.5C9.78198 27.2234 9.99589 27 10.2607 27H10.7393C11.0041 27 11.218 27.2234 11.218 27.5V29.7016L13.043 28.6016C13.2718 28.4641 13.565 28.5453 13.6967 28.7844L13.936 29.2172C14.0676 29.4562 13.9899 29.7625 13.761 29.9L11.936 31L13.761 32.1C13.9899 32.2375 14.0676 32.5438 13.936 32.7828L13.6967 33.2156C13.565 33.4547 13.2718 33.5375 13.043 33.3984L11.218 32.2984V34.5C11.218 34.7766 11.0041 35 10.7393 35H10.2607C9.99589 35 9.78198 34.7766 9.78198 34.5V32.2984L7.95703 33.4C7.72816 33.5375 7.43497 33.4562 7.30334 33.2172L7.064 32.7844C6.93236 32.5453 7.01015 32.2391 7.23901 32.1016L9.06397 31L7.23901 29.9C7.01015 29.7625 6.93236 29.4562 7.064 29.2172L7.30334 28.7844C7.43497 28.5437 7.72816 28.4625 7.95703 28.6L9.78198 29.7V27.5Z" fill="black"/>
<path d="M34.1794 27.5C34.1794 27.2234 34.4239 27 34.7265 27H35.2735C35.5761 27 35.8206 27.2234 35.8206 27.5V29.7016L37.9063 28.6016C38.1678 28.4641 38.5029 28.5453 38.6533 28.7844L38.9269 29.2172C39.0773 29.4562 38.9884 29.7625 38.7268 29.9L36.6412 31L38.7268 32.1C38.9884 32.2375 39.0773 32.5438 38.9269 32.7828L38.6533 33.2156C38.5029 33.4547 38.1678 33.5375 37.9063 33.3984L35.8206 32.2984V34.5C35.8206 34.7766 35.5761 35 35.2735 35H34.7265C34.4239 35 34.1794 34.7766 34.1794 34.5V32.2984L32.0937 33.4C31.8322 33.5375 31.4971 33.4562 31.3467 33.2172L31.0731 32.7844C30.9227 32.5453 31.0116 32.2391 31.2732 32.1016L33.3588 31L31.2732 29.9C31.0116 29.7625 30.9227 29.4562 31.0731 29.2172L31.3467 28.7844C31.4971 28.5437 31.8322 28.4625 32.0937 28.6L34.1794 29.7V27.5Z" fill="black"/>
<path d="M43.782 35.4375C43.782 35.1955 43.9959 35 44.2607 35H44.7393C45.0041 35 45.218 35.1955 45.218 35.4375V37.3639L47.043 36.4014C47.2718 36.2811 47.565 36.3521 47.6967 36.5613L47.936 36.94C48.0676 37.1492 47.9899 37.4172 47.761 37.5375L45.936 38.5L47.761 39.4625C47.9899 39.5828 48.0676 39.8508 47.936 40.06L47.6967 40.4387C47.565 40.6479 47.2718 40.7203 47.043 40.5986L45.218 39.6361V41.5625C45.218 41.8045 45.0041 42 44.7393 42H44.2607C43.9959 42 43.782 41.8045 43.782 41.5625V39.6361L41.957 40.6C41.7282 40.7203 41.435 40.6492 41.3033 40.44L41.064 40.0613C40.9324 39.8521 41.0101 39.5842 41.239 39.4639L43.064 38.5L41.239 37.5375C41.0101 37.4172 40.9324 37.1492 41.064 36.94L41.3033 36.5613C41.435 36.3508 41.7282 36.2797 41.957 36.4L43.782 37.3625V35.4375Z" fill="black"/>
<path d="M2.78198 43.4375C2.78198 43.1955 2.99589 43 3.26066 43H3.73934C4.00411 43 4.21801 43.1955 4.21801 43.4375V45.3639L6.04297 44.4014C6.27184 44.2811 6.56503 44.3521 6.69666 44.5613L6.936 44.94C7.06764 45.1492 6.98985 45.4172 6.76098 45.5375L4.93603 46.5L6.76098 47.4625C6.98985 47.5828 7.06764 47.8508 6.936 48.06L6.69666 48.4387C6.56503 48.6479 6.27184 48.7203 6.04297 48.5986L4.21801 47.6361V49.5625C4.21801 49.8045 4.00411 50 3.73934 50H3.26066C2.99589 50 2.78198 49.8045 2.78198 49.5625V47.6361L0.95703 48.6C0.728163 48.7203 0.434973 48.6492 0.303337 48.44L0.0639986 48.0613C-0.0676375 47.8521 0.0101475 47.5842 0.239015 47.4639L2.06397 46.5L0.239015 45.5375C0.0101475 45.4172 -0.0676375 45.1492 0.0639986 44.94L0.303337 44.5613C0.434973 44.3508 0.728163 44.2797 0.95703 44.4L2.78198 45.3625V43.4375Z" fill="black"/>
<path d="M19.782 43.4375C19.782 43.1955 19.9959 43 20.2607 43H20.7393C21.0041 43 21.218 43.1955 21.218 43.4375V45.3639L23.043 44.4014C23.2718 44.2811 23.565 44.3521 23.6967 44.5613L23.936 44.94C24.0676 45.1492 23.9899 45.4172 23.761 45.5375L21.936 46.5L23.761 47.4625C23.9899 47.5828 24.0676 47.8508 23.936 48.06L23.6967 48.4387C23.565 48.6479 23.2718 48.7203 23.043 48.5986L21.218 47.6361V49.5625C21.218 49.8045 21.0041 50 20.7393 50H20.2607C19.9959 50 19.782 49.8045 19.782 49.5625V47.6361L17.957 48.6C17.7282 48.7203 17.435 48.6492 17.3033 48.44L17.064 48.0613C16.9324 47.8521 17.0101 47.5842 17.239 47.4639L19.064 46.5L17.239 45.5375C17.0101 45.4172 16.9324 45.1492 17.064 44.94L17.3033 44.5613C17.435 44.3508 17.7282 44.2797 17.957 44.4L19.782 45.3625V43.4375Z" fill="black"/>
<path d="M27.1794 43.4375C27.1794 43.1955 27.4239 43 27.7265 43H28.2735C28.5761 43 28.8206 43.1955 28.8206 43.4375V45.3639L30.9063 44.4014C31.1678 44.2811 31.5029 44.3521 31.6533 44.5613L31.9269 44.94C32.0773 45.1492 31.9884 45.4172 31.7268 45.5375L29.6412 46.5L31.7268 47.4625C31.9884 47.5828 32.0773 47.8508 31.9269 48.06L31.6533 48.4387C31.5029 48.6479 31.1678 48.7203 30.9063 48.5986L28.8206 47.6361V49.5625C28.8206 49.8045 28.5761 50 28.2735 50H27.7265C27.4239 50 27.1794 49.8045 27.1794 49.5625V47.6361L25.0937 48.6C24.8322 48.7203 24.4971 48.6492 24.3467 48.44L24.0731 48.0613C23.9227 47.8521 24.0116 47.5842 24.2732 47.4639L26.3588 46.5L24.2732 45.5375C24.0116 45.4172 23.9227 45.1492 24.0731 44.94L24.3467 44.5613C24.4971 44.3508 24.8322 44.2797 25.0937 44.4L27.1794 45.3625V43.4375Z" fill="black"/>
<path d="M31.1794 8.4375C31.1794 8.19551 31.4239 8 31.7265 8H32.2735C32.5761 8 32.8206 8.19551 32.8206 8.4375V10.3639L34.9063 9.40137C35.1678 9.28105 35.5029 9.35215 35.6533 9.56133L35.9269 9.94004C36.0773 10.1492 35.9884 10.4172 35.7268 10.5375L33.6412 11.5L35.7268 12.4625C35.9884 12.5828 36.0773 12.8508 35.9269 13.06L35.6533 13.4387C35.5029 13.6479 35.1678 13.7203 34.9063 13.5986L32.8206 12.6361V14.5625C32.8206 14.8045 32.5761 15 32.2735 15H31.7265C31.4239 15 31.1794 14.8045 31.1794 14.5625V12.6361L29.0937 13.6C28.8322 13.7203 28.4971 13.6492 28.3467 13.44L28.0731 13.0613C27.9227 12.8521 28.0116 12.5842 28.2732 12.4639L30.3588 11.5L28.2732 10.5375C28.0116 10.4172 27.9227 10.1492 28.0731 9.94004L28.3467 9.56133C28.4971 9.35078 28.8322 9.27969 29.0937 9.4L31.1794 10.3625V8.4375Z" fill="black"/>
<path d="M38.782 8.4375C38.782 8.19551 38.9959 8 39.2607 8H39.7393C40.0041 8 40.218 8.19551 40.218 8.4375V10.3639L42.043 9.40137C42.2718 9.28105 42.565 9.35215 42.6967 9.56133L42.936 9.94004C43.0676 10.1492 42.9899 10.4172 42.761 10.5375L40.936 11.5L42.761 12.4625C42.9899 12.5828 43.0676 12.8508 42.936 13.06L42.6967 13.4387C42.565 13.6479 42.2718 13.7203 42.043 13.5986L40.218 12.6361V14.5625C40.218 14.8045 40.0041 15 39.7393 15H39.2607C38.9959 15 38.782 14.8045 38.782 14.5625V12.6361L36.957 13.6C36.7282 13.7203 36.435 13.6492 36.3033 13.44L36.064 13.0613C35.9324 12.8521 36.0101 12.5842 36.239 12.4639L38.064 11.5L36.239 10.5375C36.0101 10.4172 35.9324 10.1492 36.064 9.94004L36.3033 9.56133C36.435 9.35078 36.7282 9.27969 36.957 9.4L38.782 10.3625V8.4375Z" fill="black"/>
<path d="M19.782 0.4375C19.782 0.195508 19.9959 0 20.2607 0H20.7393C21.0041 0 21.218 0.195508 21.218 0.4375V2.36387L23.043 1.40137C23.2718 1.28105 23.565 1.35215 23.6967 1.56133L23.936 1.94004C24.0676 2.14922 23.9899 2.41719 23.761 2.5375L21.936 3.5L23.761 4.4625C23.9899 4.58281 24.0676 4.85078 23.936 5.05996L23.6967 5.43867C23.565 5.64785 23.2718 5.72031 23.043 5.59863L21.218 4.63613V6.5625C21.218 6.80449 21.0041 7 20.7393 7H20.2607C19.9959 7 19.782 6.80449 19.782 6.5625V4.63613L17.957 5.6C17.7282 5.72031 17.435 5.64922 17.3033 5.44004L17.064 5.06133C16.9324 4.85215 17.0101 4.58418 17.239 4.46387L19.064 3.5L17.239 2.5375C17.0101 2.41719 16.9324 2.14922 17.064 1.94004L17.3033 1.56133C17.435 1.35078 17.7282 1.27969 17.957 1.4L19.782 2.3625V0.4375Z" fill="black"/>
<path d="M45.782 0.4375C45.782 0.195508 45.9959 0 46.2607 0H46.7393C47.0041 0 47.218 0.195508 47.218 0.4375V2.36387L49.043 1.40137C49.2718 1.28105 49.565 1.35215 49.6967 1.56133L49.936 1.94004C50.0676 2.14922 49.9899 2.41719 49.761 2.5375L47.936 3.5L49.761 4.4625C49.9899 4.58281 50.0676 4.85078 49.936 5.05996L49.6967 5.43867C49.565 5.64785 49.2718 5.72031 49.043 5.59863L47.218 4.63613V6.5625C47.218 6.80449 47.0041 7 46.7393 7H46.2607C45.9959 7 45.782 6.80449 45.782 6.5625V4.63613L43.957 5.6C43.7282 5.72031 43.435 5.64922 43.3033 5.44004L43.064 5.06133C42.9324 4.85215 43.0101 4.58418 43.239 4.46387L45.064 3.5L43.239 2.5375C43.0101 2.41719 42.9324 2.14922 43.064 1.94004L43.3033 1.56133C43.435 1.35078 43.7282 1.27969 43.957 1.4L45.782 2.3625V0.4375Z" fill="black"/>
<path d="M38.782 0.4375C38.782 0.195508 38.9959 0 39.2607 0H39.7393C40.0041 0 40.218 0.195508 40.218 0.4375V2.36387L42.043 1.40137C42.2718 1.28105 42.565 1.35215 42.6967 1.56133L42.936 1.94004C43.0676 2.14922 42.9899 2.41719 42.761 2.5375L40.936 3.5L42.761 4.4625C42.9899 4.58281 43.0676 4.85078 42.936 5.05996L42.6967 5.43867C42.565 5.64785 42.2718 5.72031 42.043 5.59863L40.218 4.63613V6.5625C40.218 6.80449 40.0041 7 39.7393 7H39.2607C38.9959 7 38.782 6.80449 38.782 6.5625V4.63613L36.957 5.6C36.7282 5.72031 36.435 5.64922 36.3033 5.44004L36.064 5.06133C35.9324 4.85215 36.0101 4.58418 36.239 4.46387L38.064 3.5L36.239 2.5375C36.0101 2.41719 35.9324 2.14922 36.064 1.94004L36.3033 1.56133C36.435 1.35078 36.7282 1.27969 36.957 1.4L38.782 2.3625V0.4375Z" fill="black"/>
</svg>
