<svg width="52" height="52" viewBox="0 0 52 52" fill="none" xmlns="http://www.w3.org/2000/svg">
<path d="M26 13V21.3478L30.3478 25L34.1522 21.3478V17.1739H38.5L42.8478 13V8.82609H47.7391L51 4.65217L47.1957 1H38.5L34.6957 4.65217V9.34783H29.8043L26 13Z" fill="black" stroke="black"/>
<rect x="38.1543" y="25.3401" width="6.48891" height="6.48891" transform="rotate(45 38.1543 25.3401)" fill="black"/>
<rect x="46.4688" y="33.6554" width="6.48891" height="6.48891" transform="rotate(45 46.4688 33.6554)" fill="black"/>
<path d="M21.3478 1H4.65217L1 5.26667V13.2667L5.17391 17L8.82609 13.8V8.46667H21.3478L25 4.73333L21.3478 1Z" fill="black" stroke="black"/>
<path d="M5.17391 51L1 47.2766V30.2553L4.65217 26H21.3478L25.5217 30.2553V43.5532H33.8696L37 47.2766L33.8696 51H21.3478L17.6957 47.2766V34.5106H8.82609V47.2766L5.17391 51Z" fill="black" stroke="black"/>
</svg>
