<svg width="56" height="60" viewBox="0 0 56 60" fill="none" xmlns="http://www.w3.org/2000/svg">
<path d="M4.27273 14.4773V6.06818H6.81818V14.4773H4.27273ZM1.34091 11.5455V9H9.75V11.5455H1.34091Z" fill="black"/>
<path d="M4.27273 23.4773V15.0682H6.81818V23.4773H4.27273ZM1.34091 20.5455V18H9.75V20.5455H1.34091Z" fill="black"/>
<path d="M28.2727 23.4773V15.0682H30.8182V23.4773H28.2727ZM25.3409 20.5455V18H33.75V20.5455H25.3409Z" fill="black"/>
<path d="M14.2727 42.4773V34.0682H16.8182V42.4773H14.2727ZM11.3409 39.5455V37H19.75V39.5455H11.3409Z" fill="black"/>
<path d="M38.2727 42.4773V34.0682H40.8182V42.4773H38.2727ZM35.3409 39.5455V37H43.75V39.5455H35.3409Z" fill="black"/>
<path d="M46.2727 52.4773V44.0682H48.8182V52.4773H46.2727ZM43.3409 49.5455V47H51.75V49.5455H43.3409Z" fill="black"/>
<path d="M21.2727 55.4773V47.0682H23.8182V55.4773H21.2727ZM18.3409 52.5455V50H26.75V52.5455H18.3409Z" fill="black"/>
<path d="M30.2727 55.4773V47.0682H32.8182V55.4773H30.2727ZM27.3409 52.5455V50H35.75V52.5455H27.3409Z" fill="black"/>
<path d="M21.2727 32.4773V24.0682H23.8182V32.4773H21.2727ZM18.3409 29.5455V27H26.75V29.5455H18.3409Z" fill="black"/>
<path d="M4.27273 42.4773V34.0682H6.81818V42.4773H4.27273ZM1.34091 39.5455V37H9.75V39.5455H1.34091Z" fill="black"/>
<path d="M4.27273 55.4773V47.0682H6.81818V55.4773H4.27273ZM1.34091 52.5455V50H9.75V52.5455H1.34091Z" fill="black"/>
<path d="M38.2727 23.4773V15.0682H40.8182V23.4773H38.2727ZM35.3409 20.5455V18H43.75V20.5455H35.3409Z" fill="black"/>
<path d="M21.2727 14.4773V6.06818H23.8182V14.4773H21.2727ZM18.3409 11.5455V9H26.75V11.5455H18.3409Z" fill="black"/>
<path d="M38.2727 14.4773V6.06818H40.8182V14.4773H38.2727ZM35.3409 11.5455V9H43.75V11.5455H35.3409Z" fill="black"/>
<path d="M48.2727 14.4773V6.06818H50.8182V14.4773H48.2727ZM45.3409 11.5455V9H53.75V11.5455H45.3409Z" fill="black"/>
</svg>
