<svg width="51" height="51" viewBox="0 0 51 51" fill="none" xmlns="http://www.w3.org/2000/svg">
<rect x="5.27344" y="0.0202637" width="6.23649" height="6.23649" transform="rotate(45 5.27344 0.0202637)" fill="black"/>
<rect x="45.8115" y="0.0202637" width="6.23649" height="6.23649" transform="rotate(45 45.8115 0.0202637)" fill="black"/>
<rect x="45.8115" y="36.3998" width="6.23649" height="6.23649" transform="rotate(45 45.8115 36.3998)" fill="black"/>
<rect x="36.4561" y="0.0202637" width="6.23649" height="6.23649" transform="rotate(45 36.4561 0.0202637)" fill="black"/>
<rect x="36.4561" y="9.375" width="6.23649" height="6.23649" transform="rotate(45 36.4561 9.375)" fill="black"/>
<rect x="20.4336" y="0.0202637" width="6.23649" height="6.23649" transform="rotate(45 20.4336 0.0202637)" fill="black"/>
<rect x="5.27344" y="9.375" width="6.23649" height="6.23649" transform="rotate(45 5.27344 9.375)" fill="black"/>
<rect x="26.6709" y="9.375" width="6.23649" height="6.23649" transform="rotate(45 26.6709 9.375)" fill="black"/>
<rect x="26.6709" y="18.7297" width="6.23649" height="6.23649" transform="rotate(45 26.6709 18.7297)" fill="black"/>
<rect x="14.1973" y="28.0845" width="6.23649" height="6.23649" transform="rotate(45 14.1973 28.0845)" fill="black"/>
<rect x="37.0645" y="28.0845" width="6.23649" height="6.23649" transform="rotate(45 37.0645 28.0845)" fill="black"/>
<rect x="17.3164" y="18.7297" width="6.23649" height="6.23649" transform="rotate(45 17.3164 18.7297)" fill="black"/>
<rect x="4.84277" y="28.0845" width="6.23649" height="6.23649" transform="rotate(45 4.84277 28.0845)" fill="black"/>
<rect x="4.84277" y="41.5969" width="6.23649" height="6.23649" transform="rotate(45 4.84277 41.5969)" fill="black"/>
<rect x="19.3945" y="41.5969" width="6.23649" height="6.23649" transform="rotate(45 19.3945 41.5969)" fill="black"/>
<rect x="28.75" y="41.5969" width="6.23649" height="6.23649" transform="rotate(45 28.75 41.5969)" fill="black"/>
</svg>
