<svg width="50" height="51" viewBox="0 0 50 51" fill="none" xmlns="http://www.w3.org/2000/svg">
<path d="M0.00292969 4.43347C0.00292969 2.22433 1.79379 0.433472 4.00293 0.433472H8.31825V8.74879H0.00292969V4.43347Z" fill="black"/>
<path d="M0.00292969 8.74878H8.31825V13.0641C8.31825 15.2732 6.52739 17.0641 4.31825 17.0641H0.00292969V8.74878Z" fill="black"/>
<rect x="8.31738" y="0.433472" width="8.31532" height="8.31532" fill="black"/>
<rect x="16.6338" y="8.74878" width="8.31532" height="8.31532" fill="black"/>
<rect x="24.9482" y="0.433472" width="8.31532" height="8.31532" fill="black"/>
<rect x="24.9482" y="8.74878" width="8.31532" height="8.31532" fill="black"/>
<rect x="24.9482" y="17.0641" width="8.31532" height="8.31532" fill="black"/>
<rect x="8.31738" y="17.0641" width="8.31532" height="8.31532" fill="black"/>
<rect x="0.00292969" y="25.3795" width="8.31532" height="8.31532" fill="black"/>
<rect x="0.00292969" y="33.6948" width="8.31532" height="8.31532" fill="black"/>
<rect x="0.00292969" y="42.01" width="8.31532" height="8.31532" fill="black"/>
<rect x="8.31738" y="42.01" width="8.31532" height="8.31532" fill="black"/>
<rect x="16.6338" y="42.01" width="8.31532" height="8.31532" fill="black"/>
<rect x="16.6338" y="33.6948" width="8.31532" height="8.31532" fill="black"/>
<rect x="16.6338" y="25.3795" width="8.31532" height="8.31532" fill="black"/>
<rect x="8.31738" y="25.3795" width="8.31532" height="8.31532" fill="black"/>
<rect x="24.9482" y="33.6948" width="8.31532" height="8.31532" fill="black"/>
<rect x="33.2646" y="17.0641" width="8.31532" height="8.31532" fill="black"/>
<rect x="41.5791" y="17.0641" width="8.31532" height="8.31532" fill="black"/>
<rect x="41.5791" y="25.3795" width="8.31532" height="8.31532" fill="black"/>
<rect x="33.2646" y="25.3795" width="8.31532" height="8.31532" fill="black"/>
<rect x="33.2646" y="42.01" width="8.31532" height="8.31532" fill="black"/>
<rect x="41.5791" y="42.01" width="8.31532" height="8.31532" fill="black"/>
<rect x="41.5791" y="33.6948" width="8.31532" height="8.31532" fill="black"/>
<rect x="41.5791" y="0.433472" width="8.31532" height="8.31532" fill="black"/>
</svg>
