<svg width="50" height="46" viewBox="0 0 50 46" fill="none" xmlns="http://www.w3.org/2000/svg">
<g clip-path="url(#clip0_1235_344)">
<path d="M4 8L3.42 7.42452C1.36 5.38856 0 4.04142 0 2.39782C0 1.05068 0.968 0 2.2 0C2.896 0 3.564 0.353133 4 0.906812C4.436 0.353133 5.104 0 5.8 0C7.032 0 8 1.05068 8 2.39782C8 4.04142 6.64 5.38856 4.58 7.42452L4 8Z" fill="black"/>
<path d="M4 16L3.42 15.4245C1.36 13.3886 0 12.0414 0 10.3978C0 9.05068 0.968 8 2.2 8C2.896 8 3.564 8.35313 4 8.90681C4.436 8.35313 5.104 8 5.8 8C7.032 8 8 9.05068 8 10.3978C8 12.0414 6.64 13.3886 4.58 15.4245L4 16Z" fill="black"/>
<path d="M37.5 16L36.8475 15.4245C34.53 13.3886 33 12.0414 33 10.3978C33 9.05068 34.089 8 35.475 8C36.258 8 37.0095 8.35313 37.5 8.90681C37.9905 8.35313 38.742 8 39.525 8C40.911 8 42 9.05068 42 10.3978C42 12.0414 40.47 13.3886 38.1525 15.4245L37.5 16Z" fill="black"/>
<path d="M28.5 16L27.8475 15.4245C25.53 13.3886 24 12.0414 24 10.3978C24 9.05068 25.089 8 26.475 8C27.258 8 28.0095 8.35313 28.5 8.90681C28.9905 8.35313 29.742 8 30.525 8C31.911 8 33 9.05068 33 10.3978C33 12.0414 31.47 13.3886 29.1525 15.4245L28.5 16Z" fill="black"/>
<path d="M21 23L20.42 22.4245C18.36 20.3886 17 19.0414 17 17.3978C17 16.0507 17.968 15 19.2 15C19.896 15 20.564 15.3531 21 15.9068C21.436 15.3531 22.104 15 22.8 15C24.032 15 25 16.0507 25 17.3978C25 19.0414 23.64 20.3886 21.58 22.4245L21 23Z" fill="black"/>
<path d="M4 31L3.42 30.4245C1.36 28.3886 0 27.0414 0 25.3978C0 24.0507 0.968 23 2.2 23C2.896 23 3.564 23.3531 4 23.9068C4.436 23.3531 5.104 23 5.8 23C7.032 23 8 24.0507 8 25.3978C8 27.0414 6.64 28.3886 4.58 30.4245L4 31Z" fill="black"/>
<path d="M12 31L11.42 30.4245C9.36 28.3886 8 27.0414 8 25.3978C8 24.0507 8.968 23 10.2 23C10.896 23 11.564 23.3531 12 23.9068C12.436 23.3531 13.104 23 13.8 23C15.032 23 16 24.0507 16 25.3978C16 27.0414 14.64 28.3886 12.58 30.4245L12 31Z" fill="black"/>
<path d="M32 31L31.275 30.4245C28.7 28.3886 27 27.0414 27 25.3978C27 24.0507 28.21 23 29.75 23C30.62 23 31.455 23.3531 32 23.9068C32.545 23.3531 33.38 23 34.25 23C35.79 23 37 24.0507 37 25.3978C37 27.0414 35.3 28.3886 32.725 30.4245L32 31Z" fill="black"/>
<path d="M42 39L41.42 38.4965C39.36 36.715 38 35.5362 38 34.0981C38 32.9193 38.968 32 40.2 32C40.896 32 41.564 32.309 42 32.7935C42.436 32.309 43.104 32 43.8 32C45.032 32 46 32.9193 46 34.0981C46 35.5362 44.64 36.715 42.58 38.4965L42 39Z" fill="black"/>
<path d="M4 46L3.42 45.4965C1.36 43.715 0 42.5362 0 41.0981C0 39.9193 0.968 39 2.2 39C2.896 39 3.564 39.309 4 39.7935C4.436 39.309 5.104 39 5.8 39C7.032 39 8 39.9193 8 41.0981C8 42.5362 6.64 43.715 4.58 45.4965L4 46Z" fill="black"/>
<path d="M20 46L19.42 45.4965C17.36 43.715 16 42.5362 16 41.0981C16 39.9193 16.968 39 18.2 39C18.896 39 19.564 39.309 20 39.7935C20.436 39.309 21.104 39 21.8 39C23.032 39 24 39.9193 24 41.0981C24 42.5362 22.64 43.715 20.58 45.4965L20 46Z" fill="black"/>
<path d="M28.5 46L27.8475 45.4965C25.53 43.715 24 42.5362 24 41.0981C24 39.9193 25.089 39 26.475 39C27.258 39 28.0095 39.309 28.5 39.7935C28.9905 39.309 29.742 39 30.525 39C31.911 39 33 39.9193 33 41.0981C33 42.5362 31.47 43.715 29.1525 45.4965L28.5 46Z" fill="black"/>
<path d="M21 8L20.42 7.42452C18.36 5.38856 17 4.04142 17 2.39782C17 1.05068 17.968 0 19.2 0C19.896 0 20.564 0.353133 21 0.906812C21.436 0.353133 22.104 0 22.8 0C24.032 0 25 1.05068 25 2.39782C25 4.04142 23.64 5.38856 21.58 7.42452L21 8Z" fill="black"/>
<path d="M37.5 8L36.8475 7.42452C34.53 5.38856 33 4.04142 33 2.39782C33 1.05068 34.089 0 35.475 0C36.258 0 37.0095 0.353133 37.5 0.906812C37.9905 0.353133 38.742 0 39.525 0C40.911 0 42 1.05068 42 2.39782C42 4.04142 40.47 5.38856 38.1525 7.42452L37.5 8Z" fill="black"/>
<path d="M46 8L45.42 7.42452C43.36 5.38856 42 4.04142 42 2.39782C42 1.05068 42.968 0 44.2 0C44.896 0 45.564 0.353133 46 0.906812C46.436 0.353133 47.104 0 47.8 0C49.032 0 50 1.05068 50 2.39782C50 4.04142 48.64 5.38856 46.58 7.42452L46 8Z" fill="black"/>
</g>
<defs>
<clipPath id="clip0_1235_344">
<rect width="50" height="46" fill="white"/>
</clipPath>
</defs>
</svg>
