<svg width="51" height="51" viewBox="0 0 51 51" fill="none" xmlns="http://www.w3.org/2000/svg">
<rect x="5.27313" y="0.0195312" width="6.23649" height="6.23649" transform="rotate(45 5.27313 0.0195312)" fill="black"/>
<rect x="45.8112" y="0.0195312" width="6.23649" height="6.23649" transform="rotate(45 45.8112 0.0195312)" fill="black"/>
<rect x="45.8112" y="36.3984" width="6.23649" height="6.23649" transform="rotate(45 45.8112 36.3984)" fill="black"/>
<rect x="36.4557" y="0.0195312" width="6.23649" height="6.23649" transform="rotate(45 36.4557 0.0195312)" fill="black"/>
<rect x="36.4557" y="9.375" width="6.23649" height="6.23649" transform="rotate(45 36.4557 9.375)" fill="black"/>
<rect x="20.4333" y="0.0195312" width="6.23649" height="6.23649" transform="rotate(45 20.4333 0.0195312)" fill="black"/>
<rect x="5.27313" y="9.375" width="6.23649" height="6.23649" transform="rotate(45 5.27313 9.375)" fill="black"/>
<rect x="26.6706" y="9.375" width="6.23649" height="6.23649" transform="rotate(45 26.6706 9.375)" fill="black"/>
<rect x="26.6706" y="18.7305" width="6.23649" height="6.23649" transform="rotate(45 26.6706 18.7305)" fill="black"/>
<rect x="14.197" y="28.082" width="6.23649" height="6.23649" transform="rotate(45 14.197 28.082)" fill="black"/>
<rect x="37.0641" y="28.082" width="6.23649" height="6.23649" transform="rotate(45 37.0641 28.082)" fill="black"/>
<rect x="17.3161" y="18.7305" width="6.23649" height="6.23649" transform="rotate(45 17.3161 18.7305)" fill="black"/>
<rect x="4.84247" y="28.082" width="6.23649" height="6.23649" transform="rotate(45 4.84247 28.082)" fill="black"/>
<rect x="4.84247" y="41.5977" width="6.23649" height="6.23649" transform="rotate(45 4.84247 41.5977)" fill="black"/>
<rect x="19.3942" y="41.5977" width="6.23649" height="6.23649" transform="rotate(45 19.3942 41.5977)" fill="black"/>
<rect x="28.7497" y="41.5977" width="6.23649" height="6.23649" transform="rotate(45 28.7497 41.5977)" fill="black"/>
</svg>
