<svg width="51" height="51" viewBox="0 0 51 51" fill="none" xmlns="http://www.w3.org/2000/svg">
<path d="M0.546875 2.43359C0.546875 1.32902 1.44231 0.433594 2.54688 0.433594H8.86219V8.74891H0.546875V2.43359Z" fill="black"/>
<path d="M0.546875 8.75H8.86219V15.0653C8.86219 16.1699 7.96676 17.0653 6.86219 17.0653H2.54687C1.4423 17.0653 0.546875 16.1699 0.546875 15.0653V8.75Z" fill="black"/>
<path d="M8.86179 0.433594H15.1771C16.2817 0.433594 17.1771 1.32902 17.1771 2.43359V6.74891C17.1771 7.85348 16.2817 8.74891 15.1771 8.74891H8.86179V0.433594Z" fill="black"/>
<path d="M17.1777 10.75C17.1777 9.64543 18.0731 8.75 19.1777 8.75H25.493V17.0653H19.1777C18.0731 17.0653 17.1777 16.1699 17.1777 15.0653V10.75Z" fill="black"/>
<path d="M25.4926 2.43359C25.4926 1.32902 26.388 0.433594 27.4926 0.433594H31.8079C32.9125 0.433594 33.8079 1.32902 33.8079 2.43359V8.74891H25.4926V2.43359Z" fill="black"/>
<rect x="25.4926" y="8.75" width="8.31532" height="8.31532" fill="black"/>
<path d="M25.4926 17.0625H33.8079V25.3778H27.4926C26.388 25.3778 25.4926 24.4824 25.4926 23.3778V17.0625Z" fill="black"/>
<path d="M8.86179 19.0625C8.86179 17.9579 9.75722 17.0625 10.8618 17.0625H15.1771C16.2817 17.0625 17.1771 17.9579 17.1771 19.0625V25.3778H8.86179V19.0625Z" fill="black"/>
<path d="M0.546875 27.3789C0.546875 26.2743 1.44231 25.3789 2.54688 25.3789H8.86219V33.6942H0.546875V27.3789Z" fill="black"/>
<rect x="0.546875" y="33.6953" width="8.31532" height="8.31532" fill="black"/>
<path d="M0.546875 42.0117H8.86219V50.327H2.54687C1.4423 50.327 0.546875 49.4316 0.546875 48.327V42.0117Z" fill="black"/>
<rect x="8.86179" y="42.0117" width="8.31532" height="8.31532" fill="black"/>
<path d="M17.1777 42.0117H25.493V48.327C25.493 49.4316 24.5976 50.327 23.493 50.327H17.1777V42.0117Z" fill="black"/>
<rect x="17.1777" y="33.6953" width="8.31532" height="8.31532" fill="black"/>
<path d="M17.1777 25.3789H23.493C24.5976 25.3789 25.493 26.2743 25.493 27.3789V33.6942H17.1777V25.3789Z" fill="black"/>
<rect x="8.86179" y="25.3789" width="8.31532" height="8.31532" fill="black"/>
<path d="M25.4926 33.6953H31.8079C32.9125 33.6953 33.8079 34.5907 33.8079 35.6953V40.0106C33.8079 41.1152 32.9125 42.0106 31.8079 42.0106H25.4926V33.6953Z" fill="black"/>
<rect x="33.8085" y="17.0625" width="8.31532" height="8.31532" fill="black"/>
<path d="M42.1235 17.0625H48.4388C49.5434 17.0625 50.4388 17.9579 50.4388 19.0625V25.3778H42.1235V17.0625Z" fill="black"/>
<rect x="42.1235" y="25.3789" width="8.31532" height="8.31532" fill="black"/>
<path d="M33.8085 25.3789H42.1238V33.6942H35.8085C34.704 33.6942 33.8085 32.7988 33.8085 31.6942V25.3789Z" fill="black"/>
<path d="M33.8085 44.0117C33.8085 42.9071 34.704 42.0117 35.8085 42.0117H42.1238V50.327H35.8085C34.704 50.327 33.8085 49.4316 33.8085 48.327V44.0117Z" fill="black"/>
<path d="M42.1235 42.0117H50.4388V48.327C50.4388 49.4316 49.5434 50.327 48.4388 50.327H42.1235V42.0117Z" fill="black"/>
<rect x="42.1235" y="33.6953" width="8.31532" height="8.31532" fill="black"/>
<rect x="42.1235" y="0.433594" width="8.31532" height="8.31532" rx="2" fill="black"/>
</svg>
