<svg width="50" height="49" viewBox="0 0 50 49" fill="none" xmlns="http://www.w3.org/2000/svg">
<path fill-rule="evenodd" clip-rule="evenodd" d="M4.5343 0.374156C4.35258 -0.124719 3.64742 -0.124719 3.4657 0.374156L2.64109 2.64109L0.374156 3.4657C-0.124719 3.64742 -0.124719 4.35258 0.374156 4.5343L2.64109 5.35891L3.4657 7.62584C3.64742 8.12472 4.35258 8.12472 4.5343 7.62584L5.35891 5.35891L7.62584 4.5343C8.12472 4.35258 8.12472 3.64742 7.62584 3.4657L5.35891 2.64109L4.5343 0.374156Z" fill="black"/>
<path fill-rule="evenodd" clip-rule="evenodd" d="M4.5343 9.37416C4.35258 8.87528 3.64742 8.87528 3.4657 9.37416L2.64109 11.6411L0.374156 12.4657C-0.124719 12.6474 -0.124719 13.3526 0.374156 13.5343L2.64109 14.3589L3.4657 16.6258C3.64742 17.1247 4.35258 17.1247 4.5343 16.6258L5.35891 14.3589L7.62584 13.5343C8.12472 13.3526 8.12472 12.6474 7.62584 12.4657L5.35891 11.6411L4.5343 9.37416Z" fill="black"/>
<path fill-rule="evenodd" clip-rule="evenodd" d="M38.5343 10.4209C38.3526 9.85969 37.6474 9.85969 37.4657 10.4209L36.6411 12.9712L34.3742 13.8989C33.8753 14.1033 33.8753 14.8967 34.3742 15.1011L36.6411 16.0288L37.4657 18.5791C37.6474 19.1403 38.3526 19.1403 38.5343 18.5791L39.3589 16.0288L41.6258 15.1011C42.1247 14.8967 42.1247 14.1033 41.6258 13.8989L39.3589 12.9712L38.5343 10.4209Z" fill="black"/>
<path fill-rule="evenodd" clip-rule="evenodd" d="M29.6679 10.4209C29.4407 9.85969 28.5593 9.85969 28.3321 10.4209L27.3014 12.9712L24.4677 13.8989C23.8441 14.1033 23.8441 14.8967 24.4677 15.1011L27.3014 16.0288L28.3321 18.5791C28.5593 19.1403 29.4407 19.1403 29.6679 18.5791L30.6986 16.0288L33.5323 15.1011C34.1559 14.8967 34.1559 14.1033 33.5323 13.8989L30.6986 12.9712L29.6679 10.4209Z" fill="black"/>
<path fill-rule="evenodd" clip-rule="evenodd" d="M21.5343 19.3742C21.3526 18.8753 20.6474 18.8753 20.4657 19.3742L19.6411 21.6411L17.3742 22.4657C16.8753 22.6474 16.8753 23.3526 17.3742 23.5343L19.6411 24.3589L20.4657 26.6258C20.6474 27.1247 21.3526 27.1247 21.5343 26.6258L22.3589 24.3589L24.6258 23.5343C25.1247 23.3526 25.1247 22.6474 24.6258 22.4657L22.3589 21.6411L21.5343 19.3742Z" fill="black"/>
<path fill-rule="evenodd" clip-rule="evenodd" d="M4.5343 27.4209C4.35258 26.8597 3.64742 26.8597 3.4657 27.4209L2.64109 29.9712L0.374156 30.8989C-0.124719 31.1033 -0.124719 31.8967 0.374156 32.1011L2.64109 33.0288L3.4657 35.5791C3.64742 36.1403 4.35258 36.1403 4.5343 35.5791L5.35891 33.0288L7.62584 32.1011C8.12472 31.8967 8.12472 31.1033 7.62584 30.8989L5.35891 29.9712L4.5343 27.4209Z" fill="black"/>
<path fill-rule="evenodd" clip-rule="evenodd" d="M12.5343 27.4209C12.3526 26.8597 11.6474 26.8597 11.4657 27.4209L10.6411 29.9712L8.37416 30.8989C7.87528 31.1033 7.87528 31.8967 8.37416 32.1011L10.6411 33.0288L11.4657 35.5791C11.6474 36.1403 12.3526 36.1403 12.5343 35.5791L13.3589 33.0288L15.6258 32.1011C16.1247 31.8967 16.1247 31.1033 15.6258 30.8989L13.3589 29.9712L12.5343 27.4209Z" fill="black"/>
<path fill-rule="evenodd" clip-rule="evenodd" d="M33.6679 26.4209C33.4407 25.8597 32.5593 25.8597 32.3321 26.4209L31.3014 28.9712L28.4677 29.8989C27.8441 30.1033 27.8441 30.8967 28.4677 31.1011L31.3014 32.0288L32.3321 34.5791C32.5593 35.1403 33.4407 35.1403 33.6679 34.5791L34.6986 32.0288L37.5323 31.1011C38.1559 30.8967 38.1559 30.1033 37.5323 29.8989L34.6986 28.9712L33.6679 26.4209Z" fill="black"/>
<path fill-rule="evenodd" clip-rule="evenodd" d="M42.5343 33.3742C42.3526 32.8753 41.6474 32.8753 41.4657 33.3742L40.6411 35.6411L38.3742 36.4657C37.8753 36.6474 37.8753 37.3526 38.3742 37.5343L40.6411 38.3589L41.4657 40.6258C41.6474 41.1247 42.3526 41.1247 42.5343 40.6258L43.3589 38.3589L45.6258 37.5343C46.1247 37.3526 46.1247 36.6474 45.6258 36.4657L43.3589 35.6411L42.5343 33.3742Z" fill="black"/>
<path fill-rule="evenodd" clip-rule="evenodd" d="M4.5343 41.3742C4.35258 40.8753 3.64742 40.8753 3.4657 41.3742L2.64109 43.6411L0.374156 44.4657C-0.124719 44.6474 -0.124719 45.3526 0.374156 45.5343L2.64109 46.3589L3.4657 48.6258C3.64742 49.1247 4.35258 49.1247 4.5343 48.6258L5.35891 46.3589L7.62584 45.5343C8.12472 45.3526 8.12472 44.6474 7.62584 44.4657L5.35891 43.6411L4.5343 41.3742Z" fill="black"/>
<path fill-rule="evenodd" clip-rule="evenodd" d="M21.5343 41.3742C21.3526 40.8753 20.6474 40.8753 20.4657 41.3742L19.6411 43.6411L17.3742 44.4657C16.8753 44.6474 16.8753 45.3526 17.3742 45.5343L19.6411 46.3589L20.4657 48.6258C20.6474 49.1247 21.3526 49.1247 21.5343 48.6258L22.3589 46.3589L24.6258 45.5343C25.1247 45.3526 25.1247 44.6474 24.6258 44.4657L22.3589 43.6411L21.5343 41.3742Z" fill="black"/>
<path fill-rule="evenodd" clip-rule="evenodd" d="M30.6679 41.3742C30.4407 40.8753 29.5593 40.8753 29.3321 41.3742L28.3014 43.6411L25.4677 44.4657C24.8441 44.6474 24.8441 45.3526 25.4677 45.5343L28.3014 46.3589L29.3321 48.6258C29.5593 49.1247 30.4407 49.1247 30.6679 48.6258L31.6986 46.3589L34.5323 45.5343C35.1559 45.3526 35.1559 44.6474 34.5323 44.4657L31.6986 43.6411L30.6679 41.3742Z" fill="black"/>
<path fill-rule="evenodd" clip-rule="evenodd" d="M21.5343 0.374156C21.3526 -0.124719 20.6474 -0.124719 20.4657 0.374156L19.6411 2.64109L17.3742 3.4657C16.8753 3.64742 16.8753 4.35258 17.3742 4.5343L19.6411 5.35891L20.4657 7.62584C20.6474 8.12472 21.3526 8.12472 21.5343 7.62584L22.3589 5.35891L24.6258 4.5343C25.1247 4.35258 25.1247 3.64742 24.6258 3.4657L22.3589 2.64109L21.5343 0.374156Z" fill="black"/>
<path fill-rule="evenodd" clip-rule="evenodd" d="M38.5343 0.374156C38.3526 -0.124719 37.6474 -0.124719 37.4657 0.374156L36.6411 2.64109L34.3742 3.4657C33.8753 3.64742 33.8753 4.35258 34.3742 4.5343L36.6411 5.35891L37.4657 7.62584C37.6474 8.12472 38.3526 8.12472 38.5343 7.62584L39.3589 5.35891L41.6258 4.5343C42.1247 4.35258 42.1247 3.64742 41.6258 3.4657L39.3589 2.64109L38.5343 0.374156Z" fill="black"/>
<path fill-rule="evenodd" clip-rule="evenodd" d="M46.5343 0.374156C46.3526 -0.124719 45.6474 -0.124719 45.4657 0.374156L44.6411 2.64109L42.3742 3.4657C41.8753 3.64742 41.8753 4.35258 42.3742 4.5343L44.6411 5.35891L45.4657 7.62584C45.6474 8.12472 46.3526 8.12472 46.5343 7.62584L47.3589 5.35891L49.6258 4.5343C50.1247 4.35258 50.1247 3.64742 49.6258 3.4657L47.3589 2.64109L46.5343 0.374156Z" fill="black"/>
</svg>
