<svg width="20" height="21" viewBox="0 0 20 21" fill="none" xmlns="http://www.w3.org/2000/svg">
<g clip-path="url(#clip0_34_1489)">
<path d="M19.9043 10.4541C19.9043 4.95769 15.4486 0.501953 9.95217 0.501953C4.45574 0.501953 0 4.95769 0 10.4541C0 15.9506 4.45574 20.4063 9.95217 20.4063C15.4486 20.4063 19.9043 15.9506 19.9043 10.4541Z" fill="url(#paint0_linear_34_1489)"/>
<path d="M14.831 8.25945C14.831 7.96217 14.806 7.66608 14.735 7.37664C14.6076 6.84943 14.3073 6.44671 13.8579 6.15093C13.6267 5.99986 13.3722 5.9071 13.1018 5.85817C12.8941 5.82038 12.6837 5.80317 12.473 5.79834C12.4573 5.79682 12.4401 5.79351 12.4226 5.79199H7.58385C7.52259 5.79682 7.4613 5.79984 7.40004 5.80286C7.09972 5.8201 6.80119 5.85151 6.51806 5.96482C5.9805 6.17721 5.59202 6.54851 5.36565 7.08358C5.28717 7.26456 5.24763 7.45641 5.21956 7.65158C5.19602 7.80899 5.18335 7.96791 5.1788 8.12682C5.1788 8.13951 5.17578 8.1519 5.17578 8.16458V13.0883C5.1788 13.1451 5.18213 13.2016 5.18515 13.2584C5.20567 13.5874 5.24793 13.9131 5.38648 14.2153C5.64756 14.7866 6.08613 15.1624 6.6883 15.3434C6.85643 15.3954 7.03269 15.4189 7.20867 15.4346C7.43204 15.4567 7.65509 15.4597 7.87845 15.4597H12.3179C12.5286 15.4597 12.7393 15.4455 12.9499 15.4189C13.2817 15.3763 13.5929 15.2787 13.8745 15.0932C14.2125 14.8697 14.4673 14.5739 14.6306 14.2041C14.706 14.034 14.7486 13.8533 14.78 13.6705C14.8256 13.3983 14.8349 13.1228 14.8349 12.8475C14.8334 11.3179 14.8349 9.78851 14.8334 8.25884L14.831 8.25945ZM12.2463 9.86586V12.1665C12.2463 12.3348 12.2228 12.5001 12.1473 12.6527C12.0312 12.8901 11.8425 13.0397 11.5893 13.1122C11.4492 13.153 11.3046 13.175 11.1585 13.1814C10.7764 13.2004 10.4447 12.9406 10.3771 12.5629C10.3188 12.2514 10.4682 11.9082 10.7951 11.7478C10.924 11.6849 11.0641 11.6472 11.2038 11.6188C11.3562 11.5859 11.5087 11.5559 11.6596 11.5212C11.7713 11.4961 11.8434 11.4284 11.8654 11.3133C11.8718 11.2883 11.8733 11.2614 11.8733 11.2363C11.8733 10.5046 11.8733 9.7728 11.8733 9.04286C11.8733 9.0178 11.8685 8.9924 11.8624 8.96884C11.8467 8.90751 11.8027 8.87125 11.7399 8.87427C11.6753 8.8773 11.6125 8.88847 11.5497 8.90117C11.243 8.96099 10.9367 9.02232 10.6315 9.08517L9.14285 9.38577C9.13652 9.3873 9.12867 9.39062 9.12232 9.39062C9.01065 9.42204 8.97141 9.47249 8.96659 9.5888C8.96506 9.60604 8.96659 9.62356 8.96659 9.64077C8.96506 10.6888 8.96659 11.7369 8.96506 12.7847C8.96506 12.9548 8.94606 13.1216 8.87874 13.2787C8.76706 13.5367 8.56906 13.6989 8.30193 13.776C8.16037 13.8168 8.01578 13.8406 7.86789 13.8451C7.48274 13.8594 7.16189 13.6028 7.09609 13.2237C7.03935 12.8965 7.18876 12.5439 7.55972 12.3865C7.70428 12.3267 7.85369 12.2937 8.00613 12.2623C8.12082 12.2388 8.23735 12.2152 8.35204 12.1916C8.50598 12.1587 8.58626 12.0611 8.59411 11.9037V11.8439C8.59411 10.6511 8.59411 9.4583 8.59411 8.26549C8.59411 8.21504 8.60046 8.16488 8.61132 8.11595C8.63969 8.00114 8.72148 7.93497 8.83135 7.90808C8.93367 7.88119 9.03902 7.86247 9.14254 7.8404C9.43804 7.78058 9.73204 7.72075 10.0275 7.66245L10.9409 7.47664C11.2113 7.42317 11.48 7.36819 11.7504 7.31471C11.8386 7.29749 11.9282 7.27845 12.0176 7.2721C12.1416 7.26123 12.2282 7.33977 12.2409 7.46577C12.2439 7.49569 12.2458 7.5256 12.2458 7.55549V9.86404L12.2463 9.86586Z" fill="white"/>
</g>
<defs>
<linearGradient id="paint0_linear_34_1489" x1="9.95217" y1="0.501953" x2="9.95217" y2="20.4063" gradientUnits="userSpaceOnUse">
<stop stop-color="#FB5971"/>
<stop offset="1" stop-color="#FA253D"/>
</linearGradient>
<clipPath id="clip0_34_1489">
<rect width="20" height="20" fill="white" transform="translate(0 0.501953)"/>
</clipPath>
</defs>
</svg>
