<svg width="20" height="21" viewBox="0 0 20 21" fill="none" xmlns="http://www.w3.org/2000/svg">
<g clip-path="url(#clip0_34_1399)">
<path d="M9.98926 0.612305C4.53325 0.612305 0.110352 5.0352 0.110352 10.4912C0.110352 15.9472 4.53325 20.3701 9.98926 20.3701C15.4453 20.3701 19.8682 15.9472 19.8682 10.4912C19.8682 5.0352 15.4453 0.612305 9.98926 0.612305Z" fill="#006699"/>
<path d="M6.9572 8.65137H4.68066V15.9705H6.9572V8.65137Z" fill="white"/>
<path d="M5.81926 7.65102C5.09042 7.65102 4.50098 7.06004 4.50098 6.3323C4.50098 5.60389 5.09042 5.0127 5.81926 5.0127C6.54657 5.0127 7.13755 5.60367 7.13755 6.3323C7.13755 7.06004 6.54635 7.65102 5.81926 7.65102Z" fill="white"/>
<path d="M15.4775 15.97H13.2038V12.4108C13.2038 11.5618 13.1891 10.4701 12.0216 10.4701C10.8379 10.4701 10.6572 11.3954 10.6572 12.3497V15.97H8.38354V8.65106H10.5655V9.6519H10.5964C10.9 9.07629 11.6423 8.46973 12.7487 8.46973C15.0522 8.46973 15.4775 9.98515 15.4775 11.9559V15.97Z" fill="white"/>
</g>
<defs>
<clipPath id="clip0_34_1399">
<rect width="20" height="20" fill="white" transform="translate(0 0.501953)"/>
</clipPath>
</defs>
</svg>
