<svg width="20" height="21" viewBox="0 0 20 21" fill="none" xmlns="http://www.w3.org/2000/svg">
<g clip-path="url(#clip0_34_1384)">
<path d="M9.98895 0.612305C6.46921 0.612305 3.3815 2.45461 1.63184 5.22575C2.23094 5.65823 2.96417 5.91618 3.75975 5.91618H10.8723C14.6219 5.91618 17.9243 7.82698 19.8617 10.7272C19.8637 10.6484 19.8679 10.5702 19.8679 10.4912C19.8679 5.0352 15.445 0.612305 9.98895 0.612305Z" fill="#EA4C89"/>
<path d="M19.8682 10.4914C19.8682 10.2264 19.8546 9.9647 19.8342 9.70478C17.8929 6.70115 14.6039 5.19736 10.8727 5.19736H3.76014C3.06664 5.19736 2.42078 5.08891 1.8691 4.86719C0.853989 6.33036 0.222398 8.07959 0.124268 9.97085C2.1051 12.4136 5.12826 13.9766 8.51826 13.9766H8.68159C10.6657 13.9766 11.5577 14.842 11.6077 16.8141C11.6086 16.7827 11.6126 16.7522 11.6126 16.7206C11.6126 18.5684 10.8407 20.0915 9.15995 20.3332C9.43371 20.3558 9.70966 20.3703 9.98934 20.3703C15.4454 20.3703 19.8682 15.9474 19.8682 10.4914Z" fill="#D84880"/>
<path d="M9.17041 20.3337C10.924 20.0983 12.2809 18.6209 12.3268 16.8137C12.2768 14.8416 10.6659 13.2573 8.68173 13.2573H8.5184C5.16045 13.2573 2.16363 11.7223 0.182138 9.31934C0.136476 9.70395 0.110352 10.0945 0.110352 10.4912C0.110352 15.671 4.09792 19.917 9.17041 20.3337Z" fill="#C74276"/>
<path d="M4.50098 10.4912C4.50098 9.49608 4.74619 8.57756 5.23641 7.73609C5.72662 6.89463 6.39268 6.22857 7.23414 5.73836C8.0756 5.24815 8.99412 5.00293 9.98926 5.00293C10.9844 5.00293 11.9029 5.24815 12.7444 5.73836C13.5858 6.22857 14.2519 6.89463 14.7421 7.73609C15.2323 8.57756 15.4775 9.49608 15.4775 10.4912C15.4775 11.4863 15.2323 12.4049 14.7421 13.2463C14.2519 14.0878 13.5858 14.7538 12.7444 15.2441C11.9029 15.7343 10.9844 15.9795 9.98926 15.9795C8.99412 15.9795 8.0756 15.7343 7.23414 15.2441C6.39268 14.7538 5.72662 14.0878 5.23641 13.2463C4.74619 12.4049 4.50098 11.4863 4.50098 10.4912ZM5.41203 10.4912C5.41203 11.6328 5.79621 12.6389 6.56457 13.5098C6.91582 12.822 7.47189 12.1669 8.23301 11.545C8.99412 10.923 9.7368 10.5314 10.4613 10.3705C10.3515 10.1143 10.2455 9.88377 10.1429 9.67895C8.88436 10.0813 7.52326 10.2827 6.05965 10.2827C5.77426 10.2827 5.56197 10.2789 5.42301 10.2717C5.42301 10.3009 5.42125 10.3375 5.41752 10.3814C5.41379 10.4254 5.41203 10.462 5.41203 10.4912ZM5.55473 9.36062C5.71564 9.37533 5.95361 9.38258 6.2682 9.38258C7.49033 9.38258 8.65012 9.21793 9.74777 8.88863C9.1917 7.90074 8.58053 7.0775 7.91469 6.41891C7.33666 6.71154 6.84074 7.11767 6.42736 7.6373C6.01399 8.15694 5.72311 8.73123 5.55473 9.36062ZM7.19023 14.1025C8.01721 14.7464 8.95022 15.0684 9.98926 15.0684C10.5308 15.0684 11.0687 14.9659 11.6028 14.7611C11.4564 13.5098 11.171 12.2986 10.7466 11.1279C10.0733 11.2743 9.39477 11.6438 8.71049 12.2365C8.02621 12.8292 7.51953 13.4512 7.19023 14.1025ZM8.86965 6.06766C9.51353 6.73349 10.11 7.5642 10.6588 8.55934C11.654 8.14223 12.4041 7.61162 12.909 6.96773C12.0601 6.26523 11.0869 5.91398 9.98926 5.91398C9.61605 5.91398 9.24285 5.96514 8.86965 6.06766ZM11.054 9.33867C11.1637 9.57291 11.2882 9.86928 11.4272 10.2278C11.9688 10.1766 12.5578 10.1509 13.1944 10.1509C13.6482 10.1509 14.0982 10.1619 14.5445 10.1839C14.4859 9.18873 14.1274 8.30314 13.4688 7.52754C12.9931 8.23728 12.1883 8.84099 11.054 9.33867ZM11.7016 10.9961C12.0748 12.0791 12.3273 13.1914 12.459 14.333C13.037 13.9598 13.509 13.4806 13.875 12.8951C14.2409 12.3096 14.4605 11.6767 14.5336 10.9961C13.9994 10.9595 13.5127 10.9412 13.0737 10.9412C12.6713 10.9412 12.2138 10.9595 11.7016 10.9961Z" fill="white"/>
</g>
<defs>
<clipPath id="clip0_34_1384">
<rect width="20" height="20" fill="white" transform="translate(0 0.501953)"/>
</clipPath>
</defs>
</svg>
