<svg width="20" height="21" viewBox="0 0 20 21" fill="none" xmlns="http://www.w3.org/2000/svg">
<g clip-path="url(#clip0_34_1439)">
<path d="M9.98895 0.612305C6.46921 0.612305 3.3815 2.45461 1.63184 5.22575C2.23094 5.65823 2.96417 5.91618 3.75975 5.91618H10.8723C14.6219 5.91618 17.9243 7.82698 19.8617 10.7272C19.8637 10.6484 19.8679 10.5702 19.8679 10.4912C19.8679 5.0352 15.445 0.612305 9.98895 0.612305Z" fill="#0084FF"/>
<path d="M19.8682 10.4914C19.8682 10.2264 19.8546 9.9647 19.8342 9.70478C17.8929 6.70115 14.6039 5.19736 10.8727 5.19736H3.76014C3.06665 5.19736 2.42078 5.08891 1.8691 4.86719C0.853989 6.33036 0.222398 8.07959 0.124268 9.97085C2.1051 12.4136 5.12826 13.9766 8.51826 13.9766H8.6816C10.6657 13.9766 11.5577 14.842 11.6077 16.8141C11.6086 16.7827 11.6126 16.7522 11.6126 16.7206C11.6126 18.5684 10.8407 20.0915 9.15996 20.3332C9.43371 20.3558 9.70966 20.3703 9.98934 20.3703C15.4454 20.3703 19.8682 15.9474 19.8682 10.4914Z" fill="#007EF3"/>
<path d="M9.17041 20.3337C10.924 20.0983 12.2809 18.6209 12.3268 16.8137C12.2768 14.8416 10.6659 13.2573 8.68173 13.2573H8.5184C5.16045 13.2573 2.16363 11.7223 0.182138 9.31934C0.136476 9.70395 0.110352 10.0945 0.110352 10.4912C0.110352 15.671 4.09792 19.917 9.17041 20.3337Z" fill="#0078E7"/>
<path d="M9.98926 5.00293C6.95819 5.00293 4.50098 7.46014 4.50098 10.4912C4.50098 11.6064 4.83444 12.6433 5.40588 13.5093L4.50098 15.9154L6.88355 15.016C7.76694 15.6232 8.83628 15.9795 9.98926 15.9795C13.0203 15.9795 15.4775 13.5223 15.4775 10.4912C15.4775 7.46014 13.0203 5.00293 9.98926 5.00293ZM10.6942 12.0145L9.1928 10.6047L6.62297 12.0145L9.53417 8.96788L10.944 10.3327L13.3551 9.10333L10.6942 12.0145Z" fill="white"/>
</g>
<defs>
<clipPath id="clip0_34_1439">
<rect width="20" height="20" fill="white" transform="translate(0 0.501953)"/>
</clipPath>
</defs>
</svg>
