<svg width="20" height="21" viewBox="0 0 20 21" fill="none" xmlns="http://www.w3.org/2000/svg">
<g clip-path="url(#clip0_34_1390)">
<path d="M9.98926 0.612305C4.53325 0.612305 0.110352 5.10545 0.110352 10.648C0.110352 15.3284 3.26436 19.2602 7.53095 20.3701C7.52809 19.2103 7.52436 17.7878 7.52216 17.3445C4.67133 17.9744 4.06982 16.1163 4.06982 16.1163C3.60375 14.913 2.93199 14.5929 2.93199 14.5929C2.00205 13.9468 3.00202 13.96 3.00202 13.96C4.03096 14.0333 4.57298 15.0329 4.57298 15.0329C5.48689 16.6243 6.97026 16.1641 7.55509 15.8983C7.64708 15.2256 7.91249 14.7661 8.20578 14.5062C5.92969 14.243 3.53679 13.3504 3.53679 9.3615C3.53679 8.22499 3.93722 7.29637 4.59274 6.56731C4.48627 6.30497 4.13546 5.24617 4.69197 3.81219C4.69197 3.81219 5.55253 3.53251 7.51075 4.87933C8.32828 4.64861 9.20487 4.53291 10.0758 4.52896C10.9466 4.53291 11.8239 4.64861 12.643 4.87933C14.599 3.53251 15.4582 3.81219 15.4582 3.81219C16.016 5.24617 15.6652 6.30497 15.5588 6.56731C16.2158 7.29637 16.6134 8.22499 16.6134 9.3615C16.6134 13.36 14.2161 14.2401 11.9341 14.4981C12.3016 14.8212 12.6291 15.4546 12.6291 16.4258C12.6291 17.197 12.6256 18.9726 12.6223 20.3203C16.7993 19.1493 19.8682 15.2638 19.8682 10.648C19.8682 5.10545 15.4453 0.612305 9.98926 0.612305Z" fill="black"/>
</g>
<defs>
<clipPath id="clip0_34_1390">
<rect width="20" height="20" fill="white" transform="translate(0 0.501953)"/>
</clipPath>
</defs>
</svg>
