<svg width="20" height="21" viewBox="0 0 20 21" fill="none" xmlns="http://www.w3.org/2000/svg">
<circle cx="10" cy="10.502" r="10" fill="#FF7B31"/>
<path d="M11.1836 7.50195C10.4114 7.50195 9.70975 7.82527 9.21386 8.34375C9.07067 8.49342 9.07592 8.73083 9.22558 8.87402C9.37525 9.01722 9.61266 9.01197 9.75586 8.8623C10.116 8.48578 10.6198 8.25195 11.1836 8.25195C12.2319 8.25195 13.0799 9.05964 13.1523 10.0874C13.1607 10.2046 13.2234 10.3111 13.3219 10.3752C13.4204 10.4393 13.5433 10.4535 13.6538 10.4136C13.782 10.3672 13.9167 10.3418 14.0576 10.3418C14.7207 10.3418 15.25 10.8711 15.25 11.5342C15.25 12.1973 14.7207 12.7266 14.0576 12.7266H9.35547C9.22023 12.7246 9.09444 12.7957 9.02626 12.9125C8.95808 13.0293 8.95808 13.1738 9.02626 13.2906C9.09444 13.4074 9.22023 13.4785 9.35547 13.4766H14.0576C15.126 13.4766 16 12.6026 16 11.5342C16 10.4658 15.126 9.59179 14.0576 9.59179C13.9649 9.59179 13.8838 9.6253 13.7949 9.63818C13.5182 8.42675 12.4763 7.50195 11.1836 7.50195ZM8.08593 8.68652C7.91769 8.68652 7.74923 8.71086 7.60498 8.73486V13.4936H8.08593V8.68652ZM8.32617 8.68652V13.4936H8.80664V8.80713C8.66239 8.75913 8.49442 8.71052 8.32617 8.68652ZM7.36474 8.80713C7.19649 8.87913 7.02804 8.95136 6.88379 9.04736V13.4936H7.36474V8.80713ZM6.64355 9.23926C6.4513 9.40751 6.28333 9.62401 6.16308 9.86426V13.4936H6.64355V9.23926ZM5.68262 10.1289C5.61062 10.1289 5.51438 10.1288 5.44238 10.1528V13.4692C5.51438 13.4932 5.61062 13.4936 5.68262 13.4936H5.92285V10.1528C5.85085 10.1288 5.75462 10.1289 5.68262 10.1289ZM5.20166 10.2012C5.03341 10.2492 4.86544 10.3214 4.72119 10.4414V13.1811C4.86544 13.2774 5.03341 13.3734 5.20166 13.4214V10.2012ZM4.48096 10.6333C4.19246 10.9458 4 11.3543 4 11.811C4 12.2678 4.19246 12.6763 4.48096 12.9888V10.6333Z" fill="#FFFCFC"/>
</svg>
