<svg width="20" height="21" viewBox="0 0 20 21" fill="none" xmlns="http://www.w3.org/2000/svg">
<path d="M19 18.502C19 19.0545 18.5525 19.502 18 19.502H2C1.4475 19.502 1 19.0545 1 18.502V2.50195C1 1.94945 1.4475 1.50195 2 1.50195H18C18.5525 1.50195 19 1.94945 19 2.50195V18.502Z" fill="url(#paint0_linear_34_1378)"/>
<path opacity="0.05" d="M10.4167 16.3352V11.7518H8.75V9.25185H10.4167V8.36102C10.4167 6.26018 11.5275 5.10352 13.5438 5.10352C14.375 5.10352 14.8258 5.16185 15.0429 5.19018L15.4004 5.23643L15.4167 5.59518V7.58518H13.9021C13.4321 7.58518 13.3333 8.15935 13.3333 8.64143V9.25185H15.3012L14.9146 11.7518H13.3333V16.3352H10.4167Z" fill="black"/>
<path opacity="0.07" d="M10.6247 16.1265V11.5432H8.95801V9.45986H10.6247V8.36069C10.6247 6.36569 11.6338 5.31152 13.5434 5.31152C14.3647 5.31152 14.8059 5.36902 15.0184 5.39652L15.2001 5.42027L15.2084 5.60444V7.37652H13.9022C13.2259 7.37652 13.1251 8.16861 13.1251 8.64111V9.45986H15.0584L14.7363 11.5432H13.1247V16.1265H10.6247Z" fill="black"/>
<path d="M14.6825 6.40459H16V4.59956C15.754 4.56879 15.2345 4.50195 14.2525 4.50195C12.202 4.50195 11 5.50207 11 7.78071V9.28955H9V11.2129H11V16.502H13.5V11.2129H15.469L15.778 9.28955H13.5V8.10431C13.5 7.20324 13.806 6.40459 14.6825 6.40459Z" fill="white"/>
<defs>
<linearGradient id="paint0_linear_34_1378" x1="1.114" y1="0.949953" x2="19.0385" y2="20.218" gradientUnits="userSpaceOnUse">
<stop stop-color="#0D61A9"/>
<stop offset="1" stop-color="#16528C"/>
</linearGradient>
</defs>
</svg>
