<svg width="20" height="21" viewBox="0 0 20 21" fill="none" xmlns="http://www.w3.org/2000/svg">
<circle cx="10" cy="10.502" r="10" fill="#F4F20C"/>
<g clip-path="url(#clip0_34_1413)">
<path d="M10.0684 16.0601C10.0348 16.0601 10.0028 16.0589 9.9783 16.0577C9.95894 16.0595 9.93892 16.0601 9.91903 16.0601C9.21315 16.0601 8.7412 15.7265 8.32471 15.4318C8.02623 15.2209 7.74462 15.0219 7.41479 14.967C7.25278 14.9401 7.09169 14.9265 6.936 14.9265C6.65543 14.9265 6.43375 14.97 6.27187 15.0017C6.17229 15.0211 6.08641 15.0378 6.02002 15.0378C5.95048 15.0378 5.86604 15.0224 5.83087 14.9022C5.80295 14.8073 5.78293 14.7155 5.7637 14.627C5.71536 14.406 5.68032 14.271 5.5976 14.2582C4.71219 14.1216 4.18913 13.9203 4.08494 13.6767C4.07441 13.6523 4.06808 13.6263 4.06663 13.5999C4.06255 13.5274 4.11379 13.4634 4.18544 13.4517C4.88856 13.3359 5.51356 12.9643 6.0436 12.3468C6.45417 11.8688 6.6557 11.412 6.6773 11.3617C6.67822 11.3593 6.67928 11.3571 6.68046 11.3549C6.78267 11.1477 6.80296 10.9685 6.74105 10.8227C6.62698 10.5537 6.24921 10.4339 5.99921 10.3546C5.93704 10.335 5.87829 10.3162 5.8314 10.2977C5.60985 10.2102 5.24539 10.0253 5.29399 9.77001C5.32929 9.58389 5.57547 9.45428 5.7745 9.45428C5.82969 9.45428 5.87869 9.46403 5.91992 9.48326C6.14476 9.58863 6.34695 9.64198 6.52095 9.64198C6.73723 9.64198 6.84168 9.55966 6.86697 9.53621C6.86039 9.41806 6.85328 9.30004 6.84564 9.18189C6.79492 8.37419 6.73157 7.36904 6.98868 6.79251C7.75818 5.06712 9.39018 4.9329 9.87187 4.9329C9.95143 4.93224 10.0309 4.93145 10.1104 4.93066C10.5934 4.93066 12.2289 5.06502 12.9989 6.79145C13.256 7.36825 13.1926 8.37432 13.1417 9.18281L13.1393 9.22153C13.1323 9.33139 13.1259 9.43518 13.1205 9.53595C13.1443 9.55781 13.2398 9.63329 13.4343 9.64093C13.6002 9.6346 13.7908 9.58139 14.0006 9.48313C14.0654 9.4527 14.1373 9.44638 14.1861 9.44638C14.2598 9.44638 14.3348 9.46074 14.3973 9.48682L14.4006 9.48813C14.5787 9.55136 14.6953 9.67768 14.6978 9.81032C14.7 9.934 14.6081 10.1189 14.156 10.2974C14.1097 10.3157 14.0507 10.3346 13.9882 10.3543C13.7381 10.4337 13.3606 10.5535 13.2465 10.8223C13.1845 10.9681 13.2049 11.1471 13.3071 11.3543C13.3083 11.3566 13.3092 11.3589 13.3103 11.3613C13.3417 11.4351 14.1032 13.1713 15.8021 13.4512C15.8738 13.463 15.925 13.5269 15.9209 13.5993C15.9192 13.6261 15.9129 13.6523 15.9021 13.6769C15.7986 13.9193 15.2756 14.1202 14.3901 14.257C14.307 14.2698 14.2719 14.4041 14.2241 14.6241C14.2044 14.715 14.1841 14.8039 14.1566 14.8976C14.1307 14.9855 14.0734 15.0286 13.9814 15.0286H13.9675C13.9076 15.0286 13.8226 15.0177 13.7156 14.9967C13.5284 14.9603 13.3184 14.9264 13.0514 14.9264C12.8957 14.9264 12.7347 14.9401 12.5725 14.9668C12.2431 15.0218 11.9616 15.2204 11.6635 15.4312C11.2462 15.7263 10.7741 16.0601 10.0684 16.0601Z" fill="white"/>
</g>
<defs>
<clipPath id="clip0_34_1413">
<rect width="12" height="12" fill="white" transform="translate(4 4.50195)"/>
</clipPath>
</defs>
</svg>
