<svg width="20" height="21" viewBox="0 0 20 21" fill="none" xmlns="http://www.w3.org/2000/svg">
<rect y="0.501953" width="20" height="20" fill="white"/>
<g clip-path="url(#clip0_34_1361)">
<path d="M6.73325 18.3082C7.33301 17.8071 8.30387 16.1557 8.5227 15.3141C8.64054 14.8609 9.12632 13.011 9.12632 13.011C9.44227 13.6134 10.3652 14.1234 11.3469 14.1234C14.269 14.1234 16.3744 11.4362 16.3744 8.09737C16.3742 4.89678 13.7623 2.50195 10.4014 2.50195C6.2206 2.50195 4 5.30862 4 8.36467C4 9.78565 4.75642 11.5547 5.96665 12.1179C6.15018 12.2033 6.24835 12.1657 6.29068 11.9883C6.32282 11.8536 6.48615 11.1957 6.55973 10.8896C6.58327 10.7918 6.57168 10.7077 6.49247 10.6118C6.09222 10.1264 5.77153 9.23348 5.77153 8.40085C5.77153 6.26402 7.38956 4.19638 10.1462 4.19638C12.5262 4.19638 14.1929 5.81828 14.1929 8.13793C14.1929 10.7588 12.8694 12.5744 11.1474 12.5744C10.1964 12.5744 9.48442 11.7879 9.71273 10.8238C9.98583 9.67202 10.5152 8.4293 10.5152 7.59806C10.5152 6.85394 10.1158 6.23328 9.2893 6.23328C8.31704 6.23328 7.53621 7.23909 7.53621 8.58613C7.53621 9.44423 7.82599 10.0245 7.82599 10.0245C7.82599 10.0245 6.86585 14.0841 6.68987 14.8403C6.4951 15.677 6.5715 16.8558 6.65633 17.6222L6.73325 18.3082Z" fill="#CB2027"/>
</g>
<defs>
<clipPath id="clip0_34_1361">
<rect width="16" height="16" fill="white" transform="translate(2 2.50195)"/>
</clipPath>
</defs>
</svg>
