<svg width="20" height="21" viewBox="0 0 20 21" fill="none" xmlns="http://www.w3.org/2000/svg">
<rect y="0.501953" width="20" height="20" fill="white"/>
<path d="M19.4552 5.73494C19.228 4.88492 18.5584 4.21535 17.7084 3.98813C16.1677 3.5752 9.98926 3.5752 9.98926 3.5752C9.98926 3.5752 3.81077 3.5752 2.2701 3.98813C1.42007 4.21535 0.750505 4.88492 0.52329 5.73494C0.110352 7.27561 0.110352 10.4904 0.110352 10.4904C0.110352 10.4904 0.110352 13.7052 0.52329 15.2459C0.750505 16.0959 1.42007 16.7655 2.2701 16.9927C3.81077 17.4057 9.98926 17.4057 9.98926 17.4057C9.98926 17.4057 16.1677 17.4057 17.7084 16.9927C18.5584 16.7655 19.228 16.0959 19.4552 15.2459C19.8682 13.7052 19.8682 10.4904 19.8682 10.4904C19.8682 10.4904 19.8682 7.27561 19.4552 5.73494Z" fill="#FF0000"/>
<path d="M8.01367 13.4537L13.1463 10.49L8.01367 7.52637V13.4537Z" fill="white"/>
</svg>
