<svg width="23" height="24" viewBox="0 0 23 24" fill="none" xmlns="http://www.w3.org/2000/svg">
<path d="M5.45845 4.5065C11.6368 -0.842438 20.9954 3.59273 21.2494 12.1636C21.3184 14.4856 20.51 17.0266 18.8258 18.5662C16.5186 20.6745 13.564 22.2726 10.4542 21.8375C6.93045 21.3449 2.08032 19.4254 1.76839 13.1128C1.63086 10.3427 2.08032 7.43085 5.45845 4.5065Z" fill="#373837"/>
<path d="M11.5008 22.15C11.1457 22.15 10.7858 22.126 10.4207 22.0747C7.24288 21.6305 1.8628 19.8768 1.52882 13.1248C1.39897 10.5009 1.74541 7.4036 5.3013 4.32495C8.17486 1.83664 11.9397 1.25062 15.37 2.75712C19.0198 4.35993 21.3649 7.96135 21.4895 12.1565C21.5657 14.7392 20.6073 17.2629 18.9873 18.7431C17.2292 20.3492 14.5732 22.15 11.5008 22.15ZM5.61516 4.6872C2.21499 7.6312 1.88341 10.5925 2.00703 13.1009C2.32424 19.5088 7.45659 21.1763 10.4873 21.6003C13.8295 22.0685 16.7793 20.1121 18.6643 18.389C20.1837 17.0003 21.0827 14.6175 21.0103 12.1703C20.8915 8.16212 18.6566 4.72314 15.1779 3.19555C11.9205 1.76572 8.34641 2.32251 5.61516 4.6872Z" fill="#231F20"/>
<path d="M12.9395 20.7994C12.8638 20.7994 12.7881 20.7951 12.7134 20.7855C12.5701 20.7668 12.3875 20.728 12.2457 20.5919C12.0833 20.4343 12.0737 20.2608 12.066 20.1209L12.0617 20.0538L11.9127 18.222C11.9021 18.0902 12.0004 17.9743 12.1321 17.9637C12.2615 17.9575 12.3799 18.0514 12.3899 18.1832L12.5437 20.0946C12.5504 20.211 12.5552 20.2249 12.5778 20.2474C12.6233 20.2906 12.7368 20.3054 12.7737 20.3102C13.5059 20.4065 14.4412 19.8411 15.1279 19.4295L15.1887 19.3926C17.3416 18.1036 18.5563 16.8286 19.2506 15.129C20.2099 12.7801 19.8371 9.61568 18.322 7.2553C17.425 5.85805 15.7465 4.69991 13.9405 4.2332C12.3018 3.80961 10.4996 3.8767 8.72622 4.42918C8.31797 4.55616 7.99932 4.68314 7.72332 4.82832C7.3764 5.01041 7.03428 5.25191 6.61357 5.61128C5.50334 6.56003 4.0577 8.15662 3.4803 10.3728C3.12188 11.7494 3.1928 13.4303 3.67005 14.8702C4.13101 16.2598 5.04382 17.6575 6.11284 18.6096C7.24463 19.6178 8.56761 20.2115 9.83693 20.28C9.97493 20.2882 10.1182 20.2867 10.2054 20.2273C10.3012 20.1621 10.3463 20.0122 10.3669 19.8981C10.4057 19.6839 10.4014 19.4563 10.3966 19.2153C10.3889 18.819 10.3817 18.4093 10.571 18.0265C10.6966 17.773 10.8858 17.578 11.0856 17.3844C11.1101 17.3604 11.135 17.3365 11.1594 17.3125C10.8997 16.9661 10.5217 16.7136 10.123 16.4472C9.63232 16.1189 9.1244 15.7802 8.82349 15.2377C8.46315 14.587 8.50245 13.8137 8.53407 13.1922L8.88722 6.09045L8.99359 6.02384C9.34961 5.80199 9.80434 5.98407 10.0204 6.27924C10.214 6.54374 10.2596 6.86622 10.2802 7.17528C10.3271 7.8787 10.284 8.58834 10.2423 9.27403C10.1987 9.99566 10.1532 10.7422 10.2159 11.4648C10.2279 11.6076 10.2452 11.7556 10.3075 11.8678C10.3539 11.9521 10.4258 12.0062 10.4982 12.0062C10.6314 11.9981 10.7272 11.7475 10.7622 11.5026C10.8532 10.8663 10.836 10.2487 10.8173 9.59411C10.8068 9.20647 10.7953 8.80541 10.8063 8.38278C10.8111 8.21268 10.8063 8.04161 10.8015 7.87055C10.7895 7.39905 10.7766 6.91174 10.9424 6.44024C11.0612 6.1053 11.3061 5.91268 11.5605 5.93999C11.7038 5.95389 11.962 6.04684 12.077 6.50876C12.3267 7.50495 12.2883 8.53755 12.251 9.53614C12.227 10.1821 12.2016 10.8495 12.2572 11.4931C12.2759 11.7116 12.3406 11.8558 12.3966 11.9023C12.4115 11.9147 12.4239 11.9214 12.4551 11.9186C12.5634 11.908 12.6468 11.7015 12.6793 11.5146C12.7565 11.069 12.7666 10.6095 12.7699 10.1768C12.7771 9.36411 12.7598 8.53803 12.7191 7.72153C12.7019 7.37845 12.6822 6.98936 12.8533 6.63909C13.0545 6.22701 13.6142 5.90261 14.0368 6.10339L14.1576 6.16089L14.1719 6.29362C14.4379 8.73545 14.5639 11.2214 14.5481 13.6824C14.5467 13.943 14.5452 14.2679 14.4599 14.5798C14.2477 15.3594 13.5821 15.8856 12.9956 16.3499L12.9079 16.4189C12.3942 16.8267 11.8926 17.267 11.4177 17.727C11.2495 17.8904 11.0904 18.0524 10.9994 18.2373C10.8614 18.5162 10.8681 18.8507 10.8743 19.2052C10.8791 19.4592 10.8844 19.7213 10.8369 19.9829C10.7833 20.2795 10.6611 20.4947 10.4737 20.6221C10.2682 20.7621 10.0233 20.7697 9.80913 20.7573C8.43153 20.6825 7.00505 20.0467 5.7918 18.9661C4.66384 17.9604 3.69976 16.4855 3.2134 15.0197C2.70836 13.4955 2.63457 11.713 3.01551 10.2506C3.49707 8.40099 4.63318 6.67024 6.30068 5.2452C6.7439 4.86714 7.12436 4.59976 7.49907 4.40282C7.80142 4.24374 8.14595 4.1067 8.58247 3.97061C10.4397 3.39274 12.3329 3.32182 14.0589 3.76841C15.977 4.26434 17.7643 5.50059 18.7235 6.99559C20.3436 9.52032 20.7236 12.7834 19.6919 15.3091C18.7662 17.5761 17.0196 18.8531 15.4326 19.8028L15.3718 19.8392C14.6904 20.2503 13.7738 20.7994 12.9395 20.7994ZM9.35345 6.40478L9.0142 13.2166C8.98545 13.7772 8.95047 14.4749 9.2442 15.0053C9.48857 15.4457 9.92701 15.7389 10.3908 16.0485C10.7924 16.3168 11.2059 16.5928 11.5126 16.9829C11.8691 16.6561 12.238 16.3417 12.6132 16.0442L12.7009 15.9747C13.2558 15.5358 13.8289 15.082 14.0004 14.4543C14.0641 14.2219 14.0704 13.9766 14.0713 13.68C14.0867 11.2966 13.9673 8.8907 13.7172 6.52457C13.5648 6.54709 13.3655 6.68749 13.2864 6.84945C13.1695 7.08903 13.1849 7.39857 13.1997 7.69805C13.2414 8.52366 13.2587 9.35884 13.2515 10.1811C13.2476 10.6334 13.2376 11.1155 13.1537 11.5966C13.0718 12.0719 12.8351 12.3632 12.5044 12.3958C12.3502 12.4102 12.2088 12.3671 12.0928 12.2712C11.8614 12.0791 11.7991 11.7269 11.7828 11.5343C11.7253 10.861 11.7507 10.1782 11.7752 9.51793C11.8125 8.5088 11.848 7.55526 11.6146 6.62472C11.5768 6.47139 11.5265 6.42155 11.5154 6.41628C11.4968 6.42203 11.4378 6.48384 11.3971 6.59932C11.261 6.98697 11.2716 7.41007 11.2835 7.85761C11.2883 8.0373 11.2931 8.21651 11.2883 8.39476C11.2778 8.80493 11.2888 9.19928 11.2993 9.5807C11.318 10.2558 11.3362 10.8936 11.2394 11.5707C11.1589 12.1289 10.9007 12.4614 10.5308 12.4844C10.2778 12.4969 10.0291 12.3488 9.89107 12.1006C9.7823 11.9056 9.7569 11.6914 9.74157 11.5055C9.67545 10.7484 9.72193 9.98416 9.76697 9.24528C9.8077 8.57397 9.84986 7.88014 9.80482 7.20691C9.78709 6.9333 9.75163 6.71864 9.63663 6.56243C9.57099 6.47474 9.45503 6.40718 9.35345 6.40478Z" fill="#38B47B"/>
</svg>
