<svg width="20" height="21" viewBox="0 0 20 21" fill="none" xmlns="http://www.w3.org/2000/svg">
<g clip-path="url(#clip0_34_1393)">
<path d="M3.61111 20.502H16.3889C18.3833 20.502 20 18.8853 20 16.8908V4.11306C20 2.11862 18.3833 0.501953 16.3889 0.501953H3.61111C1.61667 0.501953 0 2.11862 0 4.11306V16.8908C0 18.8853 1.61667 20.502 3.61111 20.502Z" fill="#00C300"/>
<path d="M18 9.88965C18 6.36762 14.4112 3.50195 10.0003 3.50195C5.5894 3.50195 2 6.36762 2 9.88965C2 13.0472 4.846 15.6918 8.69052 16.1921C8.95114 16.2473 9.30574 16.3614 9.39546 16.58C9.47603 16.7788 9.44795 17.0904 9.42109 17.2916C9.42109 17.2916 9.32771 17.8471 9.30696 17.9654C9.27217 18.1642 9.14644 18.7437 9.99969 18.39C10.8536 18.0363 14.6065 15.7207 16.285 13.8194H16.2843C17.4446 12.5692 18 11.2991 18 9.88965ZM6.86866 11.9855H5.27934C5.04803 11.9855 4.86004 11.8005 4.86004 11.5723V8.44421C4.86004 8.21661 5.04803 8.03165 5.27934 8.03165C5.51066 8.03165 5.69865 8.21661 5.69865 8.44421V11.1591H6.86866C7.09998 11.1591 7.28797 11.3441 7.28797 11.5717C7.28797 11.7999 7.09998 11.9855 6.86866 11.9855ZM8.5123 11.5723C8.5123 11.7999 8.32432 11.9855 8.093 11.9855C7.86168 11.9855 7.6737 11.8005 7.6737 11.5723V8.44421C7.6737 8.21661 7.86168 8.03165 8.093 8.03165C8.32432 8.03165 8.5123 8.21661 8.5123 8.44421V11.5723ZM12.3391 11.5723C12.3391 11.7507 12.2244 11.908 12.0523 11.9638C12.0089 11.9782 11.9638 11.9855 11.9192 11.9855C11.788 11.9855 11.6629 11.9236 11.5841 11.8203L9.95514 9.63743V11.5723C9.95514 11.7999 9.76716 11.9855 9.53523 11.9855C9.30391 11.9855 9.11532 11.8005 9.11532 11.5723V8.44421C9.11532 8.26645 9.23067 8.10912 9.40217 8.05267C9.44551 8.03826 9.49006 8.03165 9.53523 8.03165C9.66584 8.03165 9.79157 8.0935 9.8703 8.19679L11.4999 10.3797V8.44421C11.4999 8.21661 11.6885 8.03165 11.9198 8.03165C12.1511 8.03165 12.3391 8.21661 12.3391 8.44421V11.5723ZM14.9111 9.5954C15.1424 9.5954 15.331 9.78036 15.331 10.0086C15.331 10.2361 15.143 10.4211 14.9111 10.4211H13.7411V11.1597H14.9111C15.1424 11.1597 15.331 11.3447 15.331 11.5723C15.331 11.7999 15.1424 11.9855 14.9111 11.9855H13.3218C13.0911 11.9855 12.9025 11.8005 12.9025 11.5723V10.0092V10.008V8.44601C12.9025 8.44541 12.9025 8.44541 12.9025 8.44481C12.9025 8.21721 13.0904 8.03225 13.3218 8.03225H14.9111C15.1424 8.03225 15.331 8.21721 15.331 8.44481C15.331 8.6724 15.143 8.85736 14.9111 8.85736H13.7411V9.596L14.9111 9.5954Z" fill="white"/>
</g>
<defs>
<clipPath id="clip0_34_1393">
<rect width="20" height="20" fill="white" transform="translate(0 0.501953)"/>
</clipPath>
</defs>
</svg>
