<svg width="20" height="21" viewBox="0 0 20 21" fill="none" xmlns="http://www.w3.org/2000/svg">
<g clip-path="url(#clip0_34_1434)">
<path d="M19.8087 6.41825C19.7606 5.36669 19.5935 4.64861 19.3494 4.02031C19.1013 3.36106 18.7126 2.76393 18.21 2.27042C17.7168 1.76792 17.1194 1.37869 16.4602 1.13062C15.8319 0.886719 15.1138 0.719875 14.0622 0.672017C13.0087 0.62394 12.6721 0.612305 9.98926 0.612305C7.30637 0.612305 6.96983 0.62394 5.91629 0.671798C4.86474 0.719875 4.14665 0.886938 3.51835 1.13106C2.8591 1.37913 2.26198 1.76792 1.76847 2.27042C1.26596 2.76371 0.876735 3.36084 0.628665 4.02009C0.384766 4.64861 0.217922 5.36669 0.170064 6.41803C0.121767 7.47178 0.110352 7.80832 0.110352 10.4912C0.110352 13.1743 0.121767 13.5109 0.170064 14.5644C0.217922 15.6157 0.384985 16.334 0.629323 16.9623C0.877394 17.6214 1.26618 18.2187 1.76869 18.712C2.26198 19.2145 2.85932 19.6035 3.51857 19.8514C4.14687 20.0957 4.86496 20.2625 5.91651 20.3106C6.97004 20.3587 7.30659 20.3701 9.98948 20.3701C12.6724 20.3701 13.0089 20.3589 14.0624 20.3106C15.114 20.2625 15.8321 20.0957 16.4604 19.8514C17.7874 19.3383 18.8364 18.2892 19.3494 16.9623C19.5938 16.3338 19.7606 15.6157 19.8087 14.5644C19.8567 13.5106 19.8682 13.1741 19.8682 10.4912C19.8682 7.80832 19.8567 7.47178 19.8087 6.41825ZM18.0305 14.4834C17.9866 15.4467 17.8256 15.9696 17.6904 16.3178C17.358 17.1795 16.6771 17.8602 15.8156 18.1926C15.4677 18.3278 14.9445 18.4887 13.9812 18.5326C12.9398 18.5803 12.6271 18.5902 9.98926 18.5902C7.35115 18.5902 7.03876 18.5803 5.9973 18.5326C5.03422 18.4887 4.51108 18.3278 4.1629 18.1926C3.73393 18.0341 3.3458 17.7816 3.02704 17.4534C2.69884 17.1347 2.44638 16.7468 2.28788 16.3176C2.15265 15.9696 1.99173 15.4465 1.94783 14.4832C1.90041 13.4415 1.89031 13.1291 1.89031 10.4912C1.89031 7.85332 1.90041 7.54093 1.94783 6.49925C1.99195 5.53595 2.15265 5.01303 2.28788 4.66485C2.44638 4.23567 2.69884 3.84754 3.02704 3.52878C3.3458 3.20058 3.73393 2.94812 4.16312 2.78984C4.51108 2.65438 5.03422 2.49369 5.99752 2.44956C7.03898 2.40236 7.35137 2.39226 9.98926 2.39226C12.6271 2.39226 12.9393 2.40236 13.981 2.45C14.9443 2.49391 15.4672 2.65482 15.8154 2.79005C16.2444 2.94856 16.6325 3.20102 16.9513 3.529C17.2795 3.84776 17.5319 4.23589 17.6902 4.66507C17.8256 5.01303 17.9866 5.53617 18.0305 6.49947C18.0779 7.54115 18.088 7.85354 18.088 10.4914C18.088 13.1293 18.0781 13.4415 18.0305 14.4834Z" fill="url(#paint0_linear_34_1434)"/>
<path d="M9.98894 5.41797C7.18729 5.41797 4.91602 7.68924 4.91602 10.4909C4.91602 13.2926 7.18729 15.5638 9.98894 15.5638C12.7908 15.5638 15.0619 13.2926 15.0619 10.4909C15.0619 7.68924 12.7908 5.41797 9.98894 5.41797ZM9.98894 13.7839C8.17057 13.7836 6.69619 12.3095 6.69619 10.4909C6.69619 8.6723 8.17035 7.19793 9.98916 7.19793C11.8078 7.19815 13.2821 8.6723 13.2821 10.4909C13.2821 12.3095 11.8078 13.7839 9.98894 13.7839Z" fill="url(#paint1_linear_34_1434)"/>
<path d="M16.4481 5.2177C16.4481 5.87234 15.9173 6.40316 15.2626 6.40316C14.6078 6.40316 14.0771 5.87234 14.0771 5.2177C14.0771 4.56283 14.608 4.03223 15.2626 4.03223C15.9173 4.03223 16.4481 4.56305 16.4481 5.2177Z" fill="url(#paint2_linear_34_1434)"/>
</g>
<defs>
<linearGradient id="paint0_linear_34_1434" x1="1.76843" y1="18.712" x2="18.2101" y2="2.27031" gradientUnits="userSpaceOnUse">
<stop stop-color="#FFD600"/>
<stop offset="0.5" stop-color="#FF0100"/>
<stop offset="1" stop-color="#D800B9"/>
</linearGradient>
<linearGradient id="paint1_linear_34_1434" x1="6.40198" y1="14.078" x2="13.5762" y2="6.90382" gradientUnits="userSpaceOnUse">
<stop stop-color="#FF6400"/>
<stop offset="0.5" stop-color="#FF0100"/>
<stop offset="1" stop-color="#FD0056"/>
</linearGradient>
<linearGradient id="paint2_linear_34_1434" x1="14.4242" y1="6.056" x2="16.1008" y2="4.37944" gradientUnits="userSpaceOnUse">
<stop stop-color="#F30072"/>
<stop offset="1" stop-color="#E50097"/>
</linearGradient>
<clipPath id="clip0_34_1434">
<rect width="20" height="20" fill="white" transform="translate(0 0.501953)"/>
</clipPath>
</defs>
</svg>
