<svg width="20" height="21" viewBox="0 0 20 21" fill="none" xmlns="http://www.w3.org/2000/svg">
<g clip-path="url(#clip0_34_1409)">
<path d="M9.98926 20.3701C15.4452 20.3701 19.8682 15.9472 19.8682 10.4912C19.8682 5.03524 15.4452 0.612305 9.98926 0.612305C4.53329 0.612305 0.110352 5.03524 0.110352 10.4912C0.110352 15.9472 4.53329 20.3701 9.98926 20.3701Z" fill="#FF4500"/>
<path d="M16.5779 10.4914C16.5485 9.6958 15.8805 9.07452 15.0825 9.10152C14.7288 9.11382 14.3925 9.25871 14.1372 9.50173C13.0125 8.73557 11.6914 8.3156 10.3334 8.28619L10.9742 5.20441L13.0885 5.64896C13.1473 6.19164 13.6336 6.5846 14.1763 6.52554C14.7189 6.46671 15.1119 5.98045 15.0529 5.43777C14.9938 4.89509 14.5078 4.50212 13.9651 4.56118C13.6531 4.59301 13.3732 4.77478 13.2187 5.04503L10.7975 4.56118C10.633 4.5243 10.4684 4.62748 10.4315 4.79454C10.4315 4.79696 10.4315 4.79696 10.4315 4.79937L9.70222 8.22735C8.32708 8.24952 6.98881 8.6719 5.84945 9.44289C5.26989 8.8978 4.35642 8.9248 3.81132 9.50678C3.26622 10.0863 3.29323 10.9998 3.8752 11.5449C3.98826 11.6505 4.11822 11.7414 4.26311 11.8053C4.25324 11.9502 4.25324 12.0951 4.26311 12.2399C4.26311 14.4524 6.84151 16.2523 10.0214 16.2523C13.2013 16.2523 15.7797 14.4548 15.7797 12.2399C15.7896 12.0951 15.7896 11.9502 15.7797 11.8053C16.2759 11.5572 16.5878 11.0464 16.5779 10.4914ZM6.69903 11.481C6.69903 10.9359 7.14358 10.4914 7.68868 10.4914C8.23378 10.4914 8.67833 10.9359 8.67833 11.481C8.67833 12.0261 8.23378 12.4707 7.68868 12.4707C7.14117 12.4656 6.69903 12.0261 6.69903 11.481ZM12.4378 14.2361V14.1968C11.7355 14.7248 10.8761 14.9948 9.99683 14.9582C9.11761 14.9951 8.25836 14.7248 7.55586 14.1968C7.46256 14.0838 7.47969 13.9145 7.59275 13.8212C7.69088 13.7402 7.83094 13.7402 7.9317 13.8212C8.52597 14.2559 9.25043 14.477 9.98695 14.4425C10.7237 14.4818 11.4506 14.2706 12.0521 13.841C12.1601 13.7354 12.3368 13.7378 12.4426 13.8458C12.5482 13.9538 12.5458 14.1305 12.4378 14.2361ZM12.3028 12.5418C12.2857 12.5418 12.271 12.5418 12.2536 12.5418L12.2611 12.5049C11.716 12.5049 11.2714 12.0604 11.2714 11.5153C11.2714 10.9702 11.716 10.5256 12.2611 10.5256C12.8062 10.5256 13.2507 10.9702 13.2507 11.5153C13.2727 12.0606 12.8479 12.5196 12.3028 12.5418Z" fill="white"/>
</g>
<defs>
<clipPath id="clip0_34_1409">
<rect width="20" height="20" fill="white" transform="translate(0 0.501953)"/>
</clipPath>
</defs>
</svg>
