<svg width="20" height="21" viewBox="0 0 20 21" fill="none" xmlns="http://www.w3.org/2000/svg">
<g clip-path="url(#clip0_34_1492)">
<path opacity="0.993" fill-rule="evenodd" clip-rule="evenodd" d="M9.56543 0.49707C9.85186 0.49707 10.1384 0.49707 10.4248 0.49707C10.783 0.517267 11.1411 0.553074 11.499 0.604492C11.4507 0.916611 11.4052 1.22911 11.3623 1.54199C10.6684 1.43944 9.97168 1.41502 9.27246 1.46875C9.05675 1.48639 8.8419 1.5108 8.62793 1.54199C8.58509 1.22911 8.53952 0.916611 8.49121 0.604492C8.84916 0.55332 9.20724 0.517513 9.56543 0.49707Z" fill="#3A75F0"/>
<path opacity="0.993" fill-rule="evenodd" clip-rule="evenodd" d="M7.59277 0.780273C7.67369 1.08439 7.75182 1.39038 7.82715 1.69824C6.93515 1.92295 6.0953 2.27126 5.30762 2.74316C5.14363 2.47542 4.98087 2.20687 4.81934 1.9375C5.68433 1.40989 6.6088 1.02415 7.59277 0.780273Z" fill="#3A75F0"/>
<path opacity="0.993" fill-rule="evenodd" clip-rule="evenodd" d="M12.3877 0.780273C13.3709 1.02129 14.2953 1.40215 15.1611 1.92285C15.1717 1.9313 15.1733 1.94106 15.166 1.95215C15.0049 2.21582 14.8437 2.47949 14.6826 2.74316C13.895 2.27132 13.0552 1.92301 12.1631 1.69824C12.241 1.39292 12.3159 1.08694 12.3877 0.780273Z" fill="#3A75F0"/>
<path opacity="0.999" fill-rule="evenodd" clip-rule="evenodd" d="M9.60419 2.37235C11.767 2.30164 13.6713 2.95756 15.3171 4.34012C16.9319 5.77103 17.858 7.56627 18.0954 9.72586C18.269 11.864 17.7124 13.7847 16.4255 15.4876C15.1266 17.1194 13.4453 18.1268 11.3815 18.51C9.33297 18.8344 7.42542 18.4584 5.65887 17.3821C4.55263 17.6424 3.44586 17.8996 2.33856 18.1536C2.59182 17.0477 2.84898 15.9427 3.11005 14.8382C1.94826 12.9146 1.60483 10.8524 2.07977 8.65165C2.57502 6.63903 3.66062 5.03258 5.33661 3.83231C6.62068 2.94799 8.04321 2.46134 9.60419 2.37235Z" fill="#3A75F0"/>
<path opacity="0.993" fill-rule="evenodd" clip-rule="evenodd" d="M4.04785 2.44043C4.06438 2.44995 4.07903 2.46297 4.0918 2.47949C4.26433 2.71062 4.43685 2.94173 4.60937 3.17285C4.61896 3.18515 4.62222 3.19816 4.61914 3.21191C3.88339 3.75397 3.24374 4.392 2.7002 5.12598C2.44354 4.94094 2.18963 4.75214 1.93848 4.55957C2.53752 3.74894 3.24064 3.04256 4.04785 2.44043Z" fill="#3A75F0"/>
<path opacity="0.993" fill-rule="evenodd" clip-rule="evenodd" d="M15.9228 2.44043C16.7423 3.03532 17.4519 3.74171 18.0517 4.55957C17.8005 4.75214 17.5466 4.94094 17.29 5.12598C16.7464 4.392 16.1068 3.75397 15.371 3.21191C15.3679 3.19816 15.3712 3.18515 15.3808 3.17285C15.5664 2.93161 15.7471 2.68747 15.9228 2.44043Z" fill="#3A75F0"/>
<path opacity="0.993" fill-rule="evenodd" clip-rule="evenodd" d="M1.43066 5.32129C1.7022 5.48148 1.97238 5.64425 2.24121 5.80957C1.76937 6.59716 1.42105 7.437 1.19629 8.3291C0.890401 8.25263 0.584412 8.17613 0.27832 8.09961C0.522612 7.11418 0.906727 6.18808 1.43066 5.32129Z" fill="#3A75F0"/>
<path opacity="0.993" fill-rule="evenodd" clip-rule="evenodd" d="M18.5498 5.32129C18.5797 5.35799 18.6073 5.39705 18.6328 5.43848C19.1146 6.2717 19.4743 7.15549 19.7119 8.08984C19.4057 8.17697 19.0965 8.25347 18.7842 8.31934C18.5655 7.42977 18.2205 6.59317 17.749 5.80957C18.0166 5.64656 18.2835 5.4838 18.5498 5.32129Z" fill="#3A75F0"/>
<path opacity="0.994" fill-rule="evenodd" clip-rule="evenodd" d="M-0.00488281 10.9365C-0.00488281 10.6436 -0.00488281 10.3506 -0.00488281 10.0576C0.0159608 9.70271 0.0517682 9.34789 0.102539 8.99316C0.414658 9.04147 0.727158 9.08704 1.04004 9.12988C0.909831 10.0413 0.909831 10.9528 1.04004 11.8643C0.727139 11.9071 0.414639 11.9526 0.102539 12.001C0.0517682 11.6463 0.0159608 11.2914 -0.00488281 10.9365Z" fill="#3A75F0"/>
<path opacity="0.993" fill-rule="evenodd" clip-rule="evenodd" d="M19.9951 10.0576C19.9951 10.3506 19.9951 10.6436 19.9951 10.9365C19.9741 11.2914 19.9383 11.6462 19.8877 12.001C19.5756 11.9526 19.2631 11.9071 18.9502 11.8643C19.0804 10.9528 19.0804 10.0413 18.9502 9.12988C19.2631 9.08704 19.5756 9.04147 19.8877 8.99316C19.9383 9.34791 19.9741 9.70272 19.9951 10.0576Z" fill="#3A75F0"/>
<path opacity="0.994" fill-rule="evenodd" clip-rule="evenodd" d="M1.18652 12.665C1.41549 13.5339 1.75729 14.3574 2.21191 15.1357C2.10525 15.5812 2.00108 16.0271 1.89941 16.4736C1.5884 16.4097 1.27915 16.3381 0.97168 16.2588C1.04922 15.9313 1.12734 15.6041 1.20605 15.2773C0.795079 14.5229 0.485834 13.7287 0.27832 12.8945C0.582654 12.8192 0.885389 12.7428 1.18652 12.665Z" fill="#3A75F0"/>
<path opacity="0.993" fill-rule="evenodd" clip-rule="evenodd" d="M18.7842 12.665C19.0937 12.7399 19.4028 12.8164 19.7119 12.8945C19.4687 13.8819 19.0829 14.808 18.5547 15.6729C18.2854 15.5114 18.0169 15.3486 17.749 15.1846C18.2233 14.3985 18.5684 13.5587 18.7842 12.665Z" fill="#3A75F0"/>
<path opacity="0.993" fill-rule="evenodd" clip-rule="evenodd" d="M17.2802 15.8682C17.542 16.0496 17.7991 16.2385 18.0517 16.4346C17.4526 17.2502 16.7445 17.9565 15.9277 18.5537C15.743 18.3113 15.5607 18.0672 15.3808 17.8213C15.3712 17.809 15.3679 17.796 15.371 17.7822C16.1073 17.2429 16.7437 16.6049 17.2802 15.8682Z" fill="#3A75F0"/>
<path opacity="0.994" fill-rule="evenodd" clip-rule="evenodd" d="M0.775997 17.0889C1.08635 17.1591 1.39559 17.234 1.70373 17.3135C1.55149 17.9542 1.40176 18.5955 1.25451 19.2373C1.89632 19.09 2.5376 18.9403 3.17834 18.7881C3.25921 19.0985 3.33082 19.411 3.39318 19.7256C2.71982 19.8784 2.046 20.0298 1.3717 20.1797C0.964444 20.2178 0.650316 20.0664 0.429317 19.7256C0.321938 19.5338 0.282876 19.3287 0.31213 19.1104C0.466151 18.4362 0.620774 17.7624 0.775997 17.0889Z" fill="#3A75F0"/>
<path opacity="0.993" fill-rule="evenodd" clip-rule="evenodd" d="M14.6729 18.251C14.6882 18.2553 14.6996 18.265 14.707 18.2803C14.858 18.5415 15.0126 18.8003 15.1709 19.0566C14.3085 19.5829 13.3856 19.9687 12.4023 20.2139C12.3152 19.9076 12.2387 19.5984 12.1729 19.2861C13.0612 19.0697 13.8945 18.7246 14.6729 18.251Z" fill="#3A75F0"/>
<path opacity="0.994" fill-rule="evenodd" clip-rule="evenodd" d="M5.35645 18.2803C6.12427 18.7341 6.94132 19.0726 7.80762 19.2959C7.81087 19.3008 7.81413 19.3057 7.81738 19.3105C7.74479 19.609 7.66993 19.9068 7.59277 20.2041C7.58789 20.2073 7.58301 20.2106 7.57812 20.2139C6.74748 20.0048 5.95483 19.6988 5.2002 19.2959C4.87211 19.3745 4.54333 19.4494 4.21387 19.5205C4.14641 19.2141 4.07968 18.9081 4.01367 18.6025C4.4626 18.4969 4.9102 18.3895 5.35645 18.2803Z" fill="#3A75F0"/>
<path opacity="0.994" fill-rule="evenodd" clip-rule="evenodd" d="M10.4639 20.4971C10.1514 20.4971 9.83887 20.4971 9.52637 20.4971C9.18109 20.4767 8.83604 20.4408 8.49121 20.3896C8.53952 20.0775 8.58509 19.765 8.62793 19.4521C9.53938 19.5954 10.4509 19.5954 11.3623 19.4521C11.4052 19.765 11.4507 20.0775 11.499 20.3896C11.1542 20.4408 10.8092 20.4767 10.4639 20.4971Z" fill="#3A75F0"/>
</g>
<defs>
<clipPath id="clip0_34_1492">
<rect width="20" height="20" fill="white" transform="translate(0 0.501953)"/>
</clipPath>
</defs>
</svg>
