<svg width="20" height="21" viewBox="0 0 20 21" fill="none" xmlns="http://www.w3.org/2000/svg">
<path d="M9.70008 18.5711C13.8804 18.5711 17.2693 15.1822 17.2693 11.0018C17.2693 6.82147 13.8804 3.43262 9.70008 3.43262C5.51971 3.43262 2.13086 6.82147 2.13086 11.0018C2.13086 15.1822 5.51971 18.5711 9.70008 18.5711Z" fill="white"/>
<path d="M19.0704 11.9977C18.7569 11.5643 18.6115 11.0353 18.6122 10.5005C18.6122 10.4974 18.6122 10.4943 18.6122 10.491C18.6122 5.7283 14.7513 1.86719 9.98836 1.86719C8.94646 1.86719 7.94804 2.05269 7.02359 2.39143C6.5235 2.57474 5.97555 2.61008 5.46272 2.46563C5.00983 2.33808 4.52598 2.2843 4.02479 2.31876C1.91927 2.46365 0.224269 4.18917 0.115162 6.29689C0.0631328 7.30278 0.364769 8.23601 0.906352 8.98461C1.21984 9.41796 1.36517 9.94703 1.36451 10.4818C1.36451 10.4849 1.36451 10.488 1.36451 10.4913C1.36451 15.254 5.22563 19.1151 9.98836 19.1151C11.0303 19.1151 12.0287 18.9296 12.9531 18.5909C13.4532 18.4075 14.0012 18.3722 14.514 18.5167C14.9669 18.6442 15.4507 18.698 15.9519 18.6635C18.0574 18.5186 19.7525 16.7931 19.8616 14.6856C19.9136 13.6795 19.612 12.7461 19.0704 11.9977ZM10.304 8.94487C12.043 9.35847 14.6705 9.98326 14.6705 12.8778C14.6705 14.3036 13.9682 15.3914 12.6932 15.9405C11.7832 16.3323 10.7534 16.3852 9.86608 16.3852C7.13906 16.3852 5.41684 14.2648 5.34483 14.1745C4.89831 13.6145 4.99007 12.7983 5.55032 12.3518C6.11034 11.905 6.92656 11.9972 7.37308 12.557C7.37704 12.5619 8.40708 13.7447 9.86608 13.791C11.623 13.8468 12.0243 13.3241 12.0761 12.8778C12.1395 12.3329 11.6548 11.9327 9.70341 11.4688C8.04946 11.0754 5.54988 10.4812 5.54988 7.81539C5.54988 6.98534 5.88752 4.27676 10.232 4.27676C12.9753 4.27676 14.5946 6.43673 14.6622 6.52849C15.0865 7.10564 14.9625 7.91769 14.3854 8.34182C13.8106 8.7642 13.0038 8.64346 12.578 8.07312C12.5474 8.03382 11.6206 7.00268 10.232 6.87074C9.18136 6.77086 8.14408 7.14977 8.14408 7.70957C8.1443 8.30275 8.4422 8.50208 10.304 8.94487Z" fill="#00AAF2"/>
</svg>
