<svg width="20" height="21" viewBox="0 0 20 21" fill="none" xmlns="http://www.w3.org/2000/svg">
<g clip-path="url(#clip0_34_1477)">
<path d="M9.98926 20.3701C4.54203 20.3701 0.110352 15.9384 0.110352 10.491C0.110352 5.04398 4.54203 0.612305 9.98926 0.612305C9.9976 0.612305 10.0057 0.612305 10.0138 0.612744C15.4497 0.626135 19.8682 5.05254 19.8682 10.491C19.8682 15.9384 15.4365 20.3701 9.98926 20.3701Z" fill="#2EBD59"/>
<path d="M13.7741 14.9995C13.6571 14.9995 13.5386 14.9683 13.4312 14.9029C11.1929 13.5347 8.34931 13.2318 4.97928 14.0017C4.62474 14.082 4.27173 13.861 4.19051 13.5062C4.1095 13.1517 4.33144 12.7984 4.68599 12.7174C8.40265 11.8681 11.5762 12.2252 14.1181 13.7791C14.4286 13.9688 14.5263 14.374 14.3366 14.6844C14.2125 14.8875 13.9961 14.9995 13.7741 14.9995Z" fill="white"/>
<path d="M14.8009 12.2786C14.6833 12.2786 14.5643 12.247 14.4567 12.1811C11.8704 10.5915 7.91996 10.1322 4.85003 11.0639C4.50164 11.1691 4.13414 10.973 4.02855 10.6251C3.92295 10.2771 4.11943 9.90919 4.46739 9.8036C7.87166 8.77026 12.2632 9.2866 15.1467 11.0591C15.4565 11.2494 15.5535 11.6551 15.3627 11.9651C15.2382 12.1671 15.0222 12.2786 14.8009 12.2786Z" fill="white"/>
<path d="M15.9993 9.13097C15.8849 9.13097 15.769 9.10111 15.6636 9.03855C12.5375 7.18175 7.36489 7.01513 4.36566 7.9253C4.01814 8.03134 3.64998 7.83442 3.54417 7.48624C3.43857 7.13828 3.63506 6.77035 3.98323 6.66476C7.25008 5.67357 12.9017 5.8661 16.3365 7.90577C16.6491 8.09149 16.7523 8.49565 16.5663 8.80826C16.4429 9.01572 16.2241 9.13097 15.9993 9.13097Z" fill="white"/>
</g>
<defs>
<clipPath id="clip0_34_1477">
<rect width="20" height="20" fill="white" transform="translate(0 0.501953)"/>
</clipPath>
</defs>
</svg>
