<svg width="20" height="21" viewBox="0 0 20 21" fill="none" xmlns="http://www.w3.org/2000/svg">
<g clip-path="url(#clip0_34_1467)">
<path d="M9.98926 20.3701C15.4452 20.3701 19.8682 15.9472 19.8682 10.4912C19.8682 5.03524 15.4452 0.612305 9.98926 0.612305C4.53329 0.612305 0.110352 5.03524 0.110352 10.4912C0.110352 15.9472 4.53329 20.3701 9.98926 20.3701Z" fill="url(#paint0_linear_34_1467)"/>
<path d="M8.17852 15.019C7.85844 15.019 7.91288 14.8983 7.80246 14.5934L6.86133 11.4962L14.1059 7.19824" fill="#C8DAEA"/>
<path d="M8.17773 15.0194C8.42471 15.0194 8.53381 14.9066 8.67168 14.7725L9.98887 13.4917L8.3459 12.501" fill="#A9C9DD"/>
<path d="M8.346 12.501L12.3272 15.4423C12.7816 15.693 13.1094 15.5633 13.2227 15.0206L14.8433 7.38398C15.0092 6.7188 14.5897 6.41694 14.155 6.6143L4.639 10.2835C3.98941 10.5441 3.99336 10.9066 4.52067 11.0679L6.96274 11.8301L12.6161 8.26342C12.8831 8.10162 13.1281 8.18856 12.927 8.36704L8.346 12.501Z" fill="#FCFDFF"/>
</g>
<defs>
<linearGradient id="paint0_linear_34_1467" x1="12.8849" y1="17.2438" x2="7.94542" y2="5.72497" gradientUnits="userSpaceOnUse">
<stop stop-color="#37AEE2"/>
<stop offset="1" stop-color="#1E96C8"/>
</linearGradient>
<clipPath id="clip0_34_1467">
<rect width="20" height="20" fill="white" transform="translate(0 0.501953)"/>
</clipPath>
</defs>
</svg>
