<svg width="20" height="21" viewBox="0 0 20 21" fill="none" xmlns="http://www.w3.org/2000/svg">
<g clip-path="url(#clip0_34_1445)">
<path d="M9.98926 20.3701C4.53325 20.3701 0.110352 15.9472 0.110352 10.4912C0.110352 5.0352 4.53325 0.612305 9.98926 0.612305C15.4453 0.612305 19.8682 5.0352 19.8682 10.4912C19.8682 15.9472 15.4453 20.3701 9.98926 20.3701Z" fill="black"/>
<path d="M8.89599 9.30367V8.86729C8.74484 8.84594 8.59198 8.83484 8.43912 8.83398C6.56976 8.83398 5.04883 10.3549 5.04883 12.2243C5.04883 13.3712 5.62185 14.3857 6.49632 14.9997C5.91134 14.3737 5.58513 13.5488 5.58598 12.6914C5.58683 10.8494 7.06421 9.34637 8.89599 9.30367Z" fill="#00F2EA"/>
<path d="M8.97605 14.2396C9.81038 14.2396 10.4901 13.5761 10.5217 12.7494L10.5243 5.36849H11.8727C11.8437 5.21392 11.8292 5.05764 11.8292 4.90137H9.98716L9.98374 12.2823C9.953 13.1089 9.27238 13.7725 8.4389 13.7725C8.18868 13.7725 7.94188 13.7118 7.7207 13.5948C8.01106 13.9996 8.47818 14.2396 8.97605 14.2396ZM14.3911 7.87406V7.46415C13.8958 7.465 13.4107 7.32068 12.9957 7.04912C13.3595 7.46757 13.8497 7.75707 14.3911 7.87406Z" fill="#00F2EA"/>
<path d="M12.9966 7.04891C12.5901 6.58349 12.3663 5.98657 12.3663 5.36914H11.8727C12.0017 6.05915 12.4073 6.66548 12.9966 7.04891ZM8.43889 10.6758C7.58405 10.6766 6.89148 11.3692 6.89062 12.224C6.89148 12.7996 7.21087 13.3273 7.72069 13.5946C7.53025 13.3316 7.42778 13.0165 7.42778 12.692C7.42863 11.8372 8.12121 11.1446 8.97604 11.1437C9.13573 11.1437 9.28859 11.1702 9.43291 11.2155V9.33501C9.28176 9.31366 9.1289 9.30256 8.97604 9.3017C8.94956 9.3017 8.92309 9.30341 8.89576 9.30341V10.7475C8.74802 10.7005 8.59431 10.6766 8.43889 10.6758Z" fill="#FF004F"/>
<path d="M14.3912 7.87402V9.30529C13.4365 9.30529 12.5518 8.99956 11.8293 8.4812V12.2242C11.8293 14.0935 10.3092 15.6145 8.43987 15.6145C7.7174 15.6145 7.04789 15.3865 6.49707 14.9996C7.1367 15.6896 8.03508 16.0816 8.97616 16.0816C10.8455 16.0816 12.3665 14.5607 12.3665 12.6922V8.94918C13.1128 9.48633 14.0095 9.77412 14.9284 9.77327V7.93124C14.7439 7.93124 14.5646 7.91074 14.3912 7.87402Z" fill="#FF004F"/>
<path d="M11.8295 12.224V8.48103C12.5759 9.01818 13.4725 9.30597 14.3914 9.30512V7.87385C13.8491 7.75686 13.3598 7.46736 12.996 7.04891C12.4076 6.66548 12.002 6.05915 11.873 5.36914H10.5246L10.522 12.7501C10.4913 13.5767 9.81068 14.2402 8.97635 14.2402C8.47848 14.2394 8.01135 13.9994 7.72186 13.5946C7.21203 13.3273 6.89264 12.7996 6.89179 12.224C6.89264 11.3692 7.58522 10.6766 8.44005 10.6758C8.59889 10.6758 8.7526 10.7022 8.89693 10.7475V9.30341C7.06429 9.34611 5.58691 10.8491 5.58691 12.692C5.58691 13.5827 5.93277 14.394 6.49725 15.0003C7.066 15.4008 7.74491 15.6152 8.44005 15.6143C10.3085 15.6143 11.8295 14.0934 11.8295 12.224Z" fill="white"/>
</g>
<defs>
<clipPath id="clip0_34_1445">
<rect width="20" height="20" fill="white" transform="translate(0 0.501953)"/>
</clipPath>
</defs>
</svg>
