<svg width="20" height="21" viewBox="0 0 20 21" fill="none" xmlns="http://www.w3.org/2000/svg">
<g clip-path="url(#clip0_34_1405)">
<path d="M5.57422 5.66406L12.7968 15.319H14.4323L7.20973 5.66406H5.57422Z" fill="black"/>
<path d="M9.98926 0.612305C4.53325 0.612305 0.110352 5.0352 0.110352 10.4912C0.110352 15.9472 4.53325 20.3701 9.98926 20.3701C15.4453 20.3701 19.8682 15.9472 19.8682 10.4912C19.8682 5.0352 15.4453 0.612305 9.98926 0.612305ZM12.4111 16.0901L9.12299 11.6936L5.05332 16.0901H4.00725L8.65561 11.0686L4.03645 4.89229H7.59659L10.6248 8.94132L14.3726 4.89229H15.4187L11.0922 9.56655L15.9713 16.0901H12.4111Z" fill="black"/>
</g>
<defs>
<clipPath id="clip0_34_1405">
<rect width="20" height="20" fill="white" transform="translate(0 0.501953)"/>
</clipPath>
</defs>
</svg>
