<svg width="16" height="17" viewBox="0 0 16 17" fill="none" xmlns="http://www.w3.org/2000/svg">
<path fill-rule="evenodd" clip-rule="evenodd" d="M6.89543 14.871C6.89543 15.5822 7.47192 16.1587 8.18311 16.1587C8.89429 16.1587 9.47079 15.5822 9.47079 14.871V9.7203H14.6215C15.3327 9.7203 15.9092 9.1438 15.9092 8.43262C15.9092 7.72143 15.3327 7.14494 14.6215 7.14494H9.47079V1.99422C9.47079 1.28305 8.89429 0.706543 8.18311 0.706543C7.47192 0.706543 6.89543 1.28305 6.89543 1.99422V7.14494H1.74471C1.03355 7.14494 0.457031 7.72143 0.457031 8.43262C0.457031 9.1438 1.03355 9.7203 1.74471 9.7203H6.89543V14.871Z" fill="black"/>
</svg>
