<svg width="20" height="21" viewBox="0 0 20 21" fill="none" xmlns="http://www.w3.org/2000/svg">
<g clip-path="url(#clip0_34_1527)">
<path d="M9.98926 20.3701C4.53325 20.3701 0.110352 15.9472 0.110352 10.4912C0.110352 5.0352 4.53325 0.612305 9.98926 0.612305C15.4453 0.612305 19.8682 5.0352 19.8682 10.4912C19.8682 15.9472 15.4453 20.3701 9.98926 20.3701Z" fill="#7360F2"/>
<path d="M14.8252 5.18997C14.4978 4.8879 13.1752 3.92767 10.2288 3.91472C10.2288 3.91472 6.75431 3.70528 5.06063 5.25891C4.11774 6.20201 3.78603 7.58177 3.75112 9.29257C3.71622 11.0034 3.67077 14.2094 6.76134 15.0788H6.76441L6.76221 16.4052C6.76221 16.4052 6.74246 16.9421 7.09612 17.0517C7.52377 17.1845 7.77491 16.7764 8.18324 16.3365C8.40738 16.095 8.71692 15.7402 8.95006 15.4689C11.0637 15.6467 12.6891 15.2401 12.8737 15.1802C13.3005 15.0419 15.7154 14.7323 16.1081 11.5265C16.5136 8.22214 15.9121 6.13198 14.8252 5.18997ZM15.1834 11.2894C14.8519 13.9662 12.8933 14.1343 12.5322 14.2502C12.3785 14.2996 10.9509 14.6548 9.15554 14.5376C9.15554 14.5376 7.81772 16.1516 7.39995 16.5711C7.33475 16.6368 7.25814 16.6633 7.20677 16.6502C7.13476 16.6326 7.115 16.5474 7.11588 16.4229C7.11698 16.2451 7.12729 14.2186 7.12729 14.2186C4.51312 13.4929 4.66547 10.7641 4.69511 9.33516C4.72474 7.90623 4.99323 6.73569 5.79057 5.94845C7.22323 4.65081 10.1744 4.84465 10.1744 4.84465C12.6667 4.85563 13.861 5.60599 14.1378 5.85757C15.0574 6.64481 15.5257 8.52882 15.1832 11.2888V11.2894H15.1834Z" fill="white"/>
<path d="M11.4415 9.38437C11.3533 9.38437 11.2797 9.315 11.2753 9.22609C11.2472 8.65992 10.9809 8.38309 10.4372 8.35455C10.3452 8.34972 10.2747 8.27135 10.2795 8.17936C10.2844 8.08738 10.3623 8.01669 10.4547 8.02174C11.1726 8.05928 11.5715 8.47002 11.6084 9.2094C11.613 9.30139 11.5421 9.37954 11.4503 9.38415C11.447 9.38437 11.4444 9.38437 11.4415 9.38437Z" fill="white"/>
<path d="M12.2965 9.67142C12.2952 9.67142 12.2941 9.67142 12.2928 9.67142C12.2008 9.66944 12.1277 9.59326 12.1299 9.50128C12.1422 8.93181 11.9795 8.47058 11.6327 8.09145C11.286 7.7132 10.8112 7.50684 10.1809 7.46074C10.0891 7.45393 10.0202 7.37424 10.0268 7.28248C10.0336 7.19071 10.1137 7.12178 10.2051 7.12836C10.9141 7.18017 11.477 7.42868 11.8783 7.86643C12.2805 8.30571 12.4772 8.85827 12.4629 9.50852C12.4612 9.59919 12.387 9.67142 12.2965 9.67142Z" fill="white"/>
<path d="M13.1716 10.0129C13.0801 10.0129 13.0056 9.93918 13.005 9.84764C12.9973 8.84219 12.6957 8.04222 12.1082 7.46968C11.5196 6.89604 10.7761 6.60209 9.89795 6.59594C9.80597 6.59529 9.73177 6.52021 9.73243 6.42822C9.73308 6.33668 9.80751 6.2627 9.89905 6.2627C9.89949 6.2627 9.90015 6.2627 9.90015 6.2627C10.8674 6.2695 11.6884 6.59528 12.3407 7.23105C12.994 7.86813 13.3297 8.74757 13.338 9.84523C13.3387 9.93721 13.2647 10.0125 13.1727 10.0132C13.1727 10.0132 13.172 10.0129 13.1716 10.0129Z" fill="white"/>
<path d="M10.4788 11.4496C10.4788 11.4496 10.713 11.4694 10.839 11.3139L11.0849 11.0046C11.2034 10.8512 11.4897 10.7535 11.7701 10.9096C11.9801 11.0294 12.1841 11.1596 12.381 11.2997C12.567 11.4364 12.9478 11.7543 12.9492 11.7543C13.1307 11.9075 13.1724 12.1323 13.049 12.3697C13.049 12.371 13.0479 12.3734 13.0479 12.3747C12.9118 12.6105 12.7391 12.8232 12.5362 13.0048C12.5338 13.0059 12.5338 13.0072 12.5316 13.0083C12.3553 13.1556 12.1821 13.2394 12.012 13.2594C11.987 13.2638 11.9615 13.2653 11.936 13.2642C11.8609 13.2649 11.7863 13.2535 11.715 13.2302L11.7095 13.2221C11.4473 13.1481 11.0098 12.9633 10.281 12.5611C9.85925 12.3312 9.45773 12.066 9.0808 11.7684C8.89178 11.6193 8.71154 11.4595 8.54097 11.2896L8.52275 11.2713L8.50453 11.2531L8.48631 11.2349C8.48016 11.229 8.47423 11.2228 8.46808 11.2167C8.29839 11.0461 8.13857 10.8659 7.98929 10.6769C7.6916 10.2999 7.42641 9.89839 7.19656 9.47689C6.7946 8.74783 6.60953 8.31074 6.53555 8.04818L6.52743 8.0427C6.50416 7.97135 6.49274 7.89671 6.49362 7.82163C6.4923 7.79616 6.49384 7.7707 6.49823 7.74567C6.51952 7.57575 6.60339 7.40254 6.74981 7.2256C6.75091 7.2234 6.75223 7.2234 6.75333 7.22099C6.93488 7.01814 7.1476 6.84537 7.38338 6.70948C7.38448 6.70948 7.38689 6.70838 7.38843 6.70838C7.62552 6.58479 7.85054 6.62672 8.00356 6.80717C8.00465 6.80827 8.3221 7.18916 8.45821 7.37532C8.59849 7.57246 8.72867 7.77662 8.84831 7.98693C9.0044 8.26706 8.90671 8.55376 8.75326 8.67209L8.44394 8.91797C8.28785 9.04398 8.30827 9.27822 8.30827 9.27822C8.30827 9.27822 8.76687 11.0127 10.4788 11.4496Z" fill="white"/>
</g>
<defs>
<clipPath id="clip0_34_1527">
<rect width="20" height="20" fill="white" transform="translate(0 0.501953)"/>
</clipPath>
</defs>
</svg>
