<svg width="20" height="21" viewBox="0 0 20 21" fill="none" xmlns="http://www.w3.org/2000/svg">
<g clip-path="url(#clip0_34_1333)">
<path d="M9.98895 0.612305C6.46921 0.612305 3.3815 2.45461 1.63184 5.22575C2.23094 5.65823 2.96417 5.91618 3.75975 5.91618H10.8723C14.6219 5.91618 17.9243 7.82698 19.8617 10.7272C19.8637 10.6484 19.8679 10.5702 19.8679 10.4912C19.8679 5.0352 15.445 0.612305 9.98895 0.612305Z" fill="#00AAEA"/>
<path d="M19.8682 10.4914C19.8682 10.2264 19.8546 9.9647 19.8342 9.70478C17.8929 6.70115 14.6039 5.19736 10.8727 5.19736H3.76014C3.06665 5.19736 2.42078 5.08891 1.8691 4.86719C0.853989 6.33036 0.222398 8.07959 0.124268 9.97085C2.1051 12.4136 5.12826 13.9766 8.51826 13.9766H8.6816C10.6657 13.9766 11.5577 14.842 11.6077 16.8141C11.6086 16.7827 11.6126 16.7522 11.6126 16.7206C11.6126 18.5684 10.8407 20.0915 9.15996 20.3332C9.43371 20.3558 9.70966 20.3703 9.98934 20.3703C15.4454 20.3703 19.8682 15.9474 19.8682 10.4914Z" fill="#00A1DD"/>
<path d="M9.17041 20.3337C10.924 20.0983 12.2809 18.6209 12.3268 16.8137C12.2768 14.8416 10.6659 13.2573 8.68173 13.2573H8.5184C5.16045 13.2573 2.16363 11.7223 0.182138 9.31934C0.136476 9.70395 0.110352 10.0945 0.110352 10.4912C0.110352 15.671 4.09792 19.917 9.17041 20.3337Z" fill="#0097D0"/>
<path d="M15.4719 7.94077C15.4231 9.00921 14.6767 10.4718 13.2332 12.3287C11.741 14.2675 10.4782 15.2379 9.44555 15.2379C8.80523 15.2379 8.26422 14.6475 7.82191 13.4662C7.52643 12.3836 7.23156 11.3009 6.93607 10.2177C6.60727 9.03697 6.25565 8.44599 5.87812 8.44599C5.79607 8.44599 5.5086 8.61872 5.01633 8.96294L4.5 8.29794C5.04162 7.82232 5.57584 7.34609 6.10143 6.86986C6.8238 6.24557 7.36665 5.91739 7.72815 5.88408C8.58191 5.80203 9.10811 6.3856 9.30552 7.63541C9.51896 8.98391 9.66639 9.82226 9.74906 10.1504C9.99581 11.2695 10.2666 11.8284 10.5627 11.8284C10.7922 11.8284 11.1377 11.4656 11.5979 10.7396C12.0574 10.0141 12.3036 9.462 12.3369 9.08262C12.4029 8.45648 12.1561 8.14249 11.5979 8.14249C11.3351 8.14249 11.0642 8.20294 10.7854 8.32262C11.3252 6.55586 12.3554 5.69778 13.8766 5.74713C15.0049 5.77982 15.5366 6.51145 15.4719 7.94077Z" fill="white"/>
</g>
<defs>
<clipPath id="clip0_34_1333">
<rect width="20" height="20" fill="white" transform="translate(0 0.501953)"/>
</clipPath>
</defs>
</svg>
