<svg width="20" height="21" viewBox="0 0 20 21" fill="none" xmlns="http://www.w3.org/2000/svg">
<path fill-rule="evenodd" clip-rule="evenodd" d="M19.4148 5.41851C19.5523 4.96056 19.4148 4.62402 18.7613 4.62402H16.5998C16.0501 4.62402 15.7967 4.91468 15.6595 5.23542C15.6595 5.23542 14.5601 7.91458 13.003 9.65502C12.4994 10.1588 12.2704 10.3193 11.9953 10.3193C11.8581 10.3193 11.6592 10.1588 11.6592 9.70112V5.41851C11.6592 4.86902 11.4996 4.62402 11.0417 4.62402H7.64466C7.30132 4.62402 7.09452 4.87912 7.09452 5.12104C7.09452 5.64199 7.8732 5.76229 7.95354 7.22788V10.4109C7.95354 11.1088 7.82753 11.2356 7.55268 11.2356C6.8201 11.2356 5.03751 8.54419 3.98025 5.46461C3.77301 4.86595 3.56533 4.62424 3.01299 4.62424H0.851489C0.233728 4.62402 0.110352 4.91468 0.110352 5.2352C0.110352 5.80774 0.842927 8.64737 3.52231 12.4029C5.30841 14.9675 7.8249 16.358 10.115 16.358C11.4889 16.358 11.659 16.0491 11.659 15.5172V13.5789C11.659 12.9612 11.7892 12.838 12.2243 12.838C12.5448 12.838 13.0943 12.998 14.3768 14.2347C15.8424 15.7003 16.0839 16.3577 16.9084 16.3577H19.0699C19.6873 16.3577 19.9962 16.0489 19.8181 15.4397C19.6229 14.8322 18.9233 13.951 17.9949 12.9067C17.4911 12.3114 16.7352 11.6701 16.5063 11.3494C16.1855 10.9373 16.2773 10.7542 16.5063 10.3876C16.5063 10.3876 19.1402 6.67796 19.4148 5.41851Z" fill="#395976"/>
</svg>
