<svg width="20" height="21" viewBox="0 0 20 21" fill="none" xmlns="http://www.w3.org/2000/svg">
<g clip-path="url(#clip0_34_1421)">
<path d="M9.98926 20.3701C15.4452 20.3701 19.8682 15.9472 19.8682 10.4912C19.8682 5.03524 15.4452 0.612305 9.98926 0.612305C4.53329 0.612305 0.110352 5.03524 0.110352 10.4912C0.110352 15.9472 4.53329 20.3701 9.98926 20.3701Z" fill="#20C4CB"/>
<path d="M9.32249 17.7104C5.69562 17.7104 2.74512 14.7597 2.74512 11.133C2.74512 7.50616 5.69562 4.55566 9.32249 4.55566C12.9494 4.55566 15.8999 7.50616 15.8999 11.133C15.8999 14.7597 12.9491 17.7104 9.32249 17.7104ZM9.32249 5.6531C6.30086 5.6531 3.84277 8.11141 3.84277 11.133C3.84277 14.1547 6.30086 16.6128 9.32249 16.6128C12.3441 16.6128 14.8022 14.1547 14.8022 11.133C14.8022 8.11141 12.3441 5.6531 9.32249 5.6531Z" fill="#1BA7AD"/>
<path d="M9.32209 17.7104C7.55377 17.7104 6.62866 14.4016 6.62866 11.133C6.62866 7.86444 7.55377 4.55566 9.32209 4.55566C11.0904 4.55566 12.0157 7.86444 12.0157 11.133C12.0155 14.4016 11.0904 17.7104 9.32209 17.7104ZM9.32209 5.6531C8.78051 5.6531 7.72632 7.58739 7.72632 11.1328C7.72632 14.6783 8.78051 16.6125 9.32209 16.6125C9.86367 16.6125 10.9181 14.6783 10.9181 11.1328C10.9179 7.58739 9.86367 5.6531 9.32209 5.6531Z" fill="#1BA7AD"/>
<path d="M9.32249 13.8263C6.05389 13.8263 2.74512 12.9014 2.74512 11.1331C2.74512 9.36478 6.05389 8.43945 9.32249 8.43945C12.5911 8.43945 15.8999 9.36456 15.8999 11.1331C15.8999 12.9014 12.5911 13.8263 9.32249 13.8263ZM9.32249 9.53711C5.77706 9.53711 3.84277 10.5913 3.84277 11.1331C3.84277 11.6747 5.77706 12.7289 9.32249 12.7289C12.8679 12.7289 14.8022 11.6747 14.8022 11.1331C14.8022 10.5915 12.8679 9.53711 9.32249 9.53711Z" fill="#1BA7AD"/>
<path d="M9.99828 17.0346C6.3714 17.0346 3.4209 14.0841 3.4209 10.4573C3.4209 6.83038 6.3714 3.87988 9.99828 3.87988C13.6252 3.87988 16.5757 6.83038 16.5757 10.457C16.5757 14.0839 13.6252 17.0346 9.99828 17.0346ZM9.99828 4.97732C6.97665 4.97732 4.51855 7.43541 4.51855 10.457C4.51855 13.4787 6.97665 15.9368 9.99828 15.9368C13.0199 15.9368 15.478 13.4787 15.478 10.457C15.478 7.43563 13.0199 4.97732 9.99828 4.97732Z" fill="white"/>
<path d="M9.99736 17.0346C8.22904 17.0346 7.30371 13.7259 7.30371 10.4573C7.30371 7.18866 8.22882 3.87988 9.99736 3.87988C11.7657 3.87988 12.691 7.18866 12.691 10.4573C12.691 13.7256 11.7657 17.0346 9.99736 17.0346ZM9.99736 4.97732C9.45578 4.97732 8.40137 6.91161 8.40137 10.457C8.40137 14.0027 9.45556 15.9368 9.99736 15.9368C10.5392 15.9368 11.5934 14.0025 11.5934 10.457C11.5934 6.91161 10.5392 4.97732 9.99736 4.97732Z" fill="white"/>
<path d="M9.99828 13.1505C6.72967 13.1505 3.4209 12.2254 3.4209 10.4571C3.4209 8.68878 6.72967 7.76367 9.99828 7.76367C13.2669 7.76367 16.5757 8.689 16.5757 10.4571C16.5757 12.2254 13.2669 13.1505 9.99828 13.1505ZM9.99828 8.86133C6.45285 8.86133 4.51855 9.91552 4.51855 10.4571C4.51855 10.9987 6.45285 12.0529 9.99828 12.0529C13.5437 12.0529 15.478 10.9989 15.478 10.4571C15.478 9.9153 13.5437 8.86133 9.99828 8.86133Z" fill="white"/>
</g>
<defs>
<clipPath id="clip0_34_1421">
<rect width="20" height="20" fill="white" transform="translate(0 0.501953)"/>
</clipPath>
</defs>
</svg>
