<svg width="20" height="21" viewBox="0 0 20 21" fill="none" xmlns="http://www.w3.org/2000/svg">
<g clip-path="url(#clip0_34_1462)">
<path d="M9.98926 20.3701C15.4452 20.3701 19.8682 15.9472 19.8682 10.4912C19.8682 5.03524 15.4452 0.612305 9.98926 0.612305C4.53329 0.612305 0.110352 5.03524 0.110352 10.4912C0.110352 15.9472 4.53329 20.3701 9.98926 20.3701Z" fill="#2AB540"/>
<path d="M3.6532 10.4337C3.65276 11.5546 3.94562 12.649 4.50257 13.6136L3.59985 16.9095L6.97295 16.025C7.90223 16.5319 8.94851 16.7988 10.0135 16.7993H10.0161C13.5227 16.7993 16.3772 13.9456 16.3788 10.4386C16.3794 8.73894 15.718 7.14075 14.5169 5.9386C13.3156 4.73645 11.7181 4.0739 10.0161 4.07324C6.50886 4.07324 3.65474 6.92649 3.6532 10.4337ZM5.66191 13.4474L5.5359 13.2475C5.00639 12.4058 4.72693 11.4328 4.72737 10.4339C4.72846 7.519 7.10072 5.14741 10.0179 5.14741C11.4305 5.14807 12.758 5.69865 13.7567 6.69774C14.7551 7.69704 15.3046 9.02543 15.3044 10.4379C15.3031 13.353 12.9308 15.7249 10.0159 15.7249H10.0139C9.06486 15.7242 8.13405 15.4696 7.32223 14.9879L7.12904 14.8733L5.12735 15.3982L5.66191 13.4474Z" fill="white"/>
<path d="M8.42617 7.77446C8.30697 7.50971 8.18184 7.50444 8.06834 7.49983C7.9757 7.49588 7.86966 7.4961 7.76363 7.4961C7.6576 7.4961 7.48526 7.53583 7.33972 7.69499C7.19395 7.85415 6.7832 8.23877 6.7832 9.02074C6.7832 9.80293 7.35289 10.5588 7.43236 10.665C7.51183 10.7711 8.53221 12.4274 10.148 13.0647C11.4911 13.5942 11.7641 13.4891 12.0557 13.4625C12.3472 13.436 12.9964 13.0781 13.1288 12.7069C13.2614 12.3357 13.2614 12.0176 13.2216 11.951C13.1819 11.8847 13.0758 11.845 12.9169 11.7655C12.758 11.6861 11.9762 11.3015 11.8307 11.2483C11.6849 11.1954 11.5789 11.1689 11.4728 11.328C11.3668 11.487 11.0623 11.845 10.9697 11.951C10.877 12.0573 10.7842 12.0705 10.6252 11.991C10.4663 11.9113 9.95411 11.7436 9.34667 11.202C8.87402 10.7805 8.55504 10.2602 8.46218 10.1011C8.36954 9.94211 8.4523 9.85606 8.53199 9.77681C8.60334 9.70568 8.69093 9.59108 8.77062 9.49844C8.84987 9.40558 8.87643 9.33928 8.92934 9.23325C8.98247 9.12721 8.9559 9.03435 8.91617 8.95466C8.87643 8.87497 8.56755 8.08883 8.42617 7.77446Z" fill="white"/>
</g>
<defs>
<clipPath id="clip0_34_1462">
<rect width="20" height="20" fill="white" transform="translate(0 0.501953)"/>
</clipPath>
</defs>
</svg>
