<svg width="20" height="21" viewBox="0 0 20 21" fill="none" xmlns="http://www.w3.org/2000/svg">
<g clip-path="url(#clip0_34_1430)">
<path d="M3.11213 4.51465C2.94046 4.51465 2.796 4.5748 2.72356 4.69269C2.64848 4.81453 2.66012 4.97127 2.7398 5.12978L4.66641 8.46511C4.6697 8.47148 4.6697 8.47543 4.66641 8.48136L1.63886 13.8243C1.55982 13.9817 1.56378 14.1398 1.63886 14.2614C1.7113 14.3786 1.83973 14.4557 2.01118 14.4557H4.8607C5.28681 14.4557 5.49207 14.1681 5.63784 13.9051C5.63784 13.9051 8.59887 8.6684 8.71413 8.46511C8.70249 8.44623 6.75503 5.04899 6.75503 5.04899C6.61321 4.79631 6.39873 4.51465 5.96165 4.51465H3.11213Z" fill="#005A5F"/>
<path d="M15.0833 0.612305C14.6579 0.612305 14.4732 0.880352 14.3204 1.15499C14.3204 1.15499 8.18168 12.0415 7.97949 12.3992C7.98981 12.4187 12.0285 19.8274 12.0285 19.8274C12.1697 20.0799 12.3879 20.3701 12.8245 20.3701H15.671C15.8427 20.3701 15.9766 20.3054 16.0492 20.1881C16.125 20.0663 16.123 19.9058 16.0433 19.7477L12.0259 12.4082C12.0219 12.4022 12.0219 12.3952 12.0259 12.3895L18.335 1.23402C18.414 1.07661 18.416 0.915916 18.3409 0.794296C18.2685 0.677066 18.1337 0.612305 17.962 0.612305H15.0833Z" fill="#D4D600"/>
</g>
<defs>
<clipPath id="clip0_34_1430">
<rect width="20" height="20" fill="white" transform="translate(0 0.501953)"/>
</clipPath>
</defs>
</svg>
