<svg width="20" height="21" viewBox="0 0 20 21" fill="none" xmlns="http://www.w3.org/2000/svg">
<g clip-path="url(#clip0_34_1453)">
<path d="M10 20.502C15.5228 20.502 20 16.0248 20 10.502C20 4.97911 15.5228 0.501953 10 0.501953C4.47715 0.501953 0 4.97911 0 10.502C0 16.0248 4.47715 20.502 10 20.502Z" fill="#FE5022"/>
<path d="M9.99969 0.501953C9.55762 0.501953 9.1223 0.531016 8.69535 0.586602C13.6019 1.22578 17.391 5.42121 17.391 10.502C17.391 15.5827 13.6018 19.7781 8.69531 20.4173C9.1223 20.4729 9.55762 20.502 9.99969 20.502C15.5225 20.502 19.9997 16.0248 19.9997 10.502C19.9997 4.97914 15.5225 0.501953 9.99969 0.501953Z" fill="#FF3501"/>
<path d="M9.49964 8.88155L8.14617 3.53053C8.05148 3.1562 7.72113 2.8662 7.5121 2.97389L5.29296 4.1176C5.08398 4.2253 5.12847 4.66264 5.37839 4.95694L8.95101 9.16428C9.26999 9.53983 9.6205 9.35921 9.49964 8.88155L8.14617 3.53053C8.05148 3.1562 7.72113 2.8662 7.5121 2.97389L5.29296 4.1176C5.08398 4.2253 5.12847 4.66264 5.37839 4.95694L8.95101 9.16428C9.26999 9.53983 9.6205 9.35921 9.49964 8.88155Z" fill="white"/>
<path d="M8.44424 10.4418L5.16339 9.71223C4.93385 9.66118 4.72538 9.85809 4.76327 10.0902L5.16522 12.5541C5.20307 12.7861 5.46335 12.9065 5.66475 12.7852L8.54366 11.0509C8.80061 10.896 8.73713 10.5068 8.44424 10.4418L5.16339 9.71223C4.93385 9.66118 4.72538 9.85809 4.76327 10.0902L5.16522 12.5541C5.20307 12.7861 5.46335 12.9065 5.66475 12.7852L8.54366 11.0509C8.80061 10.896 8.73713 10.5068 8.44424 10.4418Z" fill="white"/>
<path d="M9.4523 11.9507L7.74465 14.8456C7.62516 15.0482 7.74805 15.3073 7.98043 15.343L10.448 15.7221C10.6804 15.7578 10.8754 15.5475 10.8222 15.3185L10.0623 12.0445C9.99445 11.7522 9.60469 11.6923 9.4523 11.9507L7.74465 14.8456C7.62516 15.0482 7.74805 15.3073 7.98043 15.343L10.448 15.7221C10.6804 15.7578 10.8754 15.5475 10.8222 15.3185L10.0623 12.0445C9.99445 11.7522 9.60469 11.6923 9.4523 11.9507Z" fill="white"/>
<path d="M11.2004 11.4588L13.4259 13.9774C13.5816 14.1536 13.8659 14.1169 13.9717 13.9069L15.0948 11.6773C15.2006 11.4673 15.0608 11.2169 14.8266 11.1967L11.478 10.9076C11.1791 10.8818 11.0017 11.234 11.2004 11.4588L13.4259 13.9774C13.5816 14.1536 13.8659 14.1169 13.9717 13.9069L15.0948 11.6773C15.2006 11.4673 15.0608 11.2169 14.8266 11.1967L11.478 10.9076C11.1791 10.8818 11.0017 11.234 11.2004 11.4588Z" fill="white"/>
<path d="M11.2714 9.6447L14.3544 8.30646C14.5702 8.21286 14.623 7.93099 14.456 7.76552L12.6826 6.00845C12.5155 5.84298 12.2342 5.89849 12.1426 6.11505L10.8329 9.2104C10.716 9.48665 10.9961 9.76415 11.2714 9.6447L14.3544 8.30646C14.5702 8.21286 14.623 7.93099 14.456 7.76552L12.6826 6.00845C12.5155 5.84298 12.2342 5.89849 12.1426 6.11505L10.8329 9.2104C10.716 9.48665 10.9961 9.76415 11.2714 9.6447Z" fill="white"/>
</g>
<defs>
<clipPath id="clip0_34_1453">
<rect width="20" height="20" fill="white" transform="translate(0 0.501953)"/>
</clipPath>
</defs>
</svg>
