<svg width="37" height="37" viewBox="0 0 37 37" fill="none" xmlns="http://www.w3.org/2000/svg">
<g clip-path="url(#clip0_34_4026)">
<path fill-rule="evenodd" clip-rule="evenodd" d="M18.6073 0.388672C8.66646 0.388672 0.607422 8.44749 0.607422 18.3883C0.607422 28.3303 8.66646 36.3887 18.6073 36.3887C28.5486 36.3887 36.6074 28.3303 36.6074 18.3883C36.6074 8.44749 28.5486 0.388672 18.6073 0.388672Z" fill="#1ED760"/>
<path fill-rule="evenodd" clip-rule="evenodd" d="M26.4663 25.9596C26.1477 26.4821 25.4675 26.6458 24.9469 26.3274C20.7838 23.7829 15.5437 23.2083 9.3726 24.6179C8.77793 24.7542 8.18516 24.3816 8.04967 23.7871C7.91334 23.1925 8.28466 22.5997 8.8806 22.464C15.6339 20.9203 21.4267 21.5846 26.0996 24.44C26.6206 24.7582 26.7847 25.4388 26.4663 25.9596Z" fill="white"/>
<path fill-rule="evenodd" clip-rule="evenodd" d="M28.6356 21.1322C28.2347 21.7828 27.3841 21.9869 26.7343 21.5874C21.9702 18.6589 14.705 17.8104 9.0684 19.5214C8.33761 19.7422 7.56553 19.3302 7.34345 18.6005C7.12328 17.8697 7.53547 17.0991 8.2652 16.8768C14.7041 14.9228 22.7088 15.8691 28.1809 19.232C28.8306 19.6321 29.0351 20.4831 28.6356 21.1322Z" fill="white"/>
<path fill-rule="evenodd" clip-rule="evenodd" d="M28.8229 16.1055C23.1082 12.7117 13.6819 12.3996 8.22658 14.0553C7.35035 14.3212 6.42394 13.8267 6.15868 12.9507C5.8932 12.074 6.3871 11.1482 7.26376 10.8819C13.5263 8.98104 23.9366 9.34813 30.5155 13.2534C31.3036 13.7213 31.5619 14.7389 31.0949 15.5256C30.6275 16.3136 29.609 16.5733 28.8229 16.1055Z" fill="white"/>
</g>
<defs>
<clipPath id="clip0_34_4026">
<rect width="36" height="36" fill="white" transform="translate(0.607422 0.388672)"/>
</clipPath>
</defs>
</svg>
