<svg width="27" height="27" viewBox="0 0 27 27" fill="none" xmlns="http://www.w3.org/2000/svg">
<g clip-path="url(#clip0_1235_422)">
<path fill-rule="evenodd" clip-rule="evenodd" d="M15.2609 11.7391H23.4783C25.4233 11.7391 27 13.3158 27 15.2609V23.4783C27 25.4233 25.4233 27 23.4783 27H15.2609C13.3158 27 11.7391 25.4233 11.7391 23.4783V15.2609C11.7391 13.3158 13.3158 11.7391 15.2609 11.7391ZM21.1304 9.3913H15.2609C12.0192 9.3913 9.3913 12.0192 9.3913 15.2609V21.1304C7.44631 21.1304 5.86957 19.5538 5.86957 17.6087V9.3913C5.86957 7.44631 7.44631 5.86957 9.3913 5.86957H17.6087C19.5538 5.86957 21.1304 7.44631 21.1304 9.3913ZM15.2609 3.52174H9.3913C6.14964 3.52174 3.52174 6.14964 3.52174 9.3913V15.2609C1.57674 15.2609 0 13.6842 0 11.7391V3.52174C0 1.57674 1.57674 0 3.52174 0H11.7391C13.6842 0 15.2609 1.57674 15.2609 3.52174Z" fill="#A3AED0"/>
</g>
<defs>
<clipPath id="clip0_1235_422">
<rect width="27" height="27" fill="white"/>
</clipPath>
</defs>
</svg>
