<svg width="23" height="23" viewBox="0 0 23 23" fill="none" xmlns="http://www.w3.org/2000/svg">
<path fill-rule="evenodd" clip-rule="evenodd" d="M0.665238 2.81778C0.665238 1.5938 1.65747 0.601562 2.88145 0.601562H8.42199C9.64597 0.601562 10.6382 1.5938 10.6382 2.81778V8.35831C10.6382 9.5823 9.64597 10.5745 8.42199 10.5745H2.88145C1.65747 10.5745 0.665238 9.5823 0.665238 8.35831V2.81778ZM8.42199 2.81778H2.88145V8.35831H8.42199V2.81778ZM0.665039 15.0065C0.665039 13.7826 1.65727 12.7903 2.88126 12.7903H8.42179C9.64577 12.7903 10.638 13.7826 10.638 15.0065V20.5471C10.638 21.7711 9.64577 22.7633 8.42179 22.7633H2.88126C1.65727 22.7633 0.665039 21.7711 0.665039 20.5471V15.0065ZM8.42179 15.0065H2.88126V20.5471H8.42179V15.0065ZM15.0706 0.601562C13.8467 0.601562 12.8544 1.5938 12.8544 2.81778V8.35831C12.8544 9.5823 13.8467 10.5745 15.0706 10.5745H20.6112C21.8352 10.5745 22.8274 9.5823 22.8274 8.35831V2.81778C22.8274 1.5938 21.8352 0.601562 20.6112 0.601562H15.0706ZM15.0706 2.81778H20.6112V8.35831H15.0706V2.81778ZM15.6247 12.7917H13.4085C13.1025 12.7917 12.8544 13.0397 12.8544 13.3457V15.5619C12.8544 15.8679 13.1025 16.116 13.4085 16.116H15.6247C15.9307 16.116 16.1787 15.8679 16.1787 15.5619V13.3457C16.1787 13.0397 15.9307 12.7917 15.6247 12.7917ZM16.7328 16.1146H18.949C19.255 16.1146 19.503 16.3627 19.503 16.6687V18.8849C19.503 19.1909 19.255 19.4389 18.949 19.4389H16.7328C16.4268 19.4389 16.1787 19.1909 16.1787 18.8849V16.6687C16.1787 16.3627 16.4268 16.1146 16.7328 16.1146ZM22.2733 12.7917H20.0571C19.7511 12.7917 19.5031 13.0397 19.5031 13.3457V15.5619C19.5031 15.8679 19.7511 16.116 20.0571 16.116H22.2733C22.5793 16.116 22.8274 15.8679 22.8274 15.5619V13.3457C22.8274 13.0397 22.5793 12.7917 22.2733 12.7917ZM20.0571 19.4394H22.2733C22.5793 19.4394 22.8274 19.6874 22.8274 19.9934V22.2097C22.8274 22.5156 22.5793 22.7637 22.2733 22.7637H20.0571C19.7511 22.7637 19.5031 22.5156 19.5031 22.2097V19.9934C19.5031 19.6874 19.7511 19.4394 20.0571 19.4394Z" fill="white"/>
</svg>
