<svg width="36" height="36" viewBox="0 0 36 36" fill="none" xmlns="http://www.w3.org/2000/svg">
<rect width="36" height="36" fill="white"/>
<rect x="6.5" y="5.5" width="8.36842" height="8.36842" stroke="#A3AED0" stroke-width="3"/>
<rect x="20.5" y="5.5" width="8.36842" height="8.36842" stroke="#A3AED0" stroke-width="3"/>
<path d="M11 24C11.6057 24 12.1978 23.8204 12.7014 23.4839C13.2051 23.1474 13.5976 22.6691 13.8294 22.1095C14.0612 21.5499 14.1218 20.9341 14.0037 20.34C13.8855 19.746 13.5938 19.2003 13.1655 18.772C12.7372 18.3437 12.1915 18.052 11.5975 17.9338C11.0034 17.8157 10.3876 17.8763 9.82803 18.1081C9.26843 18.3399 8.79014 18.7324 8.45362 19.2361C8.11711 19.7397 7.9375 20.3318 7.9375 20.9375C7.9375 21.7497 8.26016 22.5287 8.83449 23.103C9.40882 23.6773 10.1878 24 11 24ZM11 24.875C9.1018 24.875 5.3125 26.0475 5.3125 28.375V30.125H16.6875V28.375C16.6875 26.0475 12.8982 24.875 11 24.875Z" fill="#A3AED0"/>
<path d="M20.5 18L20.5 25" stroke="#A3AED0" stroke-width="3"/>
<rect x="22" y="23" width="3" height="3" fill="#A3AED0"/>
<rect x="23" y="18" width="3" height="3" fill="#A3AED0"/>
<rect x="26" y="21" width="2" height="3" fill="#A3AED0"/>
<rect x="28" y="18" width="2" height="3" fill="#A3AED0"/>
<rect x="19" y="27" width="2" height="3" fill="#A3AED0"/>
<rect x="27" y="25" width="3" height="5" fill="#A3AED0"/>
</svg>
