<svg width="36" height="36" viewBox="0 0 36 36" fill="none" xmlns="http://www.w3.org/2000/svg">
<rect width="36" height="36" fill="white"/>
<g clip-path="url(#clip0_7_172)">
<path d="M7.73065 22.125H5.91815C5.6679 22.125 5.46503 22.3279 5.46503 22.5781V30.7344C5.46503 30.9846 5.6679 31.1875 5.91815 31.1875H7.73065C7.98091 31.1875 8.18378 30.9846 8.18378 30.7344V22.5781C8.18378 22.3279 7.98091 22.125 7.73065 22.125Z" stroke="#A3AED0" stroke-width="3" stroke-linecap="round" stroke-linejoin="round"/>
<path d="M22.4844 16.6875H20.6719C20.4216 16.6875 20.2188 16.8904 20.2188 17.1406V30.7344C20.2188 30.9846 20.4216 31.1875 20.6719 31.1875H22.4844C22.7346 31.1875 22.9375 30.9846 22.9375 30.7344V17.1406C22.9375 16.8904 22.7346 16.6875 22.4844 16.6875Z" stroke="#A3AED0" stroke-width="3" stroke-linecap="round" stroke-linejoin="round"/>
<path d="M29.9881 10.3438H28.1756C27.9253 10.3438 27.7225 10.5466 27.7225 10.7969V30.7344C27.7225 30.9846 27.9253 31.1875 28.1756 31.1875H29.9881C30.2384 31.1875 30.4412 30.9846 30.4412 30.7344V10.7969C30.4412 10.5466 30.2384 10.3438 29.9881 10.3438Z" stroke="#A3AED0" stroke-width="3" stroke-linecap="round" stroke-linejoin="round"/>
<path d="M15.2344 5.8125H13.4219C13.1716 5.8125 12.9688 6.01537 12.9688 6.26562V30.7344C12.9688 30.9846 13.1716 31.1875 13.4219 31.1875H15.2344C15.4846 31.1875 15.6875 30.9846 15.6875 30.7344V6.26562C15.6875 6.01537 15.4846 5.8125 15.2344 5.8125Z" stroke="#A3AED0" stroke-width="3" stroke-linecap="round" stroke-linejoin="round"/>
</g>
<defs>
<clipPath id="clip0_7_172">
<rect width="29" height="29" fill="white" transform="translate(3 4)"/>
</clipPath>
</defs>
</svg>
