<svg width="24" height="25" viewBox="0 0 24 25" fill="none" xmlns="http://www.w3.org/2000/svg">
<path d="M12.0576 20.3278C9.83495 20.3278 7.94595 19.5501 6.39062 17.9948C4.83528 16.4388 4.05762 14.5498 4.05762 12.3278C4.05762 10.3025 4.71762 8.54581 6.03762 7.05781C7.35895 5.57114 8.99362 4.69347 10.9416 4.4248C10.9956 4.4248 11.0486 4.4268 11.1006 4.4308C11.1526 4.4348 11.2036 4.44047 11.2536 4.4478C10.9163 4.91847 10.6493 5.4418 10.4526 6.0178C10.2559 6.59447 10.1576 7.19814 10.1576 7.82881C10.1576 9.60681 10.7796 11.1178 12.0236 12.3618C13.2683 13.6065 14.7796 14.2288 16.5576 14.2288C17.1923 14.2288 17.7966 14.1305 18.3706 13.9338C18.9453 13.7371 19.4613 13.4701 19.9186 13.1328C19.9266 13.1828 19.9326 13.2338 19.9366 13.2858C19.9399 13.3378 19.9416 13.3905 19.9416 13.4438C19.6856 15.3925 18.8139 17.0271 17.3266 18.3478C15.8393 19.6685 14.0836 20.3285 12.0576 20.3278Z" fill="#737791"/>
</svg>
