<svg width="23" height="23" viewBox="0 0 23 23" fill="none" xmlns="http://www.w3.org/2000/svg">
<path fill-rule="evenodd" clip-rule="evenodd" d="M0.665528 2.77286C0.665528 1.54887 1.65776 0.556641 2.88174 0.556641H8.42228C9.64626 0.556641 10.6385 1.54887 10.6385 2.77286V8.31339C10.6385 9.53737 9.64626 10.5296 8.42228 10.5296H2.88174C1.65776 10.5296 0.665528 9.53737 0.665528 8.31339V2.77286ZM8.42228 2.77286H2.88174V8.31339H8.42228V2.77286ZM0.665039 14.9623C0.665039 13.7383 1.65727 12.7461 2.88126 12.7461H8.42179C9.64577 12.7461 10.638 13.7383 10.638 14.9623V20.5028C10.638 21.7268 9.64577 22.7191 8.42179 22.7191H2.88126C1.65727 22.7191 0.665039 21.7268 0.665039 20.5028V14.9623ZM8.42179 14.9623H2.88126V20.5028H8.42179V14.9623ZM15.0707 0.556641C13.8467 0.556641 12.8545 1.54887 12.8545 2.77286V8.31339C12.8545 9.53737 13.8467 10.5296 15.0707 10.5296H20.6112C21.8352 10.5296 22.8275 9.53737 22.8275 8.31339V2.77286C22.8275 1.54887 21.8352 0.556641 20.6112 0.556641H15.0707ZM15.0707 2.77286H20.6112V8.31339H15.0707V2.77286Z" fill="#737791"/>
<path d="M22.8276 13.4821V22.2268C22.8276 22.5383 22.5749 22.791 22.2635 22.791H13.5188C13.2073 22.791 12.9546 22.5383 12.9546 22.2268V21.0985C12.9546 20.7871 13.2073 20.5343 13.5188 20.5343H20.5709V13.4821C20.5709 13.1707 20.8237 12.918 21.1351 12.918H22.2635C22.5749 12.918 22.8276 13.1707 22.8276 13.4821ZM12.9546 15.7388V13.4821C12.9546 13.1707 13.2073 12.918 13.5188 12.918H15.7755C16.0869 12.918 16.3396 13.1707 16.3396 13.4821V15.7388C16.3396 16.0503 16.0869 16.303 15.7755 16.303H13.5188C13.2073 16.303 12.9546 16.0503 12.9546 15.7388Z" fill="#737791"/>
</svg>
