<svg width="23" height="23" viewBox="0 0 23 23" fill="none" xmlns="http://www.w3.org/2000/svg">
<path fill-rule="evenodd" clip-rule="evenodd" d="M0.724122 2.77286C0.724122 1.54887 1.71636 0.556641 2.94034 0.556641H8.48087C9.70486 0.556641 10.6971 1.54887 10.6971 2.77286V8.31339C10.6971 9.53737 9.70486 10.5296 8.48087 10.5296H2.94034C1.71636 10.5296 0.724122 9.53737 0.724122 8.31339V2.77286ZM8.48087 2.77286H2.94034V8.31339H8.48087V2.77286ZM0.723633 14.9623C0.723633 13.7383 1.71587 12.7461 2.93985 12.7461H8.48039C9.70437 12.7461 10.6966 13.7383 10.6966 14.9623V20.5028C10.6966 21.7268 9.70437 22.7191 8.48039 22.7191H2.93985C1.71587 22.7191 0.723633 21.7268 0.723633 20.5028V14.9623ZM8.48039 14.9623H2.93985V20.5028H8.48039V14.9623ZM15.1293 0.556641C13.9053 0.556641 12.9131 1.54887 12.9131 2.77286V8.31339C12.9131 9.53737 13.9053 10.5296 15.1293 10.5296H20.6698C21.8938 10.5296 22.8861 9.53737 22.8861 8.31339V2.77286C22.8861 1.54887 21.8938 0.556641 20.6698 0.556641H15.1293ZM15.1293 2.77286H20.6698V8.31339H15.1293V2.77286Z" fill="white"/>
<path d="M22.8862 13.4821V22.2268C22.8862 22.5383 22.6335 22.791 22.3221 22.791H13.5774C13.2659 22.791 13.0132 22.5383 13.0132 22.2268V21.0985C13.0132 20.7871 13.2659 20.5343 13.5774 20.5343H20.6295V13.4821C20.6295 13.1707 20.8823 12.918 21.1937 12.918H22.3221C22.6335 12.918 22.8862 13.1707 22.8862 13.4821ZM13.0132 15.7388V13.4821C13.0132 13.1707 13.2659 12.918 13.5774 12.918H15.8341C16.1455 12.918 16.3982 13.1707 16.3982 13.4821V15.7388C16.3982 16.0503 16.1455 16.303 15.8341 16.303H13.5774C13.2659 16.303 13.0132 16.0503 13.0132 15.7388Z" fill="white"/>
</svg>
