<svg width="25" height="21" viewBox="0 0 25 21" fill="none" xmlns="http://www.w3.org/2000/svg">
<path d="M22.8844 1.83008H19.6838C19.1306 1.83008 18.6821 2.27856 18.6821 2.83178V18.688C18.6821 19.2413 19.1306 19.6897 19.6838 19.6897H22.8844C23.4376 19.6897 23.8861 19.2413 23.8861 18.688V2.83178C23.8861 2.27856 23.4376 1.83008 22.8844 1.83008Z" stroke="white" stroke-width="2.00341"/>
<path d="M14.0573 6.34961H10.8567C10.3035 6.34961 9.85498 6.79809 9.85498 7.35131V18.6877C9.85498 19.2409 10.3035 19.6894 10.8567 19.6894H14.0573C14.6105 19.6894 15.059 19.2409 15.059 18.6877V7.35131C15.059 6.79809 14.6105 6.34961 14.0573 6.34961Z" stroke="white" stroke-width="2.00341"/>
<path d="M5.22961 11.7734H2.02905C1.47582 11.7734 1.02734 12.2219 1.02734 12.7751V18.6876C1.02734 19.2409 1.47582 19.6893 2.02905 19.6893H5.22961C5.78284 19.6893 6.23132 19.2409 6.23132 18.6876V12.7751C6.23132 12.2219 5.78284 11.7734 5.22961 11.7734Z" stroke="white" stroke-width="2.00341"/>
</svg>
