<svg width="26" height="21" viewBox="0 0 26 21" fill="none" xmlns="http://www.w3.org/2000/svg">
<path d="M23.8258 1.83008H20.6252C20.072 1.83008 19.6235 2.27856 19.6235 2.83178V18.688C19.6235 19.2413 20.072 19.6897 20.6252 19.6897H23.8258C24.379 19.6897 24.8275 19.2413 24.8275 18.688V2.83178C24.8275 2.27856 24.379 1.83008 23.8258 1.83008Z" stroke="#737791" stroke-width="2.00341"/>
<path d="M14.9987 6.34961H11.7981C11.2449 6.34961 10.7964 6.79809 10.7964 7.35131V18.6877C10.7964 19.2409 11.2449 19.6894 11.7981 19.6894H14.9987C15.5519 19.6894 16.0004 19.2409 16.0004 18.6877V7.35131C16.0004 6.79809 15.5519 6.34961 14.9987 6.34961Z" stroke="#737791" stroke-width="2.00341"/>
<path d="M6.17102 11.7734H2.97045C2.41723 11.7734 1.96875 12.2219 1.96875 12.7751V18.6876C1.96875 19.2409 2.41723 19.6893 2.97045 19.6893H6.17102C6.72425 19.6893 7.17272 19.2409 7.17272 18.6876V12.7751C7.17272 12.2219 6.72425 11.7734 6.17102 11.7734Z" stroke="#737791" stroke-width="2.00341"/>
</svg>
