<svg width="18" height="19" viewBox="0 0 18 19" fill="none" xmlns="http://www.w3.org/2000/svg">
<g clip-path="url(#clip0_51_466)">
<path d="M3 6.32812C3 4.73683 3.63214 3.2107 4.75736 2.08548C5.88258 0.960266 7.4087 0.328125 9 0.328125C10.5913 0.328125 12.1174 0.960266 13.2426 2.08548C14.3679 3.2107 15 4.73683 15 6.32812V9.85087L16.5 12.1009V15.3281H12.2918C12.1212 16.0734 11.7027 16.7387 11.1048 17.2152C10.5069 17.6917 9.76494 17.9512 9.00038 17.9512C8.23582 17.9512 7.49389 17.6917 6.89598 17.2152C6.29808 16.7387 5.8796 16.0734 5.709 15.3281H1.5V12.1009L3 9.85087V6.32812ZM7.281 15.3281C7.42679 15.6628 7.6671 15.9477 7.97246 16.1477C8.27782 16.3478 8.63494 16.4543 9 16.4543C9.36506 16.4543 9.72218 16.3478 10.0275 16.1477C10.3329 15.9477 10.5732 15.6628 10.719 15.3281H7.281ZM9 1.82812C7.80653 1.82812 6.66193 2.30223 5.81802 3.14614C4.97411 3.99006 4.5 5.13465 4.5 6.32812V10.3054L3 12.5554V13.8281H15V12.5554L13.5 10.3054V6.32812C13.5 5.13465 13.0259 3.99006 12.182 3.14614C11.3381 2.30223 10.1935 1.82812 9 1.82812Z" fill="#737791"/>
</g>
<defs>
<clipPath id="clip0_51_466">
<rect width="18" height="18" fill="white" transform="translate(0 0.328125)"/>
</clipPath>
</defs>
</svg>
