<svg width="24" height="23" viewBox="0 0 24 23" fill="none" xmlns="http://www.w3.org/2000/svg">
<path d="M21.4807 1.71094H2.94014C2.32815 1.71094 1.83203 2.20705 1.83203 2.81905V8.35958C1.83203 8.97157 2.32815 9.46769 2.94014 9.46769H21.4807C22.0927 9.46769 22.5888 8.97157 22.5888 8.35958V2.81905C22.5888 2.20705 22.0927 1.71094 21.4807 1.71094Z" stroke="white" stroke-width="2.21621"/>
<path d="M6.48019 13.9004H2.93965C2.32766 13.9004 1.83154 14.3965 1.83154 15.0085V20.549C1.83154 21.161 2.32766 21.6571 2.93965 21.6571H6.48019C7.09218 21.6571 7.5883 21.161 7.5883 20.549V15.0085C7.5883 14.3965 7.09218 13.9004 6.48019 13.9004Z" stroke="white" stroke-width="2.21621"/>
<path d="M21.3308 13.9004H12.7902C12.1782 13.9004 11.6821 14.3965 11.6821 15.0085V20.549C11.6821 21.161 12.1782 21.6571 12.7902 21.6571H21.3308C21.9428 21.6571 22.4389 21.161 22.4389 20.549V15.0085C22.4389 14.3965 21.9428 13.9004 21.3308 13.9004Z" stroke="white" stroke-width="2.21621"/>
</svg>
