<svg width="24" height="23" viewBox="0 0 24 23" fill="none" xmlns="http://www.w3.org/2000/svg">
<path d="M21.4221 1.71094H2.88155C2.26955 1.71094 1.77344 2.20705 1.77344 2.81905V8.35958C1.77344 8.97157 2.26955 9.46769 2.88155 9.46769H21.4221C22.0341 9.46769 22.5302 8.97157 22.5302 8.35958V2.81905C22.5302 2.20705 22.0341 1.71094 21.4221 1.71094Z" stroke="#737791" stroke-width="2.21621"/>
<path d="M6.42159 13.9004H2.88106C2.26907 13.9004 1.77295 14.3965 1.77295 15.0085V20.549C1.77295 21.161 2.26907 21.6571 2.88106 21.6571H6.42159C7.03359 21.6571 7.5297 21.161 7.5297 20.549V15.0085C7.5297 14.3965 7.03359 13.9004 6.42159 13.9004Z" stroke="#737791" stroke-width="2.21621"/>
<path d="M21.2722 13.9004H12.7316C12.1197 13.9004 11.6235 14.3965 11.6235 15.0085V20.549C11.6235 21.161 12.1197 21.6571 12.7316 21.6571H21.2722C21.8842 21.6571 22.3803 21.161 22.3803 20.549V15.0085C22.3803 14.3965 21.8842 13.9004 21.2722 13.9004Z" stroke="#737791" stroke-width="2.21621"/>
</svg>
