<svg width="41" height="43" viewBox="0 0 41 43" fill="none" xmlns="http://www.w3.org/2000/svg">
<path d="M1.14844 13.8809V4.59522C1.2278 3.56348 1.95794 1.5 4.2436 1.5C6.52926 1.5 11.3863 1.5 13.5291 1.5" stroke="white" stroke-width="2"/>
<path d="M39.2432 13.8809V4.59522C39.1638 3.56348 38.4337 1.5 36.148 1.5C33.8623 1.5 29.0053 1.5 26.8625 1.5" stroke="white" stroke-width="2"/>
<path d="M1.14844 29.1191V38.4048C1.2278 39.4365 1.95794 41.5 4.2436 41.5C6.52926 41.5 11.3863 41.5 13.5291 41.5" stroke="white" stroke-width="2"/>
<path d="M39.2432 29.1191V38.4048C39.1638 39.4365 38.4337 41.5 36.148 41.5C33.8623 41.5 29.0053 41.5 26.8625 41.5" stroke="white" stroke-width="2"/>
<rect x="4.48193" y="29.5957" width="31.4278" height="1.42856" fill="#5D5FEF"/>
<rect x="6.38672" y="12.9297" width="2.38089" height="16.6666" fill="white"/>
<rect x="10.1958" y="12.9297" width="1.42854" height="16.6666" fill="white"/>
<rect x="22.5767" y="12.9297" width="1.42854" height="16.6666" fill="white"/>
<rect x="13.0527" y="12.9297" width="1.42854" height="16.6666" fill="white"/>
<rect x="25.4336" y="12.9297" width="1.42854" height="16.6666" fill="white"/>
<rect x="15.9102" y="12.9297" width="1.42854" height="16.6666" fill="white"/>
<rect x="28.291" y="12.9297" width="1.42854" height="16.6666" fill="white"/>
<rect x="18.7666" y="12.9297" width="2.38089" height="16.6666" fill="white"/>
<rect x="31.1484" y="12.9297" width="2.38089" height="16.6666" fill="white"/>
</svg>
