<svg width="42" height="51" viewBox="0 0 42 51" fill="none" xmlns="http://www.w3.org/2000/svg">
<g clip-path="url(#clip0_34_245)">
<path d="M41.1772 43.5407H39.1862V20.5714C40.3111 20.227 41.1366 18.9416 41.1366 17.4176V7.14608C41.1366 6.30194 40.5715 5.61523 39.877 5.61523H2.17091C1.47636 5.61523 0.911335 6.30194 0.911335 7.14608V17.4176C0.911335 18.9417 1.73681 20.227 2.86165 20.5714V43.5407H0.870703C0.534112 43.5407 0.26123 43.8723 0.26123 44.2814C0.26123 44.6905 0.534112 45.0221 0.870703 45.0221H41.1772C41.5138 45.0221 41.7867 44.6905 41.7867 44.2814C41.7867 43.8723 41.5138 43.5407 41.1772 43.5407ZM39.9176 7.14608V17.4176C39.9176 18.3443 39.3488 19.1345 38.6497 19.1789C38.2763 19.2021 37.9233 19.0446 37.6539 18.734C37.3844 18.4231 37.2358 18.0031 37.2358 17.5517V7.0967H39.8769C39.8994 7.0967 39.9176 7.11882 39.9176 7.14608ZM6.03091 7.0967H8.71259V17.5517C8.71259 18.4502 8.11108 19.1813 7.37175 19.1813C6.63242 19.1813 6.03091 18.4502 6.03091 17.5517V7.0967ZM9.93154 7.0967H12.6132V17.5517C12.6132 18.4502 12.0117 19.1813 11.2724 19.1813C10.533 19.1813 9.93154 18.4502 9.93154 17.5517V7.0967ZM13.8322 7.0967H16.5138V17.5517C16.5138 18.4502 15.9123 19.1813 15.173 19.1813C14.4337 19.1813 13.8322 18.4502 13.8322 17.5517V7.0967ZM17.7328 7.0967H20.4145V17.5517C20.4145 18.4502 19.813 19.1813 19.0736 19.1813C18.3343 19.1813 17.7328 18.4502 17.7328 17.5517V7.0967ZM21.6334 7.0967H24.3151V17.5517C24.3151 18.4502 23.7136 19.1813 22.9743 19.1813C22.2349 19.1813 21.6334 18.4502 21.6334 17.5517V7.0967ZM25.534 7.0967H28.2157V17.5517C28.2157 18.4502 27.6142 19.1813 26.8749 19.1813C26.1356 19.1813 25.534 18.4502 25.534 17.5517V7.0967ZM29.4347 7.0967H32.1164V17.5517C32.1164 18.4502 31.5148 19.1813 30.7755 19.1813C30.0362 19.1813 29.4347 18.4502 29.4347 17.5517V7.0967ZM33.3353 7.0967H36.017V17.5517C36.017 18.4502 35.4155 19.1813 34.6761 19.1813C33.9368 19.1813 33.3353 18.4502 33.3353 17.5517V7.0967ZM2.13028 17.4176V7.14608C2.13028 7.11882 2.14848 7.0967 2.17091 7.0967H4.81196V17.5517C4.81196 18.0031 4.66349 18.4231 4.39386 18.734C4.12456 19.0447 3.77114 19.2024 3.39807 19.1789C2.69904 19.1345 2.13028 18.3443 2.13028 17.4176ZM4.08059 20.5743C4.50853 20.4479 4.90363 20.1884 5.23299 19.8085C5.29978 19.7315 5.36293 19.6502 5.422 19.5654C5.89187 20.2363 6.59162 20.6627 7.37175 20.6627C8.1522 20.6627 8.8522 20.236 9.32206 19.5645C9.79193 20.236 10.4919 20.6627 11.2724 20.6627C12.0528 20.6627 12.7528 20.236 13.2227 19.5645C13.6926 20.236 14.3926 20.6627 15.173 20.6627C15.9535 20.6627 16.6535 20.236 17.1233 19.5645C17.5932 20.236 18.2932 20.6627 19.0736 20.6627C19.8541 20.6627 20.5541 20.236 21.0239 19.5645C21.4938 20.236 22.1938 20.6627 22.9743 20.6627C23.7547 20.6627 24.4547 20.236 24.9246 19.5645C25.3944 20.236 26.0944 20.6627 26.8749 20.6627C27.6553 20.6627 28.3553 20.236 28.8252 19.5645C29.2951 20.236 29.9951 20.6627 30.7755 20.6627C31.556 20.6627 32.256 20.236 32.7258 19.5645C33.1957 20.236 33.8957 20.6627 34.6761 20.6627C35.4563 20.6627 36.1559 20.2363 36.6259 19.5654C36.685 19.6502 36.7481 19.7315 36.8149 19.8085C37.1443 20.1885 37.5393 20.4487 37.9673 20.575V43.5407H35.2856V26.1088C35.2856 25.2647 34.7206 24.578 34.026 24.578H26.2248C25.5302 24.578 24.9652 25.2647 24.9652 26.1088V43.5407H4.08059V20.5743ZM34.0667 43.5407H26.1841V26.1088C26.1841 26.0815 26.2024 26.0594 26.2248 26.0594H34.026C34.0485 26.0594 34.0667 26.0815 34.0667 26.1088V43.5407Z" fill="white"/>
<path d="M28.1749 33.2676C27.8383 33.2676 27.5654 33.5992 27.5654 34.0083V35.5885C27.5654 35.9976 27.8383 36.3293 28.1749 36.3293C28.5115 36.3293 28.7844 35.9976 28.7844 35.5885V34.0083C28.7844 33.5992 28.5115 33.2676 28.1749 33.2676Z" fill="white"/>
<path d="M21.5927 24.5781H7.45294C7.07206 24.5781 6.76221 24.9547 6.76221 25.4176V39.4421C6.76221 39.905 7.07206 40.2816 7.45294 40.2816H21.5927C21.9736 40.2816 22.2835 39.905 22.2835 39.4421V25.4176C22.2835 24.9547 21.9736 24.5781 21.5927 24.5781ZM21.0645 38.8002H7.98115V26.0596H21.0645V38.8002Z" fill="white"/>
<ellipse cx="21.0238" cy="5.85822" rx="6.60632" ry="4.33673" fill="#5D5FEF"/>
</g>
<defs>
<clipPath id="clip0_34_245">
<rect width="41.5254" height="50" fill="white" transform="translate(0.26123 0.501953)"/>
</clipPath>
</defs>
</svg>
