<svg width="79" height="79" viewBox="0 0 79 79" fill="none" xmlns="http://www.w3.org/2000/svg">
<mask id="mask0_129_303" style="mask-type:alpha" maskUnits="userSpaceOnUse" x="0" y="0" width="79" height="79">
<rect width="79" height="79" fill="#D9D9D9"/>
</mask>
<g mask="url(#mask0_129_303)">
<path d="M66.8001 53.1052C67.487 53.0135 67.9994 52.4241 67.9994 51.7267V42.1283C67.9994 40.4032 66.6056 39 64.8921 39H13.1073C11.3937 39 10 40.4032 10 42.1283V51.7267C10 52.4241 10.513 53.0135 11.1992 53.1052C13.6235 53.4285 15.4515 55.5329 15.4515 58.0003C15.4515 60.4677 13.6235 62.5715 11.1992 62.8948C10.5124 62.9865 10 63.5759 10 64.2733V73.8717C10 75.5968 11.3937 77 13.1073 77H64.8927C66.6063 77 68 75.5968 68 73.8717V64.2726C68 63.5753 67.487 62.9859 66.8008 62.8942C64.3765 62.5709 62.5485 60.4664 62.5485 57.9997C62.5485 55.5329 64.3765 53.4285 66.8001 53.1052ZM65.2378 65.3909V73.871C65.2378 74.0597 65.0794 74.2184 64.8927 74.2184H30.2319V71.4751C30.2319 70.7075 29.6135 70.085 28.8511 70.085C28.0887 70.085 27.4703 70.7075 27.4703 71.4751V74.2184H13.1073C12.9199 74.2184 12.7622 74.059 12.7622 73.871V65.3909C15.9412 64.4242 18.2137 61.437 18.2137 57.9997C18.2137 54.5623 15.9412 51.5752 12.7622 50.6085V42.1283C12.7622 41.9397 12.9205 41.781 13.1073 41.781H27.4703V44.5242C27.4703 45.2918 28.0887 45.9144 28.8511 45.9144C29.6135 45.9144 30.2319 45.2918 30.2319 44.5242V41.781H64.8927C65.0801 41.781 65.2378 41.9403 65.2378 42.1283V50.6085C62.0587 51.5752 59.7863 54.5623 59.7863 57.9997C59.7863 61.437 62.0587 64.4242 65.2378 65.3909ZM30.2319 50.7523V54.8856C30.2319 55.6533 29.6135 56.2758 28.8511 56.2758C28.0887 56.2758 27.4703 55.6533 27.4703 54.8856V50.7523C27.4703 49.9846 28.0887 49.3621 28.8511 49.3621C29.6135 49.3621 30.2319 49.984 30.2319 50.7523ZM30.2319 61.1137V65.2471C30.2319 66.0147 29.6135 66.6373 28.8511 66.6373C28.0887 66.6373 27.4703 66.0147 27.4703 65.2471V61.1137C27.4703 60.3461 28.0887 59.7235 28.8511 59.7235C29.6135 59.7235 30.2319 60.3461 30.2319 61.1137ZM44.9387 52.7357C44.9387 50.2501 42.9305 48.2282 40.4616 48.2282C37.9927 48.2282 35.9845 50.2501 35.9845 52.7357C35.9845 55.2213 37.9927 57.2431 40.4616 57.2431C42.9305 57.2431 44.9387 55.2213 44.9387 52.7357ZM38.7467 52.7357C38.7467 51.7833 39.5163 51.0092 40.4616 51.0092C41.4075 51.0092 42.1764 51.784 42.1764 52.7357C42.1764 53.688 41.4069 54.4622 40.4616 54.4622C39.5163 54.4622 38.7467 53.688 38.7467 52.7357ZM52.9165 50.8973L42.4665 66.4486C42.1997 66.8461 41.7642 67.0601 41.3216 67.0601C41.0554 67.0601 40.7859 66.9827 40.5488 66.8213C39.9169 66.3914 39.7515 65.5268 40.1786 64.8906L50.6286 49.3393C51.0557 48.7031 51.9144 48.5366 52.5463 48.9666C53.1782 49.3972 53.3436 50.2611 52.9165 50.8973ZM52.682 58.7562C50.2131 58.7562 48.2049 60.778 48.2049 63.2637C48.2049 65.7493 50.2131 67.7711 52.682 67.7711C55.1509 67.7711 57.1591 65.7493 57.1591 63.2637C57.1591 60.778 55.1509 58.7562 52.682 58.7562ZM52.682 64.9908C51.736 64.9908 50.9671 64.216 50.9671 63.2643C50.9671 62.312 51.7367 61.5378 52.682 61.5378C53.6279 61.5378 54.3968 62.3126 54.3968 63.2643C54.3975 64.216 53.6279 64.9908 52.682 64.9908Z" fill="white" stroke="white"/>
<mask id="mask1_129_303" style="mask-type:alpha" maskUnits="userSpaceOnUse" x="11" y="1" width="56" height="41">
<rect x="12" y="2" width="54" height="39" fill="#D9D9D9" stroke="black"/>
</mask>
<g mask="url(#mask1_129_303)">
<path d="M58.7793 52.6838C59.2032 53.1712 59.9258 53.2669 60.4698 52.9083L67.9575 47.9726C69.3033 47.0855 69.6829 45.2793 68.8038 43.9457L42.2376 3.64339C41.3586 2.30978 39.5489 1.94664 38.2031 2.83376L30.7154 7.76945C30.1714 8.12805 29.9749 8.83039 30.2553 9.4116C31.2468 11.4646 30.5429 13.9694 28.6181 15.2382C26.6933 16.507 24.1144 16.1661 22.6184 14.4456C22.1945 13.9583 21.4719 13.8626 20.9279 14.2211L13.4402 19.1568C12.0944 20.044 11.7148 21.8502 12.5938 23.1838L39.1604 63.4866C40.0395 64.8202 41.8491 65.1834 43.1949 64.2962L50.6831 59.3602C51.2271 59.0016 51.4237 58.2993 51.1432 57.7181C50.1517 55.665 50.8556 53.1603 52.7799 51.8918C54.7043 50.6234 57.2837 50.9638 58.7793 52.6838ZM48.3937 57.7855L41.7783 62.1461C41.6312 62.2431 41.4261 62.2016 41.3303 62.0562L23.5489 35.0809L25.6889 33.6703C26.2877 33.2756 26.4561 32.4742 26.065 31.8808C25.6739 31.2874 24.871 31.1263 24.2722 31.521L22.1322 32.9317L14.7638 21.7534C14.6677 21.6076 14.7111 21.4029 14.8578 21.3063L21.4731 16.9456C23.8581 18.9226 27.3542 19.1551 30.0357 17.3876C32.7171 15.62 33.8816 12.3154 33.0048 9.34419L39.6202 4.98351C39.7674 4.88651 39.9724 4.92809 40.0682 5.07342L47.4366 16.2517L45.2966 17.6623C44.6978 18.057 44.5294 18.8584 44.9205 19.4518C45.3117 20.0451 46.1145 20.2063 46.7133 19.8115L48.8533 18.4009L66.6348 45.3762C66.7309 45.5221 66.6874 45.7267 66.5408 45.8234L59.9254 50.1841C57.5404 48.207 54.0443 47.9745 51.3629 49.7421C48.6814 51.5096 47.5169 54.8143 48.3937 57.7855ZM41.8548 23.0141L38.6304 25.1396C38.0316 25.5343 37.2287 25.3732 36.8376 24.7798C36.4464 24.1865 36.6148 23.3851 37.2136 22.9904L40.4381 20.8649C41.0369 20.4702 41.8398 20.6313 42.2309 21.2247C42.6221 21.818 42.4542 22.6191 41.8548 23.0141ZM33.7719 28.3422L30.5474 30.4677C29.9486 30.8624 29.1457 30.7013 28.7546 30.1079C28.3634 29.5145 28.5319 28.7132 29.1307 28.3184L32.3551 26.193C32.954 25.7982 33.7568 25.9594 34.148 26.5527C34.5391 27.1461 34.3707 27.9475 33.7719 28.3422Z" fill="white" stroke="white"/>
</g>
<mask id="mask2_129_303" style="mask-type:alpha" maskUnits="userSpaceOnUse" x="9" y="38" width="60" height="40">
<path d="M66.8001 53.1052C67.487 53.0135 67.9994 52.4241 67.9994 51.7267V42.1283C67.9994 40.4032 66.6056 39 64.8921 39H13.1073C11.3937 39 10 40.4032 10 42.1283V51.7267C10 52.4241 10.513 53.0135 11.1992 53.1052C13.6235 53.4285 15.4515 55.5329 15.4515 58.0003C15.4515 60.4677 13.6235 62.5715 11.1992 62.8948C10.5124 62.9865 10 63.5759 10 64.2733V73.8717C10 75.5968 11.3937 77 13.1073 77H64.8927C66.6063 77 68 75.5968 68 73.8717V64.2726C68 63.5753 67.487 62.9859 66.8008 62.8942C64.3765 62.5709 62.5485 60.4664 62.5485 57.9997C62.5485 55.5329 64.3765 53.4285 66.8001 53.1052ZM65.2378 65.3909V73.871C65.2378 74.0597 65.0794 74.2184 64.8927 74.2184H30.2319V71.4751C30.2319 70.7075 29.6135 70.085 28.8511 70.085C28.0887 70.085 27.4703 70.7075 27.4703 71.4751V74.2184H13.1073C12.9199 74.2184 12.7622 74.059 12.7622 73.871V65.3909C15.9412 64.4242 18.2137 61.437 18.2137 57.9997C18.2137 54.5623 15.9412 51.5752 12.7622 50.6085V42.1283C12.7622 41.9397 12.9205 41.781 13.1073 41.781H27.4703V44.5242C27.4703 45.2918 28.0887 45.9144 28.8511 45.9144C29.6135 45.9144 30.2319 45.2918 30.2319 44.5242V41.781H64.8927C65.0801 41.781 65.2378 41.9403 65.2378 42.1283V50.6085C62.0587 51.5752 59.7863 54.5623 59.7863 57.9997C59.7863 61.437 62.0587 64.4242 65.2378 65.3909ZM30.2319 50.7523V54.8856C30.2319 55.6533 29.6135 56.2758 28.8511 56.2758C28.0887 56.2758 27.4703 55.6533 27.4703 54.8856V50.7523C27.4703 49.9846 28.0887 49.3621 28.8511 49.3621C29.6135 49.3621 30.2319 49.984 30.2319 50.7523ZM30.2319 61.1137V65.2471C30.2319 66.0147 29.6135 66.6373 28.8511 66.6373C28.0887 66.6373 27.4703 66.0147 27.4703 65.2471V61.1137C27.4703 60.3461 28.0887 59.7235 28.8511 59.7235C29.6135 59.7235 30.2319 60.3461 30.2319 61.1137ZM44.9387 52.7357C44.9387 50.2501 42.9305 48.2282 40.4616 48.2282C37.9927 48.2282 35.9845 50.2501 35.9845 52.7357C35.9845 55.2213 37.9927 57.2431 40.4616 57.2431C42.9305 57.2431 44.9387 55.2213 44.9387 52.7357ZM38.7467 52.7357C38.7467 51.7833 39.5163 51.0092 40.4616 51.0092C41.4075 51.0092 42.1764 51.784 42.1764 52.7357C42.1764 53.688 41.4069 54.4622 40.4616 54.4622C39.5163 54.4622 38.7467 53.688 38.7467 52.7357ZM52.9165 50.8973L42.4665 66.4486C42.1997 66.8461 41.7642 67.0601 41.3216 67.0601C41.0554 67.0601 40.7859 66.9827 40.5488 66.8213C39.9169 66.3914 39.7515 65.5268 40.1786 64.8906L50.6286 49.3393C51.0557 48.7031 51.9144 48.5366 52.5463 48.9666C53.1782 49.3972 53.3436 50.2611 52.9165 50.8973ZM52.682 58.7562C50.2131 58.7562 48.2049 60.778 48.2049 63.2637C48.2049 65.7493 50.2131 67.7711 52.682 67.7711C55.1509 67.7711 57.1591 65.7493 57.1591 63.2637C57.1591 60.778 55.1509 58.7562 52.682 58.7562ZM52.682 64.9908C51.736 64.9908 50.9671 64.216 50.9671 63.2643C50.9671 62.312 51.7367 61.5378 52.682 61.5378C53.6279 61.5378 54.3968 62.3126 54.3968 63.2643C54.3975 64.216 53.6279 64.9908 52.682 64.9908Z" fill="black" stroke="black"/>
</mask>
<g mask="url(#mask2_129_303)">
<rect x="33" y="47" width="26" height="24" fill="#5D5FEF"/>
</g>
</g>
</svg>
