<svg width="48" height="43" viewBox="0 0 48 43" fill="none" xmlns="http://www.w3.org/2000/svg">
<rect x="1.98242" y="6.16602" width="44.0833" height="35.3333" rx="7.75" stroke="white" stroke-width="2"/>
<circle cx="15.2739" cy="11.291" r="2.33333" stroke="white" stroke-width="0.583333"/>
<circle cx="33.9409" cy="11.291" r="2.33333" stroke="white" stroke-width="0.583333"/>
<rect x="14.3989" y="0.5" width="1.75" height="11.0833" fill="white"/>
<rect x="33.0659" y="0.5" width="1.75" height="11.0833" fill="white"/>
<rect x="2.73242" y="15.666" width="42.5833" height="1.16667" fill="white"/>
<rect x="7.39925" y="21.4993" width="4.66667" height="3.5" rx="0.583333" stroke="#5D5FEF" stroke-width="1.16667"/>
<rect x="7.39925" y="30.2493" width="4.66667" height="3.5" rx="0.583333" stroke="#5D5FEF" stroke-width="1.16667"/>
<rect x="16.7323" y="21.4993" width="4.66667" height="3.5" rx="0.583333" stroke="#5D5FEF" stroke-width="1.16667"/>
<rect x="16.7323" y="30.2493" width="4.66667" height="3.5" rx="0.583333" stroke="#5D5FEF" stroke-width="1.16667"/>
<rect x="26.0658" y="21.4993" width="4.66667" height="3.5" rx="0.583333" stroke="#5D5FEF" stroke-width="1.16667"/>
<rect x="26.0658" y="30.2493" width="4.66667" height="3.5" rx="0.583333" stroke="#5D5FEF" stroke-width="1.16667"/>
<rect x="35.3993" y="21.4993" width="4.66667" height="3.5" rx="0.583333" stroke="#5D5FEF" stroke-width="1.16667"/>
<rect x="34.8159" y="29.666" width="5.83333" height="4.66667" rx="1.16667" fill="white"/>
</svg>
