<svg width="45" height="43" viewBox="0 0 45 43" fill="none" xmlns="http://www.w3.org/2000/svg">
<path fill-rule="evenodd" clip-rule="evenodd" d="M10.6964 13.6735C11.002 13.1349 11.7782 13.1349 12.0838 13.6735L13.0886 15.4444L15.0832 15.8528C15.69 15.977 15.9299 16.7152 15.512 17.1723L14.1383 18.6751L14.3663 20.6983C14.4357 21.3138 13.8077 21.77 13.2438 21.5139L11.3901 20.6718L9.53634 21.5139C8.97245 21.77 8.34448 21.3138 8.41386 20.6983L8.64192 18.6751L7.26818 17.1723C6.8503 16.7152 7.09016 15.977 7.69693 15.8528L9.69162 15.4444L10.6964 13.6735ZM11.3901 14.7599L10.606 16.1418C10.4924 16.342 10.2978 16.4834 10.0723 16.5296L8.5157 16.8482L9.5877 18.0209C9.74304 18.1909 9.81737 18.4196 9.79158 18.6484L9.61362 20.2273L11.0602 19.5701C11.2698 19.4749 11.5104 19.4749 11.72 19.5701L13.1666 20.2273L12.9886 18.6484C12.9628 18.4196 13.0371 18.1909 13.1925 18.0209L14.2645 16.8482L12.7079 16.5296C12.4824 16.4834 12.2877 16.342 12.1741 16.1418L11.3901 14.7599Z" fill="white"/>
<path fill-rule="evenodd" clip-rule="evenodd" d="M21.5655 13.6755C21.8711 13.1368 22.6473 13.1368 22.953 13.6755L23.9577 15.4464L25.9524 15.8547C26.5592 15.9789 26.799 16.7171 26.3811 17.1743L25.0074 18.6771L25.2355 20.7003C25.3048 21.3158 24.6769 21.772 24.113 21.5158L22.2592 20.6737L20.4055 21.5158C19.8416 21.772 19.2136 21.3158 19.283 20.7003L19.5111 18.6771L18.1373 17.1743C17.7194 16.7171 17.9593 15.9789 18.5661 15.8547L20.5608 15.4464L21.5655 13.6755ZM22.2592 14.7618L21.4752 16.1437C21.3616 16.344 21.167 16.4854 20.9414 16.5315L19.3848 16.8502L20.4568 18.0229C20.6122 18.1928 20.6865 18.4216 20.6607 18.6504L20.4828 20.2292L21.9293 19.5721C22.139 19.4769 22.3795 19.4769 22.5891 19.5721L24.0357 20.2292L23.8577 18.6504C23.8319 18.4216 23.9063 18.1928 24.0616 18.0229L25.1336 16.8502L23.5771 16.5315C23.3515 16.4854 23.1569 16.344 23.0433 16.1437L22.2592 14.7618Z" fill="white"/>
<path d="M32.9303 13.9548C33.0176 13.8009 33.2394 13.8009 33.3267 13.9548L34.4081 15.8608C34.4405 15.918 34.4961 15.9584 34.5606 15.9716L36.7074 16.411C36.8808 16.4465 36.9493 16.6574 36.8299 16.7881L35.3514 18.4055C35.307 18.454 35.2858 18.5194 35.2931 18.5847L35.5386 20.7623C35.5584 20.9381 35.379 21.0685 35.2179 20.9953L33.2228 20.089C33.1629 20.0618 33.0941 20.0618 33.0342 20.089L31.0391 20.9953C30.878 21.0685 30.6986 20.9381 30.7184 20.7623L30.9639 18.5847C30.9712 18.5194 30.95 18.454 30.9056 18.4055L29.4271 16.7881C29.3077 16.6574 29.3762 16.4465 29.5496 16.411L31.6964 15.9716C31.7609 15.9584 31.8165 15.918 31.8489 15.8608L32.9303 13.9548Z" fill="#5D5FEF" stroke="#5D5FEF" stroke-width="1.13944"/>
<path d="M7.13257 39.0433L10.7159 36.1768L10.7423 36.1566C11.4893 35.5589 11.8663 35.2572 12.2869 35.0425C12.6642 34.8497 13.0666 34.7093 13.4816 34.624C13.9495 34.528 14.4368 34.528 15.4151 34.528H35.8271C38.4556 34.528 39.7714 34.528 40.7764 34.0159C41.6612 33.5652 42.3812 32.845 42.8319 31.9602C43.344 30.9552 43.344 29.6408 43.344 27.0122V9.12638C43.344 6.49777 43.344 5.18152 42.8319 4.17656C42.3812 3.29168 41.6598 2.57279 40.775 2.12194C39.7691 1.60937 38.454 1.60938 35.8202 1.60938H8.54476C5.91101 1.60938 4.59315 1.60937 3.58721 2.12194C2.70233 2.57279 1.98343 3.29168 1.53259 4.17656C1.02002 5.18251 1.02002 6.50036 1.02002 9.13411V36.1063C1.02002 38.6121 1.02002 39.8646 1.53369 40.5082C1.98042 41.0678 2.65758 41.3935 3.37366 41.3928C4.19702 41.3918 5.17586 40.6088 7.13257 39.0433Z" stroke="white" stroke-width="2" stroke-linecap="round" stroke-linejoin="round"/>
</svg>
