<svg width="43" height="53" viewBox="0 0 43 53" fill="none" xmlns="http://www.w3.org/2000/svg">
<rect x="1.13525" y="1.5" width="40.7609" height="50" rx="6.23668" stroke="white" stroke-width="2"/>
<rect x="0.46875" y="12.1016" width="41.4275" height="1.51564" fill="white"/>
<circle cx="7.54168" cy="8.56316" r="1.01043" fill="#5D5FEF"/>
<circle cx="11.0783" cy="8.56316" r="1.01043" fill="#5D5FEF"/>
<circle cx="14.6144" cy="8.56316" r="1.01043" fill="#5D5FEF"/>
<rect x="17.646" y="7.55273" width="19.1981" height="2.02085" fill="#5D5FEF"/>
<path d="M8.29967 16.1426L10.7061 17.5319V20.3106L8.29967 21.6999L5.89327 20.3106V17.5319L8.29967 16.1426Z" fill="white"/>
<path d="M8.29932 18.1621L8.95561 18.541V19.2988L8.29932 19.6777L7.64303 19.2988V18.541L8.29932 18.1621Z" fill="white"/>
<rect x="23.7085" y="17.6582" width="2.52607" height="1.01043" fill="white"/>
<rect x="27.7505" y="17.6582" width="2.52607" height="1.01043" fill="white"/>
<rect x="31.793" y="17.6465" width="2.55644" height="1.02258" fill="white"/>
<rect x="35.8828" y="17.6465" width="2.55644" height="1.02258" fill="white"/>
<rect x="11.0781" y="34.8359" width="23.2398" height="1.01043" fill="white"/>
<rect x="15.1201" y="38.3711" width="14.6512" height="1.01043" fill="white"/>
<path d="M22.6983 22.7109L27.9486 31.8048H17.448L22.6983 22.7109Z" fill="white"/>
<rect x="15.625" y="41.9082" width="13.6408" height="3.53649" fill="white"/>
</svg>
