<svg width="44" height="53" viewBox="0 0 44 53" fill="none" xmlns="http://www.w3.org/2000/svg">
<rect x="1.80176" y="1.5" width="40.7609" height="50" rx="7.6087" stroke="white" stroke-width="2"/>
<path d="M4.04346 49.1409C5.76216 47.7255 10.8374 45.3193 17.3886 47.0178C23.9399 48.7163 29.2173 45.7035 31.0371 43.9848C33.2613 41.3562 38.6803 36.8876 42.5625 40.0419" stroke="white" stroke-width="1.63908"/>
<circle cx="8.37673" cy="10.2322" r="1.95681" fill="#5D5FEF"/>
<rect x="12.2905" y="8.92773" width="9.13176" height="2.60908" fill="#5D5FEF"/>
<rect x="6.42041" y="17.291" width="11.6913" height="1.37544" fill="white"/>
<rect x="33.9292" y="17.291" width="4.12633" height="1.37544" rx="0.687721" fill="white"/>
<rect x="33.9292" y="20.7285" width="4.12633" height="1.37544" rx="0.687721" fill="white"/>
<rect x="33.9292" y="24.168" width="4.12633" height="1.37544" rx="0.687721" fill="white"/>
<rect x="33.9292" y="27.6074" width="4.12633" height="1.37544" rx="0.687721" fill="white"/>
<rect x="33.9292" y="31.0449" width="4.12633" height="1.37544" rx="0.687721" fill="white"/>
<rect x="33.9292" y="34.4844" width="4.12633" height="1.37544" rx="0.687721" fill="white"/>
<rect x="6.42041" y="24.168" width="11.6913" height="1.37544" fill="white"/>
<rect x="6.42041" y="31.0449" width="11.6913" height="1.37544" fill="white"/>
<rect x="6.42041" y="37.9219" width="11.6913" height="1.37544" fill="white"/>
<rect x="6.42041" y="20.7285" width="8.94038" height="1.37544" fill="white"/>
<rect x="6.42041" y="27.6074" width="7.56493" height="1.37544" fill="white"/>
<rect x="6.42041" y="34.4844" width="8.94038" height="1.37544" fill="white"/>
<rect x="6.42041" y="41.3594" width="8.94038" height="1.37544" fill="white"/>
</svg>
