<svg width="44" height="53" viewBox="0 0 44 53" fill="none" xmlns="http://www.w3.org/2000/svg">
<rect x="1.80176" y="1.5" width="40.7609" height="50" rx="6.23668" stroke="white" stroke-width="2"/>
<rect x="13.002" y="44.2031" width="22.5598" height="2.00532" fill="white"/>
<g clip-path="url(#clip0_34_232)">
<path d="M28.9291 18.6025C27.4549 18.6025 27.5461 21.473 26.8505 22.773C26.7337 22.9891 26.4151 22.9615 26.3383 22.7279C25.5485 20.3062 25.9091 14.4219 23.767 14.4219C21.5245 14.4219 22.0788 22.0364 21.206 25.1394C21.1414 25.375 20.8156 25.3955 20.7204 25.1681C19.7984 22.9543 19.9019 18.1252 18.1573 18.1252C16.3522 18.1252 16.5059 22.1706 15.7991 23.8005C15.7058 24.0187 15.3975 24.0258 15.294 23.8107C14.7787 22.7361 14.6138 20.5684 12.6674 20.5684H10.4003C10.1186 20.5684 9.88916 20.7979 9.88916 21.0796C9.88916 21.3613 10.1186 21.5928 10.4003 21.5928H12.6674C14.2778 21.5928 13.7307 25.1619 15.5911 25.1619C17.3162 25.1619 17.1298 21.2794 17.8684 19.5583C17.9585 19.3452 18.2597 19.3514 18.3458 19.5645C19.1704 21.6615 19.1551 26.7149 21.0513 26.7149C23.179 26.7149 22.4209 18.6671 23.5539 15.8346C23.639 15.6184 23.9473 15.6071 24.0446 15.8223C25.0988 18.1272 24.5435 24.1467 26.4459 24.1467C28.1249 24.1467 28.2253 21.3746 28.7303 20.0101C28.8133 19.7929 29.1124 19.7776 29.2159 19.9824C29.7445 21.0079 30.0826 22.6173 31.6745 22.6173H33.9641C34.2458 22.6173 34.4753 22.3878 34.4753 22.1061C34.4753 21.8233 34.2458 21.5939 33.9641 21.5939H31.6745C30.3192 21.5939 30.5302 18.6025 28.9291 18.6025Z" fill="#5D5FEF" stroke="#5D5FEF" stroke-width="0.819538"/>
</g>
<line x1="2.10352" y1="39.2384" x2="42.5626" y2="39.2384" stroke="white" stroke-width="1.99967"/>
<path d="M10.9966 45.2065L7.98861 46.9431L7.98861 43.4698L10.9966 45.2065Z" fill="white"/>
<defs>
<clipPath id="clip0_34_232">
<rect width="24.5861" height="24.5861" fill="white" transform="translate(9.33643 8.27539)"/>
</clipPath>
</defs>
</svg>
