<svg width="40" height="53" viewBox="0 0 40 53" fill="none" xmlns="http://www.w3.org/2000/svg">
<path d="M26.446 11.5617V4.21875L36.2284 14.5448H29.4233C26.361 14.5448 26.446 12.9386 26.446 11.5617Z" fill="white" stroke="white" stroke-width="2.71739"/>
<path d="M1.44917 44.5285V44.0132M1.44917 44.0132V8.97202C1.37106 6.48134 2.62083 1.5 8.24478 1.5C13.8687 1.5 22.4609 1.5 25.5853 1.5L38.9422 15.4134V44.0132C39.0203 46.3321 37.8643 51.4852 32.6152 51.4852C27.3662 51.4852 12.2284 51.4852 8.24478 51.4852C5.97958 51.657 1.44917 50.4031 1.44917 44.0132Z" stroke="white" stroke-width="2"/>
<path d="M31.0766 35.3979C30.408 34.6895 29.051 34.2754 27.1203 34.2754C26.0876 34.2754 24.8952 34.3802 23.5981 34.6196C22.8647 33.8962 22.1363 33.0581 21.4379 32.0703C20.939 31.3768 20.505 30.6484 20.1058 29.925C20.8692 27.5453 21.2383 25.6046 21.2383 24.2077C21.2383 22.6412 20.6696 21.0098 19.0482 21.0098C18.5443 21.0098 18.0504 21.3141 17.781 21.7581C17.0476 23.0752 17.3769 25.9688 18.6391 28.8225C18.1651 30.2443 17.6712 31.6063 17.0476 33.1379C16.5038 34.4251 15.8802 35.7571 15.2416 36.9744C11.5847 38.4661 9.21993 40.1973 9.00041 41.5593C8.90063 42.0732 9.07026 42.5421 9.42946 42.9163C9.55419 43.0211 10.0232 43.4252 10.8164 43.4252C13.241 43.4252 15.7954 39.419 17.1025 36.9994C18.1003 36.6651 19.0981 36.3558 20.0909 36.0465C21.1835 35.7472 22.281 35.5027 23.2838 35.3331C25.8481 37.6779 28.1031 38.0471 29.2406 38.0471C30.6375 38.0471 31.1364 37.4683 31.3061 36.9944C31.5705 36.3808 31.3709 35.7122 31.0716 35.363L31.0766 35.3979ZM29.7844 36.3857C29.6846 36.8946 29.1857 37.2339 28.4873 37.2339C28.2877 37.2339 28.1231 37.1989 27.9186 37.169C26.6464 36.8597 25.454 36.2161 24.2616 35.1934C25.434 34.9938 26.4269 34.9589 27.0555 34.9589C27.7489 34.9589 28.3476 34.9938 28.7517 35.0936C29.2107 35.1934 29.9441 35.5027 29.7794 36.3907H29.7994L29.7844 36.3857ZM22.735 34.7893C21.8719 34.9689 20.944 35.1784 19.9761 35.4378C19.2128 35.6524 18.4146 35.8819 17.6163 36.1612C18.0504 35.3181 18.4146 34.4949 18.7488 33.7216C19.1529 32.7687 19.4822 31.7809 19.8165 30.868C20.1408 31.4417 20.5099 32.0204 20.8741 32.5393C21.4728 33.3574 22.1014 34.1307 22.73 34.8092V34.7893H22.735ZM18.3747 22.1522C18.5094 21.8828 18.7788 21.7431 19.0133 21.7431C19.7117 21.7431 19.8414 22.5563 19.8414 23.2049C19.8414 24.2975 19.5072 25.9588 18.9434 27.8546C17.9456 25.2155 17.8808 23.0053 18.3747 22.1522ZM14.7178 37.9872C13.0215 40.8359 11.3951 42.607 10.3973 42.607C10.2028 42.607 10.0331 42.5371 9.90342 42.4374C9.70386 42.2328 9.60408 41.9933 9.66893 41.7239C9.86849 40.7012 11.7643 39.2743 14.7178 37.9872Z" fill="#5D5FEF"/>
</svg>
