<svg width="44" height="53" viewBox="0 0 44 53" fill="none" xmlns="http://www.w3.org/2000/svg">
<rect x="1.64355" y="1.5" width="40.7609" height="50" rx="6.2371" stroke="white" stroke-width="2"/>
<path fill-rule="evenodd" clip-rule="evenodd" d="M29.7679 14.1352C29.7679 13.7043 29.6746 13.2785 29.4946 12.887C29.3146 12.4954 29.0521 12.1475 28.725 11.8669C28.398 11.5863 28.0141 11.3798 27.5997 11.2614C27.1854 11.1431 26.7504 11.1157 26.3244 11.1812L21.0935 11.986C20.3877 12.0946 19.7441 12.4522 19.2791 12.9942C18.8142 13.5362 18.5586 14.2267 18.5587 14.9408V21.4892C18.0467 21.2464 17.4696 21.1764 16.9144 21.2898C16.3591 21.4032 15.8557 21.6938 15.48 22.1181C15.1042 22.5423 14.8763 23.077 14.8307 23.6419C14.7852 24.2068 14.9243 24.7712 15.2271 25.2502C15.53 25.7291 15.9802 26.0968 16.5101 26.2978C17.04 26.4988 17.6208 26.5223 18.1651 26.3647C18.7095 26.2071 19.1879 25.8769 19.5284 25.4239C19.869 24.9709 20.0531 24.4196 20.0532 23.8529V14.9408C20.053 14.5836 20.1807 14.2382 20.4132 13.967C20.6457 13.6959 20.9676 13.517 21.3206 13.4627L26.5516 12.6578C26.7647 12.6251 26.9823 12.6388 27.1895 12.698C27.3968 12.7573 27.5888 12.8606 27.7523 13.0011C27.9159 13.1415 28.0471 13.3156 28.1371 13.5115C28.227 13.7074 28.2735 13.9204 28.2734 14.136V19.2474C27.7613 19.0045 27.1843 18.9345 26.629 19.0479C26.0738 19.1613 25.5704 19.452 25.1946 19.8762C24.8188 20.3004 24.591 20.8352 24.5454 21.4001C24.4998 21.9649 24.6389 22.5293 24.9418 23.0083C25.2447 23.4873 25.6949 23.855 26.2248 24.056C26.7546 24.257 27.3355 24.2804 27.8798 24.1228C28.4242 23.9652 28.9026 23.6351 29.2431 23.1821C29.5836 22.7291 29.7678 22.1777 29.7679 21.611V14.1352ZM28.2734 21.611C28.2734 21.3138 28.1553 21.0286 27.945 20.8184C27.7348 20.6082 27.4497 20.4901 27.1524 20.4901C26.8551 20.4901 26.57 20.6082 26.3598 20.8184C26.1496 21.0286 26.0315 21.3138 26.0315 21.611C26.0315 21.9083 26.1496 22.1934 26.3598 22.4037C26.57 22.6139 26.8551 22.732 27.1524 22.732C27.4497 22.732 27.7348 22.6139 27.945 22.4037C28.1553 22.1934 28.2734 21.9083 28.2734 21.611ZM18.5587 23.8529C18.5587 23.7057 18.5297 23.5599 18.4734 23.4239C18.417 23.2879 18.3345 23.1644 18.2304 23.0603C18.1263 22.9562 18.0027 22.8736 17.8667 22.8173C17.7307 22.761 17.585 22.732 17.4378 22.732C17.2906 22.732 17.1448 22.761 17.0088 22.8173C16.8728 22.8736 16.7492 22.9562 16.6451 23.0603C16.5411 23.1644 16.4585 23.2879 16.4022 23.4239C16.3458 23.5599 16.3168 23.7057 16.3168 23.8529C16.3168 24.1502 16.4349 24.4353 16.6451 24.6455C16.8554 24.8557 17.1405 24.9738 17.4378 24.9738C17.735 24.9738 18.0202 24.8557 18.2304 24.6455C18.4406 24.4353 18.5587 24.1502 18.5587 23.8529Z" fill="#5D5FEF"/>
<rect x="16.5884" y="33.0215" width="15.7609" height="1.08696" fill="white"/>
<rect x="16.5884" y="40.6289" width="15.7609" height="1.08696" fill="white"/>
<rect x="14.4146" y="36.8262" width="20.1087" height="1.08696" fill="white"/>
<circle cx="12.5125" cy="33.8367" r="0.815217" fill="white"/>
<circle cx="12.5125" cy="41.4441" r="0.815217" fill="white"/>
<circle cx="10.3387" cy="37.6414" r="0.815217" fill="white"/>
</svg>
