<svg width="46" height="43" viewBox="0 0 46 43" fill="none" xmlns="http://www.w3.org/2000/svg">
<path d="M7.47316 1.23843C3.16091 1.23843 1.91173 4.37537 1.82617 5.94383V27.9737C1.82617 31.9091 5.59083 32.7504 7.47316 32.6791H22.104C23.6441 34.3188 27.1349 38.0261 28.7777 39.7372C29.8044 40.5927 30.2322 41.2344 30.8311 41.2344C32.0632 41.2344 32.5423 40.2363 32.6279 39.7372V32.6791H38.5316C43.6652 32.6791 44.4352 29.5421 44.1786 27.9737V5.94383C44.1786 2.00841 40.4139 1.16714 38.5316 1.23843H7.47316Z" stroke="white" stroke-width="1.78064"/>
<circle cx="13.5745" cy="15.8714" r="2.55394" stroke="#5D5FEF" stroke-width="1.02158"/>
<circle cx="22.7683" cy="15.8714" r="2.55394" stroke="#5D5FEF" stroke-width="1.02158"/>
<circle cx="31.9632" cy="15.8714" r="3.06473" fill="#5D5FEF"/>
<rect x="9.48828" y="6.16797" width="14.3021" height="1.53236" fill="white"/>
<rect x="9.48828" y="22.5117" width="27.0718" height="0.510788" fill="white"/>
<rect x="9.48828" y="26.5977" width="27.0718" height="0.510788" fill="white"/>
</svg>
