<svg width="309" height="679" viewBox="0 0 309 679" fill="none" xmlns="http://www.w3.org/2000/svg">
<path d="M0 35C0 15.67 15.67 0 35 0H273.8C293.13 0 308.8 15.67 308.8 35V643.369C308.8 662.699 293.13 678.369 273.8 678.369H35C15.67 678.369 0 662.699 0 643.369V35Z" fill="white"/>
<path d="M27.4562 85.2441V76.1441H29.0162L33.3972 82.7221V76.1441H34.9572V85.2441H33.3972L29.0162 78.6791V85.2441H27.4562ZM39.1663 85.4001C38.6376 85.4001 38.1826 85.2961 37.8013 85.0881C37.4286 84.8715 37.1426 84.5508 36.9433 84.1261C36.7439 83.6928 36.6443 83.1598 36.6443 82.5271V78.6921H38.2043V82.3711C38.2043 82.9345 38.3213 83.3635 38.5553 83.6581C38.7979 83.9441 39.1619 84.0871 39.6473 84.0871C39.9593 84.0871 40.2366 84.0135 40.4793 83.8661C40.7306 83.7188 40.9256 83.5065 41.0643 83.2291C41.2116 82.9431 41.2853 82.5965 41.2853 82.1891V78.6921H42.8453V85.2441H41.4673L41.3503 84.1521C41.1509 84.5335 40.8606 84.8368 40.4793 85.0621C40.1066 85.2875 39.6689 85.4001 39.1663 85.4001ZM44.581 85.2441V78.6921H45.959L46.089 79.5891C46.297 79.2598 46.57 79.0041 46.908 78.8221C47.2546 78.6315 47.649 78.5361 48.091 78.5361C48.4203 78.5361 48.715 78.5795 48.975 78.6661C49.2436 78.7528 49.4776 78.8828 49.677 79.0561C49.885 79.2295 50.054 79.4461 50.184 79.7061C50.4266 79.3421 50.743 79.0561 51.133 78.8481C51.523 78.6401 51.9476 78.5361 52.407 78.5361C52.953 78.5361 53.4166 78.6488 53.798 78.8741C54.1793 79.0908 54.4696 79.4158 54.669 79.8491C54.8683 80.2738 54.968 80.7981 54.968 81.4221V85.2441H53.421V81.5781C53.421 81.0235 53.3083 80.5988 53.083 80.3041C52.8576 80.0095 52.524 79.8621 52.082 79.8621C51.7786 79.8621 51.51 79.9358 51.276 80.0831C51.0506 80.2305 50.873 80.4471 50.743 80.7331C50.613 81.0105 50.548 81.3528 50.548 81.7601V85.2441H49.001V81.5781C49.001 81.0235 48.8883 80.5988 48.663 80.3041C48.4376 80.0095 48.0996 79.8621 47.649 79.8621C47.363 79.8621 47.103 79.9358 46.869 80.0831C46.6436 80.2305 46.466 80.4471 46.336 80.7331C46.206 81.0105 46.141 81.3528 46.141 81.7601V85.2441H44.581ZM60.3601 85.4001C60.0135 85.4001 59.7015 85.3525 59.4241 85.2571C59.1468 85.1705 58.9041 85.0491 58.6961 84.8931C58.4881 84.7285 58.3148 84.5421 58.1761 84.3341L58.0071 85.2441H56.6161V75.8841H58.1761V79.6541C58.3841 79.3335 58.6658 79.0691 59.0211 78.8611C59.3765 78.6445 59.8185 78.5361 60.3471 78.5361C60.9625 78.5361 61.5041 78.6878 61.9721 78.9911C62.4488 79.2858 62.8215 79.6931 63.0901 80.2131C63.3675 80.7245 63.5061 81.3138 63.5061 81.9811C63.5061 82.6311 63.3718 83.2161 63.1031 83.7361C62.8345 84.2561 62.4618 84.6635 61.9851 84.9581C61.5171 85.2528 60.9755 85.4001 60.3601 85.4001ZM60.0351 84.0481C60.3991 84.0481 60.7241 83.9615 61.0101 83.7881C61.2961 83.6061 61.5171 83.3635 61.6731 83.0601C61.8378 82.7481 61.9201 82.3841 61.9201 81.9681C61.9201 81.5608 61.8378 81.2011 61.6731 80.8891C61.5171 80.5771 61.2961 80.3345 61.0101 80.1611C60.7241 79.9878 60.3991 79.9011 60.0351 79.9011C59.6625 79.9011 59.3331 79.9878 59.0471 80.1611C58.7698 80.3345 58.5488 80.5771 58.3841 80.8891C58.2281 81.2011 58.1501 81.5608 58.1501 81.9681C58.1501 82.3841 58.2281 82.7481 58.3841 83.0601C58.5488 83.3635 58.7698 83.6061 59.0471 83.7881C59.3331 83.9615 59.6625 84.0481 60.0351 84.0481ZM68.0884 85.4001C67.4384 85.4001 66.8664 85.2615 66.3724 84.9841C65.8784 84.6981 65.4927 84.2995 65.2154 83.7881C64.9381 83.2768 64.7994 82.6875 64.7994 82.0201C64.7994 81.3268 64.9337 80.7201 65.2024 80.2001C65.4797 79.6801 65.8654 79.2728 66.3594 78.9781C66.8621 78.6835 67.4427 78.5361 68.1014 78.5361C68.7427 78.5361 69.3017 78.6791 69.7784 78.9651C70.2551 79.2511 70.6234 79.6368 70.8834 80.1221C71.1434 80.5988 71.2734 81.1361 71.2734 81.7341C71.2734 81.8208 71.2734 81.9161 71.2734 82.0201C71.2734 82.1241 71.2647 82.2325 71.2474 82.3451H65.9174V81.3441H69.7004C69.6831 80.8675 69.5227 80.4948 69.2194 80.2261C68.9161 79.9488 68.5391 79.8101 68.0884 79.8101C67.7677 79.8101 67.4731 79.8838 67.2044 80.0311C66.9357 80.1785 66.7234 80.3995 66.5674 80.6941C66.4114 80.9801 66.3334 81.3441 66.3334 81.7861V82.1631C66.3334 82.5705 66.4071 82.9215 66.5544 83.2161C66.7104 83.5108 66.9184 83.7361 67.1784 83.8921C67.4471 84.0395 67.7461 84.1131 68.0754 84.1131C68.4394 84.1131 68.7384 84.0351 68.9724 83.8791C69.2151 83.7231 69.3927 83.5151 69.5054 83.2551H71.0914C70.9701 83.6625 70.7707 84.0308 70.4934 84.3601C70.2161 84.6808 69.8737 84.9365 69.4664 85.1271C69.0591 85.3091 68.5997 85.4001 68.0884 85.4001ZM72.7138 85.2441V78.6921H74.1048L74.2478 79.9141C74.4038 79.6281 74.5988 79.3855 74.8328 79.1861C75.0668 78.9781 75.3398 78.8178 75.6518 78.7051C75.9724 78.5925 76.3234 78.5361 76.7048 78.5361V80.1871H76.1588C75.8988 80.1871 75.6518 80.2218 75.4178 80.2911C75.1838 80.3518 74.9801 80.4558 74.8068 80.6031C74.6421 80.7418 74.5121 80.9368 74.4168 81.1881C74.3214 81.4308 74.2738 81.7385 74.2738 82.1111V85.2441H72.7138Z" fill="black"/>
<path d="M27.4562 168.688V159.587H29.3022L32.2142 165.463L35.1002 159.587H36.9592V168.688H35.3992V162.265L32.8252 167.413H31.6032L29.0162 162.278V168.688H27.4562ZM41.8218 168.844C41.1718 168.844 40.5998 168.705 40.1058 168.427C39.6118 168.141 39.2261 167.743 38.9488 167.231C38.6715 166.72 38.5328 166.131 38.5328 165.463C38.5328 164.77 38.6671 164.163 38.9358 163.643C39.2131 163.123 39.5988 162.716 40.0928 162.421C40.5955 162.127 41.1761 161.979 41.8348 161.979C42.4761 161.979 43.0351 162.122 43.5118 162.408C43.9885 162.694 44.3568 163.08 44.6168 163.565C44.8768 164.042 45.0068 164.579 45.0068 165.177C45.0068 165.264 45.0068 165.359 45.0068 165.463C45.0068 165.567 44.9981 165.676 44.9808 165.788H39.6508V164.787H43.4338C43.4165 164.311 43.2561 163.938 42.9528 163.669C42.6495 163.392 42.2725 163.253 41.8218 163.253C41.5011 163.253 41.2065 163.327 40.9378 163.474C40.6691 163.622 40.4568 163.843 40.3008 164.137C40.1448 164.423 40.0668 164.787 40.0668 165.229V165.606C40.0668 166.014 40.1405 166.365 40.2878 166.659C40.4438 166.954 40.6518 167.179 40.9118 167.335C41.1805 167.483 41.4795 167.556 41.8088 167.556C42.1728 167.556 42.4718 167.478 42.7058 167.322C42.9485 167.166 43.1261 166.958 43.2388 166.698H44.8248C44.7035 167.106 44.5041 167.474 44.2268 167.803C43.9495 168.124 43.6071 168.38 43.1998 168.57C42.7925 168.752 42.3331 168.844 41.8218 168.844ZM49.0602 168.844C48.4795 168.844 47.9725 168.752 47.5392 168.57C47.1145 168.38 46.7765 168.12 46.5252 167.79C46.2825 167.452 46.1395 167.067 46.0962 166.633H47.6562C47.6995 166.815 47.7775 166.984 47.8902 167.14C48.0028 167.288 48.1545 167.405 48.3452 167.491C48.5445 167.578 48.7785 167.621 49.0472 167.621C49.3072 167.621 49.5195 167.587 49.6842 167.517C49.8488 167.439 49.9702 167.34 50.0482 167.218C50.1262 167.097 50.1652 166.967 50.1652 166.828C50.1652 166.62 50.1088 166.46 49.9962 166.347C49.8835 166.235 49.7188 166.148 49.5022 166.087C49.2942 166.018 49.0428 165.953 48.7482 165.892C48.4362 165.832 48.1328 165.758 47.8382 165.671C47.5522 165.576 47.2922 165.459 47.0582 165.32C46.8328 165.182 46.6508 165.004 46.5122 164.787C46.3822 164.571 46.3172 164.306 46.3172 163.994C46.3172 163.613 46.4168 163.271 46.6162 162.967C46.8242 162.664 47.1188 162.426 47.5002 162.252C47.8902 162.07 48.3538 161.979 48.8912 161.979C49.6538 161.979 50.2605 162.157 50.7112 162.512C51.1705 162.859 51.4392 163.349 51.5172 163.981H50.0352C49.9918 163.739 49.8705 163.552 49.6712 163.422C49.4718 163.284 49.2075 163.214 48.8782 163.214C48.5402 163.214 48.2802 163.279 48.0982 163.409C47.9248 163.531 47.8382 163.695 47.8382 163.903C47.8382 164.042 47.8902 164.163 47.9942 164.267C48.1068 164.371 48.2672 164.462 48.4752 164.54C48.6832 164.61 48.9388 164.679 49.2422 164.748C49.7275 164.844 50.1565 164.956 50.5292 165.086C50.9018 165.216 51.1965 165.407 51.4132 165.658C51.6298 165.91 51.7382 166.265 51.7382 166.724C51.7468 167.14 51.6385 167.509 51.4132 167.83C51.1965 168.15 50.8888 168.401 50.4902 168.583C50.0915 168.757 49.6148 168.844 49.0602 168.844ZM55.8649 168.844C55.2842 168.844 54.7772 168.752 54.3439 168.57C53.9192 168.38 53.5812 168.12 53.3299 167.79C53.0872 167.452 52.9442 167.067 52.9009 166.633H54.4609C54.5042 166.815 54.5822 166.984 54.6949 167.14C54.8075 167.288 54.9592 167.405 55.1499 167.491C55.3492 167.578 55.5832 167.621 55.8519 167.621C56.1119 167.621 56.3242 167.587 56.4889 167.517C56.6535 167.439 56.7749 167.34 56.8529 167.218C56.9309 167.097 56.9699 166.967 56.9699 166.828C56.9699 166.62 56.9135 166.46 56.8009 166.347C56.6882 166.235 56.5235 166.148 56.3069 166.087C56.0989 166.018 55.8475 165.953 55.5529 165.892C55.2409 165.832 54.9375 165.758 54.6429 165.671C54.3569 165.576 54.0969 165.459 53.8629 165.32C53.6375 165.182 53.4555 165.004 53.3169 164.787C53.1869 164.571 53.1219 164.306 53.1219 163.994C53.1219 163.613 53.2215 163.271 53.4209 162.967C53.6289 162.664 53.9235 162.426 54.3049 162.252C54.6949 162.07 55.1585 161.979 55.6959 161.979C56.4585 161.979 57.0652 162.157 57.5159 162.512C57.9752 162.859 58.2439 163.349 58.3219 163.981H56.8399C56.7965 163.739 56.6752 163.552 56.4759 163.422C56.2765 163.284 56.0122 163.214 55.6829 163.214C55.3449 163.214 55.0849 163.279 54.9029 163.409C54.7295 163.531 54.6429 163.695 54.6429 163.903C54.6429 164.042 54.6949 164.163 54.7989 164.267C54.9115 164.371 55.0719 164.462 55.2799 164.54C55.4879 164.61 55.7435 164.679 56.0469 164.748C56.5322 164.844 56.9612 164.956 57.3339 165.086C57.7065 165.216 58.0012 165.407 58.2179 165.658C58.4345 165.91 58.5429 166.265 58.5429 166.724C58.5515 167.14 58.4432 167.509 58.2179 167.83C58.0012 168.15 57.6935 168.401 57.2949 168.583C56.8962 168.757 56.4195 168.844 55.8649 168.844ZM62.2405 168.844C61.7032 168.844 61.2569 168.752 60.9015 168.57C60.5462 168.388 60.2819 168.146 60.1085 167.842C59.9352 167.539 59.8485 167.21 59.8485 166.854C59.8485 166.438 59.9525 166.079 60.1605 165.775C60.3772 165.472 60.6935 165.238 61.1095 165.073C61.5255 164.9 62.0369 164.813 62.6435 164.813H64.2945C64.2945 164.467 64.2469 164.181 64.1515 163.955C64.0562 163.721 63.9089 163.548 63.7095 163.435C63.5102 163.323 63.2545 163.266 62.9425 163.266C62.5872 163.266 62.2839 163.349 62.0325 163.513C61.7812 163.669 61.6252 163.912 61.5645 164.241H60.0305C60.0825 163.773 60.2385 163.375 60.4985 163.045C60.7585 162.707 61.1009 162.447 61.5255 162.265C61.9589 162.075 62.4312 161.979 62.9425 161.979C63.5579 161.979 64.0822 162.088 64.5155 162.304C64.9489 162.512 65.2782 162.816 65.5035 163.214C65.7375 163.604 65.8545 164.077 65.8545 164.631V168.688H64.5285L64.3725 167.634C64.2859 167.808 64.1732 167.968 64.0345 168.115C63.9045 168.263 63.7529 168.393 63.5795 168.505C63.4062 168.609 63.2069 168.692 62.9815 168.753C62.7649 168.813 62.5179 168.844 62.2405 168.844ZM62.5915 167.608C62.8429 167.608 63.0639 167.565 63.2545 167.478C63.4539 167.383 63.6229 167.253 63.7615 167.088C63.9089 166.915 64.0215 166.724 64.0995 166.516C64.1775 166.308 64.2295 166.087 64.2555 165.853V165.827H62.8125C62.5092 165.827 62.2579 165.866 62.0585 165.944C61.8592 166.022 61.7162 166.131 61.6295 166.269C61.5429 166.399 61.4995 166.555 61.4995 166.737C61.4995 166.919 61.5429 167.075 61.6295 167.205C61.7162 167.335 61.8419 167.435 62.0065 167.504C62.1712 167.574 62.3662 167.608 62.5915 167.608ZM70.2774 171.704C69.6621 171.704 69.1204 171.626 68.6524 171.47C68.1931 171.322 67.8334 171.093 67.5734 170.781C67.3221 170.477 67.1964 170.096 67.1964 169.637C67.1964 169.368 67.2614 169.104 67.3914 168.844C67.5301 168.592 67.7337 168.358 68.0024 168.141C68.2797 167.916 68.6307 167.721 69.0554 167.556L69.7444 168.31C69.3284 168.458 69.0381 168.635 68.8734 168.844C68.7087 169.052 68.6264 169.264 68.6264 169.481C68.6264 169.706 68.6957 169.892 68.8344 170.04C68.9817 170.196 69.1767 170.313 69.4194 170.391C69.6707 170.469 69.9524 170.508 70.2644 170.508C70.5677 170.508 70.8321 170.464 71.0574 170.378C71.2827 170.3 71.4561 170.187 71.5774 170.04C71.7074 169.892 71.7724 169.715 71.7724 169.507C71.7724 169.247 71.6814 169.034 71.4994 168.87C71.3174 168.714 70.9577 168.618 70.4204 168.583C69.9611 168.549 69.5581 168.501 69.2114 168.44C68.8647 168.371 68.5657 168.293 68.3144 168.206C68.0717 168.12 67.8637 168.024 67.6904 167.92C67.5171 167.808 67.3741 167.695 67.2614 167.582V167.283L68.6264 165.853L69.7834 166.23L68.2494 167.725L68.6524 166.972C68.7391 167.032 68.8257 167.088 68.9124 167.14C69.0077 167.192 69.1247 167.24 69.2634 167.283C69.4107 167.318 69.6014 167.353 69.8354 167.387C70.0694 167.422 70.3727 167.457 70.7454 167.491C71.3261 167.535 71.7984 167.639 72.1624 167.803C72.5264 167.968 72.7951 168.189 72.9684 168.466C73.1417 168.744 73.2284 169.078 73.2284 169.468C73.2284 169.849 73.1201 170.209 72.9034 170.547C72.6954 170.885 72.3747 171.162 71.9414 171.379C71.5081 171.595 70.9534 171.704 70.2774 171.704ZM70.2774 166.724C69.7314 166.724 69.2591 166.62 68.8604 166.412C68.4704 166.196 68.1714 165.91 67.9634 165.554C67.7554 165.19 67.6514 164.792 67.6514 164.358C67.6514 163.916 67.7554 163.518 67.9634 163.162C68.1714 162.807 68.4704 162.521 68.8604 162.304C69.2591 162.088 69.7314 161.979 70.2774 161.979C70.8234 161.979 71.2914 162.088 71.6814 162.304C72.0714 162.521 72.3704 162.807 72.5784 163.162C72.7864 163.518 72.8904 163.916 72.8904 164.358C72.8904 164.792 72.7864 165.19 72.5784 165.554C72.3704 165.91 72.0714 166.196 71.6814 166.412C71.2914 166.62 70.8234 166.724 70.2774 166.724ZM70.2774 165.515C70.6501 165.515 70.9491 165.416 71.1744 165.216C71.3997 165.017 71.5124 164.731 71.5124 164.358C71.5124 163.986 71.3997 163.704 71.1744 163.513C70.9491 163.314 70.6501 163.214 70.2774 163.214C69.9047 163.214 69.6014 163.314 69.3674 163.513C69.1334 163.704 69.0164 163.986 69.0164 164.358C69.0164 164.731 69.1334 165.017 69.3674 165.216C69.6014 165.416 69.9047 165.515 70.2774 165.515ZM71.3564 163.279L71.0574 162.135H73.7484V163.123L71.3564 163.279ZM77.94 168.844C77.29 168.844 76.718 168.705 76.224 168.427C75.73 168.141 75.3443 167.743 75.067 167.231C74.7896 166.72 74.651 166.131 74.651 165.463C74.651 164.77 74.7853 164.163 75.054 163.643C75.3313 163.123 75.717 162.716 76.211 162.421C76.7136 162.127 77.2943 161.979 77.953 161.979C78.5943 161.979 79.1533 162.122 79.63 162.408C80.1066 162.694 80.475 163.08 80.735 163.565C80.995 164.042 81.125 164.579 81.125 165.177C81.125 165.264 81.125 165.359 81.125 165.463C81.125 165.567 81.1163 165.676 81.099 165.788H75.769V164.787H79.552C79.5346 164.311 79.3743 163.938 79.071 163.669C78.7676 163.392 78.3906 163.253 77.94 163.253C77.6193 163.253 77.3246 163.327 77.056 163.474C76.7873 163.622 76.575 163.843 76.419 164.137C76.263 164.423 76.185 164.787 76.185 165.229V165.606C76.185 166.014 76.2586 166.365 76.406 166.659C76.562 166.954 76.77 167.179 77.03 167.335C77.2986 167.483 77.5976 167.556 77.927 167.556C78.291 167.556 78.59 167.478 78.824 167.322C79.0666 167.166 79.2443 166.958 79.357 166.698H80.943C80.8216 167.106 80.6223 167.474 80.345 167.803C80.0676 168.124 79.7253 168.38 79.318 168.57C78.9106 168.752 78.4513 168.844 77.94 168.844Z" fill="black"/>
<rect x="26.5332" y="100.086" width="255.734" height="45" rx="5" fill="#EEEFF2"/>
<rect x="26.5332" y="180.527" width="255.734" height="181.311" rx="5" fill="#EEEFF2"/>
<path d="M43.096 127.086V125.136H38.481V124.291L42.901 117.986H44.175V124.174H45.527V125.136H44.175V127.086H43.096ZM39.69 124.174H43.148V119.195L39.69 124.174ZM49.9395 127.242C49.3242 127.242 48.7868 127.129 48.3275 126.904C47.8682 126.679 47.5042 126.371 47.2355 125.981C46.9755 125.591 46.8108 125.153 46.7415 124.668H47.8075C47.9115 125.153 48.1498 125.548 48.5225 125.851C48.8952 126.154 49.3718 126.306 49.9525 126.306C50.3858 126.306 50.7542 126.206 51.0575 126.007C51.3695 125.799 51.6078 125.526 51.7725 125.188C51.9458 124.841 52.0325 124.456 52.0325 124.031C52.0325 123.58 51.9458 123.19 51.7725 122.861C51.6078 122.523 51.3695 122.259 51.0575 122.068C50.7542 121.877 50.4032 121.782 50.0045 121.782C49.5018 121.782 49.0772 121.89 48.7305 122.107C48.3838 122.324 48.1238 122.605 47.9505 122.952H46.8975L47.6645 117.986H52.4615V118.935H48.5095L47.9895 121.717C48.2062 121.474 48.4965 121.271 48.8605 121.106C49.2245 120.941 49.6448 120.859 50.1215 120.859C50.5635 120.859 50.9665 120.941 51.3305 121.106C51.6945 121.262 52.0065 121.483 52.2665 121.769C52.5265 122.055 52.7258 122.389 52.8645 122.77C53.0118 123.151 53.0855 123.567 53.0855 124.018C53.0855 124.451 53.0162 124.863 52.8775 125.253C52.7388 125.643 52.5308 125.99 52.2535 126.293C51.9848 126.588 51.6555 126.822 51.2655 126.995C50.8842 127.16 50.4422 127.242 49.9395 127.242ZM58.0818 127.242C57.4231 127.242 56.8684 127.121 56.4178 126.878C55.9671 126.627 55.6074 126.293 55.3388 125.877C55.0701 125.461 54.8708 124.997 54.7408 124.486C54.6194 123.966 54.5588 123.437 54.5588 122.9C54.5588 121.895 54.6974 121.015 54.9748 120.261C55.2521 119.498 55.6508 118.905 56.1708 118.48C56.6994 118.047 57.3321 117.83 58.0688 117.83C58.6408 117.83 59.1304 117.943 59.5378 118.168C59.9538 118.385 60.2831 118.679 60.5257 119.052C60.7684 119.425 60.9158 119.841 60.9678 120.3H59.9538C59.8671 119.815 59.6548 119.442 59.3168 119.182C58.9874 118.913 58.5671 118.779 58.0558 118.779C57.6051 118.779 57.1978 118.922 56.8338 119.208C56.4698 119.485 56.1794 119.91 55.9628 120.482C55.7548 121.054 55.6334 121.786 55.5988 122.679C55.5988 122.696 55.5988 122.714 55.5988 122.731C55.5988 122.748 55.5988 122.766 55.5988 122.783C55.7374 122.506 55.9281 122.254 56.1708 122.029C56.4221 121.795 56.7211 121.609 57.0678 121.47C57.4144 121.331 57.8001 121.262 58.2248 121.262C58.7448 121.262 59.2301 121.383 59.6808 121.626C60.1314 121.869 60.4954 122.211 60.7728 122.653C61.0588 123.086 61.2018 123.598 61.2018 124.187C61.2018 124.698 61.0761 125.188 60.8248 125.656C60.5734 126.124 60.2138 126.505 59.7458 126.8C59.2778 127.095 58.7231 127.242 58.0818 127.242ZM58.0038 126.28C58.4024 126.28 58.7578 126.193 59.0698 126.02C59.3904 125.838 59.6418 125.595 59.8238 125.292C60.0058 124.98 60.0968 124.629 60.0968 124.239C60.0968 123.832 60.0058 123.476 59.8238 123.173C59.6418 122.87 59.3904 122.636 59.0698 122.471C58.7578 122.298 58.4024 122.211 58.0038 122.211C57.6051 122.211 57.2454 122.302 56.9248 122.484C56.6041 122.666 56.3484 122.913 56.1578 123.225C55.9758 123.528 55.8848 123.871 55.8848 124.252C55.8848 124.642 55.9758 124.989 56.1578 125.292C56.3484 125.595 56.6041 125.838 56.9248 126.02C57.2454 126.193 57.6051 126.28 58.0038 126.28ZM63.4708 127.086L67.0198 118.922H62.0278V117.986H68.1378V118.805L64.6278 127.086H63.4708ZM72.3573 127.242C71.7679 127.242 71.2393 127.134 70.7713 126.917C70.3033 126.692 69.9306 126.384 69.6533 125.994C69.3759 125.595 69.2373 125.136 69.2373 124.616C69.2373 124.243 69.3109 123.897 69.4583 123.576C69.6056 123.255 69.8093 122.978 70.0693 122.744C70.3379 122.501 70.6456 122.332 70.9923 122.237C70.5069 122.064 70.1299 121.795 69.8613 121.431C69.6013 121.067 69.4713 120.673 69.4713 120.248C69.4713 119.797 69.5883 119.39 69.8223 119.026C70.0563 118.662 70.3856 118.372 70.8103 118.155C71.2436 117.938 71.7593 117.83 72.3573 117.83C72.9639 117.83 73.4796 117.938 73.9043 118.155C74.3376 118.372 74.6713 118.662 74.9053 119.026C75.1393 119.39 75.2563 119.797 75.2563 120.248C75.2563 120.673 75.1219 121.067 74.8533 121.431C74.5846 121.795 74.2076 122.064 73.7223 122.237C74.0863 122.332 74.3983 122.501 74.6583 122.744C74.9183 122.978 75.1219 123.255 75.2693 123.576C75.4166 123.897 75.4903 124.243 75.4903 124.616C75.4903 125.136 75.3516 125.595 75.0743 125.994C74.7969 126.384 74.4243 126.692 73.9563 126.917C73.4883 127.134 72.9553 127.242 72.3573 127.242ZM72.3573 126.28C73.0419 126.28 73.5533 126.124 73.8913 125.812C74.2293 125.491 74.3983 125.071 74.3983 124.551C74.3983 123.962 74.2119 123.515 73.8393 123.212C73.4666 122.909 72.9726 122.757 72.3573 122.757C71.7419 122.757 71.2479 122.909 70.8753 123.212C70.5113 123.515 70.3293 123.962 70.3293 124.551C70.3293 125.071 70.4983 125.491 70.8363 125.812C71.1743 126.124 71.6813 126.28 72.3573 126.28ZM72.3573 121.847C72.9033 121.847 73.3366 121.704 73.6573 121.418C73.9866 121.132 74.1513 120.764 74.1513 120.313C74.1513 119.802 73.9909 119.416 73.6703 119.156C73.3496 118.896 72.9119 118.766 72.3573 118.766C71.8113 118.766 71.3779 118.896 71.0573 119.156C70.7453 119.416 70.5893 119.802 70.5893 120.313C70.5893 120.764 70.7453 121.132 71.0573 121.418C71.3779 121.704 71.8113 121.847 72.3573 121.847ZM79.8853 127.242C79.322 127.242 78.8323 127.129 78.4163 126.904C78.009 126.679 77.684 126.38 77.4413 126.007C77.2073 125.626 77.0643 125.214 77.0123 124.772H78.0263C78.113 125.257 78.321 125.634 78.6503 125.903C78.9796 126.163 79.3956 126.293 79.8983 126.293C80.3576 126.293 80.765 126.154 81.1203 125.877C81.4843 125.6 81.7746 125.179 81.9913 124.616C82.208 124.044 82.3293 123.32 82.3553 122.445C82.364 122.419 82.3683 122.393 82.3683 122.367C82.3683 122.341 82.3683 122.315 82.3683 122.289C82.2296 122.558 82.0346 122.809 81.7833 123.043C81.5406 123.277 81.246 123.463 80.8993 123.602C80.5613 123.741 80.1756 123.81 79.7423 123.81C79.231 123.81 78.7456 123.689 78.2863 123.446C77.8356 123.203 77.4673 122.865 77.1813 122.432C76.904 121.99 76.7653 121.474 76.7653 120.885C76.7653 120.374 76.891 119.884 77.1423 119.416C77.3936 118.948 77.7533 118.567 78.2213 118.272C78.6893 117.977 79.244 117.83 79.8853 117.83C80.544 117.83 81.0943 117.956 81.5363 118.207C81.987 118.45 82.3466 118.779 82.6153 119.195C82.8926 119.602 83.092 120.066 83.2133 120.586C83.3433 121.106 83.4083 121.635 83.4083 122.172C83.4083 123.169 83.2696 124.048 82.9923 124.811C82.715 125.574 82.312 126.172 81.7833 126.605C81.2633 127.03 80.6306 127.242 79.8853 127.242ZM79.9633 122.861C80.362 122.861 80.7216 122.77 81.0423 122.588C81.363 122.397 81.6186 122.15 81.8093 121.847C82 121.535 82.0953 121.193 82.0953 120.82C82.0953 120.421 82 120.07 81.8093 119.767C81.6186 119.464 81.363 119.225 81.0423 119.052C80.7216 118.879 80.362 118.792 79.9633 118.792C79.5646 118.792 79.205 118.883 78.8843 119.065C78.5723 119.238 78.3253 119.477 78.1433 119.78C77.9613 120.083 77.8703 120.434 77.8703 120.833C77.8703 121.24 77.9613 121.596 78.1433 121.899C78.3253 122.202 78.5723 122.441 78.8843 122.614C79.205 122.779 79.5646 122.861 79.9633 122.861ZM88.0611 127.242C87.4977 127.242 87.0081 127.129 86.5921 126.904C86.1847 126.679 85.8597 126.38 85.6171 126.007C85.3831 125.626 85.2401 125.214 85.1881 124.772H86.2021C86.2887 125.257 86.4967 125.634 86.8261 125.903C87.1554 126.163 87.5714 126.293 88.0741 126.293C88.5334 126.293 88.9407 126.154 89.2961 125.877C89.6601 125.6 89.9504 125.179 90.1671 124.616C90.3837 124.044 90.5051 123.32 90.5311 122.445C90.5397 122.419 90.5441 122.393 90.5441 122.367C90.5441 122.341 90.5441 122.315 90.5441 122.289C90.4054 122.558 90.2104 122.809 89.9591 123.043C89.7164 123.277 89.4217 123.463 89.0751 123.602C88.7371 123.741 88.3514 123.81 87.9181 123.81C87.4067 123.81 86.9214 123.689 86.4621 123.446C86.0114 123.203 85.6431 122.865 85.3571 122.432C85.0797 121.99 84.9411 121.474 84.9411 120.885C84.9411 120.374 85.0667 119.884 85.3181 119.416C85.5694 118.948 85.9291 118.567 86.3971 118.272C86.8651 117.977 87.4197 117.83 88.0611 117.83C88.7197 117.83 89.2701 117.956 89.7121 118.207C90.1627 118.45 90.5224 118.779 90.7911 119.195C91.0684 119.602 91.2677 120.066 91.3891 120.586C91.5191 121.106 91.5841 121.635 91.5841 122.172C91.5841 123.169 91.4454 124.048 91.1681 124.811C90.8907 125.574 90.4877 126.172 89.9591 126.605C89.4391 127.03 88.8064 127.242 88.0611 127.242ZM88.1391 122.861C88.5377 122.861 88.8974 122.77 89.2181 122.588C89.5387 122.397 89.7944 122.15 89.9851 121.847C90.1757 121.535 90.2711 121.193 90.2711 120.82C90.2711 120.421 90.1757 120.07 89.9851 119.767C89.7944 119.464 89.5387 119.225 89.2181 119.052C88.8974 118.879 88.5377 118.792 88.1391 118.792C87.7404 118.792 87.3807 118.883 87.0601 119.065C86.7481 119.238 86.5011 119.477 86.3191 119.78C86.1371 120.083 86.0461 120.434 86.0461 120.833C86.0461 121.24 86.1371 121.596 86.3191 121.899C86.5011 122.202 86.7481 122.441 87.0601 122.614C87.3807 122.779 87.7404 122.861 88.1391 122.861ZM96.7569 127.242C95.9595 127.242 95.2749 127.047 94.7029 126.657C94.1309 126.258 93.6889 125.708 93.3769 125.006C93.0735 124.295 92.9219 123.472 92.9219 122.536C92.9219 121.6 93.0735 120.781 93.3769 120.079C93.6889 119.368 94.1309 118.818 94.7029 118.428C95.2749 118.029 95.9595 117.83 96.7569 117.83C97.5542 117.83 98.2345 118.029 98.7979 118.428C99.3699 118.818 99.8075 119.368 100.111 120.079C100.414 120.781 100.566 121.6 100.566 122.536C100.566 123.472 100.414 124.295 100.111 125.006C99.8075 125.708 99.3699 126.258 98.7979 126.657C98.2345 127.047 97.5542 127.242 96.7569 127.242ZM96.7569 126.28C97.2682 126.28 97.7275 126.133 98.1349 125.838C98.5422 125.535 98.8629 125.106 99.0969 124.551C99.3309 123.988 99.4479 123.316 99.4479 122.536C99.4479 121.756 99.3309 121.089 99.0969 120.534C98.8629 119.971 98.5422 119.542 98.1349 119.247C97.7275 118.952 97.2682 118.805 96.7569 118.805C96.2282 118.805 95.7559 118.952 95.3399 119.247C94.9325 119.542 94.6119 119.971 94.3779 120.534C94.1525 121.089 94.0399 121.756 94.0399 122.536C94.0399 123.316 94.1525 123.988 94.3779 124.551C94.6119 125.106 94.9325 125.535 95.3399 125.838C95.7559 126.133 96.2282 126.28 96.7569 126.28ZM105.137 127.242C104.547 127.242 104.019 127.134 103.551 126.917C103.083 126.692 102.71 126.384 102.433 125.994C102.155 125.595 102.017 125.136 102.017 124.616C102.017 124.243 102.09 123.897 102.238 123.576C102.385 123.255 102.589 122.978 102.849 122.744C103.117 122.501 103.425 122.332 103.772 122.237C103.286 122.064 102.909 121.795 102.641 121.431C102.381 121.067 102.251 120.673 102.251 120.248C102.251 119.797 102.368 119.39 102.602 119.026C102.836 118.662 103.165 118.372 103.59 118.155C104.023 117.938 104.539 117.83 105.137 117.83C105.743 117.83 106.259 117.938 106.684 118.155C107.117 118.372 107.451 118.662 107.685 119.026C107.919 119.39 108.036 119.797 108.036 120.248C108.036 120.673 107.901 121.067 107.633 121.431C107.364 121.795 106.987 122.064 106.502 122.237C106.866 122.332 107.178 122.501 107.438 122.744C107.698 122.978 107.901 123.255 108.049 123.576C108.196 123.897 108.27 124.243 108.27 124.616C108.27 125.136 108.131 125.595 107.854 125.994C107.576 126.384 107.204 126.692 106.736 126.917C106.268 127.134 105.735 127.242 105.137 127.242ZM105.137 126.28C105.821 126.28 106.333 126.124 106.671 125.812C107.009 125.491 107.178 125.071 107.178 124.551C107.178 123.962 106.991 123.515 106.619 123.212C106.246 122.909 105.752 122.757 105.137 122.757C104.521 122.757 104.027 122.909 103.655 123.212C103.291 123.515 103.109 123.962 103.109 124.551C103.109 125.071 103.278 125.491 103.616 125.812C103.954 126.124 104.461 126.28 105.137 126.28ZM105.137 121.847C105.683 121.847 106.116 121.704 106.437 121.418C106.766 121.132 106.931 120.764 106.931 120.313C106.931 119.802 106.77 119.416 106.45 119.156C106.129 118.896 105.691 118.766 105.137 118.766C104.591 118.766 104.157 118.896 103.837 119.156C103.525 119.416 103.369 119.802 103.369 120.313C103.369 120.764 103.525 121.132 103.837 121.418C104.157 121.704 104.591 121.847 105.137 121.847ZM110.558 127.086L114.107 118.922H109.115V117.986H115.225V118.805L111.715 127.086H110.558ZM119.603 127.242C118.945 127.242 118.39 127.121 117.939 126.878C117.489 126.627 117.129 126.293 116.86 125.877C116.592 125.461 116.392 124.997 116.262 124.486C116.141 123.966 116.08 123.437 116.08 122.9C116.08 121.895 116.219 121.015 116.496 120.261C116.774 119.498 117.172 118.905 117.692 118.48C118.221 118.047 118.854 117.83 119.59 117.83C120.162 117.83 120.652 117.943 121.059 118.168C121.475 118.385 121.805 118.679 122.047 119.052C122.29 119.425 122.437 119.841 122.489 120.3H121.475C121.389 119.815 121.176 119.442 120.838 119.182C120.509 118.913 120.089 118.779 119.577 118.779C119.127 118.779 118.719 118.922 118.355 119.208C117.991 119.485 117.701 119.91 117.484 120.482C117.276 121.054 117.155 121.786 117.12 122.679C117.12 122.696 117.12 122.714 117.12 122.731C117.12 122.748 117.12 122.766 117.12 122.783C117.259 122.506 117.45 122.254 117.692 122.029C117.944 121.795 118.243 121.609 118.589 121.47C118.936 121.331 119.322 121.262 119.746 121.262C120.266 121.262 120.752 121.383 121.202 121.626C121.653 121.869 122.017 122.211 122.294 122.653C122.58 123.086 122.723 123.598 122.723 124.187C122.723 124.698 122.598 125.188 122.346 125.656C122.095 126.124 121.735 126.505 121.267 126.8C120.799 127.095 120.245 127.242 119.603 127.242ZM119.525 126.28C119.924 126.28 120.279 126.193 120.591 126.02C120.912 125.838 121.163 125.595 121.345 125.292C121.527 124.98 121.618 124.629 121.618 124.239C121.618 123.832 121.527 123.476 121.345 123.173C121.163 122.87 120.912 122.636 120.591 122.471C120.279 122.298 119.924 122.211 119.525 122.211C119.127 122.211 118.767 122.302 118.446 122.484C118.126 122.666 117.87 122.913 117.679 123.225C117.497 123.528 117.406 123.871 117.406 124.252C117.406 124.642 117.497 124.989 117.679 125.292C117.87 125.595 118.126 125.838 118.446 126.02C118.767 126.193 119.127 126.28 119.525 126.28ZM127.33 127.242C126.715 127.242 126.177 127.129 125.718 126.904C125.259 126.679 124.895 126.371 124.626 125.981C124.366 125.591 124.201 125.153 124.132 124.668H125.198C125.302 125.153 125.54 125.548 125.913 125.851C126.286 126.154 126.762 126.306 127.343 126.306C127.776 126.306 128.145 126.206 128.448 126.007C128.76 125.799 128.998 125.526 129.163 125.188C129.336 124.841 129.423 124.456 129.423 124.031C129.423 123.58 129.336 123.19 129.163 122.861C128.998 122.523 128.76 122.259 128.448 122.068C128.145 121.877 127.794 121.782 127.395 121.782C126.892 121.782 126.468 121.89 126.121 122.107C125.774 122.324 125.514 122.605 125.341 122.952H124.288L125.055 117.986H129.852V118.935H125.9L125.38 121.717C125.597 121.474 125.887 121.271 126.251 121.106C126.615 120.941 127.035 120.859 127.512 120.859C127.954 120.859 128.357 120.941 128.721 121.106C129.085 121.262 129.397 121.483 129.657 121.769C129.917 122.055 130.116 122.389 130.255 122.77C130.402 123.151 130.476 123.567 130.476 124.018C130.476 124.451 130.407 124.863 130.268 125.253C130.129 125.643 129.921 125.99 129.644 126.293C129.375 126.588 129.046 126.822 128.656 126.995C128.275 127.16 127.833 127.242 127.33 127.242Z" fill="#353B4D"/>
<path d="M45.449 206.762L42.394 201.978H43.655L46.71 206.762H45.449ZM43.031 205.683C42.1557 205.683 41.3843 205.488 40.717 205.098C40.0583 204.7 39.5427 204.149 39.17 203.447C38.806 202.737 38.624 201.913 38.624 200.977C38.624 200.05 38.806 199.235 39.17 198.533C39.5427 197.823 40.0583 197.268 40.717 196.869C41.3843 196.471 42.1557 196.271 43.031 196.271C43.9237 196.271 44.6993 196.471 45.358 196.869C46.0253 197.268 46.541 197.823 46.905 198.533C47.269 199.235 47.451 200.05 47.451 200.977C47.451 201.913 47.269 202.737 46.905 203.447C46.541 204.149 46.0253 204.7 45.358 205.098C44.6993 205.488 43.9237 205.683 43.031 205.683ZM43.031 204.721C43.6897 204.721 44.266 204.574 44.76 204.279C45.2627 203.976 45.6483 203.547 45.917 202.992C46.1943 202.429 46.333 201.757 46.333 200.977C46.333 200.197 46.1943 199.53 45.917 198.975C45.6483 198.412 45.2627 197.983 44.76 197.688C44.266 197.394 43.6897 197.246 43.031 197.246C42.381 197.246 41.8047 197.394 41.302 197.688C40.808 197.983 40.4223 198.412 40.145 198.975C39.8763 199.53 39.742 200.197 39.742 200.977C39.742 201.757 39.8763 202.429 40.145 202.992C40.4223 203.547 40.808 203.976 41.302 204.279C41.8047 204.574 42.381 204.721 43.031 204.721ZM49.0551 205.527V196.427H51.9931C52.7037 196.427 53.2844 196.549 53.7351 196.791C54.1857 197.025 54.5194 197.342 54.7361 197.74C54.9527 198.139 55.0611 198.59 55.0611 199.092C55.0611 199.578 54.9484 200.024 54.7231 200.431C54.5064 200.839 54.1684 201.164 53.7091 201.406C53.2497 201.649 52.6604 201.77 51.9411 201.77H50.1471V205.527H49.0551ZM53.8651 205.527L51.8631 201.458H53.0851L55.1521 205.527H53.8651ZM50.1471 200.912H51.9151C52.6084 200.912 53.1154 200.743 53.4361 200.405C53.7654 200.067 53.9301 199.634 53.9301 199.105C53.9301 198.568 53.7697 198.143 53.4491 197.831C53.1371 197.511 52.6214 197.35 51.9021 197.35H50.1471V200.912ZM63.113 205.683C62.4976 205.683 61.943 205.54 61.449 205.254C60.9636 204.968 60.5823 204.57 60.305 204.058C60.0276 203.538 59.889 202.94 59.889 202.264C59.889 201.571 60.0276 200.969 60.305 200.457C60.5823 199.946 60.9636 199.547 61.449 199.261C61.943 198.967 62.4976 198.819 63.113 198.819C63.893 198.819 64.543 199.023 65.063 199.43C65.583 199.829 65.9123 200.366 66.051 201.042H64.933C64.8463 200.635 64.634 200.319 64.296 200.093C63.958 199.868 63.5593 199.755 63.1 199.755C62.7273 199.755 62.3806 199.851 62.06 200.041C61.748 200.223 61.4923 200.501 61.293 200.873C61.1023 201.246 61.007 201.705 61.007 202.251C61.007 202.659 61.0633 203.023 61.176 203.343C61.2886 203.655 61.4403 203.915 61.631 204.123C61.8216 204.331 62.0426 204.492 62.294 204.604C62.554 204.708 62.8226 204.76 63.1 204.76C63.412 204.76 63.6936 204.713 63.945 204.617C64.1963 204.513 64.4086 204.362 64.582 204.162C64.7553 203.963 64.8723 203.729 64.933 203.46H66.051C65.9123 204.119 65.5786 204.656 65.05 205.072C64.53 205.48 63.8843 205.683 63.113 205.683ZM70.5264 205.683C69.9197 205.683 69.3737 205.545 68.8884 205.267C68.4031 204.981 68.0217 204.583 67.7444 204.071C67.4671 203.551 67.3284 202.949 67.3284 202.264C67.3284 201.562 67.4671 200.956 67.7444 200.444C68.0304 199.924 68.4161 199.526 68.9014 199.248C69.3954 198.962 69.9457 198.819 70.5524 198.819C71.1764 198.819 71.7267 198.962 72.2034 199.248C72.6887 199.526 73.0701 199.924 73.3474 200.444C73.6334 200.956 73.7764 201.558 73.7764 202.251C73.7764 202.945 73.6334 203.551 73.3474 204.071C73.0614 204.583 72.6757 204.981 72.1904 205.267C71.7051 205.545 71.1504 205.683 70.5264 205.683ZM70.5394 204.747C70.9121 204.747 71.2587 204.656 71.5794 204.474C71.9001 204.284 72.1601 204.002 72.3594 203.629C72.5587 203.257 72.6584 202.797 72.6584 202.251C72.6584 201.697 72.5587 201.237 72.3594 200.873C72.1687 200.501 71.9131 200.223 71.5924 200.041C71.2804 199.851 70.9337 199.755 70.5524 199.755C70.1884 199.755 69.8417 199.851 69.5124 200.041C69.1917 200.223 68.9317 200.501 68.7324 200.873C68.5417 201.237 68.4464 201.697 68.4464 202.251C68.4464 202.797 68.5417 203.257 68.7324 203.629C68.9317 204.002 69.1874 204.284 69.4994 204.474C69.8201 204.656 70.1667 204.747 70.5394 204.747ZM78.2065 205.683C77.5738 205.683 77.0148 205.536 76.5295 205.241C76.0528 204.938 75.6845 204.526 75.4245 204.006C75.1645 203.486 75.0345 202.897 75.0345 202.238C75.0345 201.58 75.1645 200.995 75.4245 200.483C75.6845 199.963 76.0528 199.556 76.5295 199.261C77.0148 198.967 77.5781 198.819 78.2195 198.819C78.7481 198.819 79.2118 198.928 79.6105 199.144C80.0178 199.361 80.3341 199.664 80.5595 200.054V196.167H81.6515V205.527H80.6635L80.5595 204.448C80.4208 204.665 80.2431 204.869 80.0265 205.059C79.8098 205.241 79.5498 205.393 79.2465 205.514C78.9518 205.627 78.6051 205.683 78.2065 205.683ZM78.3235 204.734C78.7568 204.734 79.1381 204.63 79.4675 204.422C79.7968 204.214 80.0525 203.928 80.2345 203.564C80.4251 203.192 80.5205 202.754 80.5205 202.251C80.5205 201.757 80.4251 201.324 80.2345 200.951C80.0525 200.579 79.7968 200.288 79.4675 200.08C79.1381 199.872 78.7568 199.768 78.3235 199.768C77.9075 199.768 77.5305 199.872 77.1925 200.08C76.8631 200.288 76.6075 200.579 76.4255 200.951C76.2435 201.324 76.1525 201.757 76.1525 202.251C76.1525 202.754 76.2435 203.192 76.4255 203.564C76.6075 203.928 76.8631 204.214 77.1925 204.422C77.5305 204.63 77.9075 204.734 78.3235 204.734ZM86.3309 205.683C85.7242 205.683 85.1825 205.54 84.7059 205.254C84.2292 204.968 83.8565 204.57 83.5879 204.058C83.3192 203.538 83.1849 202.936 83.1849 202.251C83.1849 201.558 83.3149 200.956 83.5749 200.444C83.8435 199.933 84.2162 199.534 84.6929 199.248C85.1782 198.962 85.7329 198.819 86.3569 198.819C86.9982 198.819 87.5442 198.962 87.9949 199.248C88.4455 199.534 88.7879 199.911 89.0219 200.379C89.2645 200.839 89.3859 201.346 89.3859 201.9C89.3859 201.987 89.3859 202.078 89.3859 202.173C89.3859 202.269 89.3815 202.377 89.3729 202.498H84.0039V201.653H88.3069C88.2809 201.055 88.0815 200.587 87.7089 200.249C87.3449 199.911 86.8855 199.742 86.3309 199.742C85.9669 199.742 85.6245 199.829 85.3039 200.002C84.9832 200.167 84.7275 200.414 84.5369 200.743C84.3462 201.064 84.2509 201.467 84.2509 201.952V202.316C84.2509 202.854 84.3462 203.304 84.5369 203.668C84.7362 204.032 84.9919 204.305 85.3039 204.487C85.6245 204.669 85.9669 204.76 86.3309 204.76C86.7902 204.76 87.1672 204.661 87.4619 204.461C87.7652 204.253 87.9862 203.972 88.1249 203.616H89.2039C89.0912 204.015 88.9049 204.37 88.6449 204.682C88.3849 204.986 88.0599 205.228 87.6699 205.41C87.2885 205.592 86.8422 205.683 86.3309 205.683Z" fill="#353B4D"/>
</svg>
