<svg width="310" height="679" viewBox="0 0 310 679" fill="none" xmlns="http://www.w3.org/2000/svg">
<path d="M0.599609 34.9961C0.599609 15.6661 16.2696 -0.00390625 35.5996 -0.00390625H274.399C293.729 -0.00390625 309.399 15.6661 309.399 34.9961V643.365C309.399 662.695 293.729 678.365 274.399 678.365H35.5996C16.2696 678.365 0.599609 662.695 0.599609 643.365V34.9961Z" fill="white"/>
<path d="M82.026 74.4624L77.436 67.2444H80.226L84.924 74.4624H82.026ZM79.056 72.6984C77.832 72.6984 76.752 72.4224 75.816 71.8704C74.88 71.3184 74.148 70.5564 73.62 69.5844C73.092 68.6004 72.828 67.4664 72.828 66.1824C72.828 64.8984 73.092 63.7704 73.62 62.7984C74.148 61.8144 74.88 61.0464 75.816 60.4944C76.752 59.9424 77.832 59.6664 79.056 59.6664C80.292 59.6664 81.378 59.9424 82.314 60.4944C83.25 61.0464 83.976 61.8144 84.492 62.7984C85.02 63.7704 85.284 64.8984 85.284 66.1824C85.284 67.4664 85.02 68.6004 84.492 69.5844C83.976 70.5564 83.25 71.3184 82.314 71.8704C81.378 72.4224 80.292 72.6984 79.056 72.6984ZM79.056 70.5204C79.824 70.5204 80.484 70.3464 81.036 69.9984C81.6 69.6384 82.038 69.1344 82.35 68.4864C82.662 67.8384 82.818 67.0704 82.818 66.1824C82.818 65.2824 82.662 64.5144 82.35 63.8784C82.038 63.2304 81.6 62.7324 81.036 62.3844C80.484 62.0364 79.824 61.8624 79.056 61.8624C78.3 61.8624 77.64 62.0364 77.076 62.3844C76.512 62.7324 76.074 63.2304 75.762 63.8784C75.45 64.5144 75.294 65.2824 75.294 66.1824C75.294 67.0704 75.45 67.8384 75.762 68.4864C76.074 69.1344 76.512 69.6384 77.076 69.9984C77.64 70.3464 78.3 70.5204 79.056 70.5204ZM87.3572 72.4824V59.8824H92.0552C93.0752 59.8824 93.9152 60.0564 94.5752 60.4044C95.2352 60.7524 95.7272 61.2204 96.0512 61.8084C96.3752 62.3844 96.5372 63.0264 96.5372 63.7344C96.5372 64.4064 96.3812 65.0364 96.0692 65.6244C95.7572 66.2004 95.2652 66.6684 94.5932 67.0284C93.9332 67.3764 93.0812 67.5504 92.0372 67.5504H89.7872V72.4824H87.3572ZM93.8912 72.4824L91.2992 66.9384H93.9272L96.6632 72.4824H93.8912ZM89.7872 65.7864H91.9112C92.6432 65.7864 93.1832 65.6064 93.5312 65.2464C93.8792 64.8864 94.0532 64.4124 94.0532 63.8244C94.0532 63.2364 93.8792 62.7744 93.5312 62.4384C93.1952 62.0904 92.6552 61.9164 91.9112 61.9164H89.7872V65.7864ZM107.287 72.6984C106.375 72.6984 105.565 72.4944 104.857 72.0864C104.149 71.6784 103.597 71.1204 103.201 70.4124C102.805 69.7044 102.607 68.8944 102.607 67.9824C102.607 67.0464 102.805 66.2244 103.201 65.5164C103.597 64.7964 104.149 64.2324 104.857 63.8244C105.565 63.4044 106.375 63.1944 107.287 63.1944C108.451 63.1944 109.429 63.5004 110.221 64.1124C111.013 64.7244 111.517 65.5644 111.733 66.6324H109.159C109.051 66.2124 108.823 65.8824 108.475 65.6424C108.139 65.4024 107.737 65.2824 107.269 65.2824C106.849 65.2824 106.471 65.3904 106.135 65.6064C105.811 65.8104 105.553 66.1164 105.361 66.5244C105.181 66.9204 105.091 67.3944 105.091 67.9464C105.091 68.3664 105.145 68.7444 105.253 69.0804C105.361 69.4044 105.511 69.6864 105.703 69.9264C105.895 70.1544 106.123 70.3284 106.387 70.4484C106.663 70.5684 106.957 70.6284 107.269 70.6284C107.581 70.6284 107.863 70.5744 108.115 70.4664C108.379 70.3584 108.601 70.2084 108.781 70.0164C108.961 69.8124 109.087 69.5664 109.159 69.2784H111.733C111.517 70.3224 111.007 71.1564 110.203 71.7804C109.411 72.3924 108.439 72.6984 107.287 72.6984ZM118.113 72.6984C117.249 72.6984 116.469 72.5004 115.773 72.1044C115.089 71.6964 114.543 71.1384 114.135 70.4304C113.739 69.7104 113.541 68.8884 113.541 67.9644C113.541 67.0164 113.739 66.1884 114.135 65.4804C114.543 64.7604 115.095 64.2024 115.791 63.8064C116.487 63.3984 117.267 63.1944 118.131 63.1944C119.007 63.1944 119.787 63.3984 120.471 63.8064C121.167 64.2024 121.713 64.7604 122.109 65.4804C122.517 66.1884 122.721 67.0104 122.721 67.9464C122.721 68.8824 122.517 69.7104 122.109 70.4304C121.713 71.1384 121.167 71.6964 120.471 72.1044C119.775 72.5004 118.989 72.6984 118.113 72.6984ZM118.113 70.5924C118.521 70.5924 118.881 70.4964 119.193 70.3044C119.517 70.1124 119.769 69.8184 119.949 69.4224C120.141 69.0264 120.237 68.5344 120.237 67.9464C120.237 67.3584 120.141 66.8724 119.949 66.4884C119.769 66.0924 119.517 65.7984 119.193 65.6064C118.881 65.4024 118.527 65.3004 118.131 65.3004C117.747 65.3004 117.393 65.4024 117.069 65.6064C116.745 65.7984 116.487 66.0924 116.295 66.4884C116.115 66.8724 116.025 67.3584 116.025 67.9464C116.025 68.5344 116.115 69.0264 116.295 69.4224C116.487 69.8184 116.739 70.1124 117.051 70.3044C117.375 70.4964 117.729 70.5924 118.113 70.5924ZM128.847 72.6984C128.019 72.6984 127.275 72.4944 126.615 72.0864C125.967 71.6784 125.457 71.1144 125.085 70.3944C124.713 69.6744 124.527 68.8644 124.527 67.9644C124.527 67.0404 124.713 66.2244 125.085 65.5164C125.469 64.7964 125.991 64.2324 126.651 63.8244C127.323 63.4044 128.073 63.1944 128.901 63.1944C129.549 63.1944 130.119 63.3144 130.611 63.5544C131.103 63.7944 131.499 64.1364 131.799 64.5804V59.5224H134.229V72.4824H132.069L131.799 71.2404C131.619 71.4924 131.391 71.7324 131.115 71.9604C130.851 72.1884 130.533 72.3684 130.161 72.5004C129.789 72.6324 129.351 72.6984 128.847 72.6984ZM129.423 70.5744C129.903 70.5744 130.323 70.4664 130.683 70.2504C131.055 70.0224 131.343 69.7104 131.547 69.3144C131.751 68.9184 131.853 68.4624 131.853 67.9464C131.853 67.4304 131.751 66.9744 131.547 66.5784C131.343 66.1824 131.055 65.8764 130.683 65.6604C130.323 65.4324 129.903 65.3184 129.423 65.3184C128.967 65.3184 128.553 65.4324 128.181 65.6604C127.809 65.8764 127.515 66.1824 127.299 66.5784C127.095 66.9744 126.993 67.4244 126.993 67.9284C126.993 68.4564 127.095 68.9184 127.299 69.3144C127.515 69.7104 127.803 70.0224 128.163 70.2504C128.535 70.4664 128.955 70.5744 129.423 70.5744ZM140.966 72.6984C140.054 72.6984 139.244 72.5064 138.536 72.1224C137.84 71.7264 137.294 71.1804 136.898 70.4844C136.514 69.7764 136.322 68.9604 136.322 68.0364C136.322 67.0884 136.514 66.2544 136.898 65.5344C137.282 64.8024 137.822 64.2324 138.518 63.8244C139.226 63.4044 140.042 63.1944 140.966 63.1944C141.866 63.1944 142.652 63.3924 143.324 63.7884C143.996 64.1844 144.518 64.7184 144.89 65.3904C145.262 66.0624 145.448 66.8244 145.448 67.6764C145.448 67.7964 145.448 67.9344 145.448 68.0904C145.448 68.2344 145.436 68.3844 145.412 68.5404H138.05V67.0644H143C142.964 66.4764 142.754 66.0144 142.37 65.6784C141.998 65.3424 141.53 65.1744 140.966 65.1744C140.558 65.1744 140.18 65.2704 139.832 65.4624C139.484 65.6424 139.208 65.9244 139.004 66.3084C138.812 66.6924 138.716 67.1784 138.716 67.7664V68.2884C138.716 68.7804 138.806 69.2124 138.986 69.5844C139.178 69.9444 139.442 70.2264 139.778 70.4304C140.114 70.6224 140.504 70.7184 140.948 70.7184C141.392 70.7184 141.758 70.6224 142.046 70.4304C142.346 70.2384 142.568 69.9924 142.712 69.6924H145.196C145.028 70.2564 144.746 70.7664 144.35 71.2224C143.954 71.6784 143.468 72.0384 142.892 72.3024C142.316 72.5664 141.674 72.6984 140.966 72.6984ZM155.58 76.6584C154.716 76.6584 153.96 76.5504 153.312 76.3344C152.664 76.1304 152.16 75.8124 151.8 75.3804C151.452 74.9604 151.278 74.4384 151.278 73.8144C151.278 73.3944 151.386 72.9984 151.602 72.6264C151.818 72.2544 152.13 71.9184 152.538 71.6184C152.958 71.3064 153.48 71.0424 154.104 70.8264L155.022 72.0144C154.47 72.1944 154.068 72.4164 153.816 72.6804C153.576 72.9564 153.456 73.2504 153.456 73.5624C153.456 73.8384 153.546 74.0724 153.726 74.2644C153.918 74.4564 154.17 74.5944 154.482 74.6784C154.806 74.7744 155.166 74.8224 155.562 74.8224C155.946 74.8224 156.276 74.7744 156.552 74.6784C156.84 74.5824 157.062 74.4384 157.218 74.2464C157.386 74.0664 157.47 73.8504 157.47 73.5984C157.47 73.2744 157.356 73.0104 157.128 72.8064C156.9 72.6024 156.444 72.4764 155.76 72.4284C155.148 72.3804 154.602 72.3144 154.122 72.2304C153.654 72.1344 153.24 72.0264 152.88 71.9064C152.52 71.7744 152.214 71.6304 151.962 71.4744C151.722 71.3184 151.524 71.1624 151.368 71.0064V70.5924L153.294 68.5224L155.04 69.0804L152.772 71.3124L153.456 70.1244C153.588 70.1964 153.714 70.2684 153.834 70.3404C153.966 70.4004 154.128 70.4604 154.32 70.5204C154.512 70.5684 154.764 70.6164 155.076 70.6644C155.388 70.7124 155.784 70.7544 156.264 70.7904C157.056 70.8624 157.704 71.0124 158.208 71.2404C158.724 71.4684 159.102 71.7744 159.342 72.1584C159.582 72.5304 159.702 72.9924 159.702 73.5444C159.702 74.0844 159.552 74.5884 159.252 75.0564C158.964 75.5364 158.514 75.9204 157.902 76.2084C157.29 76.5084 156.516 76.6584 155.58 76.6584ZM155.58 69.8004C154.824 69.8004 154.17 69.6564 153.618 69.3684C153.078 69.0684 152.658 68.6724 152.358 68.1804C152.07 67.6764 151.926 67.1184 151.926 66.5064C151.926 65.8944 152.07 65.3424 152.358 64.8504C152.658 64.3464 153.078 63.9444 153.618 63.6444C154.17 63.3444 154.824 63.1944 155.58 63.1944C156.348 63.1944 157.002 63.3444 157.542 63.6444C158.094 63.9444 158.514 64.3464 158.802 64.8504C159.09 65.3424 159.234 65.8944 159.234 66.5064C159.234 67.1184 159.09 67.6764 158.802 68.1804C158.514 68.6724 158.094 69.0684 157.542 69.3684C157.002 69.6564 156.348 69.8004 155.58 69.8004ZM155.58 67.9464C156.048 67.9464 156.426 67.8264 156.714 67.5864C157.002 67.3464 157.146 66.9924 157.146 66.5244C157.146 66.0564 157.002 65.7024 156.714 65.4624C156.426 65.2104 156.048 65.0844 155.58 65.0844C155.124 65.0844 154.746 65.2104 154.446 65.4624C154.158 65.7024 154.014 66.0564 154.014 66.5244C154.014 66.9924 154.158 67.3464 154.446 67.5864C154.746 67.8264 155.124 67.9464 155.58 67.9464ZM157.092 65.1384L156.696 63.4104H160.422V64.8504L157.092 65.1384ZM166.401 72.6984C165.489 72.6984 164.679 72.5064 163.971 72.1224C163.275 71.7264 162.729 71.1804 162.333 70.4844C161.949 69.7764 161.757 68.9604 161.757 68.0364C161.757 67.0884 161.949 66.2544 162.333 65.5344C162.717 64.8024 163.257 64.2324 163.953 63.8244C164.661 63.4044 165.477 63.1944 166.401 63.1944C167.301 63.1944 168.087 63.3924 168.759 63.7884C169.431 64.1844 169.953 64.7184 170.325 65.3904C170.697 66.0624 170.883 66.8244 170.883 67.6764C170.883 67.7964 170.883 67.9344 170.883 68.0904C170.883 68.2344 170.871 68.3844 170.847 68.5404H163.485V67.0644H168.435C168.399 66.4764 168.189 66.0144 167.805 65.6784C167.433 65.3424 166.965 65.1744 166.401 65.1744C165.993 65.1744 165.615 65.2704 165.267 65.4624C164.919 65.6424 164.643 65.9244 164.439 66.3084C164.247 66.6924 164.151 67.1784 164.151 67.7664V68.2884C164.151 68.7804 164.241 69.2124 164.421 69.5844C164.613 69.9444 164.877 70.2264 165.213 70.4304C165.549 70.6224 165.939 70.7184 166.383 70.7184C166.827 70.7184 167.193 70.6224 167.481 70.4304C167.781 70.2384 168.003 69.9924 168.147 69.6924H170.631C170.463 70.2564 170.181 70.7664 169.785 71.2224C169.389 71.6784 168.903 72.0384 168.327 72.3024C167.751 72.5664 167.109 72.6984 166.401 72.6984ZM172.874 72.4824V63.4104H175.016L175.196 64.8864C175.472 64.3824 175.862 63.9744 176.366 63.6624C176.882 63.3504 177.494 63.1944 178.202 63.1944C178.958 63.1944 179.594 63.3504 180.11 63.6624C180.626 63.9744 181.016 64.4304 181.28 65.0304C181.556 65.6304 181.694 66.3684 181.694 67.2444V72.4824H179.282V67.4784C179.282 66.7584 179.126 66.2064 178.814 65.8224C178.514 65.4384 178.046 65.2464 177.41 65.2464C177.002 65.2464 176.636 65.3424 176.312 65.5344C176 65.7264 175.754 66.0024 175.574 66.3624C175.394 66.7104 175.304 67.1364 175.304 67.6404V72.4824H172.874ZM188.339 72.6984C187.427 72.6984 186.617 72.5064 185.909 72.1224C185.213 71.7264 184.667 71.1804 184.271 70.4844C183.887 69.7764 183.695 68.9604 183.695 68.0364C183.695 67.0884 183.887 66.2544 184.271 65.5344C184.655 64.8024 185.195 64.2324 185.891 63.8244C186.599 63.4044 187.415 63.1944 188.339 63.1944C189.239 63.1944 190.025 63.3924 190.697 63.7884C191.369 64.1844 191.891 64.7184 192.263 65.3904C192.635 66.0624 192.821 66.8244 192.821 67.6764C192.821 67.7964 192.821 67.9344 192.821 68.0904C192.821 68.2344 192.809 68.3844 192.785 68.5404H185.423V67.0644H190.373C190.337 66.4764 190.127 66.0144 189.743 65.6784C189.371 65.3424 188.903 65.1744 188.339 65.1744C187.931 65.1744 187.553 65.2704 187.205 65.4624C186.857 65.6424 186.581 65.9244 186.377 66.3084C186.185 66.6924 186.089 67.1784 186.089 67.7664V68.2884C186.089 68.7804 186.179 69.2124 186.359 69.5844C186.551 69.9444 186.815 70.2264 187.151 70.4304C187.487 70.6224 187.877 70.7184 188.321 70.7184C188.765 70.7184 189.131 70.6224 189.419 70.4304C189.719 70.2384 189.941 69.9924 190.085 69.6924H192.569C192.401 70.2564 192.119 70.7664 191.723 71.2224C191.327 71.6784 190.841 72.0384 190.265 72.3024C189.689 72.5664 189.047 72.6984 188.339 72.6984ZM194.811 72.4824V63.4104H196.971L197.205 65.0844C197.421 64.6884 197.691 64.3524 198.015 64.0764C198.351 63.8004 198.729 63.5844 199.149 63.4284C199.581 63.2724 200.055 63.1944 200.571 63.1944V65.7684H199.743C199.383 65.7684 199.047 65.8104 198.735 65.8944C198.435 65.9784 198.171 66.1164 197.943 66.3084C197.715 66.4884 197.541 66.7404 197.421 67.0644C197.301 67.3884 197.241 67.7964 197.241 68.2884V72.4824H194.811ZM205.236 72.6984C204.48 72.6984 203.856 72.5784 203.364 72.3384C202.872 72.0864 202.506 71.7564 202.266 71.3484C202.038 70.9284 201.924 70.4664 201.924 69.9624C201.924 69.4104 202.062 68.9244 202.338 68.5044C202.626 68.0844 203.052 67.7544 203.616 67.5144C204.192 67.2744 204.912 67.1544 205.776 67.1544H208.026C208.026 66.7104 207.966 66.3444 207.846 66.0564C207.726 65.7564 207.54 65.5344 207.288 65.3904C207.036 65.2464 206.7 65.1744 206.28 65.1744C205.824 65.1744 205.434 65.2764 205.11 65.4804C204.798 65.6724 204.606 65.9724 204.534 66.3804H202.176C202.236 65.7324 202.446 65.1744 202.806 64.7064C203.178 64.2264 203.664 63.8544 204.264 63.5904C204.876 63.3264 205.554 63.1944 206.298 63.1944C207.15 63.1944 207.888 63.3384 208.512 63.6264C209.136 63.9144 209.616 64.3284 209.952 64.8684C210.288 65.4084 210.456 66.0744 210.456 66.8664V72.4824H208.404L208.134 71.0964C208.002 71.3364 207.846 71.5524 207.666 71.7444C207.486 71.9364 207.276 72.1044 207.036 72.2484C206.796 72.3924 206.526 72.5004 206.226 72.5724C205.926 72.6564 205.596 72.6984 205.236 72.6984ZM205.812 70.8264C206.124 70.8264 206.4 70.7724 206.64 70.6644C206.892 70.5444 207.108 70.3884 207.288 70.1964C207.468 69.9924 207.606 69.7644 207.702 69.5124C207.81 69.2484 207.882 68.9664 207.918 68.6664V68.6484H206.064C205.692 68.6484 205.386 68.6964 205.146 68.7924C204.918 68.8764 204.75 69.0024 204.642 69.1704C204.534 69.3384 204.48 69.5304 204.48 69.7464C204.48 69.9864 204.534 70.1844 204.642 70.3404C204.75 70.4964 204.906 70.6164 205.11 70.7004C205.314 70.7844 205.548 70.8264 205.812 70.8264ZM216.704 72.4824C216.068 72.4824 215.51 72.3864 215.03 72.1944C214.562 71.9904 214.196 71.6604 213.932 71.2044C213.668 70.7364 213.536 70.1004 213.536 69.2964V65.4444H211.988V63.4104H213.536L213.806 60.9444H215.966V63.4104H218.36V65.4444H215.966V69.3324C215.966 69.7404 216.056 70.0224 216.236 70.1784C216.416 70.3344 216.722 70.4124 217.154 70.4124H218.342V72.4824H216.704ZM224.46 72.6984C223.596 72.6984 222.816 72.5004 222.12 72.1044C221.436 71.6964 220.89 71.1384 220.482 70.4304C220.086 69.7104 219.888 68.8884 219.888 67.9644C219.888 67.0164 220.086 66.1884 220.482 65.4804C220.89 64.7604 221.442 64.2024 222.138 63.8064C222.834 63.3984 223.614 63.1944 224.478 63.1944C225.354 63.1944 226.134 63.3984 226.818 63.8064C227.514 64.2024 228.06 64.7604 228.456 65.4804C228.864 66.1884 229.068 67.0104 229.068 67.9464C229.068 68.8824 228.864 69.7104 228.456 70.4304C228.06 71.1384 227.514 71.6964 226.818 72.1044C226.122 72.5004 225.336 72.6984 224.46 72.6984ZM224.46 70.5924C224.868 70.5924 225.228 70.4964 225.54 70.3044C225.864 70.1124 226.116 69.8184 226.296 69.4224C226.488 69.0264 226.584 68.5344 226.584 67.9464C226.584 67.3584 226.488 66.8724 226.296 66.4884C226.116 66.0924 225.864 65.7984 225.54 65.6064C225.228 65.4024 224.874 65.3004 224.478 65.3004C224.094 65.3004 223.74 65.4024 223.416 65.6064C223.092 65.7984 222.834 66.0924 222.642 66.4884C222.462 66.8724 222.372 67.3584 222.372 67.9464C222.372 68.5344 222.462 69.0264 222.642 69.4224C222.834 69.8184 223.086 70.1124 223.398 70.3044C223.722 70.4964 224.076 70.5924 224.46 70.5924ZM231.163 72.4824V63.4104H233.323L233.557 65.0844C233.773 64.6884 234.043 64.3524 234.367 64.0764C234.703 63.8004 235.081 63.5844 235.501 63.4284C235.933 63.2724 236.407 63.1944 236.923 63.1944V65.7684H236.095C235.735 65.7684 235.399 65.8104 235.087 65.8944C234.787 65.9784 234.523 66.1164 234.295 66.3084C234.067 66.4884 233.893 66.7404 233.773 67.0644C233.653 67.3884 233.593 67.7964 233.593 68.2884V72.4824H231.163Z" fill="black"/>
<rect x="27.1328" y="117.082" width="255.734" height="45" rx="5" fill="#EEEFF2"/>
<rect x="27.1328" y="183.924" width="255.734" height="181.311" rx="5" fill="#EEEFF2"/>
<rect x="27.1328" y="376.875" width="221.963" height="9.61133" rx="4.80566" fill="#EEEFF2"/>
<rect x="27.1328" y="396.127" width="167.291" height="9.61133" rx="4.80566" fill="#EEEFF2"/>
<rect x="27.1328" y="415.379" width="112.619" height="9.61133" rx="4.80566" fill="#EEEFF2"/>
<path d="M46.5096 144.082V134.722H47.6016V138.635C47.8183 138.245 48.1216 137.937 48.5116 137.712C48.9103 137.487 49.3436 137.374 49.8116 137.374C50.3143 137.374 50.7519 137.478 51.1246 137.686C51.4973 137.885 51.7833 138.193 51.9826 138.609C52.1819 139.025 52.2816 139.549 52.2816 140.182V144.082H51.2026V140.299C51.2026 139.64 51.0639 139.146 50.7866 138.817C50.5093 138.479 50.1063 138.31 49.5776 138.31C49.2049 138.31 48.8669 138.401 48.5636 138.583C48.2689 138.765 48.0349 139.025 47.8616 139.363C47.6883 139.701 47.6016 140.117 47.6016 140.611V144.082H46.5096ZM56.5611 144.082C56.1711 144.082 55.8331 144.021 55.5471 143.9C55.2611 143.779 55.0401 143.575 54.8841 143.289C54.7368 142.994 54.6631 142.6 54.6631 142.106V138.453H53.5191V137.53H54.6631L54.8061 135.944H55.7551V137.53H57.6531V138.453H55.7551V142.106C55.7551 142.513 55.8375 142.791 56.0021 142.938C56.1668 143.077 56.4571 143.146 56.8731 143.146H57.5751V144.082H56.5611ZM61.652 144.082C61.262 144.082 60.924 144.021 60.638 143.9C60.352 143.779 60.131 143.575 59.975 143.289C59.8276 142.994 59.754 142.6 59.754 142.106V138.453H58.61V137.53H59.754L59.897 135.944H60.846V137.53H62.744V138.453H60.846V142.106C60.846 142.513 60.9283 142.791 61.093 142.938C61.2576 143.077 61.548 143.146 61.964 143.146H62.666V144.082H61.652ZM64.1688 146.942V137.53H65.1568L65.2478 138.596C65.3865 138.388 65.5641 138.193 65.7808 138.011C65.9975 137.82 66.2575 137.669 66.5608 137.556C66.8641 137.435 67.2151 137.374 67.6138 137.374C68.2465 137.374 68.7968 137.526 69.2648 137.829C69.7415 138.132 70.1098 138.544 70.3698 139.064C70.6385 139.575 70.7728 140.16 70.7728 140.819C70.7728 141.478 70.6385 142.067 70.3698 142.587C70.1098 143.098 69.7415 143.501 69.2648 143.796C68.7881 144.091 68.2335 144.238 67.6008 144.238C67.0721 144.238 66.6041 144.13 66.1968 143.913C65.7895 143.696 65.4775 143.393 65.2608 143.003V146.942H64.1688ZM67.4708 143.289C67.8955 143.289 68.2725 143.185 68.6018 142.977C68.9398 142.769 69.1998 142.483 69.3818 142.119C69.5725 141.746 69.6678 141.309 69.6678 140.806C69.6678 140.312 69.5725 139.879 69.3818 139.506C69.1998 139.133 68.9398 138.843 68.6018 138.635C68.2725 138.427 67.8955 138.323 67.4708 138.323C67.0375 138.323 66.6561 138.427 66.3268 138.635C65.9975 138.843 65.7418 139.133 65.5598 139.506C65.3778 139.879 65.2868 140.312 65.2868 140.806C65.2868 141.309 65.3778 141.746 65.5598 142.119C65.7418 142.483 65.9975 142.769 66.3268 142.977C66.6561 143.185 67.0375 143.289 67.4708 143.289ZM72.7092 144.147C72.4925 144.147 72.3105 144.078 72.1632 143.939C72.0245 143.792 71.9552 143.614 71.9552 143.406C71.9552 143.198 72.0245 143.025 72.1632 142.886C72.3105 142.739 72.4925 142.665 72.7092 142.665C72.9258 142.665 73.1035 142.739 73.2422 142.886C73.3808 143.025 73.4502 143.198 73.4502 143.406C73.4502 143.614 73.3808 143.792 73.2422 143.939C73.1035 144.078 72.9258 144.147 72.7092 144.147ZM72.7092 138.856C72.4925 138.856 72.3105 138.787 72.1632 138.648C72.0245 138.501 71.9552 138.323 71.9552 138.115C71.9552 137.907 72.0245 137.734 72.1632 137.595C72.3105 137.448 72.4925 137.374 72.7092 137.374C72.9258 137.374 73.1035 137.448 73.2422 137.595C73.3808 137.734 73.4502 137.907 73.4502 138.115C73.4502 138.323 73.3808 138.501 73.2422 138.648C73.1035 138.787 72.9258 138.856 72.7092 138.856ZM74.4011 145.317L77.6641 134.15H78.7431L75.4801 145.317H74.4011ZM77.9304 145.317L81.1934 134.15H82.2724L79.0094 145.317H77.9304ZM84.8932 144.082L82.9692 137.53H84.0612L85.5562 143.055H85.3612L86.9862 137.53H88.2212L89.8722 143.042L89.6642 143.055L91.1462 137.53H92.2512L90.3402 144.082H89.2222L87.5062 138.31H87.7272L86.0112 144.082H84.8932ZM96.1141 144.238C95.5074 144.238 94.9657 144.095 94.4891 143.809C94.0124 143.523 93.6397 143.124 93.3711 142.613C93.1024 142.093 92.9681 141.491 92.9681 140.806C92.9681 140.113 93.0981 139.51 93.3581 138.999C93.6267 138.488 93.9994 138.089 94.4761 137.803C94.9614 137.517 95.5161 137.374 96.1401 137.374C96.7814 137.374 97.3274 137.517 97.7781 137.803C98.2287 138.089 98.5711 138.466 98.8051 138.934C99.0477 139.393 99.1691 139.9 99.1691 140.455C99.1691 140.542 99.1691 140.633 99.1691 140.728C99.1691 140.823 99.1647 140.932 99.1561 141.053H93.7871V140.208H98.0901C98.0641 139.61 97.8647 139.142 97.4921 138.804C97.1281 138.466 96.6687 138.297 96.1141 138.297C95.7501 138.297 95.4077 138.384 95.0871 138.557C94.7664 138.722 94.5107 138.969 94.3201 139.298C94.1294 139.619 94.0341 140.022 94.0341 140.507V140.871C94.0341 141.408 94.1294 141.859 94.3201 142.223C94.5194 142.587 94.7751 142.86 95.0871 143.042C95.4077 143.224 95.7501 143.315 96.1141 143.315C96.5734 143.315 96.9504 143.215 97.2451 143.016C97.5484 142.808 97.7694 142.526 97.9081 142.171H98.9871C98.8744 142.57 98.6881 142.925 98.4281 143.237C98.1681 143.54 97.8431 143.783 97.4531 143.965C97.0717 144.147 96.6254 144.238 96.1141 144.238ZM100.63 144.082V137.53H101.618L101.696 138.778C101.843 138.483 102.029 138.232 102.255 138.024C102.489 137.816 102.766 137.656 103.087 137.543C103.416 137.43 103.789 137.374 104.205 137.374V138.518H103.802C103.524 138.518 103.26 138.557 103.009 138.635C102.757 138.704 102.532 138.821 102.333 138.986C102.142 139.151 101.99 139.376 101.878 139.662C101.774 139.939 101.722 140.286 101.722 140.702V144.082H100.63ZM108.015 144.082C107.625 144.082 107.287 144.021 107.001 143.9C106.715 143.779 106.494 143.575 106.338 143.289C106.191 142.994 106.117 142.6 106.117 142.106V138.453H104.973V137.53H106.117L106.26 135.944H107.209V137.53H109.107V138.453H107.209V142.106C107.209 142.513 107.292 142.791 107.456 142.938C107.621 143.077 107.911 143.146 108.327 143.146H109.029V144.082H108.015ZM111.247 146.942L112.846 143.354H112.469L109.895 137.53H111.078L113.21 142.535L115.459 137.53H116.59L112.391 146.942H111.247ZM117.219 144.147C117.002 144.147 116.82 144.078 116.673 143.939C116.534 143.792 116.465 143.614 116.465 143.406C116.465 143.198 116.534 143.025 116.673 142.886C116.82 142.739 117.002 142.665 117.219 142.665C117.436 142.665 117.613 142.739 117.752 142.886C117.891 143.025 117.96 143.198 117.96 143.406C117.96 143.614 117.891 143.792 117.752 143.939C117.613 144.078 117.436 144.147 117.219 144.147ZM122.357 144.238C121.742 144.238 121.187 144.095 120.693 143.809C120.208 143.523 119.826 143.124 119.549 142.613C119.272 142.093 119.133 141.495 119.133 140.819C119.133 140.126 119.272 139.523 119.549 139.012C119.826 138.501 120.208 138.102 120.693 137.816C121.187 137.521 121.742 137.374 122.357 137.374C123.137 137.374 123.787 137.578 124.307 137.985C124.827 138.384 125.156 138.921 125.295 139.597H124.177C124.09 139.19 123.878 138.873 123.54 138.648C123.202 138.423 122.803 138.31 122.344 138.31C121.971 138.31 121.625 138.405 121.304 138.596C120.992 138.778 120.736 139.055 120.537 139.428C120.346 139.801 120.251 140.26 120.251 140.806C120.251 141.213 120.307 141.577 120.42 141.898C120.533 142.21 120.684 142.47 120.875 142.678C121.066 142.886 121.287 143.046 121.538 143.159C121.798 143.263 122.067 143.315 122.344 143.315C122.656 143.315 122.938 143.267 123.189 143.172C123.44 143.068 123.653 142.916 123.826 142.717C123.999 142.518 124.116 142.284 124.177 142.015H125.295C125.156 142.674 124.823 143.211 124.294 143.627C123.774 144.034 123.128 144.238 122.357 144.238ZM129.771 144.238C129.164 144.238 128.618 144.099 128.133 143.822C127.647 143.536 127.266 143.137 126.989 142.626C126.711 142.106 126.573 141.504 126.573 140.819C126.573 140.117 126.711 139.51 126.989 138.999C127.275 138.479 127.66 138.08 128.146 137.803C128.64 137.517 129.19 137.374 129.797 137.374C130.421 137.374 130.971 137.517 131.448 137.803C131.933 138.08 132.314 138.479 132.592 138.999C132.878 139.51 133.021 140.113 133.021 140.806C133.021 141.499 132.878 142.106 132.592 142.626C132.306 143.137 131.92 143.536 131.435 143.822C130.949 144.099 130.395 144.238 129.771 144.238ZM129.784 143.302C130.156 143.302 130.503 143.211 130.824 143.029C131.144 142.838 131.404 142.557 131.604 142.184C131.803 141.811 131.903 141.352 131.903 140.806C131.903 140.251 131.803 139.792 131.604 139.428C131.413 139.055 131.157 138.778 130.837 138.596C130.525 138.405 130.178 138.31 129.797 138.31C129.433 138.31 129.086 138.405 128.757 138.596C128.436 138.778 128.176 139.055 127.977 139.428C127.786 139.792 127.691 140.251 127.691 140.806C127.691 141.352 127.786 141.811 127.977 142.184C128.176 142.557 128.432 142.838 128.744 143.029C129.064 143.211 129.411 143.302 129.784 143.302ZM134.552 144.082V137.53H135.54L135.605 138.466C135.813 138.128 136.09 137.864 136.437 137.673C136.792 137.474 137.178 137.374 137.594 137.374C137.932 137.374 138.235 137.422 138.504 137.517C138.781 137.604 139.024 137.742 139.232 137.933C139.448 138.115 139.617 138.349 139.739 138.635C139.964 138.236 140.276 137.929 140.675 137.712C141.073 137.487 141.494 137.374 141.936 137.374C142.447 137.374 142.889 137.478 143.262 137.686C143.634 137.885 143.925 138.193 144.133 138.609C144.341 139.016 144.445 139.536 144.445 140.169V144.082H143.366V140.286C143.366 139.627 143.231 139.133 142.963 138.804C142.694 138.475 142.313 138.31 141.819 138.31C141.481 138.31 141.177 138.401 140.909 138.583C140.64 138.756 140.428 139.012 140.272 139.35C140.116 139.688 140.038 140.104 140.038 140.598V144.082H138.946V140.286C138.946 139.627 138.811 139.133 138.543 138.804C138.274 138.475 137.897 138.31 137.412 138.31C137.082 138.31 136.783 138.401 136.515 138.583C136.246 138.756 136.034 139.012 135.878 139.35C135.722 139.688 135.644 140.104 135.644 140.598V144.082H134.552Z" fill="#878D9F"/>
<rect x="27.1328" y="586.115" width="255.734" height="49.0703" rx="5" fill="#EEEFF2"/>
<rect x="71.3555" y="605.846" width="167.291" height="9.61133" rx="4.80566" fill="#DBDDE4"/>
<rect x="39.3926" y="526.359" width="29.3672" height="9.61133" rx="4.80566" fill="#EEEFF2"/>
<circle cx="54.0762" cy="487.775" r="26.9434" fill="#EEEFF2"/>
<rect x="140.316" y="526.359" width="29.3672" height="9.61133" rx="4.80566" fill="#EEEFF2"/>
<circle cx="155" cy="487.775" r="26.9434" fill="#EEEFF2"/>
<rect x="241.24" y="526.359" width="29.3672" height="9.61133" rx="4.80566" fill="#EEEFF2"/>
<circle cx="255.924" cy="487.775" r="26.9434" fill="#EEEFF2"/>
</svg>
