<svg width="310" height="679" viewBox="0 0 310 679" fill="none" xmlns="http://www.w3.org/2000/svg">
<rect width="309.664" height="678.65" rx="35" fill="#606060"/>
<rect x="16.418" y="227" width="277.045" height="224.969" rx="15" fill="white"/>
<path d="M62.6285 339.426C61.9139 339.426 61.2899 339.293 60.7565 339.026C60.2339 338.749 59.8285 338.354 59.5405 337.842C59.2525 337.32 59.1085 336.69 59.1085 335.954H61.0285C61.0285 336.306 61.0819 336.616 61.1885 336.882C61.2952 337.149 61.4605 337.357 61.6845 337.506C61.9192 337.645 62.2179 337.714 62.5805 337.714C62.9432 337.714 63.2312 337.645 63.4445 337.506C63.6579 337.368 63.8125 337.176 63.9085 336.93C64.0152 336.674 64.0685 336.381 64.0685 336.05V328.034H65.9885V336.05C65.9885 337.138 65.6845 337.976 65.0765 338.562C64.4792 339.138 63.6632 339.426 62.6285 339.426ZM71.9453 339.426C71.1773 339.426 70.4839 339.25 69.8653 338.898C69.2573 338.536 68.7773 338.04 68.4253 337.41C68.0839 336.77 67.9133 336.04 67.9133 335.218C67.9133 334.376 68.0893 333.64 68.4413 333.01C68.7933 332.37 69.2733 331.874 69.8813 331.522C70.4999 331.16 71.1933 330.978 71.9613 330.978C72.7293 330.978 73.4173 331.16 74.0253 331.522C74.6439 331.874 75.1239 332.365 75.4653 332.994C75.8173 333.624 75.9933 334.36 75.9933 335.202C75.9933 336.045 75.8173 336.781 75.4653 337.41C75.1133 338.04 74.6279 338.536 74.0093 338.898C73.4013 339.25 72.7133 339.426 71.9453 339.426ZM71.9453 337.778C72.3293 337.778 72.6759 337.682 72.9853 337.49C73.3053 337.298 73.5613 337.01 73.7533 336.626C73.9453 336.242 74.0413 335.768 74.0413 335.202C74.0413 334.637 73.9453 334.168 73.7533 333.794C73.5719 333.41 73.3213 333.122 73.0013 332.93C72.6919 332.738 72.3453 332.642 71.9613 332.642C71.5879 332.642 71.2413 332.738 70.9213 332.93C70.6013 333.122 70.3453 333.41 70.1533 333.794C69.9613 334.168 69.8653 334.637 69.8653 335.202C69.8653 335.768 69.9613 336.242 70.1533 336.626C70.3453 337.01 70.5959 337.298 70.9053 337.49C71.2253 337.682 71.5719 337.778 71.9453 337.778ZM77.9528 339.234V331.17H79.8728V339.234H77.9528ZM78.9128 329.89C78.5608 329.89 78.2674 329.784 78.0328 329.57C77.8088 329.346 77.6968 329.074 77.6968 328.754C77.6968 328.424 77.8088 328.157 78.0328 327.954C78.2674 327.741 78.5608 327.634 78.9128 327.634C79.2648 327.634 79.5528 327.741 79.7768 327.954C80.0114 328.157 80.1288 328.424 80.1288 328.754C80.1288 329.074 80.0114 329.346 79.7768 329.57C79.5528 329.784 79.2648 329.89 78.9128 329.89ZM82.0915 339.234V331.17H83.7875L83.9315 332.514C84.1769 332.045 84.5289 331.672 84.9875 331.394C85.4462 331.117 85.9902 330.978 86.6195 330.978C87.2702 330.978 87.8249 331.117 88.2835 331.394C88.7422 331.661 89.0942 332.056 89.3395 332.578C89.5955 333.101 89.7235 333.752 89.7235 334.53V339.234H87.8035V334.706C87.8035 334.034 87.6542 333.517 87.3555 333.154C87.0569 332.792 86.6142 332.61 86.0275 332.61C85.6435 332.61 85.2969 332.701 84.9875 332.882C84.6889 333.064 84.4489 333.33 84.2675 333.682C84.0969 334.024 84.0115 334.44 84.0115 334.93V339.234H82.0915ZM99.158 339.234C98.614 339.234 98.1394 339.149 97.734 338.978C97.3394 338.808 97.03 338.525 96.806 338.13C96.582 337.736 96.47 337.202 96.47 336.53V332.786H95.094V331.17H96.47L96.694 329.042H98.39V331.17H100.582V332.786H98.39V336.53C98.39 336.936 98.4754 337.218 98.646 337.378C98.8274 337.528 99.126 337.602 99.542 337.602H100.534V339.234H99.158ZM102.388 339.234V327.714H104.308V332.418C104.575 331.981 104.938 331.634 105.396 331.378C105.855 331.112 106.372 330.978 106.948 330.978C107.61 330.978 108.17 331.117 108.628 331.394C109.087 331.661 109.434 332.061 109.668 332.594C109.914 333.117 110.036 333.773 110.036 334.562V339.234H108.132V334.738C108.132 334.045 107.983 333.517 107.684 333.154C107.396 332.792 106.954 332.61 106.356 332.61C105.972 332.61 105.626 332.706 105.316 332.898C105.007 333.08 104.762 333.346 104.58 333.698C104.399 334.04 104.308 334.461 104.308 334.962V339.234H102.388ZM115.852 339.426C115.052 339.426 114.348 339.256 113.74 338.914C113.132 338.562 112.657 338.072 112.316 337.442C111.975 336.813 111.804 336.088 111.804 335.266C111.804 334.413 111.969 333.666 112.3 333.026C112.641 332.386 113.116 331.885 113.724 331.522C114.343 331.16 115.057 330.978 115.868 330.978C116.657 330.978 117.345 331.154 117.932 331.506C118.519 331.858 118.972 332.333 119.292 332.93C119.612 333.517 119.772 334.178 119.772 334.914C119.772 335.021 119.772 335.138 119.772 335.266C119.772 335.394 119.761 335.528 119.74 335.666H113.18V334.434H117.836C117.815 333.848 117.617 333.389 117.244 333.058C116.871 332.717 116.407 332.546 115.852 332.546C115.457 332.546 115.095 332.637 114.764 332.818C114.433 333 114.172 333.272 113.98 333.634C113.788 333.986 113.692 334.434 113.692 334.978V335.442C113.692 335.944 113.783 336.376 113.964 336.738C114.156 337.101 114.412 337.378 114.732 337.57C115.063 337.752 115.431 337.842 115.836 337.842C116.284 337.842 116.652 337.746 116.94 337.554C117.239 337.362 117.457 337.106 117.596 336.786H119.548C119.399 337.288 119.153 337.741 118.812 338.146C118.471 338.541 118.049 338.856 117.548 339.09C117.047 339.314 116.481 339.426 115.852 339.426ZM127.835 332.018L129.419 328.034H130.747L129.867 332.018H127.835ZM124.859 332.018L126.443 328.034H127.771L126.907 332.018H124.859ZM139.431 339.234V328.034H141.351V339.234H139.431ZM132.359 339.234V328.034H134.279V339.234H132.359ZM133.991 334.306V332.738H139.799V334.306H133.991ZM147.32 339.426C146.552 339.426 145.859 339.25 145.24 338.898C144.632 338.536 144.152 338.04 143.8 337.41C143.459 336.77 143.288 336.04 143.288 335.218C143.288 334.376 143.464 333.64 143.816 333.01C144.168 332.37 144.648 331.874 145.256 331.522C145.875 331.16 146.568 330.978 147.336 330.978C148.104 330.978 148.792 331.16 149.4 331.522C150.019 331.874 150.499 332.365 150.84 332.994C151.192 333.624 151.368 334.36 151.368 335.202C151.368 336.045 151.192 336.781 150.84 337.41C150.488 338.04 150.003 338.536 149.384 338.898C148.776 339.25 148.088 339.426 147.32 339.426ZM147.32 337.778C147.704 337.778 148.051 337.682 148.36 337.49C148.68 337.298 148.936 337.01 149.128 336.626C149.32 336.242 149.416 335.768 149.416 335.202C149.416 334.637 149.32 334.168 149.128 333.794C148.947 333.41 148.696 333.122 148.376 332.93C148.067 332.738 147.72 332.642 147.336 332.642C146.963 332.642 146.616 332.738 146.296 332.93C145.976 333.122 145.72 333.41 145.528 333.794C145.336 334.168 145.24 334.637 145.24 335.202C145.24 335.768 145.336 336.242 145.528 336.626C145.72 337.01 145.971 337.298 146.28 337.49C146.6 337.682 146.947 337.778 147.32 337.778ZM156.439 339.234C155.895 339.234 155.421 339.149 155.015 338.978C154.621 338.808 154.311 338.525 154.087 338.13C153.863 337.736 153.751 337.202 153.751 336.53V332.786H152.375V331.17H153.751L153.975 329.042H155.671V331.17H157.863V332.786H155.671V336.53C155.671 336.936 155.757 337.218 155.927 337.378C156.109 337.528 156.407 337.602 156.823 337.602H157.815V339.234H156.439ZM163.243 339.426C162.443 339.426 161.739 339.256 161.131 338.914C160.523 338.562 160.048 338.072 159.707 337.442C159.365 336.813 159.195 336.088 159.195 335.266C159.195 334.413 159.36 333.666 159.691 333.026C160.032 332.386 160.507 331.885 161.115 331.522C161.733 331.16 162.448 330.978 163.259 330.978C164.048 330.978 164.736 331.154 165.323 331.506C165.909 331.858 166.363 332.333 166.683 332.93C167.003 333.517 167.163 334.178 167.163 334.914C167.163 335.021 167.163 335.138 167.163 335.266C167.163 335.394 167.152 335.528 167.131 335.666H160.571V334.434H165.227C165.205 333.848 165.008 333.389 164.635 333.058C164.261 332.717 163.797 332.546 163.243 332.546C162.848 332.546 162.485 332.637 162.155 332.818C161.824 333 161.563 333.272 161.371 333.634C161.179 333.986 161.083 334.434 161.083 334.978V335.442C161.083 335.944 161.173 336.376 161.355 336.738C161.547 337.101 161.803 337.378 162.123 337.57C162.453 337.752 162.821 337.842 163.227 337.842C163.675 337.842 164.043 337.746 164.331 337.554C164.629 337.362 164.848 337.106 164.987 336.786H166.939C166.789 337.288 166.544 337.741 166.203 338.146C165.861 338.541 165.44 338.856 164.939 339.09C164.437 339.314 163.872 339.426 163.243 339.426ZM168.935 339.234V327.714H170.855V339.234H168.935ZM176.968 339.234V328.034H181.352C182.141 328.034 182.797 328.157 183.32 328.402C183.853 328.648 184.253 328.989 184.52 329.426C184.787 329.853 184.92 330.349 184.92 330.914C184.92 331.48 184.797 331.954 184.552 332.338C184.307 332.722 183.981 333.016 183.576 333.218C183.181 333.421 182.749 333.544 182.28 333.586L182.52 333.41C183.021 333.421 183.469 333.554 183.864 333.81C184.269 334.066 184.589 334.402 184.824 334.818C185.059 335.224 185.176 335.677 185.176 336.178C185.176 336.765 185.032 337.293 184.744 337.762C184.467 338.221 184.056 338.584 183.512 338.85C182.968 339.106 182.301 339.234 181.512 339.234H176.968ZM178.888 337.666H181.224C181.853 337.666 182.344 337.517 182.696 337.218C183.048 336.92 183.224 336.504 183.224 335.97C183.224 335.437 183.043 335.016 182.68 334.706C182.317 334.386 181.821 334.226 181.192 334.226H178.888V337.666ZM178.888 332.77H181.08C181.699 332.77 182.168 332.632 182.488 332.354C182.808 332.066 182.968 331.672 182.968 331.17C182.968 330.68 182.808 330.296 182.488 330.018C182.168 329.73 181.693 329.586 181.064 329.586H178.888V332.77ZM189.639 339.426C188.978 339.426 188.428 339.314 187.991 339.09C187.554 338.866 187.228 338.568 187.015 338.194C186.802 337.821 186.695 337.416 186.695 336.978C186.695 336.466 186.823 336.024 187.079 335.65C187.346 335.277 187.735 334.989 188.247 334.786C188.759 334.573 189.388 334.466 190.135 334.466H192.167C192.167 334.04 192.108 333.688 191.991 333.41C191.874 333.122 191.692 332.909 191.447 332.77C191.202 332.632 190.887 332.562 190.503 332.562C190.066 332.562 189.692 332.664 189.383 332.866C189.074 333.058 188.882 333.357 188.807 333.762H186.919C186.983 333.186 187.175 332.696 187.495 332.29C187.815 331.874 188.236 331.554 188.759 331.33C189.292 331.096 189.874 330.978 190.503 330.978C191.26 330.978 191.906 331.112 192.439 331.378C192.972 331.634 193.378 332.008 193.655 332.498C193.943 332.978 194.087 333.56 194.087 334.242V339.234H192.455L192.263 337.938C192.156 338.152 192.018 338.349 191.847 338.53C191.687 338.712 191.5 338.872 191.287 339.01C191.074 339.138 190.828 339.24 190.551 339.314C190.284 339.389 189.98 339.426 189.639 339.426ZM190.071 337.906C190.38 337.906 190.652 337.853 190.887 337.746C191.132 337.629 191.34 337.469 191.511 337.266C191.692 337.053 191.831 336.818 191.927 336.562C192.023 336.306 192.087 336.034 192.119 335.746V335.714H190.343C189.97 335.714 189.66 335.762 189.415 335.858C189.17 335.954 188.994 336.088 188.887 336.258C188.78 336.418 188.727 336.61 188.727 336.834C188.727 337.058 188.78 337.25 188.887 337.41C188.994 337.57 189.148 337.693 189.351 337.778C189.554 337.864 189.794 337.906 190.071 337.906ZM196.138 339.234V331.17H197.85L198.026 332.674C198.218 332.322 198.458 332.024 198.746 331.778C199.034 331.522 199.37 331.325 199.754 331.186C200.149 331.048 200.581 330.978 201.05 330.978V333.01H200.378C200.058 333.01 199.754 333.053 199.466 333.138C199.178 333.213 198.928 333.341 198.714 333.522C198.512 333.693 198.352 333.933 198.234 334.242C198.117 334.541 198.058 334.92 198.058 335.378V339.234H196.138ZM204.818 328.034L203.218 332.018H201.906L202.786 328.034H204.818ZM207.794 328.034L206.21 332.018H204.882L205.746 328.034H207.794ZM215.568 339.234L212.592 328.034H214.64L216.736 337.042L219.168 328.034H221.296L223.648 337.058L225.76 328.034H227.824L224.768 339.234H222.496L220.192 330.754L217.824 339.234H215.568ZM229.375 339.234V331.17H231.295V339.234H229.375ZM230.335 329.89C229.983 329.89 229.689 329.784 229.455 329.57C229.231 329.346 229.119 329.074 229.119 328.754C229.119 328.424 229.231 328.157 229.455 327.954C229.689 327.741 229.983 327.634 230.335 327.634C230.687 327.634 230.975 327.741 231.199 327.954C231.433 328.157 231.551 328.424 231.551 328.754C231.551 329.074 231.433 329.346 231.199 329.57C230.975 329.784 230.687 329.89 230.335 329.89ZM233.641 335.314V333.714H240.265V335.314H233.641ZM242.944 339.234V332.786H241.808V331.17H242.944V330.29C242.944 329.672 243.051 329.176 243.264 328.802C243.478 328.418 243.782 328.141 244.176 327.97C244.571 327.8 245.04 327.714 245.584 327.714H246.432V329.346H245.872C245.52 329.346 245.264 329.421 245.104 329.57C244.944 329.709 244.864 329.954 244.864 330.306V331.17H249.872V339.234H247.952V332.786H244.864V339.234H242.944ZM248.928 329.954C248.576 329.954 248.283 329.848 248.048 329.634C247.824 329.41 247.712 329.138 247.712 328.818C247.712 328.488 247.824 328.221 248.048 328.018C248.283 327.805 248.576 327.698 248.928 327.698C249.291 327.698 249.584 327.805 249.808 328.018C250.032 328.221 250.144 328.488 250.144 328.818C250.144 329.138 250.032 329.41 249.808 329.634C249.584 329.848 249.291 329.954 248.928 329.954ZM120.029 360.234V352.17H121.725L121.869 353.514C122.114 353.045 122.466 352.672 122.925 352.394C123.384 352.117 123.928 351.978 124.557 351.978C125.208 351.978 125.762 352.117 126.221 352.394C126.68 352.661 127.032 353.056 127.277 353.578C127.533 354.101 127.661 354.752 127.661 355.53V360.234H125.741V355.706C125.741 355.034 125.592 354.517 125.293 354.154C124.994 353.792 124.552 353.61 123.965 353.61C123.581 353.61 123.234 353.701 122.925 353.882C122.626 354.064 122.386 354.33 122.205 354.682C122.034 355.024 121.949 355.44 121.949 355.93V360.234H120.029ZM133.461 360.426C132.661 360.426 131.957 360.256 131.349 359.914C130.741 359.562 130.267 359.072 129.925 358.442C129.584 357.813 129.413 357.088 129.413 356.266C129.413 355.413 129.579 354.666 129.909 354.026C130.251 353.386 130.725 352.885 131.333 352.522C131.952 352.16 132.667 351.978 133.477 351.978C134.267 351.978 134.955 352.154 135.541 352.506C136.128 352.858 136.581 353.333 136.901 353.93C137.221 354.517 137.381 355.178 137.381 355.914C137.381 356.021 137.381 356.138 137.381 356.266C137.381 356.394 137.371 356.528 137.349 356.666H130.789V355.434H135.445C135.424 354.848 135.227 354.389 134.853 354.058C134.48 353.717 134.016 353.546 133.461 353.546C133.067 353.546 132.704 353.637 132.373 353.818C132.043 354 131.781 354.272 131.589 354.634C131.397 354.986 131.301 355.434 131.301 355.978V356.442C131.301 356.944 131.392 357.376 131.573 357.738C131.765 358.101 132.021 358.378 132.341 358.57C132.672 358.752 133.04 358.842 133.445 358.842C133.893 358.842 134.261 358.746 134.549 358.554C134.848 358.362 135.067 358.106 135.205 357.786H137.157C137.008 358.288 136.763 358.741 136.421 359.146C136.08 359.541 135.659 359.856 135.157 360.09C134.656 360.314 134.091 360.426 133.461 360.426ZM142.502 360.234C141.958 360.234 141.483 360.149 141.078 359.978C140.683 359.808 140.374 359.525 140.15 359.13C139.926 358.736 139.814 358.202 139.814 357.53V353.786H138.438V352.17H139.814L140.038 350.042H141.734V352.17H143.926V353.786H141.734V357.53C141.734 357.936 141.819 358.218 141.99 358.378C142.171 358.528 142.47 358.602 142.886 358.602H143.878V360.234H142.502ZM147.332 360.234L144.964 352.17H146.868L148.516 358.794L148.164 358.778L150.004 352.17H152.148L154.004 358.778H153.652L155.3 352.17H157.204L154.836 360.234H152.852L150.884 353.402H151.284L149.316 360.234H147.332ZM162.055 360.426C161.287 360.426 160.593 360.25 159.975 359.898C159.367 359.536 158.887 359.04 158.535 358.41C158.193 357.77 158.023 357.04 158.023 356.218C158.023 355.376 158.199 354.64 158.551 354.01C158.903 353.37 159.383 352.874 159.991 352.522C160.609 352.16 161.303 351.978 162.071 351.978C162.839 351.978 163.527 352.16 164.135 352.522C164.753 352.874 165.233 353.365 165.575 353.994C165.927 354.624 166.103 355.36 166.103 356.202C166.103 357.045 165.927 357.781 165.575 358.41C165.223 359.04 164.737 359.536 164.119 359.898C163.511 360.25 162.823 360.426 162.055 360.426ZM162.055 358.778C162.439 358.778 162.785 358.682 163.095 358.49C163.415 358.298 163.671 358.01 163.863 357.626C164.055 357.242 164.151 356.768 164.151 356.202C164.151 355.637 164.055 355.168 163.863 354.794C163.681 354.41 163.431 354.122 163.111 353.93C162.801 353.738 162.455 353.642 162.071 353.642C161.697 353.642 161.351 353.738 161.031 353.93C160.711 354.122 160.455 354.41 160.263 354.794C160.071 355.168 159.975 355.637 159.975 356.202C159.975 356.768 160.071 357.242 160.263 357.626C160.455 358.01 160.705 358.298 161.015 358.49C161.335 358.682 161.681 358.778 162.055 358.778ZM167.982 360.234V352.17H169.694L169.87 353.674C170.062 353.322 170.302 353.024 170.59 352.778C170.878 352.522 171.214 352.325 171.598 352.186C171.993 352.048 172.425 351.978 172.894 351.978V354.01H172.222C171.902 354.01 171.598 354.053 171.31 354.138C171.022 354.213 170.771 354.341 170.558 354.522C170.355 354.693 170.195 354.933 170.078 355.242C169.961 355.541 169.902 355.92 169.902 356.378V360.234H167.982ZM179.542 360.234L175.974 355.818L179.174 352.17H181.462L177.478 356.602V355.114L181.942 360.234H179.542ZM174.342 360.234V348.714H176.262V360.234H174.342ZM184.512 356.73L184.448 354.17H185.136C185.552 354.17 185.941 354.149 186.304 354.106C186.677 354.053 187.003 353.957 187.28 353.818C187.557 353.669 187.776 353.466 187.936 353.21C188.096 352.944 188.176 352.602 188.176 352.186C188.176 351.813 188.101 351.498 187.952 351.242C187.803 350.986 187.589 350.789 187.312 350.65C187.045 350.512 186.725 350.442 186.352 350.442C185.979 350.442 185.653 350.512 185.376 350.65C185.099 350.789 184.885 350.986 184.736 351.242C184.587 351.498 184.512 351.802 184.512 352.154H182.688C182.688 351.514 182.837 350.944 183.136 350.442C183.435 349.941 183.861 349.552 184.416 349.274C184.971 348.986 185.621 348.842 186.368 348.842C187.083 348.842 187.717 348.976 188.272 349.242C188.827 349.509 189.259 349.893 189.568 350.394C189.877 350.885 190.032 351.482 190.032 352.186C190.032 352.933 189.872 353.546 189.552 354.026C189.232 354.506 188.784 354.864 188.208 355.098C187.643 355.333 186.992 355.45 186.256 355.45L186.208 356.73H184.512ZM185.36 360.314C185.008 360.314 184.715 360.202 184.48 359.978C184.256 359.754 184.144 359.488 184.144 359.178C184.144 358.848 184.256 358.57 184.48 358.346C184.715 358.122 185.008 358.01 185.36 358.01C185.723 358.01 186.016 358.122 186.24 358.346C186.464 358.57 186.576 358.848 186.576 359.178C186.576 359.488 186.464 359.754 186.24 359.978C186.016 360.202 185.723 360.314 185.36 360.314Z" fill="black"/>
<rect x="35.3828" y="389.275" width="116.523" height="42.5645" rx="21.2822" fill="#E7EAF3"/>
<rect x="157.754" y="389.275" width="116.523" height="42.5645" rx="21.2822" fill="#5D5FEF"/>
<path d="M76.8254 415.215C75.924 415.215 75.144 415.02 74.4854 414.63C73.8354 414.231 73.3327 413.681 72.9774 412.979C72.6307 412.268 72.4574 411.449 72.4574 410.522C72.4574 409.586 72.6307 408.767 72.9774 408.065C73.3327 407.354 73.8354 406.799 74.4854 406.401C75.144 406.002 75.924 405.803 76.8254 405.803C77.9087 405.803 78.7927 406.071 79.4774 406.609C80.162 407.137 80.5954 407.887 80.7774 408.858H79.0614C78.94 408.346 78.693 407.943 78.3204 407.649C77.9477 407.354 77.445 407.207 76.8124 407.207C76.2404 407.207 75.7464 407.341 75.3304 407.61C74.923 407.87 74.6067 408.251 74.3814 408.754C74.1647 409.248 74.0564 409.837 74.0564 410.522C74.0564 411.206 74.1647 411.796 74.3814 412.29C74.6067 412.775 74.923 413.152 75.3304 413.421C75.7464 413.681 76.2404 413.811 76.8124 413.811C77.445 413.811 77.9477 413.676 78.3204 413.408C78.693 413.13 78.94 412.749 79.0614 412.264H80.7774C80.604 413.182 80.1707 413.906 79.4774 414.435C78.7927 414.955 77.9087 415.215 76.8254 415.215ZM84.4359 415.215C83.8985 415.215 83.4522 415.124 83.0969 414.942C82.7415 414.76 82.4772 414.517 82.3039 414.214C82.1305 413.91 82.0439 413.581 82.0439 413.226C82.0439 412.81 82.1479 412.45 82.3559 412.147C82.5725 411.843 82.8889 411.609 83.3049 411.445C83.7209 411.271 84.2322 411.185 84.8389 411.185H86.4899C86.4899 410.838 86.4422 410.552 86.3469 410.327C86.2515 410.093 86.1042 409.919 85.9049 409.807C85.7055 409.694 85.4499 409.638 85.1379 409.638C84.7825 409.638 84.4792 409.72 84.2279 409.885C83.9765 410.041 83.8205 410.283 83.7599 410.613H82.2259C82.2779 410.145 82.4339 409.746 82.6939 409.417C82.9539 409.079 83.2962 408.819 83.7209 408.637C84.1542 408.446 84.6265 408.351 85.1379 408.351C85.7532 408.351 86.2775 408.459 86.7109 408.676C87.1442 408.884 87.4735 409.187 87.6989 409.586C87.9329 409.976 88.0499 410.448 88.0499 411.003V415.059H86.7239L86.5679 414.006C86.4812 414.179 86.3685 414.339 86.2299 414.487C86.0999 414.634 85.9482 414.764 85.7749 414.877C85.6015 414.981 85.4022 415.063 85.1769 415.124C84.9602 415.184 84.7132 415.215 84.4359 415.215ZM84.7869 413.98C85.0382 413.98 85.2592 413.936 85.4499 413.85C85.6492 413.754 85.8182 413.624 85.9569 413.46C86.1042 413.286 86.2169 413.096 86.2949 412.888C86.3729 412.68 86.4249 412.459 86.4509 412.225V412.199H85.0079C84.7045 412.199 84.4532 412.238 84.2539 412.316C84.0545 412.394 83.9115 412.502 83.8249 412.641C83.7382 412.771 83.6949 412.927 83.6949 413.109C83.6949 413.291 83.7382 413.447 83.8249 413.577C83.9115 413.707 84.0372 413.806 84.2019 413.876C84.3665 413.945 84.5615 413.98 84.7869 413.98ZM89.7167 415.059V408.507H91.0947L91.2117 409.599C91.411 409.217 91.697 408.914 92.0697 408.689C92.4424 408.463 92.8844 408.351 93.3957 408.351C93.9244 408.351 94.375 408.463 94.7477 408.689C95.1204 408.905 95.4064 409.226 95.6057 409.651C95.8137 410.075 95.9177 410.604 95.9177 411.237V415.059H94.3577V411.38C94.3577 410.834 94.2364 410.413 93.9937 410.119C93.751 409.824 93.3914 409.677 92.9147 409.677C92.6027 409.677 92.321 409.75 92.0697 409.898C91.827 410.045 91.632 410.262 91.4847 410.548C91.346 410.825 91.2767 411.163 91.2767 411.562V415.059H89.7167ZM100.669 415.215C100.028 415.215 99.4517 415.072 98.9404 414.786C98.4377 414.491 98.0434 414.088 97.7574 413.577C97.4801 413.057 97.3414 412.467 97.3414 411.809C97.3414 411.124 97.4801 410.526 97.7574 410.015C98.0434 409.495 98.4377 409.087 98.9404 408.793C99.4517 408.498 100.032 408.351 100.682 408.351C101.497 408.351 102.182 408.567 102.736 409.001C103.291 409.425 103.646 410.01 103.802 410.756H102.164C102.078 410.426 101.896 410.166 101.618 409.976C101.35 409.785 101.029 409.69 100.656 409.69C100.336 409.69 100.041 409.772 99.7724 409.937C99.5124 410.101 99.3044 410.34 99.1484 410.652C99.0011 410.964 98.9274 411.341 98.9274 411.783C98.9274 412.121 98.9707 412.42 99.0574 412.68C99.1441 412.94 99.2654 413.161 99.4214 413.343C99.5861 413.516 99.7724 413.65 99.9804 413.746C100.188 413.841 100.414 413.889 100.656 413.889C100.908 413.889 101.133 413.85 101.332 413.772C101.54 413.685 101.714 413.559 101.852 413.395C102 413.23 102.104 413.035 102.164 412.81H103.802C103.646 413.538 103.291 414.123 102.736 414.565C102.182 414.998 101.493 415.215 100.669 415.215ZM108.375 415.215C107.725 415.215 107.153 415.076 106.659 414.799C106.165 414.513 105.779 414.114 105.502 413.603C105.224 413.091 105.086 412.502 105.086 411.835C105.086 411.141 105.22 410.535 105.489 410.015C105.766 409.495 106.152 409.087 106.646 408.793C107.148 408.498 107.729 408.351 108.388 408.351C109.029 408.351 109.588 408.494 110.065 408.78C110.541 409.066 110.91 409.451 111.17 409.937C111.43 410.413 111.56 410.951 111.56 411.549C111.56 411.635 111.56 411.731 111.56 411.835C111.56 411.939 111.551 412.047 111.534 412.16H106.204V411.159H109.987C109.969 410.682 109.809 410.309 109.506 410.041C109.202 409.763 108.825 409.625 108.375 409.625C108.054 409.625 107.759 409.698 107.491 409.846C107.222 409.993 107.01 410.214 106.854 410.509C106.698 410.795 106.62 411.159 106.62 411.601V411.978C106.62 412.385 106.693 412.736 106.841 413.031C106.997 413.325 107.205 413.551 107.465 413.707C107.733 413.854 108.032 413.928 108.362 413.928C108.726 413.928 109.025 413.85 109.259 413.694C109.501 413.538 109.679 413.33 109.792 413.07H111.378C111.256 413.477 111.057 413.845 110.78 414.175C110.502 414.495 110.16 414.751 109.753 414.942C109.345 415.124 108.886 415.215 108.375 415.215ZM113 415.059V405.699H114.56V415.059H113Z" fill="black"/>
<path d="M193.578 415.059L196.906 405.959H198.648L201.976 415.059H200.325L197.764 407.779L195.203 415.059H193.578ZM195.06 412.914L195.476 411.679H199.961L200.377 412.914H195.06ZM205.965 415.215C205.324 415.215 204.748 415.072 204.236 414.786C203.734 414.491 203.339 414.088 203.053 413.577C202.776 413.057 202.637 412.467 202.637 411.809C202.637 411.124 202.776 410.526 203.053 410.015C203.339 409.495 203.734 409.087 204.236 408.793C204.748 408.498 205.328 408.351 205.978 408.351C206.793 408.351 207.478 408.567 208.032 409.001C208.587 409.425 208.942 410.01 209.098 410.756H207.46C207.374 410.426 207.192 410.166 206.914 409.976C206.646 409.785 206.325 409.69 205.952 409.69C205.632 409.69 205.337 409.772 205.068 409.937C204.808 410.101 204.6 410.34 204.444 410.652C204.297 410.964 204.223 411.341 204.223 411.783C204.223 412.121 204.267 412.42 204.353 412.68C204.44 412.94 204.561 413.161 204.717 413.343C204.882 413.516 205.068 413.65 205.276 413.746C205.484 413.841 205.71 413.889 205.952 413.889C206.204 413.889 206.429 413.85 206.628 413.772C206.836 413.685 207.01 413.559 207.148 413.395C207.296 413.23 207.4 413.035 207.46 412.81H209.098C208.942 413.538 208.587 414.123 208.032 414.565C207.478 414.998 206.789 415.215 205.965 415.215ZM213.709 415.215C213.068 415.215 212.492 415.072 211.98 414.786C211.478 414.491 211.083 414.088 210.797 413.577C210.52 413.057 210.381 412.467 210.381 411.809C210.381 411.124 210.52 410.526 210.797 410.015C211.083 409.495 211.478 409.087 211.98 408.793C212.492 408.498 213.072 408.351 213.722 408.351C214.537 408.351 215.222 408.567 215.776 409.001C216.331 409.425 216.686 410.01 216.842 410.756H215.204C215.118 410.426 214.936 410.166 214.658 409.976C214.39 409.785 214.069 409.69 213.696 409.69C213.376 409.69 213.081 409.772 212.812 409.937C212.552 410.101 212.344 410.34 212.188 410.652C212.041 410.964 211.967 411.341 211.967 411.783C211.967 412.121 212.011 412.42 212.097 412.68C212.184 412.94 212.305 413.161 212.461 413.343C212.626 413.516 212.812 413.65 213.02 413.746C213.228 413.841 213.454 413.889 213.696 413.889C213.948 413.889 214.173 413.85 214.372 413.772C214.58 413.685 214.754 413.559 214.892 413.395C215.04 413.23 215.144 413.035 215.204 412.81H216.842C216.686 413.538 216.331 414.123 215.776 414.565C215.222 414.998 214.533 415.215 213.709 415.215ZM221.415 415.215C220.765 415.215 220.193 415.076 219.699 414.799C219.205 414.513 218.819 414.114 218.542 413.603C218.264 413.091 218.126 412.502 218.126 411.835C218.126 411.141 218.26 410.535 218.529 410.015C218.806 409.495 219.192 409.087 219.686 408.793C220.188 408.498 220.769 408.351 221.428 408.351C222.069 408.351 222.628 408.494 223.105 408.78C223.581 409.066 223.95 409.451 224.21 409.937C224.47 410.413 224.6 410.951 224.6 411.549C224.6 411.635 224.6 411.731 224.6 411.835C224.6 411.939 224.591 412.047 224.574 412.16H219.244V411.159H223.027C223.009 410.682 222.849 410.309 222.546 410.041C222.242 409.763 221.865 409.625 221.415 409.625C221.094 409.625 220.799 409.698 220.531 409.846C220.262 409.993 220.05 410.214 219.894 410.509C219.738 410.795 219.66 411.159 219.66 411.601V411.978C219.66 412.385 219.733 412.736 219.881 413.031C220.037 413.325 220.245 413.551 220.505 413.707C220.773 413.854 221.072 413.928 221.402 413.928C221.766 413.928 222.065 413.85 222.299 413.694C222.541 413.538 222.719 413.33 222.832 413.07H224.418C224.296 413.477 224.097 413.845 223.82 414.175C223.542 414.495 223.2 414.751 222.793 414.942C222.385 415.124 221.926 415.215 221.415 415.215ZM228.653 415.215C228.072 415.215 227.565 415.124 227.132 414.942C226.707 414.751 226.369 414.491 226.118 414.162C225.875 413.824 225.732 413.438 225.689 413.005H227.249C227.292 413.187 227.37 413.356 227.483 413.512C227.596 413.659 227.747 413.776 227.938 413.863C228.137 413.949 228.371 413.993 228.64 413.993C228.9 413.993 229.112 413.958 229.277 413.889C229.442 413.811 229.563 413.711 229.641 413.59C229.719 413.468 229.758 413.338 229.758 413.2C229.758 412.992 229.702 412.831 229.589 412.719C229.476 412.606 229.312 412.519 229.095 412.459C228.887 412.389 228.636 412.324 228.341 412.264C228.029 412.203 227.726 412.129 227.431 412.043C227.145 411.947 226.885 411.83 226.651 411.692C226.426 411.553 226.244 411.375 226.105 411.159C225.975 410.942 225.91 410.678 225.91 410.366C225.91 409.984 226.01 409.642 226.209 409.339C226.417 409.035 226.712 408.797 227.093 408.624C227.483 408.442 227.947 408.351 228.484 408.351C229.247 408.351 229.853 408.528 230.304 408.884C230.763 409.23 231.032 409.72 231.11 410.353H229.628C229.585 410.11 229.463 409.924 229.264 409.794C229.065 409.655 228.8 409.586 228.471 409.586C228.133 409.586 227.873 409.651 227.691 409.781C227.518 409.902 227.431 410.067 227.431 410.275C227.431 410.413 227.483 410.535 227.587 410.639C227.7 410.743 227.86 410.834 228.068 410.912C228.276 410.981 228.532 411.05 228.835 411.12C229.32 411.215 229.749 411.328 230.122 411.458C230.495 411.588 230.789 411.778 231.006 412.03C231.223 412.281 231.331 412.636 231.331 413.096C231.34 413.512 231.231 413.88 231.006 414.201C230.789 414.521 230.482 414.773 230.083 414.955C229.684 415.128 229.208 415.215 228.653 415.215ZM235.458 415.215C234.877 415.215 234.37 415.124 233.937 414.942C233.512 414.751 233.174 414.491 232.923 414.162C232.68 413.824 232.537 413.438 232.494 413.005H234.054C234.097 413.187 234.175 413.356 234.288 413.512C234.4 413.659 234.552 413.776 234.743 413.863C234.942 413.949 235.176 413.993 235.445 413.993C235.705 413.993 235.917 413.958 236.082 413.889C236.246 413.811 236.368 413.711 236.446 413.59C236.524 413.468 236.563 413.338 236.563 413.2C236.563 412.992 236.506 412.831 236.394 412.719C236.281 412.606 236.116 412.519 235.9 412.459C235.692 412.389 235.44 412.324 235.146 412.264C234.834 412.203 234.53 412.129 234.236 412.043C233.95 411.947 233.69 411.83 233.456 411.692C233.23 411.553 233.048 411.375 232.91 411.159C232.78 410.942 232.715 410.678 232.715 410.366C232.715 409.984 232.814 409.642 233.014 409.339C233.222 409.035 233.516 408.797 233.898 408.624C234.288 408.442 234.751 408.351 235.289 408.351C236.051 408.351 236.658 408.528 237.109 408.884C237.568 409.23 237.837 409.72 237.915 410.353H236.433C236.389 410.11 236.268 409.924 236.069 409.794C235.869 409.655 235.605 409.586 235.276 409.586C234.938 409.586 234.678 409.651 234.496 409.781C234.322 409.902 234.236 410.067 234.236 410.275C234.236 410.413 234.288 410.535 234.392 410.639C234.504 410.743 234.665 410.834 234.873 410.912C235.081 410.981 235.336 411.05 235.64 411.12C236.125 411.215 236.554 411.328 236.927 411.458C237.299 411.588 237.594 411.778 237.811 412.03C238.027 412.281 238.136 412.636 238.136 413.096C238.144 413.512 238.036 413.88 237.811 414.201C237.594 414.521 237.286 414.773 236.888 414.955C236.489 415.128 236.012 415.215 235.458 415.215Z" fill="white"/>
<path d="M142.726 280.274C144.277 278.61 146.153 277.282 148.237 276.371C150.322 275.461 152.569 274.987 154.844 274.979C157.119 274.972 159.371 275.43 161.462 276.326C163.552 277.222 165.438 278.537 167.001 280.19M135.418 270.13C137.9 267.468 140.901 265.343 144.237 263.886C147.572 262.429 151.173 261.671 154.812 261.658C158.452 261.646 162.054 262.379 165.399 263.813C168.745 265.247 171.759 267.348 174.26 269.992M154.902 294.961C153.063 294.961 151.572 293.47 151.572 291.631C151.572 289.792 153.063 288.3 154.902 288.3C156.741 288.3 158.232 289.792 158.232 291.631C158.232 293.47 156.741 294.961 154.902 294.961Z" stroke="black" stroke-width="4.85341" stroke-linecap="round" stroke-linejoin="round"/>
</svg>
