<svg width="46" height="41" viewBox="0 0 46 41" fill="none" xmlns="http://www.w3.org/2000/svg">
<path d="M18.4903 1.95006C7.40706 3.43444 -0.00837517 14.1063 2.71859 24.6688C4.20168 30.4657 8.58715 35.2938 14.376 37.4657C25.5549 41.7001 38.0416 34.3094 39.6363 22.5282C40.7526 14.2626 35.7771 6.15319 27.66 2.99694C24.933 1.95006 21.4565 1.54381 18.4903 1.95006ZM21.4087 2.91881C21.919 3.38756 22.4931 4.79381 22.9555 6.73131C23.2107 7.84069 23.6572 10.3407 23.6094 10.4032C23.5137 10.5126 20.2126 10.5594 19.2877 10.4969L18.283 10.4032L18.3468 9.98131C18.5063 8.82506 19.1123 6.09069 19.3993 5.21569C19.9096 3.60631 20.4997 2.68444 20.9781 2.68444C21.0578 2.70006 21.2651 2.79381 21.4087 2.91881ZM19.2717 3.05944C18.4425 4.88756 17.98 6.43444 17.5654 8.90319C17.4378 9.62194 17.3102 10.2313 17.2784 10.2469C17.1986 10.3407 14.8225 9.87194 13.5627 9.52819L12.4783 9.23131L12.9088 8.46569C14.3441 5.93444 16.3056 4.02819 18.3309 3.20006C19.0963 2.90319 19.3674 2.85631 19.2717 3.05944ZM23.5296 3.20006C25.0287 3.79381 26.5596 5.02819 27.7716 6.62194C28.4573 7.52819 29.3025 8.91881 29.3025 9.13756C29.3025 9.34069 27.2134 9.87194 25.0287 10.2469C24.5184 10.3251 24.5662 10.4344 24.2951 8.74694C24.1835 8.04381 23.9443 6.88756 23.7529 6.16881C23.4659 5.05944 23.2745 4.54381 22.6207 3.05944C22.5409 2.85631 22.7482 2.88756 23.5296 3.20006ZM15.4923 3.90319C14.36 4.80944 12.9088 6.62194 12.0636 8.23131C11.8723 8.57506 11.7128 8.88756 11.6809 8.91881C11.6171 9.02819 8.55525 7.66881 8.60309 7.52819C8.66688 7.37194 10.2457 6.12194 10.9633 5.65319C12.0477 4.95006 13.5627 4.20006 14.7268 3.77819C15.3328 3.57506 15.875 3.40319 15.9547 3.38756C16.0823 3.38756 15.8591 3.62194 15.4923 3.90319ZM27.038 3.74694C28.2819 4.16881 29.765 4.91881 30.9291 5.66881C31.7743 6.21569 33.2893 7.43444 33.3053 7.55944C33.3212 7.68444 30.2912 9.01256 30.2115 8.91881C30.1956 8.90319 30.0201 8.59069 29.8447 8.23131C29.0633 6.73131 27.5643 4.82506 26.4161 3.90319C26.0493 3.62194 25.8101 3.38756 25.8739 3.38756C25.9377 3.38756 26.4639 3.54381 27.038 3.74694ZM8.74662 8.71569C9.1453 8.91881 9.87887 9.23131 10.3732 9.43444L11.2663 9.79381L10.8197 10.9501C9.9905 13.0594 9.4164 15.8563 9.22503 18.5907L9.1453 19.7782H6.08344H3.03753L3.11727 18.8719C3.40432 15.7782 4.40899 12.9344 6.09939 10.4501C6.75322 9.49694 7.74195 8.35631 7.90142 8.35631C7.96521 8.34069 8.34794 8.51256 8.74662 8.71569ZM34.6927 8.98131C36.9572 11.5751 38.4402 15.1219 38.807 18.9188L38.8868 19.7626H35.8249H32.763L32.6355 18.1063C32.4122 15.3876 31.7424 12.4344 30.9291 10.4657L30.6421 9.77819L31.6627 9.35631C32.2208 9.12194 32.9385 8.80944 33.2574 8.62194C33.5923 8.46569 33.9112 8.32506 33.991 8.30944C34.0548 8.34069 34.3737 8.63756 34.6927 8.98131ZM13.8338 10.5438C14.5514 10.7157 15.572 10.9501 16.0983 11.0438C16.6405 11.1219 17.1029 11.2313 17.1508 11.2626C17.1667 11.2938 17.1508 11.8876 17.087 12.5751C16.9275 14.1219 16.7202 17.5282 16.7202 18.8094V19.7626H13.4032H10.0862L10.1659 18.5126C10.3254 16.0907 10.8835 13.2782 11.5852 11.3407C12.0158 10.1532 12.0955 10.0438 12.3347 10.1376C12.4464 10.1844 13.1321 10.3563 13.8338 10.5438ZM30.2115 11.1219C30.961 13.0438 31.5351 15.9501 31.7265 18.5751L31.8062 19.7626H28.5052H25.2041L25.1244 17.5438C25.0765 16.3251 24.9649 14.4344 24.8692 13.3251C24.6778 11.1532 24.6938 11.1219 25.2838 11.1219C25.6506 11.1219 28.0905 10.5751 28.9357 10.3094C29.3025 10.2001 29.6534 10.1063 29.7171 10.1219C29.7969 10.1376 30.0042 10.5751 30.2115 11.1219ZM23.7848 11.4657C23.7848 11.4969 23.8645 12.3563 23.9602 13.3719C24.0399 14.3876 24.1675 16.2469 24.2154 17.4969L24.2951 19.7782H20.9621H17.6292L17.7089 17.5126C17.7568 16.2626 17.8684 14.4032 17.9641 13.3876C18.0598 12.3719 18.1395 11.5126 18.1395 11.4657C18.1395 11.4344 19.4153 11.4032 20.9621 11.4032C22.509 11.4032 23.7848 11.4188 23.7848 11.4657ZM9.22503 21.8563C9.4164 24.6063 10.0224 27.5126 10.8676 29.6376L11.2663 30.6688L10.7241 30.8719C10.437 30.9813 9.67155 31.3251 9.01772 31.6219L7.85358 32.1688L7.29543 31.5438C5.03093 29.0751 3.46811 25.3407 3.13322 21.5751L3.05348 20.6844H6.09939H9.16124L9.22503 21.8563ZM16.7202 21.6844C16.7202 22.9657 16.9116 26.2469 17.087 27.8719C17.1508 28.5594 17.1986 29.1376 17.1667 29.1688C17.1508 29.1844 16.4332 29.3563 15.6039 29.5126C14.7587 29.6688 13.6424 29.9344 13.148 30.0751C12.6377 30.2313 12.1753 30.3407 12.1274 30.3094C11.9679 30.2157 11.2982 28.2469 10.9473 26.8563C10.5486 25.2001 10.2935 23.6219 10.1819 21.9188L10.1021 20.6844H13.4191H16.7202V21.6844ZM24.1994 22.9032C24.1356 24.9501 23.9921 26.8407 23.8167 28.4188L23.7529 29.0594H20.9462C19.3993 29.0594 18.1395 29.0438 18.1395 28.9969C18.1395 28.9501 18.0598 28.0907 17.9641 27.0751C17.8684 26.0438 17.7568 24.1844 17.7089 22.9501L17.6292 20.6844H20.9621H24.2951L24.1994 22.9032ZM31.7424 21.8563C31.6149 23.7157 31.3438 25.4501 30.9132 27.0751C30.5304 28.5126 29.9882 30.0907 29.8128 30.2626C29.765 30.3094 29.2866 30.2157 28.7284 30.0594C28.1703 29.9032 27.0699 29.6376 26.2566 29.4813C25.4433 29.3251 24.7735 29.1688 24.7576 29.1532C24.7416 29.1376 24.8054 28.2001 24.9011 27.1063C25.0127 25.9969 25.1084 24.0907 25.1563 22.8719L25.236 20.6532H28.5371H31.8381L31.7424 21.8563ZM38.807 21.5126C38.5838 23.8251 37.9299 26.2157 36.989 28.0126C36.3831 29.1844 35.2668 30.8407 34.581 31.5751L34.0548 32.1532L32.8906 31.6063C32.2368 31.3094 31.4713 30.9657 31.1683 30.8563L30.6261 30.6532L30.9132 29.9657C31.7265 28.0126 32.3963 25.0594 32.6195 22.3251L32.7471 20.6844H35.809H38.8708L38.807 21.5126ZM23.0353 29.9813L23.6413 30.0594L23.5775 30.4813C23.2745 32.6532 22.4771 35.6844 21.9828 36.6688C21.6957 37.2469 21.2014 37.7626 20.9462 37.7626C20.4678 37.7626 19.8937 36.8407 19.3674 35.2313C19.0804 34.3719 18.4903 31.6376 18.3149 30.4657L18.2511 30.0438L18.7455 29.9969C19.6226 29.9188 22.3974 29.9188 23.0353 29.9813ZM17.3581 30.4032C17.374 30.5594 17.5016 31.1844 17.6132 31.8251C17.8843 33.4813 18.4425 35.4969 18.889 36.5438C19.1123 37.0438 19.2717 37.4969 19.2399 37.5126C19.1442 37.6063 18.0757 37.1844 17.2465 36.7001C15.7315 35.8251 14.0251 33.9813 12.8929 31.9813L12.4623 31.2157L13.6105 30.8876C14.5833 30.6219 16.6405 30.1844 17.1348 30.1532C17.2305 30.1376 17.3262 30.2626 17.3581 30.4032ZM26.5915 30.4969C28.0586 30.7782 29.3185 31.1532 29.3185 31.3094C29.3185 31.5282 28.4733 32.9188 27.7875 33.8251C26.5596 35.4344 25.0446 36.6532 23.5456 37.2469C22.525 37.6688 22.4931 37.6219 22.9236 36.7469C23.434 35.7157 23.9443 33.8876 24.2632 31.9813C24.4067 31.1219 24.5503 30.3719 24.5662 30.2782C24.5981 30.1219 24.7257 30.1376 26.5915 30.4969ZM12.0477 32.1688C12.7972 33.6376 14.3441 35.6219 15.4923 36.5438C15.8591 36.8251 16.0983 37.0594 16.0345 37.0594C15.9707 37.0594 15.4444 36.9032 14.8703 36.7001C13.6265 36.2782 12.1434 35.5282 10.9792 34.7782C10.0543 34.1844 8.60309 33.0126 8.60309 32.8563C8.58715 32.8094 8.8423 32.6532 9.16124 32.5282C11.0271 31.7157 11.4895 31.5282 11.6012 31.5282C11.665 31.5282 11.8723 31.8094 12.0477 32.1688ZM31.1524 31.8563C32.476 32.4032 33.3212 32.8094 33.3053 32.8876C33.2893 33.0438 31.7584 34.2313 30.8175 34.8407C30.2912 35.1844 29.446 35.6532 28.9676 35.9032C28.1384 36.3094 26.1609 37.0594 25.8898 37.0594C25.826 37.0594 26.0971 36.7782 26.5118 36.4344C27.7078 35.4501 29.3504 33.3251 29.9563 32.0126C30.068 31.7469 30.2115 31.5282 30.2593 31.5282C30.3072 31.5282 30.7059 31.6844 31.1524 31.8563Z" fill="white"/>
<g clip-path="url(#clip0_34_347)">
<path d="M34.5575 16.8371C34.4608 16.8315 34.364 16.8456 34.2739 16.8785C34.1838 16.9114 34.1026 16.9622 34.0361 17.0273C33.9697 17.0924 33.9196 17.1703 33.8893 17.2553C33.8591 17.3403 33.8496 17.4305 33.8613 17.5193L34.8585 27.4042C34.9223 27.8843 35.5364 28.108 35.9374 27.7971L38.0418 26.2206L38.9853 27.7304C39.5279 28.5986 40.3888 28.812 41.3286 28.3107C42.2684 27.8094 42.4991 27.0139 41.9565 26.1457L41.0163 24.6414L43.5098 23.7583C44.0017 23.5929 44.0992 22.9896 43.6813 22.6986L34.913 16.9583C34.8099 16.8866 34.6864 16.8445 34.5575 16.8371Z" fill="#5D5FEF" stroke="#F4F5F6" stroke-width="1.64948"/>
</g>
<defs>
<clipPath id="clip0_34_347">
<rect width="13.1959" height="12.1905" fill="white" transform="translate(32.3022 16.6133)"/>
</clipPath>
</defs>
</svg>
