<svg width="44" height="53" viewBox="0 0 44 53" fill="none" xmlns="http://www.w3.org/2000/svg">
<rect x="1.81543" y="1.23047" width="40.7609" height="50" rx="5.96624" stroke="white" stroke-width="2"/>
<mask id="mask0_34_379" style="mask-type:alpha" maskUnits="userSpaceOnUse" x="12" y="15" width="21" height="22">
<path d="M28.5354 28.1408L25.2569 26.5017C25.1601 26.4536 25.0523 26.4318 24.9443 26.4387C24.8364 26.4455 24.7322 26.4807 24.6422 26.5407L23.0358 27.6112C22.2225 27.1949 21.5609 26.5333 21.1445 25.7201L22.2162 24.1148C22.2761 24.0249 22.3113 23.9206 22.3182 23.8127C22.325 23.7048 22.3032 23.597 22.2551 23.5002L20.6159 20.222C20.5649 20.1195 20.4863 20.0332 20.3889 19.9729C20.2915 19.9126 20.1792 19.8808 20.0647 19.8809C19.0322 19.8809 18.0419 20.291 17.3118 21.0211C16.5817 21.7511 16.1715 22.7413 16.1715 23.7737C16.1742 26.1094 17.1034 28.3487 18.7552 30.0003C20.4069 31.6519 22.6464 32.581 24.9823 32.5837C26.0149 32.5837 27.0051 32.1736 27.7352 31.4436C28.4653 30.7135 28.8755 29.7234 28.8755 28.6909C28.8755 28.5767 28.8437 28.4647 28.7836 28.3675C28.7236 28.2703 28.6376 28.1918 28.5354 28.1408ZM24.9823 31.3544C22.9724 31.352 21.0454 30.5525 19.6242 29.1314C18.2029 27.7102 17.4034 25.7835 17.4009 23.7737C17.401 23.1309 17.6336 22.5097 18.0557 22.0249C18.4779 21.5401 19.0611 21.2243 19.6979 21.1358L20.9949 23.7296L19.9305 25.3257C19.8745 25.4099 19.8402 25.5065 19.8306 25.6071C19.8209 25.7077 19.8362 25.8092 19.8751 25.9024C20.4404 27.2462 21.5095 28.3152 22.8534 28.8804C22.9467 28.9193 23.0481 28.9347 23.1487 28.925C23.2493 28.9154 23.346 28.881 23.4302 28.8251L25.0264 27.7607L27.6205 29.0577C27.5319 29.6944 27.2161 30.2776 26.7313 30.6997C26.2464 31.1218 25.6252 31.3544 24.9823 31.3544ZM22.5235 15.7832C20.712 15.7828 18.9314 16.2533 17.3566 17.1486C15.7817 18.0438 14.4667 19.3331 13.5405 20.8898C12.6142 22.4465 12.1086 24.2173 12.0733 26.0283C12.0379 27.8394 12.474 29.6285 13.3388 31.2202L12.1483 34.7924C12.064 35.0451 12.0518 35.3163 12.113 35.5755C12.1741 35.8348 12.3063 36.0719 12.4947 36.2602C12.6831 36.4486 12.9202 36.5808 13.1795 36.642C13.4388 36.7031 13.71 36.6909 13.9627 36.6066L17.5352 35.4163C18.9336 36.1751 20.4869 36.6046 22.0765 36.672C23.6662 36.7395 25.2503 36.443 26.708 35.8054C28.1657 35.1677 29.4585 34.2056 30.4879 32.9925C31.5172 31.7794 32.256 30.3472 32.6478 28.8052C33.0395 27.2633 33.074 25.6522 32.7485 24.0949C32.4231 22.5376 31.7463 21.0752 30.7697 19.8191C29.7932 18.5631 28.5427 17.5466 27.1136 16.8471C25.6845 16.1477 24.1146 15.7838 22.5235 15.7832ZM22.5235 35.4521C20.9027 35.4525 19.3104 35.0257 17.9071 34.2146C17.8135 34.1608 17.7076 34.1322 17.5997 34.1316C17.5336 34.132 17.4679 34.1427 17.405 34.1634L13.5744 35.4398C13.5383 35.4519 13.4995 35.4536 13.4625 35.4449C13.4255 35.4361 13.3916 35.4172 13.3647 35.3903C13.3378 35.3634 13.3189 35.3296 13.3101 35.2925C13.3014 35.2555 13.3032 35.2167 13.3152 35.1806L14.5917 31.3544C14.6194 31.2717 14.6291 31.1841 14.6202 31.0974C14.6114 31.0107 14.5842 30.9268 14.5405 30.8514C13.5234 29.0946 13.1146 27.0513 13.3775 25.0385C13.6403 23.0257 14.5602 21.1558 15.9943 19.7191C17.4285 18.2824 19.2967 17.3591 21.3092 17.0924C23.3217 16.8257 25.366 17.2307 27.1248 18.2443C28.8837 19.258 30.2589 20.8237 31.0369 22.6986C31.815 24.5735 31.9526 26.6528 31.4282 28.6138C30.9038 30.5748 29.7468 32.308 28.1368 33.5444C26.5267 34.7809 24.5536 35.4514 22.5235 35.4521Z" fill="black"/>
</mask>
<g mask="url(#mask0_34_379)">
<rect x="7.68945" y="14.5371" width="27.9477" height="26.5469" fill="white"/>
<path d="M19.8433 18.5371L23.4973 19.6912V20.307L25.8009 22.2307L30.011 24.9238C30.064 26.6167 30.1381 30.0793 30.011 30.3871C29.8839 30.6948 27.522 32.8237 26.357 33.8497H21.273L16.9835 31.6182L14.9976 27.1553V21.3073L19.8433 18.5371Z" fill="#5D5FEF"/>
</g>
</svg>
