<svg width="38" height="38" viewBox="0 0 38 38" fill="none" xmlns="http://www.w3.org/2000/svg">
<rect x="0.5" y="0.5" width="37" height="37" rx="9.5" fill="white" stroke="#DDDDDD"/>
<g clip-path="url(#clip0_306_182)">
<path d="M25.5 12.375C25.7321 12.375 25.9546 12.4672 26.1187 12.6313C26.2828 12.7954 26.375 13.0179 26.375 13.25C26.375 13.4821 26.2828 13.7046 26.1187 13.8687C25.9546 14.0328 25.7321 14.125 25.5 14.125H24.625L24.6224 14.1871L23.806 25.6243C23.7746 26.0658 23.577 26.479 23.2531 26.7806C22.9292 27.0823 22.503 27.25 22.0604 27.25H14.9387C14.4961 27.25 14.0699 27.0823 13.746 26.7806C13.4221 26.479 13.2246 26.0658 13.1931 25.6243L12.3767 14.188C12.3754 14.167 12.3748 14.146 12.375 14.125H11.5C11.2679 14.125 11.0454 14.0328 10.8813 13.8687C10.7172 13.7046 10.625 13.4821 10.625 13.25C10.625 13.0179 10.7172 12.7954 10.8813 12.6313C11.0454 12.4672 11.2679 12.375 11.5 12.375H25.5ZM22.8724 14.125H14.1276L14.9396 25.5H22.0604L22.8724 14.125ZM20.25 9.75C20.4821 9.75 20.7046 9.84219 20.8687 10.0063C21.0328 10.1704 21.125 10.3929 21.125 10.625C21.125 10.8571 21.0328 11.0796 20.8687 11.2437C20.7046 11.4078 20.4821 11.5 20.25 11.5H16.75C16.5179 11.5 16.2954 11.4078 16.1313 11.2437C15.9672 11.0796 15.875 10.8571 15.875 10.625C15.875 10.3929 15.9672 10.1704 16.1313 10.0063C16.2954 9.84219 16.5179 9.75 16.75 9.75H20.25Z" fill="#ED0000"/>
</g>
<defs>
<clipPath id="clip0_306_182">
<rect width="21" height="21" fill="white" transform="translate(8 8)"/>
</clipPath>
</defs>
</svg>
