<svg width="49" height="49" viewBox="0 0 49 49" fill="none" xmlns="http://www.w3.org/2000/svg">
<circle cx="24.5" cy="24.5" r="24.5" fill="#5D5FEF"/>
<path d="M35.1562 18.6562H28.9688C28.6041 18.6562 28.2543 18.5114 27.9965 18.2535C27.7386 17.9957 27.5938 17.6459 27.5938 17.2812V11.0938M35.1562 18.6562V36.5312C35.1562 36.8959 35.0114 37.2457 34.7535 37.5035C34.4957 37.7614 34.1459 37.9062 33.7812 37.9062H15.2188C14.8541 37.9062 14.5043 37.7614 14.2465 37.5035C13.9886 37.2457 13.8438 36.8959 13.8438 36.5312V12.4688C13.8438 12.1041 13.9886 11.7543 14.2465 11.4965C14.5043 11.2386 14.8541 11.0938 15.2188 11.0938H27.5938M35.1562 18.6562L27.5938 11.0938" stroke="white" stroke-linecap="round" stroke-linejoin="round"/>
<path d="M31.6713 24.8678H28.583V31.0312M28.583 27.9492H30.5981M17.3294 31.0196V24.8554H19.4035C19.9522 24.8553 20.4785 25.073 20.8665 25.4609C21.2546 25.8487 21.4727 26.3748 21.4729 26.9234C21.4731 27.4721 21.2553 27.9983 20.8675 28.3864C20.4797 28.7745 19.9536 28.9926 19.4049 28.9928H17.3287M22.9559 31.0312V24.8438H24.005C24.8255 24.8438 25.6124 25.1697 26.1926 25.7499C26.7728 26.3301 27.0987 27.117 27.0987 27.9375C27.0987 28.758 26.7728 29.5449 26.1926 30.1251C25.6124 30.7053 24.8255 31.0312 24.005 31.0312H22.9559Z" stroke="white" stroke-linecap="round" stroke-linejoin="round"/>
</svg>
