<svg width="39" height="39" viewBox="0 0 39 39" fill="none" xmlns="http://www.w3.org/2000/svg">
<path d="M23.6141 10.1976C23.7938 10.0179 24.0376 9.91699 24.2917 9.91699C24.5458 9.91699 24.7895 10.0179 24.9692 10.1976L28.8025 14.0309C28.9822 14.2106 29.0831 14.4543 29.0831 14.7085C29.0831 14.9626 28.9822 15.2063 28.8025 15.386L16.3442 27.8443C16.1645 28.0241 15.9208 28.1251 15.6667 28.1251H11.8333C11.5792 28.1251 11.3354 28.0242 11.1557 27.8444C10.976 27.6647 10.875 27.421 10.875 27.1668V23.3335C10.8751 23.0793 10.9761 22.8356 11.1558 22.6559L20.7391 13.0726L23.6141 10.1976ZM21.4167 15.1052L12.7917 23.7302V26.2085H15.2699L23.8949 17.5835L21.4167 15.1052ZM25.25 16.2284L26.7699 14.7085L24.2917 12.2302L22.7717 13.7501L25.25 16.2284Z" fill="white"/>
</svg>
