<svg width="34" height="34" viewBox="0 0 34 34" fill="none" xmlns="http://www.w3.org/2000/svg">
<path d="M8.5 13.125C8.77555 13.125 9.0415 13.2262 9.24742 13.4093C9.45333 13.5924 9.58489 13.8447 9.61713 14.1184L9.625 14.25V15.375C9.62494 17.1214 10.3018 18.7999 11.5133 20.0578C12.7248 21.3157 14.3767 22.055 16.1219 22.1205L16.375 22.125H20.4093L19.5171 21.2329C19.3154 21.0304 19.1982 20.7588 19.1895 20.4731C19.1808 20.1874 19.2811 19.9091 19.4702 19.6947C19.6592 19.4803 19.9227 19.3459 20.2073 19.3188C20.4918 19.2917 20.776 19.3739 21.0021 19.5487L21.1079 19.6421L23.9204 22.4546C24.09 22.6235 24.2008 22.8424 24.2365 23.079L24.25 23.2612C24.2479 23.5086 24.1641 23.7483 24.0115 23.943L23.9159 24.0499L21.1079 26.8579C20.9054 27.0596 20.6338 27.1768 20.3481 27.1855C20.0624 27.1942 19.7841 27.0939 19.5697 26.9048C19.3553 26.7158 19.2209 26.4522 19.1938 26.1677C19.1667 25.8832 19.2489 25.599 19.4237 25.3729L19.5171 25.2671L20.4093 24.375H16.375C14.0368 24.375 11.7903 23.4649 10.1113 21.8376C8.43233 20.2102 7.45257 17.9933 7.3795 15.6562L7.375 15.375V14.25C7.375 13.9516 7.49353 13.6655 7.7045 13.4545C7.91548 13.2435 8.20163 13.125 8.5 13.125ZM13.8921 6.14212C14.0946 5.94035 14.3662 5.82321 14.6519 5.81449C14.9376 5.80577 15.2159 5.90611 15.4303 6.09515C15.6447 6.28419 15.7791 6.54774 15.8062 6.83228C15.8333 7.11682 15.7511 7.40101 15.5763 7.62712L15.4829 7.73287L14.5907 8.625H18.625C20.9632 8.62502 23.2097 9.53505 24.8887 11.1624C26.5677 12.7897 27.5474 15.0067 27.6205 17.3437L27.625 17.625V18.75C27.6247 19.0367 27.5149 19.3125 27.318 19.521C27.1212 19.7295 26.8522 19.855 26.5659 19.8718C26.2797 19.8886 25.9978 19.7955 25.7779 19.6114C25.5581 19.4274 25.4167 19.1664 25.3829 18.8816L25.375 18.75V17.625C25.3751 15.8786 24.6982 14.2001 23.4867 12.9422C22.2752 11.6843 20.6233 10.945 18.8781 10.8795L18.625 10.875H14.5907L15.4829 11.7671C15.6846 11.9696 15.8018 12.2412 15.8105 12.5269C15.8192 12.8126 15.7189 13.0909 15.5298 13.3053C15.3408 13.5197 15.0773 13.6541 14.7927 13.6812C14.5082 13.7083 14.224 13.6261 13.9979 13.4512L13.8921 13.3579L11.0796 10.5454C10.8859 10.3517 10.7696 10.0939 10.7524 9.82051C10.7352 9.54711 10.8183 9.27683 10.9862 9.06037L11.0796 8.95462L13.8921 6.14212Z" fill="#A3AED0"/>
</svg>
