<svg width="49" height="60" viewBox="0 0 49 60" fill="none" xmlns="http://www.w3.org/2000/svg">
<rect x="1.48047" y="1.64453" width="46.0948" height="56.543" rx="7.05281" stroke="black" stroke-width="2.26172"/>
<rect x="14.1465" y="49.9365" width="25.512" height="2.26773" fill="black"/>
<g clip-path="url(#clip0_34_1776)">
<path d="M32.1582 20.9836C30.4911 20.9836 30.5942 24.2297 29.8076 25.6998C29.6756 25.9442 29.3153 25.9129 29.2284 25.6488C28.3352 22.9102 28.743 16.2559 26.3206 16.2559C23.7847 16.2559 24.4114 24.8668 23.4244 28.3758C23.3514 28.6423 22.983 28.6655 22.8753 28.4083C21.8327 25.9048 21.9497 20.4438 19.9768 20.4438C17.9355 20.4438 18.1093 25.0186 17.31 26.8617C17.2045 27.1085 16.8558 27.1166 16.7388 26.8733C16.1561 25.6581 15.9696 23.2067 13.7685 23.2067H11.2048C10.8862 23.2067 10.6267 23.4662 10.6267 23.7848C10.6267 24.1034 10.8862 24.3652 11.2048 24.3652H13.7685C15.5896 24.3652 14.971 28.4013 17.0748 28.4013C19.0257 28.4013 18.8148 24.0107 19.6501 22.0645C19.752 21.8235 20.0926 21.8305 20.1899 22.0714C21.1225 24.4428 21.1051 30.1576 23.2495 30.1576C25.6556 30.1576 24.7984 21.0566 26.0796 17.8534C26.1758 17.609 26.5245 17.5962 26.6346 17.8395C27.8266 20.4461 27.1987 27.2533 29.35 27.2533C31.2488 27.2533 31.3623 24.1184 31.9334 22.5754C32.0273 22.3298 32.3655 22.3124 32.4825 22.5441C33.0803 23.7037 33.4626 25.5237 35.2629 25.5237H37.8521C38.1707 25.5237 38.4302 25.2642 38.4302 24.9456C38.4302 24.6259 38.1707 24.3664 37.8521 24.3664H35.2629C33.7302 24.3664 33.9689 20.9836 32.1582 20.9836Z" fill="#5D5FEF" stroke="#5D5FEF" stroke-width="0.926782"/>
</g>
<line x1="1.82129" y1="44.3205" x2="47.5748" y2="44.3205" stroke="black" stroke-width="2.26135"/>
<path d="M11.8781 51.0714L8.47645 53.0354L8.47645 49.1075L11.8781 51.0714Z" fill="black"/>
<defs>
<clipPath id="clip0_34_1776">
<rect width="27.8035" height="27.8035" fill="white" transform="translate(10.0017 9.30664)"/>
</clipPath>
</defs>
</svg>
