<svg width="308" height="678" viewBox="0 0 308 678" fill="none" xmlns="http://www.w3.org/2000/svg">
<rect width="308" height="678" rx="35" fill="white"/>
<rect x="17" y="18" width="273.093" height="51.3333" rx="12" fill="#EEEFF2"/>
<rect x="102.667" y="29" width="178.64" height="30.8" rx="6" fill="white"/>
<path d="M117.72 48V40.8H118.72V43.78C118.887 43.4867 119.117 43.2567 119.41 43.09C119.71 42.9233 120.04 42.84 120.4 42.84C120.8 42.84 121.143 42.9233 121.43 43.09C121.717 43.25 121.937 43.4933 122.09 43.82C122.243 44.14 122.32 44.5433 122.32 45.03V48H121.33V45.14C121.33 44.6667 121.23 44.31 121.03 44.07C120.83 43.8233 120.533 43.7 120.14 43.7C119.873 43.7 119.633 43.7633 119.42 43.89C119.207 44.0167 119.037 44.2033 118.91 44.45C118.783 44.69 118.72 44.9833 118.72 45.33V48H117.72ZM125.669 48C125.356 48 125.082 47.95 124.849 47.85C124.616 47.75 124.436 47.5833 124.309 47.35C124.182 47.1167 124.119 46.8 124.119 46.4V43.81H123.249V42.96H124.119L124.239 41.7H125.119V42.96H126.549V43.81H125.119V46.41C125.119 46.6967 125.179 46.8933 125.299 47C125.419 47.1 125.626 47.15 125.919 47.15H126.499V48H125.669ZM129.722 48C129.408 48 129.135 47.95 128.902 47.85C128.668 47.75 128.488 47.5833 128.362 47.35C128.235 47.1167 128.172 46.8 128.172 46.4V43.81H127.302V42.96H128.172L128.292 41.7H129.172V42.96H130.602V43.81H129.172V46.41C129.172 46.6967 129.232 46.8933 129.352 47C129.472 47.1 129.678 47.15 129.972 47.15H130.552V48H129.722ZM131.704 50.2V42.96H132.604L132.704 43.74C132.811 43.5867 132.944 43.4433 133.104 43.31C133.264 43.17 133.454 43.0567 133.674 42.97C133.901 42.8833 134.164 42.84 134.464 42.84C134.944 42.84 135.364 42.9567 135.724 43.19C136.091 43.4233 136.374 43.74 136.574 44.14C136.781 44.5333 136.884 44.9833 136.884 45.49C136.884 45.9967 136.781 46.45 136.574 46.85C136.368 47.2433 136.081 47.5533 135.714 47.78C135.354 48.0067 134.934 48.12 134.454 48.12C134.061 48.12 133.714 48.0433 133.414 47.89C133.114 47.73 132.878 47.51 132.704 47.23V50.2H131.704ZM134.294 47.25C134.601 47.25 134.871 47.1767 135.104 47.03C135.344 46.8833 135.531 46.6767 135.664 46.41C135.804 46.1433 135.874 45.8333 135.874 45.48C135.874 45.1267 135.804 44.82 135.664 44.56C135.531 44.2933 135.344 44.0867 135.104 43.94C134.871 43.7867 134.601 43.71 134.294 43.71C133.981 43.71 133.704 43.7867 133.464 43.94C133.231 44.0867 133.048 44.2933 132.914 44.56C132.781 44.82 132.714 45.1267 132.714 45.48C132.714 45.8333 132.781 46.1433 132.914 46.41C133.048 46.6767 133.231 46.8833 133.464 47.03C133.704 47.1767 133.981 47.25 134.294 47.25ZM138.452 48.05C138.259 48.05 138.099 47.99 137.972 47.87C137.852 47.7433 137.792 47.5933 137.792 47.42C137.792 47.24 137.852 47.09 137.972 46.97C138.099 46.8433 138.259 46.78 138.452 46.78C138.645 46.78 138.802 46.8433 138.922 46.97C139.042 47.09 139.102 47.24 139.102 47.42C139.102 47.5933 139.042 47.7433 138.922 47.87C138.802 47.99 138.645 48.05 138.452 48.05ZM138.452 44.11C138.259 44.11 138.099 44.05 137.972 43.93C137.852 43.8033 137.792 43.6533 137.792 43.48C137.792 43.3 137.852 43.15 137.972 43.03C138.099 42.9033 138.259 42.84 138.452 42.84C138.645 42.84 138.802 42.9033 138.922 43.03C139.042 43.15 139.102 43.3 139.102 43.48C139.102 43.6533 139.042 43.8033 138.922 43.93C138.802 44.05 138.645 44.11 138.452 44.11ZM139.82 49.01L142.32 40.31H143.3L140.8 49.01H139.82ZM142.652 49.01L145.152 40.31H146.132L143.632 49.01H142.652ZM148.115 48L146.635 42.96H147.625L148.725 47.16L148.535 47.15L149.755 42.96H150.875L152.095 47.15L151.905 47.16L152.995 42.96H154.005L152.525 48H151.495L150.215 43.63H150.415L149.135 48H148.115ZM155.928 48L154.448 42.96H155.438L156.538 47.16L156.348 47.15L157.568 42.96H158.688L159.908 47.15L159.718 47.16L160.808 42.96H161.818L160.338 48H159.308L158.028 43.63H158.228L156.948 48H155.928ZM163.74 48L162.26 42.96H163.25L164.35 47.16L164.16 47.15L165.38 42.96H166.5L167.72 47.15L167.53 47.16L168.62 42.96H169.63L168.15 48H167.12L165.84 43.63H166.04L164.76 48H163.74ZM170.649 48.05C170.456 48.05 170.296 47.99 170.169 47.87C170.049 47.7433 169.989 47.5933 169.989 47.42C169.989 47.24 170.049 47.09 170.169 46.97C170.296 46.8433 170.456 46.78 170.649 46.78C170.843 46.78 170.999 46.8433 171.119 46.97C171.239 47.09 171.299 47.24 171.299 47.42C171.299 47.5933 171.239 47.7433 171.119 47.87C170.999 47.99 170.843 48.05 170.649 48.05ZM172.398 48V40.8H173.398V43.78C173.564 43.4867 173.794 43.2567 174.088 43.09C174.388 42.9233 174.718 42.84 175.078 42.84C175.478 42.84 175.821 42.9233 176.108 43.09C176.394 43.25 176.614 43.4933 176.768 43.82C176.921 44.14 176.998 44.5433 176.998 45.03V48H176.008V45.14C176.008 44.6667 175.908 44.31 175.708 44.07C175.508 43.8233 175.211 43.7 174.818 43.7C174.551 43.7 174.311 43.7633 174.098 43.89C173.884 44.0167 173.714 44.2033 173.588 44.45C173.461 44.69 173.398 44.9833 173.398 45.33V48H172.398ZM180.557 48.12C180.077 48.12 179.65 48.01 179.277 47.79C178.903 47.57 178.61 47.2633 178.397 46.87C178.19 46.4767 178.087 46.02 178.087 45.5C178.087 44.9667 178.19 44.5033 178.397 44.11C178.61 43.71 178.903 43.4 179.277 43.18C179.65 42.9533 180.083 42.84 180.577 42.84C181.07 42.84 181.493 42.95 181.847 43.17C182.2 43.39 182.473 43.6833 182.667 44.05C182.86 44.41 182.957 44.81 182.957 45.25C182.957 45.3167 182.953 45.39 182.947 45.47C182.947 45.5433 182.943 45.6267 182.937 45.72H178.817V45.01H181.957C181.937 44.59 181.797 44.2633 181.537 44.03C181.277 43.79 180.953 43.67 180.567 43.67C180.293 43.67 180.043 43.7333 179.817 43.86C179.59 43.98 179.407 44.16 179.267 44.4C179.133 44.6333 179.067 44.93 179.067 45.29V45.57C179.067 45.9433 179.133 46.26 179.267 46.52C179.407 46.7733 179.59 46.9667 179.817 47.1C180.043 47.2267 180.29 47.29 180.557 47.29C180.877 47.29 181.14 47.22 181.347 47.08C181.553 46.94 181.707 46.75 181.807 46.51H182.807C182.72 46.8167 182.573 47.0933 182.367 47.34C182.16 47.58 181.903 47.77 181.597 47.91C181.297 48.05 180.95 48.12 180.557 48.12ZM184.068 48V40.8H185.068V48H184.068ZM186.441 48V40.8H187.441V48H186.441ZM191.114 48.12C190.64 48.12 190.214 48.01 189.834 47.79C189.46 47.57 189.164 47.2633 188.944 46.87C188.73 46.47 188.624 46.01 188.624 45.49C188.624 44.9567 188.734 44.4933 188.954 44.1C189.174 43.7 189.474 43.39 189.854 43.17C190.234 42.95 190.66 42.84 191.134 42.84C191.614 42.84 192.04 42.95 192.414 43.17C192.787 43.39 193.08 43.6967 193.294 44.09C193.514 44.4833 193.624 44.9467 193.624 45.48C193.624 46.0133 193.514 46.4767 193.294 46.87C193.08 47.2633 192.784 47.57 192.404 47.79C192.024 48.01 191.594 48.12 191.114 48.12ZM191.114 47.26C191.387 47.26 191.634 47.1933 191.854 47.06C192.08 46.9267 192.26 46.73 192.394 46.47C192.534 46.2033 192.604 45.8733 192.604 45.48C192.604 45.0867 192.537 44.76 192.404 44.5C192.27 44.2333 192.09 44.0333 191.864 43.9C191.644 43.7667 191.4 43.7 191.134 43.7C190.867 43.7 190.62 43.7667 190.394 43.9C190.167 44.0333 189.984 44.2333 189.844 44.5C189.71 44.76 189.644 45.0867 189.644 45.48C189.644 45.8733 189.71 46.2033 189.844 46.47C189.984 46.73 190.164 46.9267 190.384 47.06C190.61 47.1933 190.854 47.26 191.114 47.26ZM195.2 48.05C195.007 48.05 194.847 47.99 194.72 47.87C194.6 47.7433 194.54 47.5933 194.54 47.42C194.54 47.24 194.6 47.09 194.72 46.97C194.847 46.8433 195.007 46.78 195.2 46.78C195.393 46.78 195.55 46.8433 195.67 46.97C195.79 47.09 195.85 47.24 195.85 47.42C195.85 47.5933 195.79 47.7433 195.67 47.87C195.55 47.99 195.393 48.05 195.2 48.05ZM199.279 48.12C198.792 48.12 198.359 48.01 197.979 47.79C197.599 47.5633 197.299 47.2533 197.079 46.86C196.865 46.4667 196.759 46.01 196.759 45.49C196.759 44.9633 196.865 44.5033 197.079 44.11C197.299 43.71 197.599 43.4 197.979 43.18C198.359 42.9533 198.792 42.84 199.279 42.84C199.892 42.84 200.405 43 200.819 43.32C201.232 43.64 201.495 44.0733 201.609 44.62H200.569C200.502 44.3267 200.349 44.1 200.109 43.94C199.875 43.78 199.595 43.7 199.269 43.7C199.002 43.7 198.755 43.77 198.529 43.91C198.302 44.0433 198.119 44.2433 197.979 44.51C197.845 44.77 197.779 45.0933 197.779 45.48C197.779 45.7667 197.819 46.0233 197.899 46.25C197.979 46.47 198.085 46.6567 198.219 46.81C198.359 46.9633 198.519 47.08 198.699 47.16C198.879 47.2333 199.069 47.27 199.269 47.27C199.489 47.27 199.685 47.2367 199.859 47.17C200.039 47.0967 200.189 46.99 200.309 46.85C200.435 46.71 200.522 46.5433 200.569 46.35H201.609C201.495 46.8833 201.232 47.3133 200.819 47.64C200.405 47.96 199.892 48.12 199.279 48.12ZM205.079 48.12C204.605 48.12 204.179 48.01 203.799 47.79C203.425 47.57 203.129 47.2633 202.909 46.87C202.695 46.47 202.589 46.01 202.589 45.49C202.589 44.9567 202.699 44.4933 202.919 44.1C203.139 43.7 203.439 43.39 203.819 43.17C204.199 42.95 204.625 42.84 205.099 42.84C205.579 42.84 206.005 42.95 206.379 43.17C206.752 43.39 207.045 43.6967 207.259 44.09C207.479 44.4833 207.589 44.9467 207.589 45.48C207.589 46.0133 207.479 46.4767 207.259 46.87C207.045 47.2633 206.749 47.57 206.369 47.79C205.989 48.01 205.559 48.12 205.079 48.12ZM205.079 47.26C205.352 47.26 205.599 47.1933 205.819 47.06C206.045 46.9267 206.225 46.73 206.359 46.47C206.499 46.2033 206.569 45.8733 206.569 45.48C206.569 45.0867 206.502 44.76 206.369 44.5C206.235 44.2333 206.055 44.0333 205.829 43.9C205.609 43.7667 205.365 43.7 205.099 43.7C204.832 43.7 204.585 43.7667 204.359 43.9C204.132 44.0333 203.949 44.2333 203.809 44.5C203.675 44.76 203.609 45.0867 203.609 45.48C203.609 45.8733 203.675 46.2033 203.809 46.47C203.949 46.73 204.129 46.9267 204.349 47.06C204.575 47.1933 204.819 47.26 205.079 47.26ZM208.765 48V42.96H209.665L209.735 43.67C209.895 43.41 210.108 43.2067 210.375 43.06C210.642 42.9133 210.942 42.84 211.275 42.84C211.528 42.84 211.758 42.8767 211.965 42.95C212.172 43.0167 212.355 43.12 212.515 43.26C212.675 43.4 212.805 43.5733 212.905 43.78C213.085 43.4867 213.325 43.2567 213.625 43.09C213.932 42.9233 214.255 42.84 214.595 42.84C215.002 42.84 215.352 42.9233 215.645 43.09C215.938 43.25 216.162 43.4933 216.315 43.82C216.468 44.14 216.545 44.54 216.545 45.02V48H215.555V45.12C215.555 44.6533 215.458 44.3 215.265 44.06C215.078 43.82 214.802 43.7 214.435 43.7C214.188 43.7 213.968 43.7633 213.775 43.89C213.582 44.0167 213.428 44.2 213.315 44.44C213.208 44.68 213.155 44.9733 213.155 45.32V48H212.155V45.12C212.155 44.6533 212.058 44.3 211.865 44.06C211.678 43.82 211.402 43.7 211.035 43.7C210.802 43.7 210.588 43.7633 210.395 43.89C210.202 44.0167 210.048 44.2 209.935 44.44C209.822 44.68 209.765 44.9733 209.765 45.32V48H208.765ZM217.427 49.01L219.927 40.31H220.907L218.407 49.01H217.427Z" fill="black"/>
<path d="M152.973 106.773L175.201 119.607V145.273L152.973 158.107L130.745 145.273V119.607L152.973 106.773Z" fill="#EEEFF2"/>
<rect x="17" y="190.96" width="273.093" height="119.093" rx="3" fill="#EEEFF2"/>
<rect x="40" y="342.906" width="227.92" height="14.3733" rx="5" fill="#EEEFF2"/>
<rect x="40" y="373.707" width="227.92" height="14.3733" rx="5" fill="#EEEFF2"/>
<rect x="61" y="404.507" width="186.853" height="14.3733" rx="5" fill="#EEEFF2"/>
<rect x="28.4805" y="639.174" width="55.44" height="14.3733" rx="5" fill="#EEEFF2"/>
<rect x="126" y="639.174" width="55.44" height="14.3733" rx="5" fill="#EEEFF2"/>
<rect x="226.134" y="639.174" width="55.44" height="14.3733" rx="5" fill="#EEEFF2"/>
<rect x="63.6533" y="457.054" width="182.747" height="57.4933" rx="3" fill="#EEEFF2"/>
<rect x="82.1338" y="479.64" width="145.787" height="14.3733" rx="5" fill="#E2E4EA"/>
<ellipse cx="56.2005" cy="586.814" rx="27.72" ry="27.72" fill="#EEEFF2"/>
<ellipse cx="153.72" cy="586.814" rx="27.72" ry="27.72" fill="#EEEFF2"/>
<ellipse cx="253.854" cy="586.814" rx="27.72" ry="27.72" fill="#EEEFF2"/>
<path d="M36 38.5714L31 44.2857L36 50" stroke="#1B254B" stroke-width="2.14286" stroke-linecap="round" stroke-linejoin="round"/>
<path d="M59.8103 43.3806L59.7968 43.384L59.8557 43.0108C60.1352 41.2382 60.8962 39.5767 62.0556 38.2081C63.2149 36.8395 64.7279 35.8165 66.429 35.2511C68.1301 34.6856 69.9538 34.5995 71.7004 35.0023C73.2593 35.3617 74.7032 36.098 75.9076 37.1432V35.7945C75.9076 35.5176 76.0174 35.2519 76.2131 35.056C76.4087 34.8601 76.6742 34.75 76.951 34.75C77.2279 34.75 77.4933 34.8601 77.689 35.056C77.8846 35.2519 77.9945 35.5176 77.9945 35.7945V38.9724C77.9945 39.46 77.801 39.9278 77.4566 40.2726C77.1121 40.6176 76.6449 40.8114 76.1576 40.8114H72.9837C72.7069 40.8114 72.4414 40.7013 72.2458 40.5053C72.0501 40.3094 71.9403 40.0438 71.9403 39.7669C71.9403 39.49 72.0501 39.2244 72.2458 39.0285C72.4414 38.8325 72.7069 38.7224 72.9837 38.7224H74.5346C73.3744 37.7198 71.9368 37.0847 70.4052 36.9065C68.6671 36.7043 66.9121 37.1027 65.431 38.0359C63.9499 38.969 62.8316 40.3808 62.2615 42.0375C61.6913 43.6942 61.7035 45.4962 62.2961 47.1449C62.8886 48.7937 64.026 50.1902 65.5195 51.1031C67.0131 52.016 68.7733 52.3906 70.5086 52.1648C72.2438 51.939 73.8499 51.1264 75.0609 49.8615C76.2719 48.5966 77.015 46.9553 77.1669 45.2097L77.1669 45.2097L77.1674 45.2049C77.1946 44.9493 77.3162 44.713 77.5086 44.5426C77.7005 44.3725 77.949 44.2802 78.2054 44.2838C78.3506 44.2844 78.4941 44.3152 78.6268 44.3742C78.7599 44.4334 78.8793 44.5197 78.9773 44.6276C79.0753 44.7355 79.1497 44.8627 79.1959 45.001C79.2421 45.1392 79.259 45.2856 79.2455 45.4308L79.2455 45.4308L79.2454 45.4324C79.1166 46.7315 78.7295 47.9917 78.1068 49.1387C77.4841 50.2857 76.6384 51.2963 75.6196 52.1111C74.6007 52.9258 73.4293 53.5281 72.1743 53.8826C70.9194 54.237 69.6062 54.3364 68.3123 54.1748C67.0184 54.0132 65.7699 53.594 64.6403 52.9418C63.5107 52.2897 62.5229 51.4177 61.7352 50.3774C60.9474 49.3371 60.3755 48.1495 60.0532 46.8845C59.7616 45.7398 59.6796 44.5527 59.8103 43.3806Z" fill="#1B254B" stroke="#1B254B" stroke-width="0.5"/>
</svg>
