<svg width="35" height="35" viewBox="0 0 35 35" fill="none" xmlns="http://www.w3.org/2000/svg">
<path d="M23.333 4.73959H11.6663C10.2663 4.73959 9.11426 5.89168 9.11426 7.29168V27.7083C9.11426 29.1083 10.2663 30.2604 11.6663 30.2604H23.333C24.733 30.2604 25.8851 29.1083 25.8851 27.7083V7.29168C25.8851 5.89168 24.733 4.73959 23.333 4.73959ZM23.6976 27.7083C23.6976 27.9125 23.5372 28.0729 23.333 28.0729H11.6663C11.4622 28.0729 11.3018 27.9125 11.3018 27.7083V7.29168C11.3018 7.08751 11.4622 6.92709 11.6663 6.92709H23.333C23.5372 6.92709 23.6976 7.08751 23.6976 7.29168V27.7083ZM18.958 23.3333C18.958 24.1354 18.3018 24.7917 17.4997 24.7917C16.6976 24.7917 16.0413 24.1354 16.0413 23.3333C16.0413 22.5313 16.6976 21.875 17.4997 21.875C18.3018 21.875 18.958 22.5313 18.958 23.3333Z" fill="#5D5FEF"/>
</svg>
