<svg width="23" height="23" viewBox="0 0 23 23" fill="none" xmlns="http://www.w3.org/2000/svg">
<path fill-rule="evenodd" clip-rule="evenodd" d="M0 3.14814C0 1.91134 1.07333 0.909729 2.39583 0.909729H8.14583C9.46961 0.909729 10.5417 1.91254 10.5417 3.14814V8.52032C10.5417 9.75711 9.46833 10.7587 8.14583 10.7587H2.39583C1.76042 10.7587 1.15103 10.5229 0.701723 10.1031C0.252417 9.68333 0 9.11398 0 8.52032V3.14814ZM2.39583 2.70046C2.26875 2.70046 2.14687 2.74762 2.05701 2.83158C1.96715 2.91553 1.91667 3.0294 1.91667 3.14814V8.52032C1.91667 8.76744 2.13133 8.968 2.39583 8.968H8.14583C8.27292 8.968 8.39479 8.92083 8.48466 8.83687C8.57452 8.75292 8.625 8.63905 8.625 8.52032V3.14814C8.625 3.0294 8.57452 2.91553 8.48466 2.83158C8.39479 2.74762 8.27292 2.70046 8.14583 2.70046H2.39583ZM12.4583 3.14814C12.4583 1.91134 13.5317 0.909729 14.8542 0.909729H20.6042C21.9267 0.909729 23 1.91254 23 3.14814V8.52032C23 9.75711 21.9267 10.7587 20.6042 10.7587H14.8542C14.2188 10.7587 13.6094 10.5229 13.1601 10.1031C12.7108 9.68333 12.4583 9.11398 12.4583 8.52032V3.14814ZM14.8542 2.70046C14.7271 2.70046 14.6052 2.74762 14.5153 2.83158C14.4255 2.91553 14.375 3.0294 14.375 3.14814V8.52032C14.375 8.76744 14.5897 8.968 14.8542 8.968H20.6042C20.7312 8.968 20.8531 8.92083 20.943 8.83687C21.0329 8.75292 21.0833 8.63905 21.0833 8.52032V3.14814C21.0833 3.0294 21.0329 2.91553 20.943 2.83158C20.8531 2.74762 20.7312 2.70046 20.6042 2.70046H14.8542ZM3.83333 5.38654C3.83333 5.14908 3.9343 4.92134 4.11402 4.75343C4.29375 4.58551 4.5375 4.49118 4.79167 4.49118H5.75C6.00417 4.49118 6.24792 4.58551 6.42764 4.75343C6.60737 4.92134 6.70833 5.14908 6.70833 5.38654V6.28191C6.70833 6.51937 6.60737 6.74711 6.42764 6.91502C6.24792 7.08294 6.00417 7.17727 5.75 7.17727H4.79167C4.5375 7.17727 4.29375 7.08294 4.11402 6.91502C3.9343 6.74711 3.83333 6.51937 3.83333 6.28191V5.38654ZM16.2917 5.38654C16.2917 5.14908 16.3926 4.92134 16.5724 4.75343C16.7521 4.58551 16.9958 4.49118 17.25 4.49118H18.2083C18.4625 4.49118 18.7063 4.58551 18.886 4.75343C19.0657 4.92134 19.1667 5.14908 19.1667 5.38654V6.28191C19.1667 6.51937 19.0657 6.74711 18.886 6.91502C18.7063 7.08294 18.4625 7.17727 18.2083 7.17727H17.25C16.9958 7.17727 16.7521 7.08294 16.5724 6.91502C16.3926 6.74711 16.2917 6.51937 16.2917 6.28191V5.38654ZM0 14.7879C0 13.5511 1.07333 12.5494 2.39583 12.5494H8.14583C9.46961 12.5494 10.5417 13.5523 10.5417 14.7879V20.16C10.5417 21.3956 9.46833 22.3984 8.14583 22.3984H2.39583C1.76042 22.3984 1.15103 22.1626 0.701723 21.7428C0.252417 21.323 0 20.7537 0 20.16V14.7879ZM2.39583 14.3402C2.26875 14.3402 2.14687 14.3873 2.05701 14.4713C1.96715 14.5553 1.91667 14.6691 1.91667 14.7879V20.16C1.91667 20.4072 2.13133 20.6077 2.39583 20.6077H8.14583C8.27292 20.6077 8.39479 20.5606 8.48466 20.4766C8.57452 20.3926 8.625 20.2788 8.625 20.16V14.7879C8.625 14.6691 8.57452 14.5553 8.48466 14.4713C8.39479 14.3873 8.27292 14.3402 8.14583 14.3402H2.39583ZM12.4583 13.4448C12.4583 13.2073 12.5593 12.9796 12.739 12.8117C12.9187 12.6438 13.1625 12.5494 13.4167 12.5494H14.375C14.6292 12.5494 14.8729 12.6438 15.0526 12.8117C15.2324 12.9796 15.3333 13.2073 15.3333 13.4448V14.3402C15.3333 14.5776 15.2324 14.8054 15.0526 14.9733C14.8729 15.1412 14.6292 15.2355 14.375 15.2355H13.4167C13.1625 15.2355 12.9187 15.1412 12.739 14.9733C12.5593 14.8054 12.4583 14.5776 12.4583 14.3402V13.4448ZM20.125 13.4448C20.125 13.2073 20.226 12.9796 20.4057 12.8117C20.5854 12.6438 20.8292 12.5494 21.0833 12.5494H22.0417C22.2958 12.5494 22.5396 12.6438 22.7193 12.8117C22.899 12.9796 23 13.2073 23 13.4448V14.3402C23 14.5776 22.899 14.8054 22.7193 14.9733C22.5396 15.1412 22.2958 15.2355 22.0417 15.2355H21.0833C20.8292 15.2355 20.5854 15.1412 20.4057 14.9733C20.226 14.8054 20.125 14.5776 20.125 14.3402V13.4448ZM3.83333 17.0263C3.83333 16.7888 3.9343 16.5611 4.11402 16.3931C4.29375 16.2252 4.5375 16.1309 4.79167 16.1309H5.75C6.00417 16.1309 6.24792 16.2252 6.42764 16.3931C6.60737 16.5611 6.70833 16.7888 6.70833 17.0263V17.9216C6.70833 18.1591 6.60737 18.3868 6.42764 18.5547C6.24792 18.7227 6.00417 18.817 5.75 18.817H4.79167C4.5375 18.817 4.29375 18.7227 4.11402 18.5547C3.9343 18.3868 3.83333 18.1591 3.83333 17.9216V17.0263ZM16.2917 17.0263C16.2917 16.7888 16.3926 16.5611 16.5724 16.3931C16.7521 16.2252 16.9958 16.1309 17.25 16.1309H18.2083C18.4625 16.1309 18.7063 16.2252 18.886 16.3931C19.0657 16.5611 19.1667 16.7888 19.1667 17.0263V17.9216C19.1667 18.1591 19.0657 18.3868 18.886 18.5547C18.7063 18.7227 18.4625 18.817 18.2083 18.817H17.25C16.9958 18.817 16.7521 18.7227 16.5724 18.5547C16.3926 18.3868 16.2917 18.1591 16.2917 17.9216V17.0263ZM12.4583 20.6077C12.4583 20.3703 12.5593 20.1425 12.739 19.9746C12.9187 19.8067 13.1625 19.7124 13.4167 19.7124H14.375C14.6292 19.7124 14.8729 19.8067 15.0526 19.9746C15.2324 20.1425 15.3333 20.3703 15.3333 20.6077V21.5031C15.3333 21.7405 15.2324 21.9683 15.0526 22.1362C14.8729 22.3041 14.6292 22.3984 14.375 22.3984H13.4167C13.1625 22.3984 12.9187 22.3041 12.739 22.1362C12.5593 21.9683 12.4583 21.7405 12.4583 21.5031V20.6077ZM20.125 20.6077C20.125 20.3703 20.226 20.1425 20.4057 19.9746C20.5854 19.8067 20.8292 19.7124 21.0833 19.7124H22.0417C22.2958 19.7124 22.5396 19.8067 22.7193 19.9746C22.899 20.1425 23 20.3703 23 20.6077V21.5031C23 21.7405 22.899 21.9683 22.7193 22.1362C22.5396 22.3041 22.2958 22.3984 22.0417 22.3984H21.0833C20.8292 22.3984 20.5854 22.3041 20.4057 22.1362C20.226 21.9683 20.125 21.7405 20.125 21.5031V20.6077Z" fill="#5D5FEF"/>
</svg>
