<svg width="22" height="20" viewBox="0 0 22 20" fill="none" xmlns="http://www.w3.org/2000/svg">
<path d="M4.55556 17.8213H17.4444C19.4081 17.8213 21 16.2294 21 14.2657V11.8213C21 10.7167 20.1046 9.82129 19 9.82129C17.8954 9.82129 17 10.7167 17 11.8213V13.0213C17 13.4631 16.6418 13.8213 16.2 13.8213H5.8C5.35817 13.8213 5 13.4631 5 13.0213V11.8213C5 10.7167 4.10457 9.82129 3 9.82129C1.89543 9.82129 1 10.7167 1 11.8213V14.2657C1 16.2294 2.59188 17.8213 4.55556 17.8213Z" stroke="#B8BAC7" stroke-width="2"/>
<path d="M19 9.82129C19 8.89198 19 5.42732 18.9231 5.04093C18.6075 3.45417 17.3671 2.21378 15.7804 1.89815C15.394 1.82129 14.9293 1.82129 14 1.82129H8C7.07069 1.82129 6.60603 1.82129 6.21964 1.89815C4.63288 2.21378 3.39249 3.45417 3.07686 5.04093C3 5.42732 3 8.89198 3 9.82129" stroke="#B8BAC7" stroke-width="2"/>
<path d="M19 18.8213V17.8213M3 18.8213V17.8213" stroke="#B8BAC7" stroke-width="2" stroke-linecap="round"/>
</svg>
