<svg width="25" height="23" viewBox="0 0 25 23" fill="none" xmlns="http://www.w3.org/2000/svg">
<path d="M10.5991 4.61252C10.887 5.60557 10.8482 6.5617 10.5922 7.28986C10.335 8.0215 9.89206 8.45315 9.40241 8.59305C8.91273 8.73295 8.31098 8.60092 7.70611 8.11635C7.10368 7.63374 6.56295 6.84243 6.27428 5.84652C5.98644 4.85347 6.02518 3.89735 6.2812 3.16918C6.53844 2.43754 6.98134 2.00589 7.47099 1.866C7.96066 1.72609 8.56242 1.85813 9.16729 2.34269C9.76972 2.8253 10.3104 3.61662 10.5991 4.61252Z" stroke="#B8BAC7" stroke-width="1.6"/>
<path d="M16.9954 1.84287C17.481 1.98157 17.9187 2.40857 18.1723 3.13918C18.4249 3.86707 18.4618 4.82757 18.1744 5.83404C17.887 6.84052 17.3484 7.63668 16.7495 8.12139C16.1483 8.60791 15.5512 8.73942 15.0655 8.60073C14.5799 8.46203 14.1422 8.03503 13.8886 7.30442C13.636 6.57653 13.5991 5.61603 13.8865 4.60956C14.1739 3.60308 14.7125 2.80692 15.3114 2.32221C15.9126 1.8357 16.5097 1.70418 16.9954 1.84287Z" stroke="#B8BAC7" stroke-width="1.6"/>
<path d="M6.06553 10.1768C6.463 11.0459 6.56 11.9154 6.43273 12.6014C6.30493 13.2902 5.97355 13.7207 5.57203 13.9043C5.17051 14.0879 4.62814 14.057 4.02351 13.7032C3.42135 13.3508 2.82709 12.7088 2.42962 11.8397C2.03215 10.9706 1.93514 10.1011 2.06242 9.41512C2.19022 8.72632 2.52159 8.29584 2.92312 8.11222C3.32464 7.92859 3.86701 7.95946 4.47164 8.3133C5.0738 8.66569 5.66806 9.30774 6.06553 10.1768Z" stroke="#B8BAC7" stroke-width="1.6"/>
<path d="M21.9597 7.70704C22.3612 7.89067 22.6926 8.32114 22.8204 9.00994C22.9477 9.69592 22.8507 10.5654 22.4532 11.4345C22.0558 12.3036 21.4615 12.9456 20.8593 13.298C20.2547 13.6519 19.7123 13.6827 19.3108 13.4991C18.9093 13.3155 18.5779 12.885 18.4501 12.1962C18.3228 11.5102 18.4198 10.6408 18.8173 9.77166C19.2148 8.90256 19.809 8.26051 20.4112 7.90812C21.0158 7.55429 21.5582 7.52341 21.9597 7.70704Z" stroke="#B8BAC7" stroke-width="1.6"/>
<path d="M8.11216 15.4803L8.13196 15.4442C9.22931 13.8208 10.8139 12.803 12.4069 12.6752C13.9634 12.5502 15.7061 13.2616 17.1899 15.4719C17.9753 16.6459 18.5229 17.6006 18.872 18.379C19.2244 19.1647 19.3515 19.7204 19.3515 20.1103C19.3515 20.4678 19.2467 20.689 19.0756 20.8664C18.8796 21.0696 18.5442 21.2666 17.9999 21.4455L17.9999 21.4454L17.9906 21.4486C17.497 21.6177 17.159 21.6253 16.8992 21.5796C16.6264 21.5317 16.3742 21.4146 16.0447 21.2266C15.9726 21.1855 15.8975 21.141 15.8188 21.0945C15.191 20.7232 14.3403 20.22 13.0468 20.22C11.8301 20.22 10.99 20.666 10.3336 21.0145C10.2139 21.078 10.1003 21.1383 9.99169 21.1921C9.63072 21.3707 9.29306 21.5042 8.8874 21.5615C8.48172 21.6189 7.96247 21.6063 7.24562 21.4289C6.99373 21.3666 6.85593 21.2641 6.76921 21.1595C6.67616 21.0473 6.598 20.8785 6.55777 20.625C6.47341 20.0934 6.58161 19.3596 6.8208 18.5451C7.05404 17.751 7.38474 16.9683 7.66204 16.3768C7.7998 16.083 7.9224 15.8406 8.00997 15.6727C8.05372 15.5888 8.08862 15.5237 8.11216 15.4803Z" stroke="#B8BAC7" stroke-width="1.6"/>
</svg>
