<svg width="18" height="25" viewBox="0 0 18 25" fill="none" xmlns="http://www.w3.org/2000/svg">
<path d="M12.1861 17.6691C12.1861 20.6229 9.79152 23.0175 6.83769 23.0175C3.88383 23.0175 1.48926 20.6229 1.48926 17.6691C1.48926 15.4759 2.80936 13.591 4.69831 12.7656" stroke="#B8BAC7" stroke-width="2.13937" stroke-linecap="round" stroke-linejoin="round"/>
<path d="M7.90667 3.76353C8.49694 3.76353 8.97544 3.28502 8.97544 2.69475C8.97544 2.10448 8.49694 1.62598 7.90667 1.62598C7.3164 1.62598 6.83789 2.10448 6.83789 2.69475C6.83789 3.28502 7.3164 3.76353 7.90667 3.76353Z" stroke="#B8BAC7" stroke-width="2.13937" stroke-linecap="round" stroke-linejoin="round"/>
<path d="M16.4647 22.4821L14.7488 16.0476C14.4991 15.1111 13.6509 14.4595 12.6817 14.4595H7.90723V6.97168L14.3253 10.1807" stroke="#B8BAC7" stroke-width="2.13937" stroke-linecap="round" stroke-linejoin="round"/>
</svg>
