<svg width="25" height="21" viewBox="0 0 25 21" fill="none" xmlns="http://www.w3.org/2000/svg">
<path d="M5.84421 7.47922H14.2691V1.48124C14.2691 1.10636 14.5788 0.856445 14.9505 0.856445C20.0302 0.918924 23.2514 2.73082 24.2426 7.91657C24.3046 8.04153 24.3046 8.16649 24.2426 8.29145C23.8709 9.85342 23.4373 11.6028 22.57 12.9774C22.3842 13.2898 22.1364 13.6022 21.8886 13.9146C23.1275 14.2894 23.9948 15.4141 23.9948 16.7886C23.9948 18.413 22.632 19.7876 21.0213 19.7876C19.3488 19.7876 17.9859 18.413 17.9859 16.7886C17.9859 16.3512 18.1098 15.9139 18.2337 15.6015H18.0479H11.7292H11.6673C11.7912 15.9139 11.8531 16.3512 11.8531 16.7886C11.8531 18.413 10.5522 19.7876 8.87964 19.7876C7.20705 19.7876 5.90616 18.413 5.90616 16.7886C5.90616 15.4141 6.71147 14.2894 7.95042 13.9146C6.46369 12.4151 5.59642 10.1658 4.85305 8.41641C4.23358 6.85443 3.67605 5.29245 3.05658 3.668H1.2601C0.888415 3.668 0.640625 3.41808 0.640625 3.04321C0.640625 2.73082 0.888415 2.41842 1.2601 2.41842H3.42826C3.67605 2.41842 3.92384 2.60586 4.04773 2.85577L5.84421 7.47922ZM15.508 7.47922H22.8798C21.9505 3.668 19.5346 2.29346 15.508 2.10603V7.47922ZM21.0213 14.9767C20.0302 14.9767 19.2249 15.7889 19.2249 16.7886C19.2249 17.7258 20.0302 18.538 21.0213 18.538C21.9505 18.538 22.7559 17.7258 22.7559 16.7886C22.7559 15.7889 21.9505 14.9767 21.0213 14.9767ZM8.87964 14.9767C7.88848 14.9767 7.14511 15.7889 7.14511 16.7886C7.14511 17.7258 7.88848 18.538 8.87964 18.538C9.87079 18.538 10.6142 17.7258 10.6142 16.7886C10.6142 15.7889 9.87079 14.9767 8.87964 14.9767ZM22.8798 8.7288H6.33979C7.33095 11.228 8.87964 14.3519 11.7292 14.3519H18.0479C19.7204 14.3519 20.7735 13.4772 21.5169 12.3526C22.1364 11.2904 22.57 9.97838 22.8798 8.7288Z" fill="#B8BAC7" stroke="#B8BAC7" stroke-width="0.459854"/>
</svg>
