<svg width="24" height="25" viewBox="0 0 24 25" fill="none" xmlns="http://www.w3.org/2000/svg">
<path fill-rule="evenodd" clip-rule="evenodd" d="M16.6723 8.10938H1.54395L9.10745 14.8757L16.6723 8.10938Z" stroke="#B8BAC7" stroke-width="2" stroke-linecap="round" stroke-linejoin="round"/>
<path d="M17.6814 9.90432C17.1208 9.90405 16.6663 10.3583 16.6661 10.9189C16.6658 11.4794 17.1201 11.934 17.6807 11.9342L17.6814 9.90432ZM20.936 2.99306L20.2163 3.70878L20.218 3.71042L20.936 2.99306ZM13.8517 3.69677L13.0082 3.1323L13.0063 3.1351L13.8517 3.69677ZM12.2208 4.93198C12.0883 5.47667 12.4225 6.02558 12.9672 6.15805C13.5119 6.29051 14.0608 5.95636 14.1932 5.4117L12.2208 4.93198ZM8.66939 22.2773C8.10884 22.2773 7.65443 22.7316 7.65443 23.2923C7.65443 23.8528 8.10884 24.3073 8.66939 24.3073V22.2773ZM14.3428 24.3073C14.9033 24.3073 15.3578 23.8528 15.3578 23.2923C15.3578 22.7316 14.9033 22.2773 14.3428 22.2773V24.3073ZM7.65443 23.2923C7.65443 23.8528 8.10884 24.3073 8.66939 24.3073C9.22992 24.3073 9.68435 23.8528 9.68435 23.2923H7.65443ZM9.68435 14.5921C9.68435 14.0314 9.22992 13.5771 8.66939 13.5771C8.10885 13.5771 7.65443 14.0314 7.65443 14.5921C7.65443 14.5921 8.89162 14.5921 9.68435 14.5921ZM8.66939 24.3073C9.22992 24.3073 9.68435 23.8528 9.68435 23.2923C9.68435 22.7316 9.22992 22.2773 8.66939 22.2773V24.3073ZM2.99739 22.2773C2.43684 22.2773 1.98242 22.7316 1.98242 23.2923C1.98242 23.8528 2.43684 24.3073 2.99739 24.3073V22.2773ZM17.6807 11.9342C18.793 11.9345 19.8791 11.6017 20.8048 10.9794L19.6725 9.29451C19.0793 9.69328 18.387 9.90446 17.6814 9.90432L17.6807 11.9342ZM20.8048 10.9794C21.7281 10.3592 22.4463 9.47486 22.8724 8.44113L20.9957 7.66751C20.7204 8.33534 20.2586 8.90076 19.6725 9.29451L20.8048 10.9794ZM22.8724 8.44113C23.741 6.32979 23.2633 3.88637 21.6541 2.2757L20.218 3.71042C21.2424 4.73573 21.556 6.30555 20.9957 7.66751L22.8724 8.44113ZM21.6557 2.27734C20.4637 1.07882 18.8077 0.477088 17.1327 0.64346L17.3334 2.66344C18.3933 2.55816 19.4493 2.93754 20.2163 3.70878L21.6557 2.27734ZM17.1327 0.64346C15.4582 0.809791 13.9497 1.72537 13.0082 3.1323L14.6952 4.26123C15.3051 3.34971 16.2731 2.76877 17.3334 2.66344L17.1327 0.64346ZM13.0063 3.1351C12.6422 3.68291 12.3766 4.2913 12.2208 4.93198L14.1932 5.4117C14.2937 4.99896 14.4644 4.60856 14.6971 4.25843L13.0063 3.1351ZM8.66939 24.3073H14.3428V22.2773H8.66939V24.3073ZM9.68435 23.2923C9.68435 23.2923 9.68435 17.9897 9.68435 14.5921C8.89162 14.5921 7.65443 14.5921 7.65443 14.5921V23.2923H9.68435ZM8.66939 22.2773H2.99739V24.3073H8.66939V22.2773Z" fill="#B8BAC7"/>
</svg>
