<svg width="14" height="27" viewBox="0 0 14 27" fill="none" xmlns="http://www.w3.org/2000/svg">
<path d="M0.988672 1.66348H6.79785C10.2882 1.66348 13.1178 4.493 13.1178 7.9834C13.1178 11.4738 10.2882 14.3033 6.79785 14.3033H0.988672V1.66348Z" stroke="#B8BAC7" stroke-width="1.7"/>
<path d="M3.33203 5.29395H7.19737C8.68271 5.29395 9.88682 6.49805 9.88682 7.9834C9.88682 9.46874 8.68271 10.6729 7.19737 10.6729H3.33203V5.29395Z" fill="#B8BAC7"/>
<mask id="path-3-inside-1_34_1247" fill="white">
<path d="M0.138672 16.2002H7.20215V26.1123H0.138672V16.2002Z"/>
</mask>
<path d="M7.20215 26.1123V27.8123H8.90215V26.1123H7.20215ZM0.138672 26.1123H-1.56133V27.8123H0.138672V26.1123ZM5.50215 16.2002V26.1123H8.90215V16.2002H5.50215ZM7.20215 24.4123H0.138672V27.8123H7.20215V24.4123ZM1.83867 26.1123V16.2002H-1.56133V26.1123H1.83867Z" fill="#B8BAC7" mask="url(#path-3-inside-1_34_1247)"/>
</svg>
