<svg width="19" height="24" viewBox="0 0 19 24" fill="none" xmlns="http://www.w3.org/2000/svg">
<path d="M17.2742 0.96582H17.177C13.9745 0.96582 11.3691 3.57115 11.3691 6.77373V13.7812C11.3691 14.8554 12.2431 15.7294 13.3174 15.7294H13.7199V22.5934C13.7199 23.0382 14.0801 23.3984 14.5249 23.3984H17.2742C17.7189 23.3984 18.0792 23.0382 18.0792 22.5934V1.77087C18.0792 1.32608 17.7189 0.96582 17.2742 0.96582ZM16.4691 21.7883H15.33V14.9243C15.33 14.4795 14.9697 14.1193 14.5249 14.1193H13.3174C13.1307 14.1193 12.9792 13.9673 12.9792 13.7812V6.77373C12.9792 4.70023 14.4902 2.9729 16.4691 2.63579V21.7883Z" fill="#B8BAC7"/>
<path d="M8.14735 0.96582C7.70257 0.96582 7.34231 1.32608 7.34231 1.77087V7.5672H5.70605V1.77087C5.70605 1.32608 5.34579 0.96582 4.901 0.96582C4.45622 0.96582 4.09596 1.32608 4.09596 1.77087V7.5672H2.4597V1.77087C2.4597 1.32608 2.09944 0.96582 1.65466 0.96582C1.20987 0.96582 0.849609 1.32608 0.849609 1.77087V8.37225V9.93957C0.849609 11.3087 1.5656 12.5399 2.71581 13.2181L2.19152 21.0633C2.14171 21.8105 2.40637 22.5526 2.91808 23.0996C3.42978 23.6465 4.15231 23.96 4.90151 23.96C5.6502 23.96 6.37323 23.6465 6.88494 23.0996C7.39665 22.5526 7.66131 21.8105 7.6115 21.0633L7.08721 13.2186C8.23742 12.5404 8.95341 11.3092 8.95341 9.94007V8.37225V1.77087C8.9524 1.32608 8.59164 0.96582 8.14735 0.96582ZM7.34231 9.93957C7.34231 10.8483 6.79588 11.6518 5.95058 11.9864C5.62504 12.1152 5.42026 12.4392 5.44391 12.7884L6.00442 21.17C6.02505 21.4784 5.91989 21.7727 5.70857 21.9987C5.49724 22.2246 5.21044 22.3489 4.901 22.3489C4.59156 22.3489 4.30477 22.2246 4.09344 21.9987C3.88212 21.7727 3.77696 21.4784 3.79759 21.1695L4.3581 12.7879C4.38125 12.4387 4.17646 12.1147 3.85143 11.9859C3.00613 11.6513 2.4597 10.8478 2.4597 9.93907V9.17729H7.34231V9.93957Z" fill="#B8BAC7"/>
</svg>
