<svg width="25" height="25" viewBox="0 0 25 25" fill="none" xmlns="http://www.w3.org/2000/svg">
<path d="M8.12111 6.2806C8.77919 5.67834 9.19637 4.8146 9.19637 3.85391C9.19637 2.0383 7.71862 0.563477 5.90594 0.563477C4.09327 0.563477 2.61551 2.04123 2.61551 3.85391C2.61551 4.8146 3.03269 5.67834 3.69078 6.2806C2.24534 6.43043 1.11719 7.65553 1.11719 9.13916V17.4857H3.19721V24.3604H8.61467V17.4857H10.6947V9.13916C10.6947 7.65553 9.56361 6.43043 8.12111 6.2806ZM3.49394 3.85391C3.49394 2.52598 4.57508 1.44484 5.903 1.44484C7.23093 1.44484 8.31207 2.52598 8.31207 3.85391C8.31207 5.18183 7.23093 6.26297 5.903 6.26297C4.57508 6.26297 3.49394 5.18183 3.49394 3.85391ZM9.81333 16.6043H7.73331V23.479H4.07858V16.6043H1.99855V9.13916C1.99855 8.0404 2.89167 7.14434 3.99338 7.14434H7.82438C8.92315 7.14434 9.81921 8.03746 9.81921 9.13916V16.6043H9.81333ZM22.3346 8.42526C22.1701 7.39112 21.415 6.59202 20.4426 6.34524C21.1418 5.74003 21.5884 4.84985 21.5884 3.85391C21.5884 2.0383 20.1106 0.563477 18.2979 0.563477C16.4853 0.563477 15.0075 2.04123 15.0075 3.85391C15.0075 4.84985 15.4541 5.74003 16.1533 6.34524C15.1808 6.59202 14.4258 7.39112 14.2613 8.42526L12.8305 17.4857H15.5892V24.3604H21.0067V17.4857H23.7653L22.3346 8.42526ZM15.8859 3.85391C15.8859 2.52598 16.9671 1.44484 18.295 1.44484C19.6229 1.44484 20.7041 2.52598 20.7041 3.85391C20.7041 5.18183 19.6229 6.26297 18.295 6.26297C16.9671 6.26297 15.8859 5.18183 15.8859 3.85391ZM20.1224 16.6043V23.479H16.4676V16.6043H13.8588L15.128 8.56334C15.2572 7.74073 15.9564 7.14728 16.7879 7.14728H19.8051C20.6365 7.14728 21.3357 7.74367 21.465 8.56334L22.7342 16.6043H20.1253H20.1224Z" fill="#B8BAC7" stroke="#B8BAC7" stroke-width="0.8"/>
</svg>
