<svg width="23" height="18" viewBox="0 0 23 18" fill="none" xmlns="http://www.w3.org/2000/svg">
<path d="M1.3457 1.54395V17.0995M1.3457 13.7662H21.3457M21.3457 17.0995V10.6551C21.3457 9.4105 21.3457 8.78817 21.1035 8.31283C20.8905 7.89472 20.5505 7.55472 20.1324 7.34172C19.657 7.0995 19.0347 7.0995 17.7901 7.0995H10.2346V13.4632M5.79015 9.32172H5.80126M6.90126 9.32172C6.90126 9.93539 6.40379 10.4328 5.79015 10.4328C5.1765 10.4328 4.67904 9.93539 4.67904 9.32172C4.67904 8.70806 5.1765 8.21061 5.79015 8.21061C6.40379 8.21061 6.90126 8.70806 6.90126 9.32172Z" stroke="#B8BAC7" stroke-width="1.8" stroke-linecap="round" stroke-linejoin="round"/>
</svg>
