<svg width="22" height="27" viewBox="0 0 22 27" fill="none" xmlns="http://www.w3.org/2000/svg">
<path d="M1.45898 5.59714V18.029C1.45898 19.5642 1.45898 20.3319 1.75776 20.9182C2.02056 21.434 2.43991 21.8534 2.9557 22.1161C3.54207 22.4149 4.30968 22.4149 5.8449 22.4149H16.2614C17.7966 22.4149 18.5643 22.4149 19.1507 22.1161C19.6664 21.8534 20.0858 21.434 20.3486 20.9182C20.6474 20.3319 20.6474 19.5642 20.6474 18.029V5.59714M1.45898 5.59714C1.45898 5.59714 1.45898 1.48535 11.0532 1.48535C20.6474 1.48535 20.6474 5.59714 20.6474 5.59714M1.45898 5.59714H20.6474M1.45898 14.1913H20.6474M17.9062 25.1561V22.4149M4.20018 25.1561V22.4149M5.57078 18.3031H5.58448M16.5356 18.3031H16.5493" stroke="#B8BAC7" stroke-width="1.8" stroke-linecap="round" stroke-linejoin="round"/>
</svg>
