<svg width="26" height="25" viewBox="0 0 26 25" fill="none" xmlns="http://www.w3.org/2000/svg">
<path fill-rule="evenodd" clip-rule="evenodd" d="M11.1863 1.19883C11.5152 1.52773 11.5152 2.061 11.1863 2.38991C10.895 2.68119 10.895 3.15346 11.1863 3.44475C12.1354 4.39385 12.1354 5.93265 11.1863 6.88175C10.8573 7.21065 10.3241 7.21065 9.99517 6.88175C9.66625 6.55285 9.66625 6.01957 9.99517 5.69067C10.2865 5.39939 10.2865 4.92711 9.99517 4.63583C9.04607 3.68672 9.04607 2.14793 9.99517 1.19883C10.3241 0.869922 10.8573 0.869922 11.1863 1.19883ZM6.13275 2.88327C6.46166 3.21217 6.46166 3.74544 6.13275 4.07435L6.00236 4.20475C5.7292 4.47791 5.69846 4.91035 5.93024 5.2194C6.66499 6.19906 6.56757 7.5699 5.70166 8.43579L5.57127 8.56619C5.24236 8.8951 4.7091 8.8951 4.38019 8.56619C4.05128 8.23729 4.05128 7.70402 4.38019 7.37511L4.51058 7.24471C4.78374 6.97155 4.81448 6.53911 4.58269 6.23006C3.84796 5.2504 3.94538 3.87956 4.81128 3.01367L4.94167 2.88327C5.27058 2.55436 5.80384 2.55436 6.13275 2.88327ZM16.8008 2.88327C17.1298 3.21217 17.1298 3.74544 16.8008 4.07435L16.6705 4.20475C16.3974 4.47791 16.3666 4.91035 16.5984 5.2194C17.3331 6.19906 17.2357 7.5699 16.3698 8.43579L16.2394 8.56619C15.9104 8.8951 15.3773 8.8951 15.0483 8.56619C14.7194 8.23729 14.7194 7.70402 15.0483 7.37511L15.1787 7.24471C15.4518 6.97155 15.4826 6.53911 15.2508 6.23006C14.5161 5.2504 14.6135 3.87956 15.4795 3.01367L15.6098 2.88327C15.9387 2.55436 16.4719 2.55436 16.8008 2.88327ZM4.57978 9.93581C4.60514 9.93582 4.63088 9.93583 4.65697 9.93583H16.5241C16.5502 9.93583 16.5759 9.93582 16.6013 9.93581C17.0086 9.93563 17.321 9.93549 17.5911 9.98351C18.3341 10.1156 18.978 10.5079 19.4327 11.0588H20.6972C23.0229 11.0588 24.9083 12.9441 24.9083 15.2699C24.9083 17.5957 23.0229 19.481 20.6972 19.481H19.1787C18.6867 20.7497 17.8322 21.8613 16.7034 22.6662C15.5113 23.516 14.0837 23.9728 12.6196 23.9728H8.56142C7.09735 23.9728 5.66976 23.516 4.47765 22.6662C2.85969 21.5126 1.80506 19.7285 1.57437 17.7549L1.12442 13.9054C1.12139 13.8794 1.11839 13.8538 1.11544 13.8287C1.06798 13.4242 1.03157 13.1139 1.04791 12.84C1.13297 11.4147 2.18414 10.2335 3.58999 9.98351C3.86011 9.93549 4.17253 9.93563 4.57978 9.93581ZM17.8542 18.0448C17.7027 18.1971 17.609 18.407 17.609 18.6388C17.609 18.7007 17.6157 18.761 17.6284 18.819C17.2577 19.8061 16.5997 20.6713 15.7256 21.2946C14.8189 21.941 13.7331 22.2884 12.6196 22.2884H8.56142C7.44791 22.2884 6.36217 21.941 5.45551 21.2946C4.22497 20.4172 3.42287 19.0605 3.24742 17.5594L2.79747 13.7098C2.73703 13.1926 2.72312 13.045 2.72937 12.9403C2.76802 12.2925 3.24583 11.7556 3.88485 11.6419C3.988 11.6236 4.13634 11.6203 4.65697 11.6203H16.5241C17.0447 11.6203 17.1931 11.6236 17.2962 11.6419C17.9353 11.7556 18.4131 12.2925 18.4517 12.9403C18.458 13.045 18.4441 13.1926 18.3837 13.7098L17.9337 17.5594C17.9145 17.723 17.888 17.885 17.8542 18.0448ZM19.6017 17.7966H20.6972C22.0926 17.7966 23.2238 16.6653 23.2238 15.2699C23.2238 13.8745 22.0926 12.7432 20.6972 12.7432H20.1258C20.1288 12.7754 20.1312 12.8076 20.1331 12.84C20.1495 13.1139 20.1131 13.4242 20.0656 13.8287C20.0627 13.8538 20.0597 13.8794 20.0566 13.9054L19.6067 17.7549C19.6051 17.7688 19.6034 17.7826 19.6017 17.7966Z" fill="#B8BAC7" stroke="#B8BAC7" stroke-width="0.5"/>
</svg>
