<svg width="23" height="19" viewBox="0 0 23 19" fill="none" xmlns="http://www.w3.org/2000/svg">
<path d="M4.3457 10.4619H7.3457M1.3457 6.46191L3.3457 7.46191L4.61634 3.64998C4.87862 2.86316 5.00975 2.46975 5.25299 2.17889C5.46778 1.92204 5.74362 1.72323 6.05521 1.60069C6.40806 1.46191 6.82275 1.46191 7.65213 1.46191H15.0393C15.8687 1.46191 16.2833 1.46191 16.6362 1.60069C16.9478 1.72323 17.2236 1.92204 17.4384 2.17889C17.6816 2.46975 17.8128 2.86316 18.0751 3.64998L19.3457 7.46191L21.3457 6.46191M15.3457 10.4619H18.3457M6.1457 7.46191H16.5457C18.2259 7.46191 19.0659 7.46191 19.7077 7.78891C20.2722 8.07651 20.7311 8.53541 21.0187 9.09991C21.3457 9.74171 21.3457 10.5817 21.3457 12.2619V14.9619C21.3457 15.4266 21.3457 15.6589 21.3073 15.8521C21.1495 16.6455 20.5293 17.2657 19.7359 17.4235C19.5427 17.4619 19.3104 17.4619 18.8457 17.4619H18.3457C17.2411 17.4619 16.3457 16.5665 16.3457 15.4619C16.3457 15.1858 16.1218 14.9619 15.8457 14.9619H6.8457C6.56956 14.9619 6.3457 15.1858 6.3457 15.4619C6.3457 16.5665 5.45027 17.4619 4.3457 17.4619H3.8457C3.38104 17.4619 3.14872 17.4619 2.95552 17.4235C2.16214 17.2657 1.54194 16.6455 1.38413 15.8521C1.3457 15.6589 1.3457 15.4266 1.3457 14.9619V12.2619C1.3457 10.5817 1.3457 9.74171 1.67268 9.09991C1.9603 8.53541 2.41924 8.07651 2.98373 7.78891C3.62546 7.46191 4.46554 7.46191 6.1457 7.46191Z" stroke="#B8BAC7" stroke-width="1.8" stroke-linecap="round" stroke-linejoin="round"/>
</svg>
