<svg width="24" height="21" viewBox="0 0 24 21" fill="none" xmlns="http://www.w3.org/2000/svg">
<path d="M5.76033 11.3565C6.55945 10.4996 7.52568 9.81552 8.5994 9.34635C9.67314 8.87735 10.8307 8.63341 12.0025 8.6293C13.1742 8.62535 14.3341 8.86139 15.4113 9.32302C16.4882 9.78464 17.4595 10.4619 18.2645 11.3133M1.99609 6.13146C3.27469 4.76032 4.82065 3.6657 6.53862 2.91518C8.25659 2.16463 10.1114 1.7742 11.9862 1.76766C13.861 1.76111 15.7163 2.13893 17.4396 2.87748C19.1627 3.61595 20.7154 4.69822 22.0036 6.06044M12.0324 18.9219C11.0849 18.9219 10.3169 18.1539 10.3169 17.2064C10.3169 16.2592 11.0849 15.491 12.0324 15.491C12.9798 15.491 13.7478 16.2592 13.7478 17.2064C13.7478 18.1539 12.9798 18.9219 12.0324 18.9219Z" stroke="#B8BAC7" stroke-width="2.5" stroke-linecap="round" stroke-linejoin="round"/>
</svg>
