<svg width="17" height="20" viewBox="0 0 17 20" fill="none" xmlns="http://www.w3.org/2000/svg">
<path fill-rule="evenodd" clip-rule="evenodd" d="M12.3869 0.794922L12.4398 1.29849C12.5724 2.55363 12.14 3.95326 11.2849 5.04342C11.272 5.05852 11.2569 5.0693 11.245 5.0844C11.3873 5.07901 11.5297 5.06823 11.6774 5.08225C12.3222 5.10921 14.0173 5.35506 15.1258 7.00809L15.4267 7.45774L14.9759 7.75751C14.5877 8.00337 13.3962 8.88865 13.4124 10.5492C13.4307 12.6519 15.1258 13.4229 15.3188 13.5038L15.7814 13.6979L15.6262 14.1766C15.4978 14.5907 15.128 15.6507 14.4055 16.729C13.7165 17.7555 12.8603 19.0344 11.4121 19.0613C10.7285 19.0786 10.2918 18.8726 9.89174 18.6969C9.5111 18.5287 9.18437 18.3842 8.64307 18.3842C8.07049 18.3842 7.72435 18.5341 7.32323 18.7087C6.94691 18.8726 6.5199 19.0581 5.92791 19.0829C5.90095 19.084 5.874 19.084 5.84919 19.084C4.44633 19.084 3.47154 17.6466 2.8224 16.6902L2.77299 16.6165C1.1497 14.1693 0.242051 10.1849 1.73979 7.53107C2.56469 6.06781 4.06568 5.14371 5.65725 5.11999C6.27727 5.11136 6.8477 5.30545 7.33941 5.49955C7.42352 4.35762 7.96698 3.29226 8.53093 2.60431C9.35043 1.59934 10.7274 0.863935 11.8812 0.816488L12.3869 0.794922ZM11.5987 6.15731C10.8967 6.08292 10.2239 6.36004 9.62541 6.60157C9.17359 6.7838 8.78433 6.94016 8.42309 6.94016C8.1147 6.94016 7.79121 6.83557 7.45478 6.70401L7.40303 6.6997L7.40087 6.68352C7.3297 6.65441 7.25854 6.62637 7.18521 6.59726C6.7129 6.40532 6.19424 6.15407 5.67559 6.19829C4.46465 6.21662 3.31626 6.93045 2.67898 8.06159C1.29876 10.5061 2.45363 14.2252 3.71524 16.0841C4.38593 17.0729 5.09762 18.0499 5.88478 18.0057C6.27512 17.9895 6.54685 17.8709 6.89299 17.721C7.33941 17.5258 7.84621 17.3059 8.64307 17.3059C9.4119 17.3059 9.89821 17.5205 10.3274 17.7102C10.6821 17.8677 10.9765 18.0003 11.3917 17.983C12.2144 17.9679 12.7891 17.2045 13.5094 16.1284C13.9817 15.4242 14.2837 14.7309 14.4551 14.2683C13.7251 13.8305 12.3535 12.7209 12.3341 10.5589C12.3179 8.84336 13.2604 7.75212 13.9116 7.20434C13.0986 6.3223 12.0505 6.17673 11.5987 6.15731ZM11.3787 1.98213C10.6498 2.17731 9.86695 2.67225 9.36661 3.2858L9.36553 3.28687C8.92235 3.82818 8.45114 4.72317 8.40261 5.64404C9.20918 5.52327 9.97693 4.9604 10.4374 4.37704C10.9938 3.66859 11.327 2.80703 11.3787 1.98213Z" fill="#1B254B" stroke="#1B254B" stroke-width="0.5"/>
</svg>
