<svg width="24" height="25" viewBox="0 0 24 25" fill="none" xmlns="http://www.w3.org/2000/svg">
<path d="M16.5988 18.4595C16.382 18.6522 16.0808 18.6643 15.8398 18.5317C14.7676 17.6403 14.5749 17.2307 13.9846 16.3753C12.2136 18.1824 10.9607 18.7245 8.65976 18.7245C5.94915 18.7245 3.82885 17.0499 3.82885 13.7008C3.82885 11.0745 5.23837 9.31566 7.27434 8.42417C9.03323 7.65315 11.4788 7.50858 13.3461 7.30378V6.90622C13.3461 6.11111 13.4063 5.20757 12.9485 4.54498C12.563 3.95466 11.804 3.70167 11.1414 3.70167C9.91263 3.70167 8.81638 4.34017 8.55134 5.64127C8.4911 5.9304 8.25016 6.21953 7.98512 6.23158L4.85286 5.89426C4.58782 5.83402 4.29869 5.62922 4.37097 5.21962C5.0938 1.42476 8.52725 0.280273 11.5992 0.280273C13.1654 0.280273 15.2134 0.701925 16.4543 1.88255C18.0204 3.3523 17.8879 5.31599 17.8879 7.44835V12.472C17.8879 13.9779 18.4902 14.6526 19.0926 15.4597C19.2974 15.7609 19.3456 16.1103 19.0926 16.3151L16.6109 18.4595H16.5988ZM13.3461 10.5927V9.91802C11.0089 9.91802 8.53929 10.3879 8.53929 13.1346C8.53929 14.5321 9.27417 15.4838 10.5029 15.4838C11.4185 15.4838 12.2257 14.9176 12.7437 14.0141C13.3702 12.8937 13.3461 11.8456 13.3461 10.5927ZM21.6948 21.411C19.0926 23.3386 15.2616 24.3746 11.9848 24.3746C7.39481 24.3746 3.25058 22.676 0.118314 19.8449C-0.122629 19.628 0.0942199 19.3269 0.419494 19.4955C3.76861 21.4592 7.94898 22.6398 12.2618 22.6398C15.1652 22.6398 18.3698 22.0375 21.3093 20.7966C21.755 20.6039 22.1044 21.0858 21.6948 21.411ZM22.7911 20.1581C22.4537 19.7244 20.5623 19.9533 19.6949 20.0617C19.466 20.0858 19.4299 19.869 19.6588 19.7003C21.1527 18.6402 23.6223 18.9534 23.9115 19.3028C24.2006 19.6642 23.8271 22.1339 22.4176 23.3024C22.2008 23.4952 21.996 23.3868 22.1044 23.1699C22.4176 22.3628 23.1284 20.5918 22.7911 20.1581Z" fill="black"/>
</svg>
