<svg width="17" height="17" viewBox="0 0 17 17" fill="none" xmlns="http://www.w3.org/2000/svg">
<path fill-rule="evenodd" clip-rule="evenodd" d="M0.664062 1.64066C0.664062 0.470842 1.90745 -0.279836 2.94264 0.265003L15.2647 6.75033C16.3721 7.33313 16.3721 8.91877 15.2647 9.50165L2.94265 15.9869C1.90746 16.5318 0.664062 15.7811 0.664062 14.6113V1.64066ZM14.5407 8.12595L11.7544 6.65946L10.1657 8.12595L11.7544 9.59244L14.5407 8.12595ZM10.2948 10.3607L9.01978 9.18374L4.3622 13.4831L10.2948 10.3607ZM9.01978 7.06815L10.2948 5.89126L4.3622 2.76886L9.01978 7.06815ZM2.21862 2.90577L7.87385 8.12595L2.21862 13.3461V2.90577Z" fill="#1B254B"/>
</svg>
