<svg width="42" height="51" viewBox="0 0 42 51" fill="none" xmlns="http://www.w3.org/2000/svg">
<g clip-path="url(#clip0_51_207)">
<path d="M41.1772 43.5398H39.1862V20.5705C40.3111 20.2261 41.1366 18.9407 41.1366 17.4167V7.14522C41.1366 6.30109 40.5715 5.61438 39.877 5.61438H2.17091C1.47636 5.61438 0.911335 6.30109 0.911335 7.14522V17.4167C0.911335 18.9408 1.73681 20.2261 2.86165 20.5705V43.5398H0.870703C0.534112 43.5398 0.26123 43.8715 0.26123 44.2806C0.26123 44.6896 0.534112 45.0213 0.870703 45.0213H41.1772C41.5138 45.0213 41.7867 44.6896 41.7867 44.2806C41.7867 43.8715 41.5138 43.5398 41.1772 43.5398ZM39.9176 7.14522V17.4167C39.9176 18.3434 39.3488 19.1336 38.6497 19.1781C38.2763 19.2013 37.9233 19.0437 37.6539 18.7331C37.3844 18.4222 37.2358 18.0023 37.2358 17.5508V7.09584H39.8769C39.8994 7.09584 39.9176 7.11797 39.9176 7.14522ZM6.03091 7.09584H8.71259V17.5508C8.71259 18.4494 8.11108 19.1804 7.37175 19.1804C6.63242 19.1804 6.03091 18.4494 6.03091 17.5508V7.09584ZM9.93154 7.09584H12.6132V17.5508C12.6132 18.4494 12.0117 19.1804 11.2724 19.1804C10.533 19.1804 9.93154 18.4494 9.93154 17.5508V7.09584ZM13.8322 7.09584H16.5138V17.5508C16.5138 18.4494 15.9123 19.1804 15.173 19.1804C14.4337 19.1804 13.8322 18.4494 13.8322 17.5508V7.09584ZM17.7328 7.09584H20.4145V17.5508C20.4145 18.4494 19.813 19.1804 19.0736 19.1804C18.3343 19.1804 17.7328 18.4494 17.7328 17.5508V7.09584ZM21.6334 7.09584H24.3151V17.5508C24.3151 18.4494 23.7136 19.1804 22.9743 19.1804C22.2349 19.1804 21.6334 18.4494 21.6334 17.5508V7.09584ZM25.534 7.09584H28.2157V17.5508C28.2157 18.4494 27.6142 19.1804 26.8749 19.1804C26.1356 19.1804 25.534 18.4494 25.534 17.5508V7.09584ZM29.4347 7.09584H32.1164V17.5508C32.1164 18.4494 31.5148 19.1804 30.7755 19.1804C30.0362 19.1804 29.4347 18.4494 29.4347 17.5508V7.09584ZM33.3353 7.09584H36.017V17.5508C36.017 18.4494 35.4155 19.1804 34.6761 19.1804C33.9368 19.1804 33.3353 18.4494 33.3353 17.5508V7.09584ZM2.13028 17.4167V7.14522C2.13028 7.11797 2.14848 7.09584 2.17091 7.09584H4.81196V17.5508C4.81196 18.0023 4.66349 18.4222 4.39386 18.7331C4.12456 19.0438 3.77114 19.2016 3.39807 19.1781C2.69904 19.1336 2.13028 18.3434 2.13028 17.4167ZM4.08059 20.5734C4.50853 20.4471 4.90363 20.1875 5.23299 19.8077C5.29978 19.7306 5.36293 19.6494 5.422 19.5645C5.89187 20.2354 6.59162 20.6618 7.37175 20.6618C8.1522 20.6618 8.8522 20.2351 9.32206 19.5636C9.79193 20.2351 10.4919 20.6618 11.2724 20.6618C12.0528 20.6618 12.7528 20.2351 13.2227 19.5636C13.6926 20.2351 14.3926 20.6618 15.173 20.6618C15.9535 20.6618 16.6535 20.2351 17.1233 19.5636C17.5932 20.2351 18.2932 20.6618 19.0736 20.6618C19.8541 20.6618 20.5541 20.2351 21.0239 19.5636C21.4938 20.2351 22.1938 20.6618 22.9743 20.6618C23.7547 20.6618 24.4547 20.2351 24.9246 19.5636C25.3944 20.2351 26.0944 20.6618 26.8749 20.6618C27.6553 20.6618 28.3553 20.2351 28.8252 19.5636C29.2951 20.2351 29.9951 20.6618 30.7755 20.6618C31.556 20.6618 32.256 20.2351 32.7258 19.5636C33.1957 20.2351 33.8957 20.6618 34.6761 20.6618C35.4563 20.6618 36.1559 20.2354 36.6259 19.5645C36.685 19.6494 36.7481 19.7306 36.8149 19.8077C37.1443 20.1876 37.5393 20.4479 37.9673 20.5742V43.5398H35.2856V26.108C35.2856 25.2638 34.7206 24.5771 34.026 24.5771H26.2248C25.5302 24.5771 24.9652 25.2638 24.9652 26.108V43.5398H4.08059V20.5734ZM34.0667 43.5398H26.1841V26.108C26.1841 26.0807 26.2024 26.0586 26.2248 26.0586H34.026C34.0485 26.0586 34.0667 26.0807 34.0667 26.108V43.5398Z" fill="black"/>
<path d="M28.1749 33.2677C27.8383 33.2677 27.5654 33.5994 27.5654 34.0084V35.5887C27.5654 35.9977 27.8383 36.3294 28.1749 36.3294C28.5115 36.3294 28.7844 35.9977 28.7844 35.5887V34.0084C28.7844 33.5994 28.5115 33.2677 28.1749 33.2677Z" fill="black"/>
<path d="M21.5927 24.5779H7.45294C7.07206 24.5779 6.76221 24.9545 6.76221 25.4174V39.4419C6.76221 39.9048 7.07206 40.2814 7.45294 40.2814H21.5927C21.9736 40.2814 22.2835 39.9048 22.2835 39.4419V25.4174C22.2835 24.9545 21.9736 24.5779 21.5927 24.5779ZM21.0645 38.7999H7.98115V26.0593H21.0645V38.7999Z" fill="black"/>
<ellipse cx="21.0238" cy="5.85834" rx="6.60632" ry="4.33673" fill="#5D5FEF"/>
</g>
<defs>
<clipPath id="clip0_51_207">
<rect width="41.5254" height="50" fill="white" transform="translate(0.26123 0.501953)"/>
</clipPath>
</defs>
</svg>
