<svg width="308" height="680" viewBox="0 0 308 680" fill="none" xmlns="http://www.w3.org/2000/svg">
<path d="M0 34.8315C0 15.5946 15.5946 0 34.8315 0H274.91C293.185 0 308 14.8148 308 33.0899V644.635C308 663.872 292.405 679.467 273.169 679.467H34.8315C15.5946 679.467 0 663.872 0 644.635V34.8315Z" fill="#1A1C27"/>
<rect x="85.541" y="171.252" width="132.533" height="132.533" rx="17.4157" fill="#2D3242"/>
<rect x="87.2826" y="172.994" width="129.05" height="129.05" rx="15.6742" stroke="#B8BAC7" stroke-opacity="0.3" stroke-width="3.48315" stroke-dasharray="10.45 10.45"/>
<path d="M136.365 222.074H140.831V226.54H136.365V222.074ZM127.433 213.143H149.763V235.472H127.433V213.143ZM131.899 217.609V231.006H145.297V217.609H131.899ZM136.365 248.87H140.831V253.336H136.365V248.87ZM127.433 239.938H149.763V262.268H127.433V239.938ZM131.899 244.404V257.802H145.297V244.404H131.899ZM154.229 239.938H163.161V244.404H167.627V239.938H176.559V244.404H167.627V248.87H176.559V262.268H167.627V257.802H158.695V262.268H154.229V257.802H158.695V253.336H154.229V239.938ZM172.093 257.802V253.336H167.627V257.802H172.093ZM167.627 248.87H163.161V244.404H158.695V253.336H167.627V248.87ZM175.889 218.39L173.656 220.623L169.078 216.157L171.311 213.924C171.758 213.455 172.517 213.433 173.03 213.924L175.889 216.671C176.358 217.117 176.38 217.876 175.889 218.39ZM154.229 230.872L167.783 217.341L172.361 221.918L158.829 235.472H154.229V230.872Z" fill="white"/>
<path d="M42.8627 350.241C41.6147 350.241 40.5347 349.971 39.6227 349.431C38.7227 348.879 38.0267 348.117 37.5347 347.145C37.0547 346.161 36.8147 345.027 36.8147 343.743C36.8147 342.447 37.0547 341.313 37.5347 340.341C38.0267 339.357 38.7227 338.589 39.6227 338.037C40.5347 337.485 41.6147 337.209 42.8627 337.209C44.3627 337.209 45.5867 337.581 46.5347 338.325C47.4827 339.057 48.0827 340.095 48.3347 341.439H45.9587C45.7907 340.731 45.4487 340.173 44.9327 339.765C44.4167 339.357 43.7207 339.153 42.8447 339.153C42.0527 339.153 41.3687 339.339 40.7927 339.711C40.2287 340.071 39.7907 340.599 39.4787 341.295C39.1787 341.979 39.0287 342.795 39.0287 343.743C39.0287 344.691 39.1787 345.507 39.4787 346.191C39.7907 346.863 40.2287 347.385 40.7927 347.757C41.3687 348.117 42.0527 348.297 42.8447 348.297C43.7207 348.297 44.4167 348.111 44.9327 347.739C45.4487 347.355 45.7907 346.827 45.9587 346.155H48.3347C48.0947 347.427 47.4947 348.429 46.5347 349.161C45.5867 349.881 44.3627 350.241 42.8627 350.241ZM54.6063 350.241C53.7423 350.241 52.9623 350.043 52.2663 349.647C51.5823 349.239 51.0423 348.681 50.6463 347.973C50.2623 347.253 50.0703 346.431 50.0703 345.507C50.0703 344.559 50.2683 343.731 50.6643 343.023C51.0603 342.303 51.6003 341.745 52.2843 341.349C52.9803 340.941 53.7603 340.737 54.6243 340.737C55.4883 340.737 56.2623 340.941 56.9463 341.349C57.6423 341.745 58.1823 342.297 58.5663 343.005C58.9623 343.713 59.1603 344.541 59.1603 345.489C59.1603 346.437 58.9623 347.265 58.5663 347.973C58.1703 348.681 57.6243 349.239 56.9283 349.647C56.2443 350.043 55.4703 350.241 54.6063 350.241ZM54.6063 348.387C55.0383 348.387 55.4283 348.279 55.7763 348.063C56.1363 347.847 56.4243 347.523 56.6403 347.091C56.8563 346.659 56.9643 346.125 56.9643 345.489C56.9643 344.853 56.8563 344.325 56.6403 343.905C56.4363 343.473 56.1543 343.149 55.7943 342.933C55.4463 342.717 55.0563 342.609 54.6243 342.609C54.2043 342.609 53.8143 342.717 53.4543 342.933C53.0943 343.149 52.8063 343.473 52.5903 343.905C52.3743 344.325 52.2663 344.853 52.2663 345.489C52.2663 346.125 52.3743 346.659 52.5903 347.091C52.8063 347.523 53.0883 347.847 53.4363 348.063C53.7963 348.279 54.1863 348.387 54.6063 348.387ZM61.2747 350.025V340.953H63.1827L63.3627 342.195C63.6507 341.739 64.0287 341.385 64.4967 341.133C64.9767 340.869 65.5227 340.737 66.1347 340.737C66.5907 340.737 66.9987 340.797 67.3587 340.917C67.7307 341.037 68.0547 341.217 68.3307 341.457C68.6187 341.697 68.8527 341.997 69.0327 342.357C69.3687 341.853 69.8067 341.457 70.3467 341.169C70.8867 340.881 71.4747 340.737 72.1107 340.737C72.8667 340.737 73.5087 340.893 74.0367 341.205C74.5647 341.505 74.9667 341.955 75.2427 342.555C75.5187 343.143 75.6567 343.869 75.6567 344.733V350.025H73.5147V344.949C73.5147 344.181 73.3587 343.593 73.0467 343.185C72.7347 342.777 72.2727 342.573 71.6607 342.573C71.2407 342.573 70.8687 342.675 70.5447 342.879C70.2327 343.083 69.9867 343.383 69.8067 343.779C69.6267 344.163 69.5367 344.637 69.5367 345.201V350.025H67.3947V344.949C67.3947 344.181 67.2387 343.593 66.9267 343.185C66.6147 342.777 66.1467 342.573 65.5227 342.573C65.1267 342.573 64.7667 342.675 64.4427 342.879C64.1307 343.083 63.8847 343.383 63.7047 343.779C63.5247 344.163 63.4347 344.637 63.4347 345.201V350.025H61.2747ZM77.9388 353.985V340.953H79.8648L80.0988 342.267C80.2908 342.003 80.5188 341.757 80.7828 341.529C81.0588 341.289 81.3888 341.097 81.7728 340.953C82.1688 340.809 82.6188 340.737 83.1228 340.737C83.9748 340.737 84.7248 340.947 85.3728 341.367C86.0328 341.787 86.5488 342.357 86.9208 343.077C87.2928 343.785 87.4788 344.595 87.4788 345.507C87.4788 346.419 87.2868 347.235 86.9028 347.955C86.5308 348.663 86.0148 349.221 85.3548 349.629C84.7068 350.037 83.9628 350.241 83.1228 350.241C82.4388 350.241 81.8388 350.115 81.3228 349.863C80.8188 349.599 80.4108 349.227 80.0988 348.747V353.985H77.9388ZM82.6728 348.369C83.1768 348.369 83.6268 348.249 84.0228 348.009C84.4188 347.769 84.7248 347.433 84.9408 347.001C85.1688 346.569 85.2828 346.071 85.2828 345.507C85.2828 344.931 85.1688 344.427 84.9408 343.995C84.7248 343.563 84.4188 343.227 84.0228 342.987C83.6268 342.747 83.1768 342.627 82.6728 342.627C82.1568 342.627 81.7008 342.747 81.3048 342.987C80.9208 343.227 80.6148 343.563 80.3868 343.995C80.1708 344.427 80.0628 344.925 80.0628 345.489C80.0628 346.065 80.1708 346.569 80.3868 347.001C80.6148 347.421 80.9208 347.757 81.3048 348.009C81.7008 348.249 82.1568 348.369 82.6728 348.369ZM89.5755 350.025V337.065H91.7355V350.025H89.5755ZM98.3938 350.241C97.4938 350.241 96.7018 350.049 96.0178 349.665C95.3338 349.269 94.7998 348.717 94.4158 348.009C94.0318 347.301 93.8398 346.485 93.8398 345.561C93.8398 344.601 94.0258 343.761 94.3978 343.041C94.7818 342.321 95.3158 341.757 95.9998 341.349C96.6958 340.941 97.4998 340.737 98.4118 340.737C99.2998 340.737 100.074 340.935 100.734 341.331C101.394 341.727 101.904 342.261 102.264 342.933C102.624 343.593 102.804 344.337 102.804 345.165C102.804 345.285 102.804 345.417 102.804 345.561C102.804 345.705 102.792 345.855 102.768 346.011H95.3878V344.625H100.626C100.602 343.965 100.38 343.449 99.9598 343.077C99.5398 342.693 99.0178 342.501 98.3938 342.501C97.9498 342.501 97.5418 342.603 97.1698 342.807C96.7978 343.011 96.5038 343.317 96.2878 343.725C96.0718 344.121 95.9638 344.625 95.9638 345.237V345.759C95.9638 346.323 96.0658 346.809 96.2698 347.217C96.4858 347.625 96.7738 347.937 97.1338 348.153C97.5058 348.357 97.9198 348.459 98.3758 348.459C98.8798 348.459 99.2938 348.351 99.6178 348.135C99.9538 347.919 100.2 347.631 100.356 347.271H102.552C102.384 347.835 102.108 348.345 101.724 348.801C101.34 349.245 100.866 349.599 100.302 349.863C99.7378 350.115 99.1018 350.241 98.3938 350.241ZM108.564 350.025C107.952 350.025 107.418 349.929 106.962 349.737C106.518 349.545 106.17 349.227 105.918 348.783C105.666 348.339 105.54 347.739 105.54 346.983V342.771H103.992V340.953H105.54L105.792 338.559H107.7V340.953H110.166V342.771H107.7V346.983C107.7 347.439 107.796 347.757 107.988 347.937C108.192 348.105 108.528 348.189 108.996 348.189H110.112V350.025H108.564ZM116.218 350.241C115.318 350.241 114.526 350.049 113.842 349.665C113.158 349.269 112.624 348.717 112.24 348.009C111.856 347.301 111.664 346.485 111.664 345.561C111.664 344.601 111.85 343.761 112.222 343.041C112.606 342.321 113.14 341.757 113.824 341.349C114.52 340.941 115.324 340.737 116.236 340.737C117.124 340.737 117.898 340.935 118.558 341.331C119.218 341.727 119.728 342.261 120.088 342.933C120.448 343.593 120.628 344.337 120.628 345.165C120.628 345.285 120.628 345.417 120.628 345.561C120.628 345.705 120.616 345.855 120.592 346.011H113.212V344.625H118.45C118.426 343.965 118.204 343.449 117.784 343.077C117.364 342.693 116.842 342.501 116.218 342.501C115.774 342.501 115.366 342.603 114.994 342.807C114.622 343.011 114.328 343.317 114.112 343.725C113.896 344.121 113.788 344.625 113.788 345.237V345.759C113.788 346.323 113.89 346.809 114.094 347.217C114.31 347.625 114.598 347.937 114.958 348.153C115.33 348.357 115.744 348.459 116.2 348.459C116.704 348.459 117.118 348.351 117.442 348.135C117.778 347.919 118.024 347.631 118.18 347.271H120.376C120.208 347.835 119.932 348.345 119.548 348.801C119.164 349.245 118.69 349.599 118.126 349.863C117.562 350.115 116.926 350.241 116.218 350.241ZM130.959 350.025C130.347 350.025 129.813 349.929 129.357 349.737C128.913 349.545 128.565 349.227 128.313 348.783C128.061 348.339 127.935 347.739 127.935 346.983V342.771H126.387V340.953H127.935L128.187 338.559H130.095V340.953H132.561V342.771H130.095V346.983C130.095 347.439 130.191 347.757 130.383 347.937C130.587 348.105 130.923 348.189 131.391 348.189H132.507V350.025H130.959ZM134.593 350.025V337.065H136.753V342.357C137.053 341.865 137.461 341.475 137.977 341.187C138.493 340.887 139.075 340.737 139.723 340.737C140.467 340.737 141.097 340.893 141.613 341.205C142.129 341.505 142.519 341.955 142.783 342.555C143.059 343.143 143.197 343.881 143.197 344.769V350.025H141.055V344.967C141.055 344.187 140.887 343.593 140.551 343.185C140.227 342.777 139.729 342.573 139.057 342.573C138.625 342.573 138.235 342.681 137.887 342.897C137.539 343.101 137.263 343.401 137.059 343.797C136.855 344.181 136.753 344.655 136.753 345.219V350.025H134.593ZM149.74 350.241C148.84 350.241 148.048 350.049 147.364 349.665C146.68 349.269 146.146 348.717 145.762 348.009C145.378 347.301 145.186 346.485 145.186 345.561C145.186 344.601 145.372 343.761 145.744 343.041C146.128 342.321 146.662 341.757 147.346 341.349C148.042 340.941 148.846 340.737 149.758 340.737C150.646 340.737 151.42 340.935 152.08 341.331C152.74 341.727 153.25 342.261 153.61 342.933C153.97 343.593 154.15 344.337 154.15 345.165C154.15 345.285 154.15 345.417 154.15 345.561C154.15 345.705 154.138 345.855 154.114 346.011H146.734V344.625H151.972C151.948 343.965 151.726 343.449 151.306 343.077C150.886 342.693 150.364 342.501 149.74 342.501C149.296 342.501 148.888 342.603 148.516 342.807C148.144 343.011 147.85 343.317 147.634 343.725C147.418 344.121 147.31 344.625 147.31 345.237V345.759C147.31 346.323 147.412 346.809 147.616 347.217C147.832 347.625 148.12 347.937 148.48 348.153C148.852 348.357 149.266 348.459 149.722 348.459C150.226 348.459 150.64 348.351 150.964 348.135C151.3 347.919 151.546 347.631 151.702 347.271H153.898C153.73 347.835 153.454 348.345 153.07 348.801C152.686 349.245 152.212 349.599 151.648 349.863C151.084 350.115 150.448 350.241 149.74 350.241ZM164.57 350.241C163.73 350.241 162.98 350.037 162.32 349.629C161.66 349.221 161.144 348.657 160.772 347.937C160.412 347.217 160.232 346.401 160.232 345.489C160.232 344.577 160.418 343.767 160.79 343.059C161.162 342.339 161.678 341.775 162.338 341.367C163.01 340.947 163.766 340.737 164.606 340.737C165.29 340.737 165.884 340.869 166.388 341.133C166.904 341.385 167.312 341.745 167.612 342.213V337.065H169.772V350.025H167.828L167.612 348.711C167.42 348.975 167.186 349.227 166.91 349.467C166.634 349.695 166.304 349.881 165.92 350.025C165.536 350.169 165.086 350.241 164.57 350.241ZM165.02 348.369C165.536 348.369 165.992 348.249 166.388 348.009C166.784 347.757 167.09 347.415 167.306 346.983C167.522 346.551 167.63 346.053 167.63 345.489C167.63 344.925 167.522 344.427 167.306 343.995C167.09 343.563 166.784 343.227 166.388 342.987C165.992 342.747 165.536 342.627 165.02 342.627C164.528 342.627 164.084 342.747 163.688 342.987C163.292 343.227 162.98 343.563 162.752 343.995C162.536 344.427 162.428 344.925 162.428 345.489C162.428 346.053 162.536 346.551 162.752 346.983C162.98 347.415 163.292 347.757 163.688 348.009C164.084 348.249 164.528 348.369 165.02 348.369ZM175.199 350.241C174.455 350.241 173.837 350.115 173.345 349.863C172.853 349.611 172.487 349.275 172.247 348.855C172.007 348.435 171.887 347.979 171.887 347.487C171.887 346.911 172.031 346.413 172.319 345.993C172.619 345.573 173.057 345.249 173.633 345.021C174.209 344.781 174.917 344.661 175.757 344.661H178.043C178.043 344.181 177.977 343.785 177.845 343.473C177.713 343.149 177.509 342.909 177.233 342.753C176.957 342.597 176.603 342.519 176.171 342.519C175.679 342.519 175.259 342.633 174.911 342.861C174.563 343.077 174.347 343.413 174.263 343.869H172.139C172.211 343.221 172.427 342.669 172.787 342.213C173.147 341.745 173.621 341.385 174.209 341.133C174.809 340.869 175.463 340.737 176.171 340.737C177.023 340.737 177.749 340.887 178.349 341.187C178.949 341.475 179.405 341.895 179.717 342.447C180.041 342.987 180.203 343.641 180.203 344.409V350.025H178.367L178.151 348.567C178.031 348.807 177.875 349.029 177.683 349.233C177.503 349.437 177.293 349.617 177.053 349.773C176.813 349.917 176.537 350.031 176.225 350.115C175.925 350.199 175.583 350.241 175.199 350.241ZM175.685 348.531C176.033 348.531 176.339 348.471 176.603 348.351C176.879 348.219 177.113 348.039 177.305 347.811C177.509 347.571 177.665 347.307 177.773 347.019C177.881 346.731 177.953 346.425 177.989 346.101V346.065H175.991C175.571 346.065 175.223 346.119 174.947 346.227C174.671 346.335 174.473 346.485 174.353 346.677C174.233 346.857 174.173 347.073 174.173 347.325C174.173 347.577 174.233 347.793 174.353 347.973C174.473 348.153 174.647 348.291 174.875 348.387C175.103 348.483 175.373 348.531 175.685 348.531ZM186.312 350.025C185.7 350.025 185.166 349.929 184.71 349.737C184.266 349.545 183.918 349.227 183.666 348.783C183.414 348.339 183.288 347.739 183.288 346.983V342.771H181.74V340.953H183.288L183.54 338.559H185.448V340.953H187.914V342.771H185.448V346.983C185.448 347.439 185.544 347.757 185.736 347.937C185.94 348.105 186.276 348.189 186.744 348.189H187.86V350.025H186.312ZM192.971 350.241C192.227 350.241 191.609 350.115 191.117 349.863C190.625 349.611 190.259 349.275 190.019 348.855C189.779 348.435 189.659 347.979 189.659 347.487C189.659 346.911 189.803 346.413 190.091 345.993C190.391 345.573 190.829 345.249 191.405 345.021C191.981 344.781 192.689 344.661 193.529 344.661H195.815C195.815 344.181 195.749 343.785 195.617 343.473C195.485 343.149 195.281 342.909 195.005 342.753C194.729 342.597 194.375 342.519 193.943 342.519C193.451 342.519 193.031 342.633 192.683 342.861C192.335 343.077 192.119 343.413 192.035 343.869H189.911C189.983 343.221 190.199 342.669 190.559 342.213C190.919 341.745 191.393 341.385 191.981 341.133C192.581 340.869 193.235 340.737 193.943 340.737C194.795 340.737 195.521 340.887 196.121 341.187C196.721 341.475 197.177 341.895 197.489 342.447C197.813 342.987 197.975 343.641 197.975 344.409V350.025H196.139L195.923 348.567C195.803 348.807 195.647 349.029 195.455 349.233C195.275 349.437 195.065 349.617 194.825 349.773C194.585 349.917 194.309 350.031 193.997 350.115C193.697 350.199 193.355 350.241 192.971 350.241ZM193.457 348.531C193.805 348.531 194.111 348.471 194.375 348.351C194.651 348.219 194.885 348.039 195.077 347.811C195.281 347.571 195.437 347.307 195.545 347.019C195.653 346.731 195.725 346.425 195.761 346.101V346.065H193.763C193.343 346.065 192.995 346.119 192.719 346.227C192.443 346.335 192.245 346.485 192.125 346.677C192.005 346.857 191.945 347.073 191.945 347.325C191.945 347.577 192.005 347.793 192.125 347.973C192.245 348.153 192.419 348.291 192.647 348.387C192.875 348.483 193.145 348.531 193.457 348.531ZM207.701 350.241C206.957 350.241 206.339 350.115 205.847 349.863C205.355 349.611 204.989 349.275 204.749 348.855C204.509 348.435 204.389 347.979 204.389 347.487C204.389 346.911 204.533 346.413 204.821 345.993C205.121 345.573 205.559 345.249 206.135 345.021C206.711 344.781 207.419 344.661 208.259 344.661H210.545C210.545 344.181 210.479 343.785 210.347 343.473C210.215 343.149 210.011 342.909 209.735 342.753C209.459 342.597 209.105 342.519 208.673 342.519C208.181 342.519 207.761 342.633 207.413 342.861C207.065 343.077 206.849 343.413 206.765 343.869H204.641C204.713 343.221 204.929 342.669 205.289 342.213C205.649 341.745 206.123 341.385 206.711 341.133C207.311 340.869 207.965 340.737 208.673 340.737C209.525 340.737 210.251 340.887 210.851 341.187C211.451 341.475 211.907 341.895 212.219 342.447C212.543 342.987 212.705 343.641 212.705 344.409V350.025H210.869L210.653 348.567C210.533 348.807 210.377 349.029 210.185 349.233C210.005 349.437 209.795 349.617 209.555 349.773C209.315 349.917 209.039 350.031 208.727 350.115C208.427 350.199 208.085 350.241 207.701 350.241ZM208.187 348.531C208.535 348.531 208.841 348.471 209.105 348.351C209.381 348.219 209.615 348.039 209.807 347.811C210.011 347.571 210.167 347.307 210.275 347.019C210.383 346.731 210.455 346.425 210.491 346.101V346.065H208.493C208.073 346.065 207.725 346.119 207.449 346.227C207.173 346.335 206.975 346.485 206.855 346.677C206.735 346.857 206.675 347.073 206.675 347.325C206.675 347.577 206.735 347.793 206.855 347.973C206.975 348.153 207.149 348.291 207.377 348.387C207.605 348.483 207.875 348.531 208.187 348.531ZM215.013 350.025V340.953H216.921L217.083 342.465C217.359 341.937 217.755 341.517 218.271 341.205C218.787 340.893 219.399 340.737 220.107 340.737C220.839 340.737 221.463 340.893 221.979 341.205C222.495 341.505 222.891 341.949 223.167 342.537C223.455 343.125 223.599 343.857 223.599 344.733V350.025H221.439V344.931C221.439 344.175 221.271 343.593 220.935 343.185C220.599 342.777 220.101 342.573 219.441 342.573C219.009 342.573 218.619 342.675 218.271 342.879C217.935 343.083 217.665 343.383 217.461 343.779C217.269 344.163 217.173 344.631 217.173 345.183V350.025H215.013ZM229.908 350.241C229.068 350.241 228.318 350.037 227.658 349.629C226.998 349.221 226.482 348.657 226.11 347.937C225.75 347.217 225.57 346.401 225.57 345.489C225.57 344.577 225.756 343.767 226.128 343.059C226.5 342.339 227.016 341.775 227.676 341.367C228.348 340.947 229.104 340.737 229.944 340.737C230.628 340.737 231.222 340.869 231.726 341.133C232.242 341.385 232.65 341.745 232.95 342.213V337.065H235.11V350.025H233.166L232.95 348.711C232.758 348.975 232.524 349.227 232.248 349.467C231.972 349.695 231.642 349.881 231.258 350.025C230.874 350.169 230.424 350.241 229.908 350.241ZM230.358 348.369C230.874 348.369 231.33 348.249 231.726 348.009C232.122 347.757 232.428 347.415 232.644 346.983C232.86 346.551 232.968 346.053 232.968 345.489C232.968 344.925 232.86 344.427 232.644 343.995C232.428 343.563 232.122 343.227 231.726 342.987C231.33 342.747 230.874 342.627 230.358 342.627C229.866 342.627 229.422 342.747 229.026 342.987C228.63 343.227 228.318 343.563 228.09 343.995C227.874 344.427 227.766 344.925 227.766 345.489C227.766 346.053 227.874 346.551 228.09 346.983C228.318 347.415 228.63 347.757 229.026 348.009C229.422 348.249 229.866 348.369 230.358 348.369ZM243.006 353.985L245.22 349.017H244.68L241.062 340.953H243.42L246.12 347.109L248.676 340.953H250.962L245.292 353.985H243.006ZM255.964 350.241C255.1 350.241 254.32 350.043 253.624 349.647C252.94 349.239 252.4 348.681 252.004 347.973C251.62 347.253 251.428 346.431 251.428 345.507C251.428 344.559 251.626 343.731 252.022 343.023C252.418 342.303 252.958 341.745 253.642 341.349C254.338 340.941 255.118 340.737 255.982 340.737C256.846 340.737 257.62 340.941 258.304 341.349C259 341.745 259.54 342.297 259.924 343.005C260.32 343.713 260.518 344.541 260.518 345.489C260.518 346.437 260.32 347.265 259.924 347.973C259.528 348.681 258.982 349.239 258.286 349.647C257.602 350.043 256.828 350.241 255.964 350.241ZM255.964 348.387C256.396 348.387 256.786 348.279 257.134 348.063C257.494 347.847 257.782 347.523 257.998 347.091C258.214 346.659 258.322 346.125 258.322 345.489C258.322 344.853 258.214 344.325 257.998 343.905C257.794 343.473 257.512 343.149 257.152 342.933C256.804 342.717 256.414 342.609 255.982 342.609C255.562 342.609 255.172 342.717 254.812 342.933C254.452 343.149 254.164 343.473 253.948 343.905C253.732 344.325 253.624 344.853 253.624 345.489C253.624 346.125 253.732 346.659 253.948 347.091C254.164 347.523 254.446 347.847 254.794 348.063C255.154 348.279 255.544 348.387 255.964 348.387ZM265.998 350.241C265.266 350.241 264.636 350.097 264.108 349.809C263.592 349.509 263.196 349.065 262.92 348.477C262.644 347.877 262.506 347.139 262.506 346.263V340.953H264.666V346.047C264.666 346.827 264.828 347.421 265.152 347.829C265.488 348.225 265.992 348.423 266.664 348.423C267.096 348.423 267.48 348.321 267.816 348.117C268.164 347.913 268.434 347.619 268.626 347.235C268.83 346.839 268.932 346.359 268.932 345.795V340.953H271.092V350.025H269.184L269.022 348.513C268.746 349.041 268.344 349.461 267.816 349.773C267.3 350.085 266.694 350.241 265.998 350.241ZM39.5728 373.025L36.9088 363.953H39.0508L40.9048 371.405L40.5088 371.387L42.5788 363.953H44.9908L47.0788 371.387H46.6828L48.5368 363.953H50.6788L48.0148 373.025H45.7828L43.5688 365.339H44.0188L41.8048 373.025H39.5728ZM52.312 373.025V363.953H54.472V373.025H52.312ZM53.392 362.513C52.996 362.513 52.666 362.393 52.402 362.153C52.15 361.901 52.024 361.595 52.024 361.235C52.024 360.863 52.15 360.563 52.402 360.335C52.666 360.095 52.996 359.975 53.392 359.975C53.788 359.975 54.112 360.095 54.364 360.335C54.628 360.563 54.76 360.863 54.76 361.235C54.76 361.595 54.628 361.901 54.364 362.153C54.112 362.393 53.788 362.513 53.392 362.513ZM56.9681 373.025V360.065H59.1281V373.025H56.9681ZM61.5384 373.025V360.065H63.6984V373.025H61.5384ZM75.6872 373.241C75.2072 373.241 74.7752 373.175 74.3912 373.043C74.0072 372.923 73.6712 372.755 73.3832 372.539C73.0952 372.311 72.8552 372.053 72.6632 371.765L72.4292 373.025H70.5032V360.065H72.6632V365.285C72.9512 364.841 73.3412 364.475 73.8332 364.187C74.3252 363.887 74.9372 363.737 75.6692 363.737C76.5212 363.737 77.2712 363.947 77.9192 364.367C78.5792 364.775 79.0952 365.339 79.4672 366.059C79.8512 366.767 80.0432 367.583 80.0432 368.507C80.0432 369.407 79.8572 370.217 79.4852 370.937C79.1132 371.657 78.5972 372.221 77.9372 372.629C77.2892 373.037 76.5392 373.241 75.6872 373.241ZM75.2372 371.369C75.7412 371.369 76.1912 371.249 76.5872 371.009C76.9832 370.757 77.2892 370.421 77.5052 370.001C77.7332 369.569 77.8472 369.065 77.8472 368.489C77.8472 367.925 77.7332 367.427 77.5052 366.995C77.2892 366.563 76.9832 366.227 76.5872 365.987C76.1912 365.747 75.7412 365.627 75.2372 365.627C74.7212 365.627 74.2652 365.747 73.8692 365.987C73.4852 366.227 73.1792 366.563 72.9512 366.995C72.7352 367.427 72.6272 367.925 72.6272 368.489C72.6272 369.065 72.7352 369.569 72.9512 370.001C73.1792 370.421 73.4852 370.757 73.8692 371.009C74.2652 371.249 74.7212 371.369 75.2372 371.369ZM86.388 373.241C85.488 373.241 84.696 373.049 84.012 372.665C83.328 372.269 82.794 371.717 82.41 371.009C82.026 370.301 81.834 369.485 81.834 368.561C81.834 367.601 82.02 366.761 82.392 366.041C82.776 365.321 83.31 364.757 83.994 364.349C84.69 363.941 85.494 363.737 86.406 363.737C87.294 363.737 88.068 363.935 88.728 364.331C89.388 364.727 89.898 365.261 90.258 365.933C90.618 366.593 90.798 367.337 90.798 368.165C90.798 368.285 90.798 368.417 90.798 368.561C90.798 368.705 90.786 368.855 90.762 369.011H83.382V367.625H88.62C88.596 366.965 88.374 366.449 87.954 366.077C87.534 365.693 87.012 365.501 86.388 365.501C85.944 365.501 85.536 365.603 85.164 365.807C84.792 366.011 84.498 366.317 84.282 366.725C84.066 367.121 83.958 367.625 83.958 368.237V368.759C83.958 369.323 84.06 369.809 84.264 370.217C84.48 370.625 84.768 370.937 85.128 371.153C85.5 371.357 85.914 371.459 86.37 371.459C86.874 371.459 87.288 371.351 87.612 371.135C87.948 370.919 88.194 370.631 88.35 370.271H90.546C90.378 370.835 90.102 371.345 89.718 371.801C89.334 372.245 88.86 372.599 88.296 372.863C87.732 373.115 87.096 373.241 86.388 373.241ZM100.211 373.241C99.4668 373.241 98.8488 373.115 98.3568 372.863C97.8648 372.611 97.4988 372.275 97.2588 371.855C97.0188 371.435 96.8988 370.979 96.8988 370.487C96.8988 369.911 97.0428 369.413 97.3308 368.993C97.6308 368.573 98.0688 368.249 98.6448 368.021C99.2208 367.781 99.9288 367.661 100.769 367.661H103.055C103.055 367.181 102.989 366.785 102.857 366.473C102.725 366.149 102.521 365.909 102.245 365.753C101.969 365.597 101.615 365.519 101.183 365.519C100.691 365.519 100.271 365.633 99.9228 365.861C99.5748 366.077 99.3588 366.413 99.2748 366.869H97.1508C97.2228 366.221 97.4388 365.669 97.7988 365.213C98.1588 364.745 98.6328 364.385 99.2208 364.133C99.8208 363.869 100.475 363.737 101.183 363.737C102.035 363.737 102.761 363.887 103.361 364.187C103.961 364.475 104.417 364.895 104.729 365.447C105.053 365.987 105.215 366.641 105.215 367.409V373.025H103.379L103.163 371.567C103.043 371.807 102.887 372.029 102.695 372.233C102.515 372.437 102.305 372.617 102.065 372.773C101.825 372.917 101.549 373.031 101.237 373.115C100.937 373.199 100.595 373.241 100.211 373.241ZM100.697 371.531C101.045 371.531 101.351 371.471 101.615 371.351C101.891 371.219 102.125 371.039 102.317 370.811C102.521 370.571 102.677 370.307 102.785 370.019C102.893 369.731 102.965 369.425 103.001 369.101V369.065H101.003C100.583 369.065 100.235 369.119 99.9588 369.227C99.6828 369.335 99.4848 369.485 99.3648 369.677C99.2448 369.857 99.1848 370.073 99.1848 370.325C99.1848 370.577 99.2448 370.793 99.3648 370.973C99.4848 371.153 99.6588 371.291 99.8868 371.387C100.115 371.483 100.385 371.531 100.697 371.531ZM112.707 373.241C112.227 373.241 111.795 373.175 111.411 373.043C111.027 372.923 110.691 372.755 110.403 372.539C110.115 372.311 109.875 372.053 109.683 371.765L109.449 373.025H107.523V360.065H109.683V365.285C109.971 364.841 110.361 364.475 110.853 364.187C111.345 363.887 111.957 363.737 112.689 363.737C113.541 363.737 114.291 363.947 114.939 364.367C115.599 364.775 116.115 365.339 116.487 366.059C116.871 366.767 117.063 367.583 117.063 368.507C117.063 369.407 116.877 370.217 116.505 370.937C116.133 371.657 115.617 372.221 114.957 372.629C114.309 373.037 113.559 373.241 112.707 373.241ZM112.257 371.369C112.761 371.369 113.211 371.249 113.607 371.009C114.003 370.757 114.309 370.421 114.525 370.001C114.753 369.569 114.867 369.065 114.867 368.489C114.867 367.925 114.753 367.427 114.525 366.995C114.309 366.563 114.003 366.227 113.607 365.987C113.211 365.747 112.761 365.627 112.257 365.627C111.741 365.627 111.285 365.747 110.889 365.987C110.505 366.227 110.199 366.563 109.971 366.995C109.755 367.427 109.647 367.925 109.647 368.489C109.647 369.065 109.755 369.569 109.971 370.001C110.199 370.421 110.505 370.757 110.889 371.009C111.285 371.249 111.741 371.369 112.257 371.369ZM119.159 373.025V360.065H121.319V373.025H119.159ZM127.978 373.241C127.078 373.241 126.286 373.049 125.602 372.665C124.918 372.269 124.384 371.717 124 371.009C123.616 370.301 123.424 369.485 123.424 368.561C123.424 367.601 123.61 366.761 123.982 366.041C124.366 365.321 124.9 364.757 125.584 364.349C126.28 363.941 127.084 363.737 127.996 363.737C128.884 363.737 129.658 363.935 130.318 364.331C130.978 364.727 131.488 365.261 131.848 365.933C132.208 366.593 132.388 367.337 132.388 368.165C132.388 368.285 132.388 368.417 132.388 368.561C132.388 368.705 132.376 368.855 132.352 369.011H124.972V367.625H130.21C130.186 366.965 129.964 366.449 129.544 366.077C129.124 365.693 128.602 365.501 127.978 365.501C127.534 365.501 127.126 365.603 126.754 365.807C126.382 366.011 126.088 366.317 125.872 366.725C125.656 367.121 125.548 367.625 125.548 368.237V368.759C125.548 369.323 125.65 369.809 125.854 370.217C126.07 370.625 126.358 370.937 126.718 371.153C127.09 371.357 127.504 371.459 127.96 371.459C128.464 371.459 128.878 371.351 129.202 371.135C129.538 370.919 129.784 370.631 129.94 370.271H132.136C131.968 370.835 131.692 371.345 131.308 371.801C130.924 372.245 130.45 372.599 129.886 372.863C129.322 373.115 128.686 373.241 127.978 373.241ZM142.719 373.025C142.107 373.025 141.573 372.929 141.117 372.737C140.673 372.545 140.325 372.227 140.073 371.783C139.821 371.339 139.695 370.739 139.695 369.983V365.771H138.147V363.953H139.695L139.947 361.559H141.855V363.953H144.321V365.771H141.855V369.983C141.855 370.439 141.951 370.757 142.143 370.937C142.347 371.105 142.683 371.189 143.151 371.189H144.267V373.025H142.719ZM150.354 373.241C149.49 373.241 148.71 373.043 148.014 372.647C147.33 372.239 146.79 371.681 146.394 370.973C146.01 370.253 145.818 369.431 145.818 368.507C145.818 367.559 146.016 366.731 146.412 366.023C146.808 365.303 147.348 364.745 148.032 364.349C148.728 363.941 149.508 363.737 150.372 363.737C151.236 363.737 152.01 363.941 152.694 364.349C153.39 364.745 153.93 365.297 154.314 366.005C154.71 366.713 154.908 367.541 154.908 368.489C154.908 369.437 154.71 370.265 154.314 370.973C153.918 371.681 153.372 372.239 152.676 372.647C151.992 373.043 151.218 373.241 150.354 373.241ZM150.354 371.387C150.786 371.387 151.176 371.279 151.524 371.063C151.884 370.847 152.172 370.523 152.388 370.091C152.604 369.659 152.712 369.125 152.712 368.489C152.712 367.853 152.604 367.325 152.388 366.905C152.184 366.473 151.902 366.149 151.542 365.933C151.194 365.717 150.804 365.609 150.372 365.609C149.952 365.609 149.562 365.717 149.202 365.933C148.842 366.149 148.554 366.473 148.338 366.905C148.122 367.325 148.014 367.853 148.014 368.489C148.014 369.125 148.122 369.659 148.338 370.091C148.554 370.523 148.836 370.847 149.184 371.063C149.544 371.279 149.934 371.387 150.354 371.387ZM161.417 376.985V363.953H163.343L163.577 365.267C163.769 365.003 163.997 364.757 164.261 364.529C164.537 364.289 164.867 364.097 165.251 363.953C165.647 363.809 166.097 363.737 166.601 363.737C167.453 363.737 168.203 363.947 168.851 364.367C169.511 364.787 170.027 365.357 170.399 366.077C170.771 366.785 170.957 367.595 170.957 368.507C170.957 369.419 170.765 370.235 170.381 370.955C170.009 371.663 169.493 372.221 168.833 372.629C168.185 373.037 167.441 373.241 166.601 373.241C165.917 373.241 165.317 373.115 164.801 372.863C164.297 372.599 163.889 372.227 163.577 371.747V376.985H161.417ZM166.151 371.369C166.655 371.369 167.105 371.249 167.501 371.009C167.897 370.769 168.203 370.433 168.419 370.001C168.647 369.569 168.761 369.071 168.761 368.507C168.761 367.931 168.647 367.427 168.419 366.995C168.203 366.563 167.897 366.227 167.501 365.987C167.105 365.747 166.655 365.627 166.151 365.627C165.635 365.627 165.179 365.747 164.783 365.987C164.399 366.227 164.093 366.563 163.865 366.995C163.649 367.427 163.541 367.925 163.541 368.489C163.541 369.065 163.649 369.569 163.865 370.001C164.093 370.421 164.399 370.757 164.783 371.009C165.179 371.249 165.635 371.369 166.151 371.369ZM173.054 373.025V363.953H174.98L175.178 365.645C175.394 365.249 175.664 364.913 175.988 364.637C176.312 364.349 176.69 364.127 177.122 363.971C177.566 363.815 178.052 363.737 178.58 363.737V366.023H177.824C177.464 366.023 177.122 366.071 176.798 366.167C176.474 366.251 176.192 366.395 175.952 366.599C175.724 366.791 175.544 367.061 175.412 367.409C175.28 367.745 175.214 368.171 175.214 368.687V373.025H173.054ZM184.263 373.241C183.363 373.241 182.571 373.049 181.887 372.665C181.203 372.269 180.669 371.717 180.285 371.009C179.901 370.301 179.709 369.485 179.709 368.561C179.709 367.601 179.895 366.761 180.267 366.041C180.651 365.321 181.185 364.757 181.869 364.349C182.565 363.941 183.369 363.737 184.281 363.737C185.169 363.737 185.943 363.935 186.603 364.331C187.263 364.727 187.773 365.261 188.133 365.933C188.493 366.593 188.673 367.337 188.673 368.165C188.673 368.285 188.673 368.417 188.673 368.561C188.673 368.705 188.661 368.855 188.637 369.011H181.257V367.625H186.495C186.471 366.965 186.249 366.449 185.829 366.077C185.409 365.693 184.887 365.501 184.263 365.501C183.819 365.501 183.411 365.603 183.039 365.807C182.667 366.011 182.373 366.317 182.157 366.725C181.941 367.121 181.833 367.625 181.833 368.237V368.759C181.833 369.323 181.935 369.809 182.139 370.217C182.355 370.625 182.643 370.937 183.003 371.153C183.375 371.357 183.789 371.459 184.245 371.459C184.749 371.459 185.163 371.351 185.487 371.135C185.823 370.919 186.069 370.631 186.225 370.271H188.421C188.253 370.835 187.977 371.345 187.593 371.801C187.209 372.245 186.735 372.599 186.171 372.863C185.607 373.115 184.971 373.241 184.263 373.241ZM192.8 373.025L189.452 363.953H191.72L194.114 370.973L196.508 363.953H198.74L195.392 373.025H192.8ZM200.373 373.025V363.953H202.533V373.025H200.373ZM201.453 362.513C201.057 362.513 200.727 362.393 200.463 362.153C200.211 361.901 200.085 361.595 200.085 361.235C200.085 360.863 200.211 360.563 200.463 360.335C200.727 360.095 201.057 359.975 201.453 359.975C201.849 359.975 202.173 360.095 202.425 360.335C202.689 360.563 202.821 360.863 202.821 361.235C202.821 361.595 202.689 361.901 202.425 362.153C202.173 362.393 201.849 362.513 201.453 362.513ZM209.277 373.241C208.377 373.241 207.585 373.049 206.901 372.665C206.217 372.269 205.683 371.717 205.299 371.009C204.915 370.301 204.723 369.485 204.723 368.561C204.723 367.601 204.909 366.761 205.281 366.041C205.665 365.321 206.199 364.757 206.883 364.349C207.579 363.941 208.383 363.737 209.295 363.737C210.183 363.737 210.957 363.935 211.617 364.331C212.277 364.727 212.787 365.261 213.147 365.933C213.507 366.593 213.687 367.337 213.687 368.165C213.687 368.285 213.687 368.417 213.687 368.561C213.687 368.705 213.675 368.855 213.651 369.011H206.271V367.625H211.509C211.485 366.965 211.263 366.449 210.843 366.077C210.423 365.693 209.901 365.501 209.277 365.501C208.833 365.501 208.425 365.603 208.053 365.807C207.681 366.011 207.387 366.317 207.171 366.725C206.955 367.121 206.847 367.625 206.847 368.237V368.759C206.847 369.323 206.949 369.809 207.153 370.217C207.369 370.625 207.657 370.937 208.017 371.153C208.389 371.357 208.803 371.459 209.259 371.459C209.763 371.459 210.177 371.351 210.501 371.135C210.837 370.919 211.083 370.631 211.239 370.271H213.435C213.267 370.835 212.991 371.345 212.607 371.801C212.223 372.245 211.749 372.599 211.185 372.863C210.621 373.115 209.985 373.241 209.277 373.241ZM217.129 373.025L214.465 363.953H216.607L218.461 371.405L218.065 371.387L220.135 363.953H222.547L224.635 371.387H224.239L226.093 363.953H228.235L225.571 373.025H223.339L221.125 365.339H221.575L219.361 373.025H217.129ZM235.271 376.985L237.485 372.017H236.945L233.327 363.953H235.685L238.385 370.109L240.941 363.953H243.227L237.557 376.985H235.271ZM248.229 373.241C247.365 373.241 246.585 373.043 245.889 372.647C245.205 372.239 244.665 371.681 244.269 370.973C243.885 370.253 243.693 369.431 243.693 368.507C243.693 367.559 243.891 366.731 244.287 366.023C244.683 365.303 245.223 364.745 245.907 364.349C246.603 363.941 247.383 363.737 248.247 363.737C249.111 363.737 249.885 363.941 250.569 364.349C251.265 364.745 251.805 365.297 252.189 366.005C252.585 366.713 252.783 367.541 252.783 368.489C252.783 369.437 252.585 370.265 252.189 370.973C251.793 371.681 251.247 372.239 250.551 372.647C249.867 373.043 249.093 373.241 248.229 373.241ZM248.229 371.387C248.661 371.387 249.051 371.279 249.399 371.063C249.759 370.847 250.047 370.523 250.263 370.091C250.479 369.659 250.587 369.125 250.587 368.489C250.587 367.853 250.479 367.325 250.263 366.905C250.059 366.473 249.777 366.149 249.417 365.933C249.069 365.717 248.679 365.609 248.247 365.609C247.827 365.609 247.437 365.717 247.077 365.933C246.717 366.149 246.429 366.473 246.213 366.905C245.997 367.325 245.889 367.853 245.889 368.489C245.889 369.125 245.997 369.659 246.213 370.091C246.429 370.523 246.711 370.847 247.059 371.063C247.419 371.279 247.809 371.387 248.229 371.387ZM258.264 373.241C257.532 373.241 256.902 373.097 256.374 372.809C255.858 372.509 255.462 372.065 255.186 371.477C254.91 370.877 254.772 370.139 254.772 369.263V363.953H256.932V369.047C256.932 369.827 257.094 370.421 257.418 370.829C257.754 371.225 258.258 371.423 258.93 371.423C259.362 371.423 259.746 371.321 260.082 371.117C260.43 370.913 260.7 370.619 260.892 370.235C261.096 369.839 261.198 369.359 261.198 368.795V363.953H263.358V373.025H261.45L261.288 371.513C261.012 372.041 260.61 372.461 260.082 372.773C259.566 373.085 258.96 373.241 258.264 373.241ZM265.761 373.025V363.953H267.687L267.885 365.645C268.101 365.249 268.371 364.913 268.695 364.637C269.019 364.349 269.397 364.127 269.829 363.971C270.273 363.815 270.759 363.737 271.287 363.737V366.023H270.531C270.171 366.023 269.829 366.071 269.505 366.167C269.181 366.251 268.899 366.395 268.659 366.599C268.431 366.791 268.251 367.061 268.119 367.409C267.987 367.745 267.921 368.171 267.921 368.687V373.025H265.761ZM127.489 397.915L123.007 390.895H125.491L130.045 397.915H127.489ZM124.393 396.241C123.181 396.241 122.107 395.971 121.171 395.431C120.247 394.879 119.521 394.117 118.993 393.145C118.465 392.161 118.201 391.021 118.201 389.725C118.201 388.441 118.465 387.313 118.993 386.341C119.521 385.357 120.247 384.589 121.171 384.037C122.107 383.485 123.181 383.209 124.393 383.209C125.629 383.209 126.715 383.485 127.651 384.037C128.587 384.589 129.313 385.357 129.829 386.341C130.345 387.313 130.603 388.441 130.603 389.725C130.603 391.021 130.345 392.161 129.829 393.145C129.313 394.117 128.587 394.879 127.651 395.431C126.715 395.971 125.629 396.241 124.393 396.241ZM124.411 394.297C125.215 394.297 125.917 394.117 126.517 393.757C127.117 393.385 127.579 392.857 127.903 392.173C128.227 391.489 128.389 390.673 128.389 389.725C128.389 388.777 128.227 387.961 127.903 387.277C127.579 386.593 127.117 386.071 126.517 385.711C125.917 385.339 125.215 385.153 124.411 385.153C123.607 385.153 122.905 385.339 122.305 385.711C121.705 386.071 121.237 386.593 120.901 387.277C120.577 387.961 120.415 388.777 120.415 389.725C120.415 390.673 120.577 391.489 120.901 392.173C121.237 392.857 121.705 393.385 122.305 393.757C122.905 394.117 123.607 394.297 124.411 394.297ZM132.714 396.025V383.425H137.232C138.228 383.425 139.05 383.599 139.698 383.947C140.358 384.283 140.844 384.739 141.156 385.315C141.48 385.879 141.642 386.521 141.642 387.241C141.642 387.913 141.486 388.537 141.174 389.113C140.862 389.689 140.376 390.151 139.716 390.499C139.056 390.847 138.21 391.021 137.178 391.021H134.874V396.025H132.714ZM139.284 396.025L136.638 390.463H138.978L141.75 396.025H139.284ZM134.874 389.419H137.088C137.892 389.419 138.48 389.227 138.852 388.843C139.236 388.447 139.428 387.931 139.428 387.295C139.428 386.671 139.242 386.173 138.87 385.801C138.498 385.417 137.904 385.225 137.088 385.225H134.874V389.419ZM152.501 396.241C151.613 396.241 150.815 396.043 150.107 395.647C149.411 395.239 148.865 394.681 148.469 393.973C148.085 393.253 147.893 392.437 147.893 391.525C147.893 390.577 148.085 389.749 148.469 389.041C148.865 388.321 149.411 387.757 150.107 387.349C150.815 386.941 151.619 386.737 152.519 386.737C153.647 386.737 154.595 387.037 155.363 387.637C156.131 388.225 156.623 389.035 156.839 390.067H154.571C154.451 389.611 154.199 389.251 153.815 388.987C153.443 388.723 152.999 388.591 152.483 388.591C152.039 388.591 151.631 388.705 151.259 388.933C150.899 389.161 150.611 389.491 150.395 389.923C150.191 390.355 150.089 390.877 150.089 391.489C150.089 391.957 150.149 392.371 150.269 392.731C150.389 393.091 150.557 393.397 150.773 393.649C151.001 393.889 151.259 394.075 151.547 394.207C151.835 394.339 152.147 394.405 152.483 394.405C152.831 394.405 153.143 394.351 153.419 394.243C153.707 394.123 153.947 393.949 154.139 393.721C154.343 393.493 154.487 393.223 154.571 392.911H156.839C156.623 393.919 156.131 394.729 155.363 395.341C154.595 395.941 153.641 396.241 152.501 396.241ZM163.151 396.241C162.287 396.241 161.507 396.043 160.811 395.647C160.127 395.239 159.587 394.681 159.191 393.973C158.807 393.253 158.615 392.431 158.615 391.507C158.615 390.559 158.813 389.731 159.209 389.023C159.605 388.303 160.145 387.745 160.829 387.349C161.525 386.941 162.305 386.737 163.169 386.737C164.033 386.737 164.807 386.941 165.491 387.349C166.187 387.745 166.727 388.297 167.111 389.005C167.507 389.713 167.705 390.541 167.705 391.489C167.705 392.437 167.507 393.265 167.111 393.973C166.715 394.681 166.169 395.239 165.473 395.647C164.789 396.043 164.015 396.241 163.151 396.241ZM163.151 394.387C163.583 394.387 163.973 394.279 164.321 394.063C164.681 393.847 164.969 393.523 165.185 393.091C165.401 392.659 165.509 392.125 165.509 391.489C165.509 390.853 165.401 390.325 165.185 389.905C164.981 389.473 164.699 389.149 164.339 388.933C163.991 388.717 163.601 388.609 163.169 388.609C162.749 388.609 162.359 388.717 161.999 388.933C161.639 389.149 161.351 389.473 161.135 389.905C160.919 390.325 160.811 390.853 160.811 391.489C160.811 392.125 160.919 392.659 161.135 393.091C161.351 393.523 161.633 393.847 161.981 394.063C162.341 394.279 162.731 394.387 163.151 394.387ZM173.852 396.241C173.012 396.241 172.262 396.037 171.602 395.629C170.942 395.221 170.426 394.657 170.054 393.937C169.694 393.217 169.514 392.401 169.514 391.489C169.514 390.577 169.7 389.767 170.072 389.059C170.444 388.339 170.96 387.775 171.62 387.367C172.292 386.947 173.048 386.737 173.888 386.737C174.572 386.737 175.166 386.869 175.67 387.133C176.186 387.385 176.594 387.745 176.894 388.213V383.065H179.054V396.025H177.11L176.894 394.711C176.702 394.975 176.468 395.227 176.192 395.467C175.916 395.695 175.586 395.881 175.202 396.025C174.818 396.169 174.368 396.241 173.852 396.241ZM174.302 394.369C174.818 394.369 175.274 394.249 175.67 394.009C176.066 393.757 176.372 393.415 176.588 392.983C176.804 392.551 176.912 392.053 176.912 391.489C176.912 390.925 176.804 390.427 176.588 389.995C176.372 389.563 176.066 389.227 175.67 388.987C175.274 388.747 174.818 388.627 174.302 388.627C173.81 388.627 173.366 388.747 172.97 388.987C172.574 389.227 172.262 389.563 172.034 389.995C171.818 390.427 171.71 390.925 171.71 391.489C171.71 392.053 171.818 392.551 172.034 392.983C172.262 393.415 172.574 393.757 172.97 394.009C173.366 394.249 173.81 394.369 174.302 394.369ZM185.704 396.241C184.804 396.241 184.012 396.049 183.328 395.665C182.644 395.269 182.11 394.717 181.726 394.009C181.342 393.301 181.15 392.485 181.15 391.561C181.15 390.601 181.336 389.761 181.708 389.041C182.092 388.321 182.626 387.757 183.31 387.349C184.006 386.941 184.81 386.737 185.722 386.737C186.61 386.737 187.384 386.935 188.044 387.331C188.704 387.727 189.214 388.261 189.574 388.933C189.934 389.593 190.114 390.337 190.114 391.165C190.114 391.285 190.114 391.417 190.114 391.561C190.114 391.705 190.102 391.855 190.078 392.011H182.698V390.625H187.936C187.912 389.965 187.69 389.449 187.27 389.077C186.85 388.693 186.328 388.501 185.704 388.501C185.26 388.501 184.852 388.603 184.48 388.807C184.108 389.011 183.814 389.317 183.598 389.725C183.382 390.121 183.274 390.625 183.274 391.237V391.759C183.274 392.323 183.376 392.809 183.58 393.217C183.796 393.625 184.084 393.937 184.444 394.153C184.816 394.357 185.23 394.459 185.686 394.459C186.19 394.459 186.604 394.351 186.928 394.135C187.264 393.919 187.51 393.631 187.666 393.271H189.862C189.694 393.835 189.418 394.345 189.034 394.801C188.65 395.245 188.176 395.599 187.612 395.863C187.048 396.115 186.412 396.241 185.704 396.241Z" fill="white"/>
</svg>
