<svg width="321" height="707" viewBox="0 0 321 707" fill="none" xmlns="http://www.w3.org/2000/svg">
<rect width="321" height="707" rx="35" fill="white"/>
<path d="M144 294H136V302H144V294ZM124 291C124 288.613 124.948 286.324 126.636 284.636C128.324 282.948 130.613 282 133 282H147C149.387 282 151.676 282.948 153.364 284.636C155.052 286.324 156 288.613 156 291V305C156 307.387 155.052 309.676 153.364 311.364C151.676 313.052 149.387 314 147 314H133C130.613 314 128.324 313.052 126.636 311.364C124.948 309.676 124 307.387 124 305V291ZM133 288C132.204 288 131.441 288.316 130.879 288.879C130.316 289.441 130 290.204 130 291V305C130 306.656 131.344 308 133 308H147C147.796 308 148.559 307.684 149.121 307.121C149.684 306.559 150 305.796 150 305V291C150 290.204 149.684 289.441 149.121 288.879C148.559 288.316 147.796 288 147 288H133ZM136 334H144V342H136V334ZM124 331C124 328.613 124.948 326.324 126.636 324.636C128.324 322.948 130.613 322 133 322H147C149.387 322 151.676 322.948 153.364 324.636C155.052 326.324 156 328.613 156 331V345C156 347.387 155.052 349.676 153.364 351.364C151.676 353.052 149.387 354 147 354H133C130.613 354 128.324 353.052 126.636 351.364C124.948 349.676 124 347.387 124 345V331ZM133 328C132.204 328 131.441 328.316 130.879 328.879C130.316 329.441 130 330.204 130 331V345C130 346.656 131.344 348 133 348H147C147.796 348 148.559 347.684 149.121 347.121C149.684 346.559 150 345.796 150 345V331C150 330.204 149.684 329.441 149.121 328.879C148.559 328.316 147.796 328 147 328H133ZM184 294H176V302H184V294ZM173 282C170.613 282 168.324 282.948 166.636 284.636C164.948 286.324 164 288.613 164 291V305C164 307.387 164.948 309.676 166.636 311.364C168.324 313.052 170.613 314 173 314H187C189.387 314 191.676 313.052 193.364 311.364C195.052 309.676 196 307.387 196 305V291C196 288.613 195.052 286.324 193.364 284.636C191.676 282.948 189.387 282 187 282H173ZM170 291C170 290.204 170.316 289.441 170.879 288.879C171.441 288.316 172.204 288 173 288H187C187.796 288 188.559 288.316 189.121 288.879C189.684 289.441 190 290.204 190 291V305C190 305.796 189.684 306.559 189.121 307.121C188.559 307.684 187.796 308 187 308H173C172.204 308 171.441 307.684 170.879 307.121C170.316 306.559 170 305.796 170 305V291ZM164 322H175V333H164V322ZM185 333H175V343H164V354H175V343H185V354H196V343H185V333ZM185 333V322H196V333H185Z" fill="#D9D9D9"/>
<rect x="100" y="258" width="121" height="121" rx="15" stroke="#C8C2C2" stroke-width="2" stroke-dasharray="8 8"/>
</svg>
