<svg width="46" height="41" viewBox="0 0 46 41" fill="none" xmlns="http://www.w3.org/2000/svg">
<rect width="1.57897" height="19.4804" transform="matrix(0.747451 0.664317 -0.664295 0.74747 15.8594 22.2366)" fill="black"/>
<rect width="1.57897" height="19.4804" transform="matrix(0.772403 -0.635133 0.635111 0.772421 30.0098 23.0239)" fill="black"/>
<rect width="0.927811" height="5.63453" transform="matrix(0.876327 -0.481717 0.775911 0.630842 15.0239 3.30957)" fill="#5D5FEF"/>
<rect width="0.965863" height="5.6371" transform="matrix(0.921027 0.389499 -0.687311 0.726363 30.0767 2.33594)" fill="#5D5FEF"/>
<rect width="1.05259" height="5.00237" transform="matrix(0.999971 -0.00759971 0.0170025 0.999855 22.9189 0.239502)" fill="#5D5FEF"/>
<path d="M2.39258 12.3367L20.8136 25.495C21.7786 26.0213 24.2873 26.7582 26.6031 25.495C28.9189 24.2318 39.2347 15.7578 43.4452 12.3367" stroke="black" stroke-width="1.7188"/>
<rect x="1.67287" y="8.98464" width="43.0181" height="30.3874" rx="6.50914" stroke="black" stroke-width="1.7188"/>
</svg>
