<svg width="45" height="43" viewBox="0 0 45 43" fill="none" xmlns="http://www.w3.org/2000/svg">
<path fill-rule="evenodd" clip-rule="evenodd" d="M10.6964 13.6728C11.002 13.1341 11.7782 13.1341 12.0838 13.6728L13.0886 15.4437L15.0832 15.852C15.69 15.9762 15.9299 16.7144 15.512 17.1716L14.1383 18.6744L14.3663 20.6976C14.4357 21.3131 13.8077 21.7693 13.2438 21.5131L11.3901 20.671L9.53634 21.5131C8.97245 21.7693 8.34448 21.3131 8.41386 20.6976L8.64192 18.6744L7.26818 17.1716C6.8503 16.7144 7.09016 15.9762 7.69693 15.852L9.69162 15.4437L10.6964 13.6728ZM11.3901 14.7591L10.606 16.141C10.4924 16.3413 10.2978 16.4827 10.0723 16.5289L8.5157 16.8475L9.5877 18.0202C9.74304 18.1901 9.81737 18.4189 9.79158 18.6477L9.61362 20.2265L11.0602 19.5694C11.2698 19.4742 11.5104 19.4742 11.72 19.5694L13.1666 20.2265L12.9886 18.6477C12.9628 18.4189 13.0371 18.1901 13.1925 18.0202L14.2645 16.8475L12.7079 16.5289C12.4824 16.4827 12.2877 16.3413 12.1741 16.141L11.3901 14.7591Z" fill="black"/>
<path fill-rule="evenodd" clip-rule="evenodd" d="M21.5655 13.6748C21.8711 13.1361 22.6473 13.1361 22.953 13.6748L23.9577 15.4457L25.9524 15.854C26.5592 15.9782 26.799 16.7164 26.3811 17.1735L25.0074 18.6763L25.2355 20.6996C25.3048 21.315 24.6769 21.7713 24.113 21.5151L22.2592 20.673L20.4055 21.5151C19.8416 21.7713 19.2136 21.315 19.283 20.6996L19.5111 18.6763L18.1373 17.1735C17.7194 16.7164 17.9593 15.9782 18.5661 15.854L20.5608 15.4457L21.5655 13.6748ZM22.2592 14.7611L21.4752 16.143C21.3616 16.3432 21.167 16.4846 20.9414 16.5308L19.3848 16.8494L20.4568 18.0222C20.6122 18.1921 20.6865 18.4209 20.6607 18.6496L20.4828 20.2285L21.9293 19.5713C22.139 19.4761 22.3795 19.4761 22.5891 19.5713L24.0357 20.2285L23.8577 18.6496C23.8319 18.4209 23.9063 18.1921 24.0616 18.0222L25.1336 16.8494L23.5771 16.5308C23.3515 16.4846 23.1569 16.3432 23.0433 16.143L22.2592 14.7611Z" fill="black"/>
<path d="M32.9303 13.9543C33.0176 13.8004 33.2394 13.8004 33.3267 13.9543L34.4081 15.8603C34.4405 15.9175 34.4961 15.9579 34.5606 15.9711L36.7074 16.4106C36.8808 16.446 36.9493 16.657 36.8299 16.7876L35.3514 18.405C35.307 18.4535 35.2858 18.5189 35.2931 18.5843L35.5386 20.7618C35.5584 20.9377 35.379 21.068 35.2179 20.9948L33.2228 20.0885C33.1629 20.0613 33.0941 20.0613 33.0342 20.0885L31.0391 20.9948C30.878 21.068 30.6986 20.9377 30.7184 20.7618L30.9639 18.5843C30.9712 18.5189 30.95 18.4535 30.9056 18.405L29.4271 16.7876C29.3077 16.657 29.3762 16.446 29.5496 16.4106L31.6964 15.9711C31.7609 15.9579 31.8165 15.9175 31.8489 15.8603L32.9303 13.9543Z" fill="#5D5FEF" stroke="#5D5FEF" stroke-width="1.13944"/>
<path d="M7.13257 39.0433L10.7159 36.1768L10.7423 36.1566C11.4893 35.5589 11.8663 35.2572 12.2869 35.0425C12.6642 34.8497 13.0666 34.7093 13.4816 34.624C13.9495 34.528 14.4368 34.528 15.4151 34.528H35.8271C38.4556 34.528 39.7714 34.528 40.7764 34.0159C41.6612 33.5652 42.3812 32.845 42.8319 31.9602C43.344 30.9552 43.344 29.6408 43.344 27.0122V9.12638C43.344 6.49777 43.344 5.18152 42.8319 4.17656C42.3812 3.29168 41.6598 2.57279 40.775 2.12194C39.7691 1.60937 38.454 1.60938 35.8202 1.60938H8.54476C5.91101 1.60938 4.59315 1.60937 3.58721 2.12194C2.70233 2.57279 1.98343 3.29168 1.53259 4.17656C1.02002 5.18251 1.02002 6.50036 1.02002 9.13411V36.1063C1.02002 38.6121 1.02002 39.8646 1.53369 40.5082C1.98042 41.0678 2.65758 41.3935 3.37366 41.3928C4.19702 41.3918 5.17586 40.6088 7.13257 39.0433Z" stroke="black" stroke-width="2" stroke-linecap="round" stroke-linejoin="round"/>
</svg>
