<svg width="85" height="92" viewBox="0 0 85 92" fill="none" xmlns="http://www.w3.org/2000/svg">
<rect x="1.5" y="1.5" width="82" height="89" rx="12.5" stroke="#5D5FEF" stroke-width="3"/>
<path fill-rule="evenodd" clip-rule="evenodd" d="M56.25 23.2493C56.2499 22.4564 56.0784 21.6729 55.7472 20.9525C55.4159 20.2321 54.9329 19.5918 54.3311 19.0756C53.7293 18.5593 53.023 18.1793 52.2606 17.9615C51.4982 17.7437 50.6977 17.6934 49.914 17.8139L40.289 19.2948C38.9903 19.4945 37.8061 20.1525 36.9506 21.1498C36.0951 22.147 35.6248 23.4176 35.625 24.7315V36.7807C34.6829 36.3338 33.6211 36.205 32.5994 36.4136C31.5778 36.6223 30.6516 37.1572 29.9601 37.9377C29.2687 38.7182 28.8495 39.7022 28.7656 40.7416C28.6817 41.7809 28.9377 42.8194 29.4949 43.7008C30.0522 44.5821 30.8807 45.2586 31.8556 45.6284C32.8306 45.9983 33.8993 46.0414 34.9009 45.7514C35.9025 45.4615 36.7828 44.854 37.4093 44.0205C38.0359 43.187 38.3748 42.1725 38.375 41.1298V24.7315C38.3746 24.0743 38.6096 23.4387 39.0373 22.9398C39.4651 22.4409 40.0574 22.1117 40.707 22.0118L50.332 20.5309C50.724 20.4706 51.1244 20.4958 51.5058 20.6048C51.8871 20.7138 52.2404 20.9041 52.5413 21.1624C52.8423 21.4208 53.0837 21.7412 53.2492 22.1016C53.4147 22.4621 53.5003 22.854 53.5 23.2507V32.6557C52.5579 32.2088 51.4961 32.08 50.4744 32.2886C49.4528 32.4973 48.5266 33.0322 47.8351 33.8127C47.1437 34.5932 46.7245 35.5772 46.6406 36.6166C46.5567 37.6559 46.8127 38.6944 47.3699 39.5758C47.9272 40.4571 48.7557 41.1336 49.7306 41.5034C50.7056 41.8733 51.7743 41.9164 52.7759 41.6264C53.7775 41.3365 54.6578 40.729 55.2843 39.8955C55.9109 39.062 56.2498 38.0475 56.25 37.0048V23.2493ZM53.5 37.0048C53.5 36.4578 53.2827 35.9332 52.8959 35.5464C52.5091 35.1596 51.9845 34.9423 51.4375 34.9423C50.8905 34.9423 50.3659 35.1596 49.9791 35.5464C49.5923 35.9332 49.375 36.4578 49.375 37.0048C49.375 37.5518 49.5923 38.0764 49.9791 38.4632C50.3659 38.85 50.8905 39.0673 51.4375 39.0673C51.9845 39.0673 52.5091 38.85 52.8959 38.4632C53.2827 38.0764 53.5 37.5518 53.5 37.0048ZM35.625 41.1298C35.625 40.8589 35.5717 40.5907 35.468 40.3405C35.3644 40.0903 35.2124 39.8629 35.0209 39.6714C34.8294 39.4799 34.602 39.3279 34.3518 39.2243C34.1016 39.1206 33.8334 39.0673 33.5625 39.0673C33.2917 39.0673 33.0235 39.1206 32.7732 39.2243C32.523 39.3279 32.2956 39.4799 32.1041 39.6714C31.9126 39.8629 31.7607 40.0903 31.657 40.3405C31.5534 40.5907 31.5 40.8589 31.5 41.1298C31.5 41.6768 31.7173 42.2014 32.1041 42.5882C32.4909 42.975 33.0155 43.1923 33.5625 43.1923C34.1095 43.1923 34.6341 42.975 35.0209 42.5882C35.4077 42.2014 35.625 41.6768 35.625 41.1298Z" fill="#5D5FEF"/>
<rect x="32" y="58" width="29" height="2" fill="black"/>
<rect x="32" y="72" width="29" height="2" fill="black"/>
<rect x="28" y="65" width="37" height="2" fill="black"/>
<circle cx="24.5" cy="59.5" r="1.5" fill="black"/>
<circle cx="24.5" cy="73.5" r="1.5" fill="black"/>
<circle cx="20.5" cy="66.5" r="1.5" fill="black"/>
</svg>
