<svg width="40" height="53" viewBox="0 0 40 53" fill="none" xmlns="http://www.w3.org/2000/svg">
<path d="M26.446 11.5609V4.2179L36.2284 14.544H29.4233C26.361 14.544 26.446 12.9377 26.446 11.5609Z" fill="black" stroke="black" stroke-width="2.71739"/>
<path d="M1.44917 44.5285V44.0132M1.44917 44.0132V8.97202C1.37106 6.48134 2.62083 1.5 8.24478 1.5C13.8687 1.5 22.4609 1.5 25.5853 1.5L38.9422 15.4134V44.0132C39.0203 46.3321 37.8643 51.4852 32.6152 51.4852C27.3662 51.4852 12.2284 51.4852 8.24478 51.4852C5.97958 51.657 1.44917 50.4031 1.44917 44.0132Z" stroke="black" stroke-width="2"/>
<path d="M31.0766 35.3973C30.408 34.6889 29.051 34.2748 27.1203 34.2748C26.0876 34.2748 24.8952 34.3796 23.5981 34.619C22.8647 33.8956 22.1363 33.0575 21.4379 32.0697C20.939 31.3762 20.505 30.6478 20.1058 29.9244C20.8692 27.5447 21.2383 25.604 21.2383 24.2071C21.2383 22.6405 20.6696 21.0092 19.0482 21.0092C18.5443 21.0092 18.0504 21.3135 17.781 21.7575C17.0476 23.0746 17.3769 25.9682 18.6391 28.8219C18.1651 30.2437 17.6712 31.6057 17.0476 33.1373C16.5038 34.4245 15.8802 35.7565 15.2416 36.9738C11.5847 38.4655 9.21993 40.1967 9.00041 41.5587C8.90063 42.0725 9.07026 42.5415 9.42946 42.9157C9.55419 43.0204 10.0232 43.4246 10.8164 43.4246C13.241 43.4246 15.7954 39.4184 17.1025 36.9988C18.1003 36.6645 19.0981 36.3552 20.0909 36.0459C21.1835 35.7465 22.281 35.5021 23.2838 35.3325C25.8481 37.6773 28.1031 38.0465 29.2406 38.0465C30.6375 38.0465 31.1364 37.4677 31.3061 36.9938C31.5705 36.3801 31.3709 35.7116 31.0716 35.3624L31.0766 35.3973ZM29.7844 36.3851C29.6846 36.894 29.1857 37.2333 28.4873 37.2333C28.2877 37.2333 28.1231 37.1983 27.9186 37.1684C26.6464 36.8591 25.454 36.2155 24.2616 35.1928C25.434 34.9932 26.4269 34.9583 27.0555 34.9583C27.7489 34.9583 28.3476 34.9932 28.7517 35.093C29.2107 35.1928 29.9441 35.5021 29.7794 36.3901H29.7994L29.7844 36.3851ZM22.735 34.7887C21.8719 34.9683 20.944 35.1778 19.9761 35.4372C19.2128 35.6518 18.4146 35.8812 17.6163 36.1606C18.0504 35.3175 18.4146 34.4943 18.7488 33.721C19.1529 32.7681 19.4822 31.7803 19.8165 30.8673C20.1408 31.4411 20.5099 32.0198 20.8741 32.5386C21.4728 33.3568 22.1014 34.1301 22.73 34.8086V34.7887H22.735ZM18.3747 22.1516C18.5094 21.8822 18.7788 21.7425 19.0133 21.7425C19.7117 21.7425 19.8414 22.5557 19.8414 23.2043C19.8414 24.2969 19.5072 25.9582 18.9434 27.854C17.9456 25.2148 17.8808 23.0047 18.3747 22.1516ZM14.7178 37.9866C13.0215 40.8353 11.3951 42.6064 10.3973 42.6064C10.2028 42.6064 10.0331 42.5365 9.90342 42.4367C9.70386 42.2322 9.60408 41.9927 9.66893 41.7233C9.86849 40.7006 11.7643 39.2737 14.7178 37.9866Z" fill="#5D5FEF"/>
</svg>
