<svg width="44" height="53" viewBox="0 0 44 53" fill="none" xmlns="http://www.w3.org/2000/svg">
<rect x="1.64355" y="1.5" width="40.7609" height="50" rx="6.2371" stroke="black" stroke-width="2"/>
<path fill-rule="evenodd" clip-rule="evenodd" d="M29.7679 14.1357C29.7679 13.7048 29.6746 13.279 29.4946 12.8875C29.3146 12.4959 29.0521 12.148 28.725 11.8674C28.398 11.5868 28.0141 11.3803 27.5997 11.2619C27.1854 11.1436 26.7504 11.1162 26.3244 11.1817L21.0935 11.9865C20.3877 12.0951 19.7441 12.4527 19.2791 12.9947C18.8142 13.5367 18.5586 14.2272 18.5587 14.9413V21.4897C18.0467 21.2468 17.4696 21.1768 16.9144 21.2903C16.3591 21.4037 15.8557 21.6943 15.48 22.1185C15.1042 22.5427 14.8763 23.0775 14.8307 23.6424C14.7852 24.2073 14.9243 24.7717 15.2271 25.2506C15.53 25.7296 15.9802 26.0973 16.5101 26.2983C17.04 26.4993 17.6208 26.5227 18.1651 26.3651C18.7095 26.2075 19.1879 25.8774 19.5284 25.4244C19.869 24.9714 20.0531 24.4201 20.0532 23.8534V14.9413C20.053 14.5841 20.1807 14.2387 20.4132 13.9675C20.6457 13.6964 20.9676 13.5174 21.3206 13.4632L26.5516 12.6583C26.7647 12.6256 26.9823 12.6393 27.1895 12.6985C27.3968 12.7578 27.5888 12.8611 27.7523 13.0015C27.9159 13.142 28.0471 13.3161 28.1371 13.512C28.227 13.7079 28.2735 13.9209 28.2734 14.1365V19.2479C27.7613 19.005 27.1843 18.935 26.629 19.0484C26.0738 19.1618 25.5704 19.4525 25.1946 19.8767C24.8188 20.3009 24.591 20.8357 24.5454 21.4005C24.4998 21.9654 24.6389 22.5298 24.9418 23.0088C25.2447 23.4878 25.6949 23.8554 26.2248 24.0564C26.7546 24.2574 27.3355 24.2809 27.8798 24.1233C28.4242 23.9657 28.9026 23.6356 29.2431 23.1826C29.5836 22.7296 29.7678 22.1782 29.7679 21.6115V14.1357ZM28.2734 21.6115C28.2734 21.3142 28.1553 21.0291 27.945 20.8189C27.7348 20.6087 27.4497 20.4906 27.1524 20.4906C26.8551 20.4906 26.57 20.6087 26.3598 20.8189C26.1496 21.0291 26.0315 21.3142 26.0315 21.6115C26.0315 21.9088 26.1496 22.1939 26.3598 22.4041C26.57 22.6144 26.8551 22.7325 27.1524 22.7325C27.4497 22.7325 27.7348 22.6144 27.945 22.4041C28.1553 22.1939 28.2734 21.9088 28.2734 21.6115ZM18.5587 23.8534C18.5587 23.7062 18.5297 23.5604 18.4734 23.4244C18.417 23.2884 18.3345 23.1649 18.2304 23.0608C18.1263 22.9567 18.0027 22.8741 17.8667 22.8178C17.7307 22.7614 17.585 22.7325 17.4378 22.7325C17.2906 22.7325 17.1448 22.7614 17.0088 22.8178C16.8728 22.8741 16.7492 22.9567 16.6451 23.0608C16.5411 23.1649 16.4585 23.2884 16.4022 23.4244C16.3458 23.5604 16.3168 23.7062 16.3168 23.8534C16.3168 24.1507 16.4349 24.4358 16.6451 24.646C16.8554 24.8562 17.1405 24.9743 17.4378 24.9743C17.735 24.9743 18.0202 24.8562 18.2304 24.646C18.4406 24.4358 18.5587 24.1507 18.5587 23.8534Z" fill="#5D5FEF"/>
<rect x="16.5884" y="33.0215" width="15.7609" height="1.08696" fill="black"/>
<rect x="16.5884" y="40.6301" width="15.7609" height="1.08696" fill="black"/>
<rect x="14.4146" y="36.8267" width="20.1087" height="1.08696" fill="black"/>
<circle cx="12.5125" cy="33.8367" r="0.815217" fill="black"/>
<circle cx="12.5125" cy="41.4453" r="0.815217" fill="black"/>
<circle cx="10.3387" cy="37.6419" r="0.815217" fill="black"/>
</svg>
