<svg width="24" height="24" viewBox="0 0 24 24" fill="none" xmlns="http://www.w3.org/2000/svg">
<path d="M21.775 18.9501L6.85001 4.0001H9.70001L11.7 6.0001H20C20.55 6.0001 21.021 6.1961 21.413 6.5881C21.805 6.9801 22.0007 7.45076 22 8.0001V18.0001C22 18.1834 21.9833 18.3544 21.95 18.5131C21.9167 18.6718 21.8583 18.8174 21.775 18.9501ZM20.475 23.3001L17.175 20.0001H4.00001C3.45001 20.0001 2.97935 19.8044 2.58801 19.4131C2.19668 19.0218 2.00068 18.5508 2.00001 18.0001V6.0001C2.00001 5.4501 2.19601 4.97943 2.58801 4.5881C2.98001 4.19676 3.45068 4.00076 4.00001 4.0001L6.00001 6.0001H3.20001L0.700012 3.5001L2.10001 2.1001L21.9 21.9001L20.475 23.3001Z" fill="#1B254B"/>
</svg>
