<svg width="44" height="53" viewBox="0 0 44 53" fill="none" xmlns="http://www.w3.org/2000/svg">
<rect x="1.80176" y="1.5" width="40.7609" height="50" rx="6.23668" stroke="black" stroke-width="2"/>
<rect x="13.002" y="44.204" width="22.5598" height="2.00532" fill="black"/>
<g clip-path="url(#clip0_51_194)">
<path d="M28.9291 18.6022C27.4549 18.6022 27.5461 21.4726 26.8505 22.7726C26.7337 22.9888 26.4151 22.9611 26.3383 22.7275C25.5485 20.3058 25.9091 14.4215 23.767 14.4215C21.5245 14.4215 22.0788 22.036 21.206 25.139C21.1414 25.3746 20.8156 25.3951 20.7204 25.1677C19.7984 22.9539 19.9019 18.1248 18.1573 18.1248C16.3522 18.1248 16.5059 22.1702 15.7991 23.8001C15.7058 24.0183 15.3975 24.0255 15.294 23.8103C14.7787 22.7357 14.6138 20.568 12.6674 20.568H10.4003C10.1186 20.568 9.88916 20.7975 9.88916 21.0792C9.88916 21.3609 10.1186 21.5925 10.4003 21.5925H12.6674C14.2778 21.5925 13.7307 25.1616 15.5911 25.1616C17.3162 25.1616 17.1298 21.279 17.8684 19.558C17.9585 19.3449 18.2597 19.351 18.3458 19.5641C19.1704 21.6611 19.1551 26.7146 21.0513 26.7146C23.179 26.7146 22.4209 18.6667 23.5539 15.8342C23.639 15.618 23.9473 15.6068 24.0446 15.8219C25.0988 18.1268 24.5435 24.1463 26.4459 24.1463C28.1249 24.1463 28.2253 21.3743 28.7303 20.0097C28.8133 19.7926 29.1124 19.7772 29.2159 19.9821C29.7445 21.0075 30.0826 22.6169 31.6745 22.6169H33.9641C34.2458 22.6169 34.4753 22.3874 34.4753 22.1057C34.4753 21.823 34.2458 21.5935 33.9641 21.5935H31.6745C30.3192 21.5935 30.5302 18.6022 28.9291 18.6022Z" fill="#5D5FEF" stroke="#5D5FEF" stroke-width="0.819538"/>
</g>
<line x1="2.10352" y1="39.2377" x2="42.5626" y2="39.2377" stroke="black" stroke-width="1.99967"/>
<path d="M10.9966 45.2073L7.98861 46.944L7.98861 43.4707L10.9966 45.2073Z" fill="black"/>
<defs>
<clipPath id="clip0_51_194">
<rect width="24.5861" height="24.5861" fill="white" transform="translate(9.33643 8.27563)"/>
</clipPath>
</defs>
</svg>
