<svg width="326" height="714" viewBox="0 0 326 714" fill="none" xmlns="http://www.w3.org/2000/svg">
<path d="M0 40C0 17.9086 17.9086 0 40 0H287C308.539 0 326 17.4609 326 39V674C326 696.091 308.091 714 286 714H41C18.3563 714 0 695.644 0 673V40Z" fill="#171CAB"/>
<g filter="url(#filter0_d_1288_502)">
<rect x="21" y="115" width="284" height="577" rx="4" fill="white"/>
<rect x="21.5" y="115.5" width="283" height="576" rx="3.5" stroke="#ADADAD"/>
</g>
<path d="M115.587 65V48.9H119.29L124.212 58.951L129.088 48.9H132.791V65H129.686V54.19L125.431 62.746H122.97L118.692 54.19V65H115.587ZM137.362 70.06L140.168 63.712H139.478L134.832 53.408H138.213L141.525 60.883L144.515 53.408H147.804L140.651 70.06H137.362ZM165.396 65V48.9H168.501V65H165.396ZM155.253 65V48.9H158.358V65H155.253ZM157.921 58.031V55.524H165.925V58.031H157.921ZM177.077 65.276C175.973 65.276 174.976 65.023 174.087 64.517C173.213 63.9957 172.515 63.2827 171.994 62.378C171.488 61.458 171.235 60.4077 171.235 59.227C171.235 58.0157 171.488 56.9577 171.994 56.053C172.515 55.133 173.221 54.42 174.11 53.914C174.999 53.3927 175.996 53.132 177.1 53.132C178.219 53.132 179.216 53.3927 180.09 53.914C180.979 54.42 181.677 55.133 182.183 56.053C182.704 56.9577 182.965 58.008 182.965 59.204C182.965 60.4 182.704 61.458 182.183 62.378C181.677 63.2827 180.979 63.9957 180.09 64.517C179.201 65.023 178.196 65.276 177.077 65.276ZM177.077 62.585C177.598 62.585 178.058 62.4623 178.457 62.217C178.871 61.9717 179.193 61.596 179.423 61.09C179.668 60.584 179.791 59.9553 179.791 59.204C179.791 58.4527 179.668 57.8317 179.423 57.341C179.193 56.835 178.871 56.4593 178.457 56.214C178.058 55.9533 177.606 55.823 177.1 55.823C176.609 55.823 176.157 55.9533 175.743 56.214C175.329 56.4593 174.999 56.835 174.754 57.341C174.524 57.8317 174.409 58.4527 174.409 59.204C174.409 59.9553 174.524 60.584 174.754 61.09C174.999 61.596 175.321 61.9717 175.72 62.217C176.134 62.4623 176.586 62.585 177.077 62.585ZM190.413 65C189.6 65 188.887 64.8773 188.274 64.632C187.676 64.3713 187.208 63.9497 186.871 63.367C186.533 62.769 186.365 61.9563 186.365 60.929V56.007H184.387V53.408H186.365L186.71 50.257H189.47V53.408H192.529V56.007H189.47V60.975C189.47 61.4963 189.585 61.8567 189.815 62.056C190.045 62.2553 190.436 62.355 190.988 62.355H192.506V65H190.413ZM200.416 65.276C199.251 65.276 198.216 65.0307 197.311 64.54C196.422 64.034 195.724 63.3363 195.218 62.447C194.727 61.5423 194.482 60.4997 194.482 59.319C194.482 58.1077 194.727 57.042 195.218 56.122C195.709 55.1867 196.399 54.4583 197.288 53.937C198.193 53.4003 199.235 53.132 200.416 53.132C201.566 53.132 202.57 53.385 203.429 53.891C204.288 54.397 204.955 55.0793 205.43 55.938C205.905 56.7967 206.143 57.7703 206.143 58.859C206.143 59.0123 206.143 59.1887 206.143 59.388C206.143 59.572 206.128 59.7637 206.097 59.963H196.69V58.077H203.015C202.969 57.3257 202.701 56.7353 202.21 56.306C201.735 55.8767 201.137 55.662 200.416 55.662C199.895 55.662 199.412 55.7847 198.967 56.03C198.522 56.26 198.17 56.6203 197.909 57.111C197.664 57.6017 197.541 58.2227 197.541 58.974V59.641C197.541 60.2697 197.656 60.8217 197.886 61.297C198.131 61.757 198.469 62.1173 198.898 62.378C199.327 62.6233 199.826 62.746 200.393 62.746C200.96 62.746 201.428 62.6233 201.796 62.378C202.179 62.1327 202.463 61.8183 202.647 61.435H205.821C205.606 62.1557 205.246 62.8073 204.74 63.39C204.234 63.9727 203.613 64.4327 202.877 64.77C202.141 65.1073 201.321 65.276 200.416 65.276ZM208.686 65V48.44H211.791V65H208.686Z" fill="white"/>
<path d="M282.083 70.8346V51.3346C282.083 50.7388 282.288 50.2289 282.696 49.805C283.104 49.381 283.595 49.1687 284.167 49.168H300.833C301.406 49.168 301.897 49.3803 302.305 49.805C302.714 50.2296 302.918 50.7395 302.917 51.3346V64.3346C302.917 64.9305 302.713 65.4407 302.305 65.8654C301.898 66.2901 301.407 66.502 300.833 66.5013H286.25L282.083 70.8346ZM289.453 62.4388L292.5 60.5159L295.547 62.4388L294.74 58.8367L297.448 56.3992L293.88 56.1013L292.5 52.6888L291.12 56.1013L287.552 56.3992L290.261 58.8367L289.453 62.4388Z" fill="white"/>
<path d="M44.64 144.18C43.64 144.18 42.77 143.96 42.03 143.52C41.29 143.07 40.715 142.445 40.305 141.645C39.895 140.835 39.69 139.895 39.69 138.825C39.69 137.745 39.9 136.795 40.32 135.975C40.74 135.145 41.345 134.495 42.135 134.025C42.925 133.555 43.87 133.32 44.97 133.32C46.2 133.32 47.22 133.615 48.03 134.205C48.85 134.795 49.38 135.615 49.62 136.665H47.355C47.205 136.205 46.925 135.845 46.515 135.585C46.115 135.315 45.595 135.18 44.955 135.18C44.275 135.18 43.695 135.33 43.215 135.63C42.735 135.93 42.37 136.35 42.12 136.89C41.87 137.43 41.745 138.075 41.745 138.825C41.745 139.585 41.87 140.23 42.12 140.76C42.37 141.29 42.725 141.695 43.185 141.975C43.655 142.245 44.205 142.38 44.835 142.38C45.755 142.38 46.45 142.135 46.92 141.645C47.4 141.145 47.685 140.5 47.775 139.71H45.195V138.195H49.815V144H47.94L47.79 142.665C47.57 142.995 47.31 143.275 47.01 143.505C46.72 143.725 46.38 143.89 45.99 144C45.6 144.12 45.15 144.18 44.64 144.18ZM51.7098 144V136.44H53.7348V144H51.7098ZM52.7298 135.405C52.3698 135.405 52.0698 135.3 51.8298 135.09C51.5998 134.87 51.4848 134.595 51.4848 134.265C51.4848 133.935 51.5998 133.665 51.8298 133.455C52.0698 133.235 52.3698 133.125 52.7298 133.125C53.0998 133.125 53.3998 133.235 53.6298 133.455C53.8698 133.665 53.9898 133.935 53.9898 134.265C53.9898 134.595 53.8698 134.87 53.6298 135.09C53.3998 135.3 53.0998 135.405 52.7298 135.405ZM57.806 144L55.031 136.44H57.161L59.036 142.095L60.911 136.44H63.026L60.266 144H57.806ZM67.5409 144.18C66.7809 144.18 66.1059 144.02 65.5159 143.7C64.9359 143.37 64.4809 142.915 64.1509 142.335C63.8309 141.745 63.6709 141.065 63.6709 140.295C63.6709 139.505 63.8309 138.81 64.1509 138.21C64.4709 137.6 64.9209 137.125 65.5009 136.785C66.0909 136.435 66.7709 136.26 67.5409 136.26C68.2909 136.26 68.9459 136.425 69.5059 136.755C70.0659 137.085 70.5009 137.53 70.8109 138.09C71.1209 138.65 71.2759 139.285 71.2759 139.995C71.2759 140.095 71.2759 140.21 71.2759 140.34C71.2759 140.46 71.2659 140.585 71.2459 140.715H65.1109V139.485H69.2359C69.2059 138.995 69.0309 138.61 68.7109 138.33C68.4009 138.05 68.0109 137.91 67.5409 137.91C67.2009 137.91 66.8859 137.99 66.5959 138.15C66.3059 138.3 66.0759 138.535 65.9059 138.855C65.7459 139.175 65.6659 139.58 65.6659 140.07V140.505C65.6659 140.915 65.7409 141.275 65.8909 141.585C66.0509 141.885 66.2709 142.12 66.5509 142.29C66.8309 142.45 67.1559 142.53 67.5259 142.53C67.8959 142.53 68.2009 142.45 68.4409 142.29C68.6909 142.13 68.8759 141.925 68.9959 141.675H71.0659C70.9259 142.145 70.6909 142.57 70.3609 142.95C70.0309 143.33 69.6259 143.63 69.1459 143.85C68.6659 144.07 68.1309 144.18 67.5409 144.18ZM79.2846 144.18C78.6746 144.18 78.1496 144.055 77.7096 143.805C77.2796 143.545 76.9496 143.17 76.7196 142.68C76.4896 142.18 76.3746 141.565 76.3746 140.835V136.44H78.3996V140.625C78.3996 141.235 78.5246 141.695 78.7746 142.005C79.0346 142.315 79.4296 142.47 79.9596 142.47C80.2996 142.47 80.5996 142.395 80.8596 142.245C81.1196 142.085 81.3246 141.86 81.4746 141.57C81.6346 141.27 81.7146 140.905 81.7146 140.475V136.44H83.7246V144H81.9546L81.7896 142.77C81.5696 143.2 81.2446 143.545 80.8146 143.805C80.3846 144.055 79.8746 144.18 79.2846 144.18ZM88.7978 144.18C88.1078 144.18 87.5078 144.07 86.9978 143.85C86.4878 143.63 86.0878 143.325 85.7978 142.935C85.5078 142.545 85.3428 142.105 85.3028 141.615H87.3128C87.3628 141.805 87.4478 141.98 87.5678 142.14C87.6878 142.29 87.8478 142.41 88.0478 142.5C88.2478 142.59 88.4878 142.635 88.7678 142.635C89.0378 142.635 89.2578 142.6 89.4278 142.53C89.5978 142.45 89.7228 142.345 89.8028 142.215C89.8928 142.085 89.9378 141.95 89.9378 141.81C89.9378 141.6 89.8778 141.44 89.7578 141.33C89.6378 141.21 89.4628 141.115 89.2328 141.045C89.0028 140.975 88.7228 140.905 88.3928 140.835C88.0328 140.765 87.6778 140.68 87.3278 140.58C86.9878 140.47 86.6828 140.335 86.4128 140.175C86.1428 140.015 85.9278 139.81 85.7678 139.56C85.6078 139.31 85.5278 139 85.5278 138.63C85.5278 138.18 85.6478 137.78 85.8878 137.43C86.1278 137.07 86.4778 136.785 86.9378 136.575C87.3978 136.365 87.9528 136.26 88.6028 136.26C89.5128 136.26 90.2328 136.465 90.7628 136.875C91.2928 137.285 91.6078 137.85 91.7078 138.57H89.8028C89.7428 138.34 89.6078 138.16 89.3978 138.03C89.1978 137.89 88.9278 137.82 88.5878 137.82C88.2278 137.82 87.9528 137.885 87.7628 138.015C87.5728 138.145 87.4778 138.315 87.4778 138.525C87.4778 138.665 87.5378 138.79 87.6578 138.9C87.7878 139.01 87.9678 139.105 88.1978 139.185C88.4278 139.255 88.7078 139.325 89.0378 139.395C89.6178 139.515 90.1278 139.655 90.5678 139.815C91.0078 139.965 91.3528 140.185 91.6028 140.475C91.8528 140.755 91.9778 141.165 91.9778 141.705C91.9778 142.185 91.8478 142.615 91.5878 142.995C91.3278 143.365 90.9578 143.655 90.4778 143.865C90.0078 144.075 89.4478 144.18 88.7978 144.18ZM98.1814 147.3L100.011 143.16H99.5614L96.5314 136.44H98.7364L100.896 141.315L102.846 136.44H104.991L100.326 147.3H98.1814ZM109.2 144.18C108.48 144.18 107.83 144.015 107.25 143.685C106.68 143.345 106.225 142.88 105.885 142.29C105.555 141.69 105.39 141.005 105.39 140.235C105.39 139.445 105.555 138.755 105.885 138.165C106.225 137.565 106.685 137.1 107.265 136.77C107.845 136.43 108.495 136.26 109.215 136.26C109.945 136.26 110.595 136.43 111.165 136.77C111.745 137.1 112.2 137.565 112.53 138.165C112.87 138.755 113.04 139.44 113.04 140.22C113.04 141 112.87 141.69 112.53 142.29C112.2 142.88 111.745 143.345 111.165 143.685C110.585 144.015 109.93 144.18 109.2 144.18ZM109.2 142.425C109.54 142.425 109.84 142.345 110.1 142.185C110.37 142.025 110.58 141.78 110.73 141.45C110.89 141.12 110.97 140.71 110.97 140.22C110.97 139.73 110.89 139.325 110.73 139.005C110.58 138.675 110.37 138.43 110.1 138.27C109.84 138.1 109.545 138.015 109.215 138.015C108.895 138.015 108.6 138.1 108.33 138.27C108.06 138.43 107.845 138.675 107.685 139.005C107.535 139.325 107.46 139.73 107.46 140.22C107.46 140.71 107.535 141.12 107.685 141.45C107.845 141.78 108.055 142.025 108.315 142.185C108.585 142.345 108.88 142.425 109.2 142.425ZM117.605 144.18C116.995 144.18 116.47 144.055 116.03 143.805C115.6 143.545 115.27 143.17 115.04 142.68C114.81 142.18 114.695 141.565 114.695 140.835V136.44H116.72V140.625C116.72 141.235 116.845 141.695 117.095 142.005C117.355 142.315 117.75 142.47 118.28 142.47C118.62 142.47 118.92 142.395 119.18 142.245C119.44 142.085 119.645 141.86 119.795 141.57C119.955 141.27 120.035 140.905 120.035 140.475V136.44H122.045V144H120.275L120.11 142.77C119.89 143.2 119.565 143.545 119.135 143.805C118.705 144.055 118.195 144.18 117.605 144.18ZM124.028 144V136.44H125.828L126.023 137.835C126.203 137.505 126.428 137.225 126.698 136.995C126.978 136.765 127.293 136.585 127.643 136.455C128.003 136.325 128.398 136.26 128.828 136.26V138.405H128.138C127.838 138.405 127.558 138.44 127.298 138.51C127.048 138.58 126.828 138.695 126.638 138.855C126.448 139.005 126.303 139.215 126.203 139.485C126.103 139.755 126.053 140.095 126.053 140.505V144H124.028ZM134.041 144V135.765C134.041 135.135 134.146 134.635 134.356 134.265C134.566 133.895 134.866 133.625 135.256 133.455C135.656 133.285 136.121 133.2 136.651 133.2H137.581V134.925H136.951C136.631 134.925 136.401 134.99 136.261 135.12C136.131 135.24 136.066 135.455 136.066 135.765V144H134.041ZM133.006 138.135V136.44H137.701V138.135H133.006ZM142.599 144.18C141.839 144.18 141.164 144.02 140.574 143.7C139.994 143.37 139.539 142.915 139.209 142.335C138.889 141.745 138.729 141.065 138.729 140.295C138.729 139.505 138.889 138.81 139.209 138.21C139.529 137.6 139.979 137.125 140.559 136.785C141.149 136.435 141.829 136.26 142.599 136.26C143.349 136.26 144.004 136.425 144.564 136.755C145.124 137.085 145.559 137.53 145.869 138.09C146.179 138.65 146.334 139.285 146.334 139.995C146.334 140.095 146.334 140.21 146.334 140.34C146.334 140.46 146.324 140.585 146.304 140.715H140.169V139.485H144.294C144.264 138.995 144.089 138.61 143.769 138.33C143.459 138.05 143.069 137.91 142.599 137.91C142.259 137.91 141.944 137.99 141.654 138.15C141.364 138.3 141.134 138.535 140.964 138.855C140.804 139.175 140.724 139.58 140.724 140.07V140.505C140.724 140.915 140.799 141.275 140.949 141.585C141.109 141.885 141.329 142.12 141.609 142.29C141.889 142.45 142.214 142.53 142.584 142.53C142.954 142.53 143.259 142.45 143.499 142.29C143.749 142.13 143.934 141.925 144.054 141.675H146.124C145.984 142.145 145.749 142.57 145.419 142.95C145.089 143.33 144.684 143.63 144.204 143.85C143.724 144.07 143.189 144.18 142.599 144.18ZM151.623 144.18C150.863 144.18 150.188 144.02 149.598 143.7C149.018 143.37 148.563 142.915 148.233 142.335C147.913 141.745 147.753 141.065 147.753 140.295C147.753 139.505 147.913 138.81 148.233 138.21C148.553 137.6 149.003 137.125 149.583 136.785C150.173 136.435 150.853 136.26 151.623 136.26C152.373 136.26 153.028 136.425 153.588 136.755C154.148 137.085 154.583 137.53 154.893 138.09C155.203 138.65 155.358 139.285 155.358 139.995C155.358 140.095 155.358 140.21 155.358 140.34C155.358 140.46 155.348 140.585 155.328 140.715H149.193V139.485H153.318C153.288 138.995 153.113 138.61 152.793 138.33C152.483 138.05 152.093 137.91 151.623 137.91C151.283 137.91 150.968 137.99 150.678 138.15C150.388 138.3 150.158 138.535 149.988 138.855C149.828 139.175 149.748 139.58 149.748 140.07V140.505C149.748 140.915 149.823 141.275 149.973 141.585C150.133 141.885 150.353 142.12 150.633 142.29C150.913 142.45 151.238 142.53 151.608 142.53C151.978 142.53 152.283 142.45 152.523 142.29C152.773 142.13 152.958 141.925 153.078 141.675H155.148C155.008 142.145 154.773 142.57 154.443 142.95C154.113 143.33 153.708 143.63 153.228 143.85C152.748 144.07 152.213 144.18 151.623 144.18ZM160.376 144.18C159.686 144.18 159.066 144.01 158.516 143.67C157.976 143.33 157.551 142.86 157.241 142.26C156.931 141.66 156.776 140.985 156.776 140.235C156.776 139.465 156.931 138.785 157.241 138.195C157.561 137.595 157.996 137.125 158.546 136.785C159.106 136.435 159.731 136.26 160.421 136.26C160.961 136.26 161.436 136.36 161.846 136.56C162.256 136.76 162.586 137.045 162.836 137.415V133.2H164.861V144H163.061L162.836 142.965C162.686 143.175 162.496 143.375 162.266 143.565C162.046 143.755 161.781 143.905 161.471 144.015C161.161 144.125 160.796 144.18 160.376 144.18ZM160.856 142.41C161.256 142.41 161.606 142.32 161.906 142.14C162.216 141.95 162.456 141.69 162.626 141.36C162.796 141.03 162.881 140.65 162.881 140.22C162.881 139.79 162.796 139.41 162.626 139.08C162.456 138.75 162.216 138.495 161.906 138.315C161.606 138.125 161.256 138.03 160.856 138.03C160.476 138.03 160.131 138.125 159.821 138.315C159.511 138.495 159.266 138.75 159.086 139.08C158.916 139.41 158.831 139.785 158.831 140.205C158.831 140.645 158.916 141.03 159.086 141.36C159.266 141.69 159.506 141.95 159.806 142.14C160.116 142.32 160.466 142.41 160.856 142.41ZM171.315 144.18C170.925 144.18 170.575 144.13 170.265 144.03C169.965 143.93 169.695 143.795 169.455 143.625C169.225 143.445 169.03 143.245 168.87 143.025L168.645 144H166.845V133.2H168.87V137.49C169.11 137.14 169.425 136.85 169.815 136.62C170.215 136.38 170.71 136.26 171.3 136.26C172 136.26 172.62 136.435 173.16 136.785C173.71 137.125 174.14 137.595 174.45 138.195C174.77 138.785 174.93 139.465 174.93 140.235C174.93 140.985 174.77 141.66 174.45 142.26C174.14 142.86 173.715 143.33 173.175 143.67C172.635 144.01 172.015 144.18 171.315 144.18ZM170.835 142.41C171.235 142.41 171.585 142.32 171.885 142.14C172.195 141.95 172.435 141.695 172.605 141.375C172.775 141.045 172.86 140.665 172.86 140.235C172.86 139.805 172.775 139.425 172.605 139.095C172.435 138.755 172.195 138.495 171.885 138.315C171.585 138.125 171.235 138.03 170.835 138.03C170.445 138.03 170.095 138.125 169.785 138.315C169.485 138.495 169.245 138.75 169.065 139.08C168.895 139.41 168.81 139.79 168.81 140.22C168.81 140.65 168.895 141.035 169.065 141.375C169.245 141.705 169.485 141.96 169.785 142.14C170.095 142.32 170.445 142.41 170.835 142.41ZM179.225 144.18C178.595 144.18 178.075 144.08 177.665 143.88C177.255 143.67 176.95 143.395 176.75 143.055C176.56 142.705 176.465 142.32 176.465 141.9C176.465 141.44 176.58 141.035 176.81 140.685C177.05 140.335 177.405 140.06 177.875 139.86C178.355 139.66 178.955 139.56 179.675 139.56H181.55C181.55 139.19 181.5 138.885 181.4 138.645C181.3 138.395 181.145 138.21 180.935 138.09C180.725 137.97 180.445 137.91 180.095 137.91C179.715 137.91 179.39 137.995 179.12 138.165C178.86 138.325 178.7 138.575 178.64 138.915H176.675C176.725 138.375 176.9 137.91 177.2 137.52C177.51 137.12 177.915 136.81 178.415 136.59C178.925 136.37 179.49 136.26 180.11 136.26C180.82 136.26 181.435 136.38 181.955 136.62C182.475 136.86 182.875 137.205 183.155 137.655C183.435 138.105 183.575 138.66 183.575 139.32V144H181.865L181.64 142.845C181.53 143.045 181.4 143.225 181.25 143.385C181.1 143.545 180.925 143.685 180.725 143.805C180.525 143.925 180.3 144.015 180.05 144.075C179.8 144.145 179.525 144.18 179.225 144.18ZM179.705 142.62C179.965 142.62 180.195 142.575 180.395 142.485C180.605 142.385 180.785 142.255 180.935 142.095C181.085 141.925 181.2 141.735 181.28 141.525C181.37 141.305 181.43 141.07 181.46 140.82V140.805H179.915C179.605 140.805 179.35 140.845 179.15 140.925C178.96 140.995 178.82 141.1 178.73 141.24C178.64 141.38 178.595 141.54 178.595 141.72C178.595 141.92 178.64 142.085 178.73 142.215C178.82 142.345 178.95 142.445 179.12 142.515C179.29 142.585 179.485 142.62 179.705 142.62ZM189.124 144.18C188.364 144.18 187.689 144.01 187.099 143.67C186.509 143.33 186.049 142.865 185.719 142.275C185.389 141.685 185.224 141.01 185.224 140.25C185.224 139.47 185.389 138.785 185.719 138.195C186.049 137.595 186.509 137.125 187.099 136.785C187.689 136.435 188.364 136.26 189.124 136.26C190.094 136.26 190.909 136.515 191.569 137.025C192.229 137.535 192.649 138.235 192.829 139.125H190.684C190.594 138.775 190.404 138.5 190.114 138.3C189.834 138.1 189.499 138 189.109 138C188.759 138 188.444 138.09 188.164 138.27C187.894 138.44 187.679 138.695 187.519 139.035C187.369 139.365 187.294 139.76 187.294 140.22C187.294 140.57 187.339 140.885 187.429 141.165C187.519 141.435 187.644 141.67 187.804 141.87C187.964 142.06 188.154 142.205 188.374 142.305C188.604 142.405 188.849 142.455 189.109 142.455C189.369 142.455 189.604 142.41 189.814 142.32C190.034 142.23 190.219 142.105 190.369 141.945C190.519 141.775 190.624 141.57 190.684 141.33H192.829C192.649 142.2 192.224 142.895 191.554 143.415C190.894 143.925 190.084 144.18 189.124 144.18ZM199.525 144L196.3 139.86L199.195 136.44H201.58L197.845 140.715V139.11L202.045 144H199.525ZM194.575 144V133.2H196.6V144H194.575Z" fill="black"/>
<path d="M39.825 176V168.3H42.344C42.9453 168.3 43.4403 168.403 43.829 168.608C44.225 168.806 44.5147 169.074 44.698 169.411C44.8887 169.748 44.984 170.133 44.984 170.566C44.984 170.984 44.8887 171.365 44.698 171.71C44.5147 172.047 44.2287 172.319 43.84 172.524C43.4513 172.722 42.9527 172.821 42.344 172.821H40.749V176H39.825ZM40.749 172.04H42.322C42.938 172.04 43.378 171.908 43.642 171.644C43.906 171.373 44.038 171.013 44.038 170.566C44.038 170.089 43.906 169.723 43.642 169.466C43.378 169.202 42.938 169.07 42.322 169.07H40.749V172.04ZM46.1509 176V168.08H47.0749V176H46.1509ZM51.0311 176.132C50.5177 176.132 50.0594 176.011 49.6561 175.769C49.2527 175.527 48.9374 175.19 48.7101 174.757C48.4827 174.317 48.3691 173.807 48.3691 173.228C48.3691 172.641 48.4791 172.132 48.6991 171.699C48.9264 171.266 49.2417 170.929 49.6451 170.687C50.0557 170.445 50.5251 170.324 51.0531 170.324C51.5957 170.324 52.0577 170.445 52.4391 170.687C52.8204 170.929 53.1101 171.248 53.3081 171.644C53.5134 172.033 53.6161 172.462 53.6161 172.931C53.6161 173.004 53.6161 173.081 53.6161 173.162C53.6161 173.243 53.6124 173.334 53.6051 173.437H49.0621V172.722H52.7031C52.6811 172.216 52.5124 171.82 52.1971 171.534C51.8891 171.248 51.5004 171.105 51.0311 171.105C50.7231 171.105 50.4334 171.178 50.1621 171.325C49.8907 171.464 49.6744 171.673 49.5131 171.952C49.3517 172.223 49.2711 172.564 49.2711 172.975V173.283C49.2711 173.738 49.3517 174.119 49.5131 174.427C49.6817 174.735 49.8981 174.966 50.1621 175.12C50.4334 175.274 50.7231 175.351 51.0311 175.351C51.4197 175.351 51.7387 175.267 51.9881 175.098C52.2447 174.922 52.4317 174.684 52.5491 174.383H53.4621C53.3667 174.72 53.2091 175.021 52.9891 175.285C52.7691 175.542 52.4941 175.747 52.1641 175.901C51.8414 176.055 51.4637 176.132 51.0311 176.132ZM56.656 176.132C56.2087 176.132 55.8347 176.055 55.534 175.901C55.2334 175.74 55.0097 175.531 54.863 175.274C54.7164 175.01 54.643 174.724 54.643 174.416C54.643 174.042 54.7384 173.727 54.929 173.47C55.127 173.206 55.402 173.008 55.754 172.876C56.1134 172.737 56.535 172.667 57.019 172.667H58.482C58.482 172.322 58.427 172.036 58.317 171.809C58.2144 171.574 58.0604 171.398 57.855 171.281C57.657 171.164 57.4077 171.105 57.107 171.105C56.755 171.105 56.4507 171.193 56.194 171.369C55.9374 171.545 55.7797 171.805 55.721 172.15H54.775C54.819 171.754 54.951 171.424 55.171 171.16C55.3984 170.889 55.6844 170.683 56.029 170.544C56.3737 170.397 56.733 170.324 57.107 170.324C57.6204 170.324 58.0457 170.419 58.383 170.61C58.7277 170.793 58.9844 171.054 59.153 171.391C59.3217 171.721 59.406 172.113 59.406 172.568V176H58.581L58.526 175.021C58.4527 175.175 58.3574 175.322 58.24 175.461C58.13 175.593 57.998 175.71 57.844 175.813C57.6974 175.908 57.525 175.985 57.327 176.044C57.129 176.103 56.9054 176.132 56.656 176.132ZM56.799 175.351C57.0557 175.351 57.2867 175.3 57.492 175.197C57.7047 175.087 57.8844 174.94 58.031 174.757C58.1777 174.566 58.2877 174.357 58.361 174.13C58.4417 173.903 58.482 173.664 58.482 173.415V173.382H57.096C56.7367 173.382 56.447 173.426 56.227 173.514C56.007 173.595 55.8494 173.712 55.754 173.866C55.6587 174.013 55.611 174.181 55.611 174.372C55.611 174.57 55.655 174.742 55.743 174.889C55.8384 175.036 55.974 175.149 56.15 175.23C56.3334 175.311 56.5497 175.351 56.799 175.351ZM62.9254 176.132C62.4708 176.132 62.0711 176.055 61.7264 175.901C61.3818 175.747 61.1068 175.534 60.9014 175.263C60.7034 174.984 60.5824 174.658 60.5384 174.284H61.4844C61.5211 174.475 61.5981 174.651 61.7154 174.812C61.8328 174.973 61.9904 175.105 62.1884 175.208C62.3938 175.303 62.6431 175.351 62.9364 175.351C63.1931 175.351 63.4058 175.314 63.5744 175.241C63.7431 175.16 63.8678 175.054 63.9484 174.922C64.0364 174.79 64.0804 174.647 64.0804 174.493C64.0804 174.266 64.0254 174.093 63.9154 173.976C63.8128 173.859 63.6588 173.767 63.4534 173.701C63.2481 173.628 62.9988 173.565 62.7054 173.514C62.4634 173.47 62.2251 173.411 61.9904 173.338C61.7558 173.265 61.5468 173.169 61.3634 173.052C61.1801 172.927 61.0334 172.777 60.9234 172.601C60.8208 172.425 60.7694 172.209 60.7694 171.952C60.7694 171.637 60.8501 171.358 61.0114 171.116C61.1801 170.867 61.4148 170.672 61.7154 170.533C62.0161 170.394 62.3681 170.324 62.7714 170.324C63.3654 170.324 63.8458 170.467 64.2124 170.753C64.5791 171.039 64.7954 171.453 64.8614 171.996H63.9484C63.9118 171.717 63.7908 171.501 63.5854 171.347C63.3874 171.186 63.1124 171.105 62.7604 171.105C62.4158 171.105 62.1518 171.175 61.9684 171.314C61.7924 171.453 61.7044 171.637 61.7044 171.864C61.7044 172.011 61.7521 172.143 61.8474 172.26C61.9501 172.37 62.1004 172.465 62.2984 172.546C62.4964 172.627 62.7348 172.693 63.0134 172.744C63.3801 172.81 63.7138 172.898 64.0144 173.008C64.3151 173.118 64.5571 173.283 64.7404 173.503C64.9311 173.716 65.0264 174.02 65.0264 174.416C65.0264 174.761 64.9384 175.061 64.7624 175.318C64.5938 175.575 64.3518 175.776 64.0364 175.923C63.7211 176.062 63.3508 176.132 62.9254 176.132ZM68.7879 176.132C68.2746 176.132 67.8162 176.011 67.4129 175.769C67.0096 175.527 66.6942 175.19 66.4669 174.757C66.2396 174.317 66.1259 173.807 66.1259 173.228C66.1259 172.641 66.2359 172.132 66.4559 171.699C66.6832 171.266 66.9986 170.929 67.4019 170.687C67.8126 170.445 68.2819 170.324 68.8099 170.324C69.3526 170.324 69.8146 170.445 70.1959 170.687C70.5772 170.929 70.8669 171.248 71.0649 171.644C71.2702 172.033 71.3729 172.462 71.3729 172.931C71.3729 173.004 71.3729 173.081 71.3729 173.162C71.3729 173.243 71.3692 173.334 71.3619 173.437H66.8189V172.722H70.4599C70.4379 172.216 70.2692 171.82 69.9539 171.534C69.6459 171.248 69.2572 171.105 68.7879 171.105C68.4799 171.105 68.1902 171.178 67.9189 171.325C67.6476 171.464 67.4312 171.673 67.2699 171.952C67.1086 172.223 67.0279 172.564 67.0279 172.975V173.283C67.0279 173.738 67.1086 174.119 67.2699 174.427C67.4386 174.735 67.6549 174.966 67.9189 175.12C68.1902 175.274 68.4799 175.351 68.7879 175.351C69.1766 175.351 69.4956 175.267 69.7449 175.098C70.0016 174.922 70.1886 174.684 70.3059 174.383H71.2189C71.1236 174.72 70.9659 175.021 70.7459 175.285C70.5259 175.542 70.2509 175.747 69.9209 175.901C69.5982 176.055 69.2206 176.132 68.7879 176.132ZM77.6207 176.132C77.1661 176.132 76.7664 176.055 76.4217 175.901C76.0771 175.747 75.8021 175.534 75.5967 175.263C75.3987 174.984 75.2777 174.658 75.2337 174.284H76.1797C76.2164 174.475 76.2934 174.651 76.4107 174.812C76.5281 174.973 76.6857 175.105 76.8837 175.208C77.0891 175.303 77.3384 175.351 77.6317 175.351C77.8884 175.351 78.1011 175.314 78.2697 175.241C78.4384 175.16 78.5631 175.054 78.6437 174.922C78.7317 174.79 78.7757 174.647 78.7757 174.493C78.7757 174.266 78.7207 174.093 78.6107 173.976C78.5081 173.859 78.3541 173.767 78.1487 173.701C77.9434 173.628 77.6941 173.565 77.4007 173.514C77.1587 173.47 76.9204 173.411 76.6857 173.338C76.4511 173.265 76.2421 173.169 76.0587 173.052C75.8754 172.927 75.7287 172.777 75.6187 172.601C75.5161 172.425 75.4647 172.209 75.4647 171.952C75.4647 171.637 75.5454 171.358 75.7067 171.116C75.8754 170.867 76.1101 170.672 76.4107 170.533C76.7114 170.394 77.0634 170.324 77.4667 170.324C78.0607 170.324 78.5411 170.467 78.9077 170.753C79.2744 171.039 79.4907 171.453 79.5567 171.996H78.6437C78.6071 171.717 78.4861 171.501 78.2807 171.347C78.0827 171.186 77.8077 171.105 77.4557 171.105C77.1111 171.105 76.8471 171.175 76.6637 171.314C76.4877 171.453 76.3997 171.637 76.3997 171.864C76.3997 172.011 76.4474 172.143 76.5427 172.26C76.6454 172.37 76.7957 172.465 76.9937 172.546C77.1917 172.627 77.4301 172.693 77.7087 172.744C78.0754 172.81 78.4091 172.898 78.7097 173.008C79.0104 173.118 79.2524 173.283 79.4357 173.503C79.6264 173.716 79.7217 174.02 79.7217 174.416C79.7217 174.761 79.6337 175.061 79.4577 175.318C79.2891 175.575 79.0471 175.776 78.7317 175.923C78.4164 176.062 78.0461 176.132 77.6207 176.132ZM83.4832 176.132C82.9699 176.132 82.5116 176.011 82.1082 175.769C81.7049 175.527 81.3896 175.19 81.1622 174.757C80.9349 174.317 80.8212 173.807 80.8212 173.228C80.8212 172.641 80.9312 172.132 81.1512 171.699C81.3786 171.266 81.6939 170.929 82.0972 170.687C82.5079 170.445 82.9772 170.324 83.5052 170.324C84.0479 170.324 84.5099 170.445 84.8912 170.687C85.2726 170.929 85.5622 171.248 85.7602 171.644C85.9656 172.033 86.0682 172.462 86.0682 172.931C86.0682 173.004 86.0682 173.081 86.0682 173.162C86.0682 173.243 86.0646 173.334 86.0572 173.437H81.5142V172.722H85.1552C85.1332 172.216 84.9646 171.82 84.6492 171.534C84.3412 171.248 83.9526 171.105 83.4832 171.105C83.1752 171.105 82.8856 171.178 82.6142 171.325C82.3429 171.464 82.1266 171.673 81.9652 171.952C81.8039 172.223 81.7232 172.564 81.7232 172.975V173.283C81.7232 173.738 81.8039 174.119 81.9652 174.427C82.1339 174.735 82.3502 174.966 82.6142 175.12C82.8856 175.274 83.1752 175.351 83.4832 175.351C83.8719 175.351 84.1909 175.267 84.4402 175.098C84.6969 174.922 84.8839 174.684 85.0012 174.383H85.9142C85.8189 174.72 85.6612 175.021 85.4412 175.285C85.2212 175.542 84.9462 175.747 84.6162 175.901C84.2936 176.055 83.9159 176.132 83.4832 176.132ZM87.3042 176V168.08H88.2282V176H87.3042ZM92.1844 176.132C91.6711 176.132 91.2127 176.011 90.8094 175.769C90.4061 175.527 90.0907 175.19 89.8634 174.757C89.6361 174.317 89.5224 173.807 89.5224 173.228C89.5224 172.641 89.6324 172.132 89.8524 171.699C90.0797 171.266 90.3951 170.929 90.7984 170.687C91.2091 170.445 91.6784 170.324 92.2064 170.324C92.7491 170.324 93.2111 170.445 93.5924 170.687C93.9737 170.929 94.2634 171.248 94.4614 171.644C94.6667 172.033 94.7694 172.462 94.7694 172.931C94.7694 173.004 94.7694 173.081 94.7694 173.162C94.7694 173.243 94.7657 173.334 94.7584 173.437H90.2154V172.722H93.8564C93.8344 172.216 93.6657 171.82 93.3504 171.534C93.0424 171.248 92.6537 171.105 92.1844 171.105C91.8764 171.105 91.5867 171.178 91.3154 171.325C91.0441 171.464 90.8277 171.673 90.6664 171.952C90.5051 172.223 90.4244 172.564 90.4244 172.975V173.283C90.4244 173.738 90.5051 174.119 90.6664 174.427C90.8351 174.735 91.0514 174.966 91.3154 175.12C91.5867 175.274 91.8764 175.351 92.1844 175.351C92.5731 175.351 92.8921 175.267 93.1414 175.098C93.3981 174.922 93.5851 174.684 93.7024 174.383H94.6154C94.5201 174.72 94.3624 175.021 94.1424 175.285C93.9224 175.542 93.6474 175.747 93.3174 175.901C92.9947 176.055 92.6171 176.132 92.1844 176.132ZM98.5024 176.132C97.9817 176.132 97.5124 176.011 97.0944 175.769C96.6837 175.527 96.361 175.19 96.1264 174.757C95.8917 174.317 95.7744 173.811 95.7744 173.239C95.7744 172.652 95.8917 172.143 96.1264 171.71C96.361 171.277 96.6837 170.94 97.0944 170.698C97.5124 170.449 97.9817 170.324 98.5024 170.324C99.1624 170.324 99.7124 170.496 100.152 170.841C100.592 171.178 100.871 171.633 100.988 172.205H100.042C99.969 171.86 99.7894 171.593 99.5034 171.402C99.2174 171.211 98.88 171.116 98.4914 171.116C98.176 171.116 97.8827 171.197 97.6114 171.358C97.3474 171.512 97.131 171.747 96.9624 172.062C96.801 172.377 96.7204 172.766 96.7204 173.228C96.7204 173.573 96.768 173.881 96.8634 174.152C96.9587 174.416 97.087 174.636 97.2484 174.812C97.4097 174.988 97.5967 175.124 97.8094 175.219C98.0294 175.307 98.2567 175.351 98.4914 175.351C98.7554 175.351 98.9937 175.311 99.2064 175.23C99.419 175.142 99.5987 175.014 99.7454 174.845C99.892 174.676 99.991 174.478 100.042 174.251H100.988C100.871 174.808 100.589 175.263 100.141 175.615C99.7014 175.96 99.155 176.132 98.5024 176.132ZM104.328 176C103.998 176 103.712 175.949 103.47 175.846C103.228 175.743 103.041 175.571 102.909 175.329C102.784 175.08 102.722 174.746 102.722 174.328V171.237H101.754V170.456H102.722L102.843 169.114H103.646V170.456H105.252V171.237H103.646V174.328C103.646 174.673 103.716 174.907 103.855 175.032C103.994 175.149 104.24 175.208 104.592 175.208H105.186V176H104.328ZM111.183 176.132C110.736 176.132 110.362 176.055 110.061 175.901C109.761 175.74 109.537 175.531 109.39 175.274C109.244 175.01 109.17 174.724 109.17 174.416C109.17 174.042 109.266 173.727 109.456 173.47C109.654 173.206 109.929 173.008 110.281 172.876C110.641 172.737 111.062 172.667 111.546 172.667H113.009C113.009 172.322 112.954 172.036 112.844 171.809C112.742 171.574 112.588 171.398 112.382 171.281C112.184 171.164 111.935 171.105 111.634 171.105C111.282 171.105 110.978 171.193 110.721 171.369C110.465 171.545 110.307 171.805 110.248 172.15H109.302C109.346 171.754 109.478 171.424 109.698 171.16C109.926 170.889 110.212 170.683 110.556 170.544C110.901 170.397 111.26 170.324 111.634 170.324C112.148 170.324 112.573 170.419 112.91 170.61C113.255 170.793 113.512 171.054 113.68 171.391C113.849 171.721 113.933 172.113 113.933 172.568V176H113.108L113.053 175.021C112.98 175.175 112.885 175.322 112.767 175.461C112.657 175.593 112.525 175.71 112.371 175.813C112.225 175.908 112.052 175.985 111.854 176.044C111.656 176.103 111.433 176.132 111.183 176.132ZM111.326 175.351C111.583 175.351 111.814 175.3 112.019 175.197C112.232 175.087 112.412 174.94 112.558 174.757C112.705 174.566 112.815 174.357 112.888 174.13C112.969 173.903 113.009 173.664 113.009 173.415V173.382H111.623C111.264 173.382 110.974 173.426 110.754 173.514C110.534 173.595 110.377 173.712 110.281 173.866C110.186 174.013 110.138 174.181 110.138 174.372C110.138 174.57 110.182 174.742 110.27 174.889C110.366 175.036 110.501 175.149 110.677 175.23C110.861 175.311 111.077 175.351 111.326 175.351ZM120.782 176.132C120.261 176.132 119.792 176.011 119.374 175.769C118.963 175.527 118.64 175.19 118.406 174.757C118.171 174.317 118.054 173.811 118.054 173.239C118.054 172.652 118.171 172.143 118.406 171.71C118.64 171.277 118.963 170.94 119.374 170.698C119.792 170.449 120.261 170.324 120.782 170.324C121.442 170.324 121.992 170.496 122.432 170.841C122.872 171.178 123.15 171.633 123.268 172.205H122.322C122.248 171.86 122.069 171.593 121.783 171.402C121.497 171.211 121.159 171.116 120.771 171.116C120.455 171.116 120.162 171.197 119.891 171.358C119.627 171.512 119.41 171.747 119.242 172.062C119.08 172.377 119 172.766 119 173.228C119 173.573 119.047 173.881 119.143 174.152C119.238 174.416 119.366 174.636 119.528 174.812C119.689 174.988 119.876 175.124 120.089 175.219C120.309 175.307 120.536 175.351 120.771 175.351C121.035 175.351 121.273 175.311 121.486 175.23C121.698 175.142 121.878 175.014 122.025 174.845C122.171 174.676 122.27 174.478 122.322 174.251H123.268C123.15 174.808 122.868 175.263 122.421 175.615C121.981 175.96 121.434 176.132 120.782 176.132ZM126.384 176.132C125.936 176.132 125.562 176.055 125.262 175.901C124.961 175.74 124.737 175.531 124.591 175.274C124.444 175.01 124.371 174.724 124.371 174.416C124.371 174.042 124.466 173.727 124.657 173.47C124.855 173.206 125.13 173.008 125.482 172.876C125.841 172.737 126.263 172.667 126.747 172.667H128.21C128.21 172.322 128.155 172.036 128.045 171.809C127.942 171.574 127.788 171.398 127.583 171.281C127.385 171.164 127.135 171.105 126.835 171.105C126.483 171.105 126.178 171.193 125.922 171.369C125.665 171.545 125.507 171.805 125.449 172.15H124.503C124.547 171.754 124.679 171.424 124.899 171.16C125.126 170.889 125.412 170.683 125.757 170.544C126.101 170.397 126.461 170.324 126.835 170.324C127.348 170.324 127.773 170.419 128.111 170.61C128.455 170.793 128.712 171.054 128.881 171.391C129.049 171.721 129.134 172.113 129.134 172.568V176H128.309L128.254 175.021C128.18 175.175 128.085 175.322 127.968 175.461C127.858 175.593 127.726 175.71 127.572 175.813C127.425 175.908 127.253 175.985 127.055 176.044C126.857 176.103 126.633 176.132 126.384 176.132ZM126.527 175.351C126.783 175.351 127.014 175.3 127.22 175.197C127.432 175.087 127.612 174.94 127.759 174.757C127.905 174.566 128.015 174.357 128.089 174.13C128.169 173.903 128.21 173.664 128.21 173.415V173.382H126.824C126.464 173.382 126.175 173.426 125.955 173.514C125.735 173.595 125.577 173.712 125.482 173.866C125.386 174.013 125.339 174.181 125.339 174.372C125.339 174.57 125.383 174.742 125.471 174.889C125.566 175.036 125.702 175.149 125.878 175.23C126.061 175.311 126.277 175.351 126.527 175.351ZM132.591 176C132.261 176 131.975 175.949 131.733 175.846C131.491 175.743 131.304 175.571 131.172 175.329C131.047 175.08 130.985 174.746 130.985 174.328V171.237H130.017V170.456H130.985L131.106 169.114H131.909V170.456H133.515V171.237H131.909V174.328C131.909 174.673 131.978 174.907 132.118 175.032C132.257 175.149 132.503 175.208 132.855 175.208H133.449V176H132.591ZM137.001 176.132C136.487 176.132 136.029 176.011 135.626 175.769C135.222 175.527 134.907 175.19 134.68 174.757C134.452 174.317 134.339 173.807 134.339 173.228C134.339 172.641 134.449 172.132 134.669 171.699C134.896 171.266 135.211 170.929 135.615 170.687C136.025 170.445 136.495 170.324 137.023 170.324C137.565 170.324 138.027 170.445 138.409 170.687C138.79 170.929 139.08 171.248 139.278 171.644C139.483 172.033 139.586 172.462 139.586 172.931C139.586 173.004 139.586 173.081 139.586 173.162C139.586 173.243 139.582 173.334 139.575 173.437H135.032V172.722H138.673C138.651 172.216 138.482 171.82 138.167 171.534C137.859 171.248 137.47 171.105 137.001 171.105C136.693 171.105 136.403 171.178 136.132 171.325C135.86 171.464 135.644 171.673 135.483 171.952C135.321 172.223 135.241 172.564 135.241 172.975V173.283C135.241 173.738 135.321 174.119 135.483 174.427C135.651 174.735 135.868 174.966 136.132 175.12C136.403 175.274 136.693 175.351 137.001 175.351C137.389 175.351 137.708 175.267 137.958 175.098C138.214 174.922 138.401 174.684 138.519 174.383H139.432C139.336 174.72 139.179 175.021 138.959 175.285C138.739 175.542 138.464 175.747 138.134 175.901C137.811 176.055 137.433 176.132 137.001 176.132ZM142.979 178.552C142.48 178.552 142.036 178.486 141.648 178.354C141.266 178.229 140.969 178.035 140.757 177.771C140.544 177.507 140.438 177.181 140.438 176.792C140.438 176.623 140.471 176.444 140.537 176.253C140.61 176.062 140.731 175.875 140.9 175.692C141.076 175.509 141.321 175.344 141.637 175.197L142.275 175.571C141.886 175.732 141.633 175.916 141.516 176.121C141.398 176.334 141.34 176.528 141.34 176.704C141.34 176.946 141.409 177.148 141.549 177.309C141.688 177.47 141.882 177.591 142.132 177.672C142.381 177.753 142.663 177.793 142.979 177.793C143.294 177.793 143.565 177.745 143.793 177.65C144.02 177.562 144.196 177.437 144.321 177.276C144.445 177.122 144.508 176.935 144.508 176.715C144.508 176.458 144.412 176.242 144.222 176.066C144.031 175.897 143.668 175.798 143.133 175.769C142.7 175.74 142.337 175.699 142.044 175.648C141.75 175.597 141.508 175.538 141.318 175.472C141.127 175.399 140.966 175.318 140.834 175.23C140.709 175.142 140.595 175.05 140.493 174.955V174.702L141.56 173.646L142.363 173.932L141.263 174.922L141.406 174.537C141.486 174.596 141.563 174.651 141.637 174.702C141.71 174.753 141.809 174.797 141.934 174.834C142.058 174.871 142.231 174.904 142.451 174.933C142.678 174.962 142.975 174.992 143.342 175.021C143.848 175.058 144.251 175.146 144.552 175.285C144.86 175.424 145.08 175.611 145.212 175.846C145.351 176.081 145.421 176.359 145.421 176.682C145.421 176.997 145.333 177.294 145.157 177.573C144.988 177.859 144.724 178.094 144.365 178.277C144.005 178.46 143.543 178.552 142.979 178.552ZM142.968 174.262C142.506 174.262 142.11 174.174 141.78 173.998C141.457 173.822 141.211 173.587 141.043 173.294C140.874 172.993 140.79 172.66 140.79 172.293C140.79 171.926 140.874 171.596 141.043 171.303C141.219 171.01 141.468 170.775 141.791 170.599C142.113 170.416 142.506 170.324 142.968 170.324C143.43 170.324 143.822 170.416 144.145 170.599C144.467 170.775 144.713 171.01 144.882 171.303C145.05 171.596 145.135 171.926 145.135 172.293C145.135 172.66 145.05 172.993 144.882 173.294C144.713 173.587 144.467 173.822 144.145 173.998C143.822 174.174 143.43 174.262 142.968 174.262ZM142.968 173.503C143.364 173.503 143.675 173.4 143.903 173.195C144.13 172.99 144.244 172.689 144.244 172.293C144.244 171.904 144.13 171.607 143.903 171.402C143.675 171.197 143.364 171.094 142.968 171.094C142.579 171.094 142.264 171.197 142.022 171.402C141.787 171.607 141.67 171.904 141.67 172.293C141.67 172.689 141.787 172.99 142.022 173.195C142.256 173.4 142.572 173.503 142.968 173.503ZM143.87 171.237L143.595 170.456H145.861V171.149L143.87 171.237ZM149.183 176.132C148.67 176.132 148.208 176.015 147.797 175.78C147.387 175.538 147.064 175.201 146.829 174.768C146.595 174.328 146.477 173.818 146.477 173.239C146.477 172.645 146.595 172.132 146.829 171.699C147.071 171.259 147.398 170.922 147.808 170.687C148.226 170.445 148.692 170.324 149.205 170.324C149.733 170.324 150.199 170.445 150.602 170.687C151.013 170.922 151.336 171.259 151.57 171.699C151.812 172.132 151.933 172.641 151.933 173.228C151.933 173.815 151.812 174.328 151.57 174.768C151.328 175.201 151.002 175.538 150.591 175.78C150.181 176.015 149.711 176.132 149.183 176.132ZM149.194 175.34C149.51 175.34 149.803 175.263 150.074 175.109C150.346 174.948 150.566 174.709 150.734 174.394C150.903 174.079 150.987 173.69 150.987 173.228C150.987 172.759 150.903 172.37 150.734 172.062C150.573 171.747 150.357 171.512 150.085 171.358C149.821 171.197 149.528 171.116 149.205 171.116C148.897 171.116 148.604 171.197 148.325 171.358C148.054 171.512 147.834 171.747 147.665 172.062C147.504 172.37 147.423 172.759 147.423 173.228C147.423 173.69 147.504 174.079 147.665 174.394C147.834 174.709 148.05 174.948 148.314 175.109C148.586 175.263 148.879 175.34 149.194 175.34ZM153.229 176V170.456H154.065L154.131 171.512C154.256 171.263 154.413 171.05 154.604 170.874C154.802 170.698 155.037 170.562 155.308 170.467C155.587 170.372 155.902 170.324 156.254 170.324V171.292H155.913C155.678 171.292 155.455 171.325 155.242 171.391C155.029 171.45 154.839 171.549 154.67 171.688C154.509 171.827 154.38 172.018 154.285 172.26C154.197 172.495 154.153 172.788 154.153 173.14V176H153.229ZM157.905 178.42L159.258 175.384H158.939L156.761 170.456H157.762L159.566 174.691L161.469 170.456H162.426L158.873 178.42H157.905ZM168.512 176C168.182 176 167.896 175.949 167.654 175.846C167.412 175.743 167.225 175.571 167.093 175.329C166.969 175.08 166.906 174.746 166.906 174.328V171.237H165.938V170.456H166.906L167.027 169.114H167.83V170.456H169.436V171.237H167.83V174.328C167.83 174.673 167.9 174.907 168.039 175.032C168.179 175.149 168.424 175.208 168.776 175.208H169.37V176H168.512ZM172.967 176.132C172.453 176.132 171.991 176.015 171.581 175.78C171.17 175.538 170.847 175.201 170.613 174.768C170.378 174.328 170.261 173.818 170.261 173.239C170.261 172.645 170.378 172.132 170.613 171.699C170.855 171.259 171.181 170.922 171.592 170.687C172.01 170.445 172.475 170.324 172.989 170.324C173.517 170.324 173.982 170.445 174.386 170.687C174.796 170.922 175.119 171.259 175.354 171.699C175.596 172.132 175.717 172.641 175.717 173.228C175.717 173.815 175.596 174.328 175.354 174.768C175.112 175.201 174.785 175.538 174.375 175.78C173.964 176.015 173.495 176.132 172.967 176.132ZM172.978 175.34C173.293 175.34 173.586 175.263 173.858 175.109C174.129 174.948 174.349 174.709 174.518 174.394C174.686 174.079 174.771 173.69 174.771 173.228C174.771 172.759 174.686 172.37 174.518 172.062C174.356 171.747 174.14 171.512 173.869 171.358C173.605 171.197 173.311 171.116 172.989 171.116C172.681 171.116 172.387 171.197 172.109 171.358C171.837 171.512 171.617 171.747 171.449 172.062C171.287 172.37 171.207 172.759 171.207 173.228C171.207 173.69 171.287 174.079 171.449 174.394C171.617 174.709 171.834 174.948 172.098 175.109C172.369 175.263 172.662 175.34 172.978 175.34ZM179.934 176V170.456H180.77L180.836 171.512C180.961 171.263 181.118 171.05 181.309 170.874C181.507 170.698 181.742 170.562 182.013 170.467C182.292 170.372 182.607 170.324 182.959 170.324V171.292H182.618C182.383 171.292 182.16 171.325 181.947 171.391C181.734 171.45 181.544 171.549 181.375 171.688C181.214 171.827 181.085 172.018 180.99 172.26C180.902 172.495 180.858 172.788 180.858 173.14V176H179.934ZM186.232 176.132C185.719 176.132 185.261 176.011 184.857 175.769C184.454 175.527 184.139 175.19 183.911 174.757C183.684 174.317 183.57 173.807 183.57 173.228C183.57 172.641 183.68 172.132 183.9 171.699C184.128 171.266 184.443 170.929 184.846 170.687C185.257 170.445 185.726 170.324 186.254 170.324C186.797 170.324 187.259 170.445 187.64 170.687C188.022 170.929 188.311 171.248 188.509 171.644C188.715 172.033 188.817 172.462 188.817 172.931C188.817 173.004 188.817 173.081 188.817 173.162C188.817 173.243 188.814 173.334 188.806 173.437H184.263V172.722H187.904C187.882 172.216 187.714 171.82 187.398 171.534C187.09 171.248 186.702 171.105 186.232 171.105C185.924 171.105 185.635 171.178 185.363 171.325C185.092 171.464 184.876 171.673 184.714 171.952C184.553 172.223 184.472 172.564 184.472 172.975V173.283C184.472 173.738 184.553 174.119 184.714 174.427C184.883 174.735 185.099 174.966 185.363 175.12C185.635 175.274 185.924 175.351 186.232 175.351C186.621 175.351 186.94 175.267 187.189 175.098C187.446 174.922 187.633 174.684 187.75 174.383H188.663C188.568 174.72 188.41 175.021 188.19 175.285C187.97 175.542 187.695 175.747 187.365 175.901C187.043 176.055 186.665 176.132 186.232 176.132ZM191.433 176L189.332 170.456H190.3L191.972 175.109L193.655 170.456H194.601L192.5 176H191.433ZM195.727 176V170.456H196.651V176H195.727ZM196.189 169.279C196.006 169.279 195.852 169.22 195.727 169.103C195.61 168.978 195.551 168.824 195.551 168.641C195.551 168.458 195.61 168.311 195.727 168.201C195.852 168.084 196.006 168.025 196.189 168.025C196.365 168.025 196.515 168.084 196.64 168.201C196.765 168.311 196.827 168.458 196.827 168.641C196.827 168.824 196.765 168.978 196.64 169.103C196.515 169.22 196.365 169.279 196.189 169.279ZM200.713 176.132C200.199 176.132 199.741 176.011 199.338 175.769C198.934 175.527 198.619 175.19 198.392 174.757C198.164 174.317 198.051 173.807 198.051 173.228C198.051 172.641 198.161 172.132 198.381 171.699C198.608 171.266 198.923 170.929 199.327 170.687C199.737 170.445 200.207 170.324 200.735 170.324C201.277 170.324 201.739 170.445 202.121 170.687C202.502 170.929 202.792 171.248 202.99 171.644C203.195 172.033 203.298 172.462 203.298 172.931C203.298 173.004 203.298 173.081 203.298 173.162C203.298 173.243 203.294 173.334 203.287 173.437H198.744V172.722H202.385C202.363 172.216 202.194 171.82 201.879 171.534C201.571 171.248 201.182 171.105 200.713 171.105C200.405 171.105 200.115 171.178 199.844 171.325C199.572 171.464 199.356 171.673 199.195 171.952C199.033 172.223 198.953 172.564 198.953 172.975V173.283C198.953 173.738 199.033 174.119 199.195 174.427C199.363 174.735 199.58 174.966 199.844 175.12C200.115 175.274 200.405 175.351 200.713 175.351C201.101 175.351 201.42 175.267 201.67 175.098C201.926 174.922 202.113 174.684 202.231 174.383H203.144C203.048 174.72 202.891 175.021 202.671 175.285C202.451 175.542 202.176 175.747 201.846 175.901C201.523 176.055 201.145 176.132 200.713 176.132ZM205.441 176L203.813 170.456H204.737L206.002 175.131H205.837L207.212 170.456H208.257L209.654 175.12L209.478 175.131L210.732 170.456H211.667L210.05 176H209.104L207.652 171.116H207.839L206.387 176H205.441Z" fill="black"/>
<g filter="url(#filter1_d_1288_502)">
<rect x="41" y="190" width="245" height="36" rx="4" fill="white"/>
<rect x="41.5" y="190.5" width="244" height="35" rx="3.5" stroke="#DEDEDE"/>
</g>
<g filter="url(#filter2_d_1288_502)">
<rect x="41" y="241" width="245" height="36" rx="4" fill="white"/>
<rect x="41.5" y="241.5" width="244" height="35" rx="3.5" stroke="#DEDEDE"/>
</g>
<g filter="url(#filter3_d_1288_502)">
<rect x="41" y="292" width="245" height="36" rx="4" fill="white"/>
<rect x="41.5" y="292.5" width="244" height="35" rx="3.5" stroke="#DEDEDE"/>
</g>
<path d="M272.5 207.999L266.137 214.363L264.016 212.241L268.258 207.999L264.016 203.757L266.137 201.634L272.5 207.999Z" fill="#1B254B"/>
<path d="M272.5 258.999L266.137 265.363L264.016 263.241L268.258 258.999L264.016 254.757L266.137 252.634L272.5 258.999Z" fill="#1B254B"/>
<path d="M54.7812 201H55.8438V207.5H54.7812V201Z" fill="black"/>
<path d="M57.4375 205.498C57.4375 206.029 57.2136 206.537 56.8151 206.912C56.4166 207.288 55.8761 207.498 55.3125 207.498C54.7489 207.498 54.2084 207.288 53.8099 206.912C53.4114 206.537 53.1875 206.029 53.1875 205.498V200.998H52.125V205.498C52.1258 206.207 52.3929 206.892 52.879 207.433C53.3652 207.974 54.0391 208.335 54.7813 208.453V214.998H55.8438V208.453C56.5859 208.335 57.2598 207.974 57.746 207.433C58.2321 206.892 58.4992 206.207 58.5 205.498V200.998H57.4375V205.498ZM61.6875 200.998H61.1563V214.998H62.2188V209.998H63.8125C64.0943 209.998 64.3645 209.893 64.5638 209.705C64.7631 209.518 64.875 209.263 64.875 208.998V203.998C64.8914 203.6 64.8202 203.203 64.6659 202.832C64.5115 202.461 64.2773 202.124 63.978 201.843C63.6786 201.561 63.3206 201.34 62.9265 201.195C62.5323 201.05 62.1105 200.983 61.6875 200.998ZM63.8125 208.998H62.2188V202.043C63.7488 202.323 63.8125 203.813 63.8125 203.998V208.998Z" fill="black"/>
<path d="M76.825 211V203.3H79.311C79.9123 203.3 80.4037 203.403 80.785 203.608C81.1663 203.806 81.4487 204.074 81.632 204.411C81.8153 204.748 81.907 205.13 81.907 205.555C81.907 205.966 81.8117 206.343 81.621 206.688C81.4377 207.033 81.1517 207.308 80.763 207.513C80.3743 207.718 79.8757 207.821 79.267 207.821H77.749V211H76.825ZM80.895 211L79.201 207.557H80.235L81.984 211H80.895ZM77.749 207.095H79.245C79.8317 207.095 80.2607 206.952 80.532 206.666C80.8107 206.38 80.95 206.013 80.95 205.566C80.95 205.111 80.8143 204.752 80.543 204.488C80.279 204.217 79.8427 204.081 79.234 204.081H77.749V207.095ZM85.3992 211.132C84.8859 211.132 84.4276 211.011 84.0242 210.769C83.6209 210.527 83.3056 210.19 83.0782 209.757C82.8509 209.317 82.7372 208.807 82.7372 208.228C82.7372 207.641 82.8472 207.132 83.0672 206.699C83.2946 206.266 83.6099 205.929 84.0132 205.687C84.4239 205.445 84.8932 205.324 85.4212 205.324C85.9639 205.324 86.4259 205.445 86.8072 205.687C87.1886 205.929 87.4782 206.248 87.6762 206.644C87.8816 207.033 87.9842 207.462 87.9842 207.931C87.9842 208.004 87.9842 208.081 87.9842 208.162C87.9842 208.243 87.9806 208.334 87.9732 208.437H83.4302V207.722H87.0712C87.0492 207.216 86.8806 206.82 86.5652 206.534C86.2572 206.248 85.8686 206.105 85.3992 206.105C85.0912 206.105 84.8016 206.178 84.5302 206.325C84.2589 206.464 84.0426 206.673 83.8812 206.952C83.7199 207.223 83.6392 207.564 83.6392 207.975V208.283C83.6392 208.738 83.7199 209.119 83.8812 209.427C84.0499 209.735 84.2662 209.966 84.5302 210.12C84.8016 210.274 85.0912 210.351 85.3992 210.351C85.7879 210.351 86.1069 210.267 86.3562 210.098C86.6129 209.922 86.7999 209.684 86.9172 209.383H87.8302C87.7349 209.72 87.5772 210.021 87.3572 210.285C87.1372 210.542 86.8622 210.747 86.5322 210.901C86.2096 211.055 85.8319 211.132 85.3992 211.132ZM91.3102 211.132C90.8555 211.132 90.4559 211.055 90.1112 210.901C89.7665 210.747 89.4915 210.534 89.2862 210.263C89.0882 209.984 88.9672 209.658 88.9232 209.284H89.8692C89.9059 209.475 89.9829 209.651 90.1002 209.812C90.2175 209.973 90.3752 210.105 90.5732 210.208C90.7785 210.303 91.0279 210.351 91.3212 210.351C91.5779 210.351 91.7905 210.314 91.9592 210.241C92.1279 210.16 92.2525 210.054 92.3332 209.922C92.4212 209.79 92.4652 209.647 92.4652 209.493C92.4652 209.266 92.4102 209.093 92.3002 208.976C92.1975 208.859 92.0435 208.767 91.8382 208.701C91.6329 208.628 91.3835 208.565 91.0902 208.514C90.8482 208.47 90.6099 208.411 90.3752 208.338C90.1405 208.265 89.9315 208.169 89.7482 208.052C89.5649 207.927 89.4182 207.777 89.3082 207.601C89.2055 207.425 89.1542 207.209 89.1542 206.952C89.1542 206.637 89.2349 206.358 89.3962 206.116C89.5649 205.867 89.7995 205.672 90.1002 205.533C90.4009 205.394 90.7529 205.324 91.1562 205.324C91.7502 205.324 92.2305 205.467 92.5972 205.753C92.9639 206.039 93.1802 206.453 93.2462 206.996H92.3332C92.2965 206.717 92.1755 206.501 91.9702 206.347C91.7722 206.186 91.4972 206.105 91.1452 206.105C90.8005 206.105 90.5365 206.175 90.3532 206.314C90.1772 206.453 90.0892 206.637 90.0892 206.864C90.0892 207.011 90.1369 207.143 90.2322 207.26C90.3349 207.37 90.4852 207.465 90.6832 207.546C90.8812 207.627 91.1195 207.693 91.3982 207.744C91.7649 207.81 92.0985 207.898 92.3992 208.008C92.6999 208.118 92.9419 208.283 93.1252 208.503C93.3159 208.716 93.4112 209.02 93.4112 209.416C93.4112 209.761 93.3232 210.061 93.1472 210.318C92.9785 210.575 92.7365 210.776 92.4212 210.923C92.1059 211.062 91.7355 211.132 91.3102 211.132ZM96.6726 211C96.3426 211 96.0566 210.949 95.8146 210.846C95.5726 210.743 95.3856 210.571 95.2536 210.329C95.1289 210.08 95.0666 209.746 95.0666 209.328V206.237H94.0986V205.456H95.0666L95.1876 204.114H95.9906V205.456H97.5966V206.237H95.9906V209.328C95.9906 209.673 96.0603 209.907 96.1996 210.032C96.3389 210.149 96.5846 210.208 96.9366 210.208H97.5306V211H96.6726ZM100.606 211.132C100.159 211.132 99.7849 211.055 99.4842 210.901C99.1836 210.74 98.9599 210.531 98.8132 210.274C98.6666 210.01 98.5932 209.724 98.5932 209.416C98.5932 209.042 98.6886 208.727 98.8792 208.47C99.0772 208.206 99.3522 208.008 99.7042 207.876C100.064 207.737 100.485 207.667 100.969 207.667H102.432C102.432 207.322 102.377 207.036 102.267 206.809C102.165 206.574 102.011 206.398 101.805 206.281C101.607 206.164 101.358 206.105 101.057 206.105C100.705 206.105 100.401 206.193 100.144 206.369C99.8876 206.545 99.7299 206.805 99.6712 207.15H98.7252C98.7692 206.754 98.9012 206.424 99.1212 206.16C99.3486 205.889 99.6346 205.683 99.9792 205.544C100.324 205.397 100.683 205.324 101.057 205.324C101.571 205.324 101.996 205.419 102.333 205.61C102.678 205.793 102.935 206.054 103.103 206.391C103.272 206.721 103.356 207.113 103.356 207.568V211H102.531L102.476 210.021C102.403 210.175 102.308 210.322 102.19 210.461C102.08 210.593 101.948 210.71 101.794 210.813C101.648 210.908 101.475 210.985 101.277 211.044C101.079 211.103 100.856 211.132 100.606 211.132ZM100.749 210.351C101.006 210.351 101.237 210.3 101.442 210.197C101.655 210.087 101.835 209.94 101.981 209.757C102.128 209.566 102.238 209.357 102.311 209.13C102.392 208.903 102.432 208.664 102.432 208.415V208.382H101.046C100.687 208.382 100.397 208.426 100.177 208.514C99.9572 208.595 99.7996 208.712 99.7042 208.866C99.6089 209.013 99.5612 209.181 99.5612 209.372C99.5612 209.57 99.6052 209.742 99.6932 209.889C99.7886 210.036 99.9242 210.149 100.1 210.23C100.284 210.311 100.5 210.351 100.749 210.351ZM106.799 211.132C106.373 211.132 105.999 211.048 105.677 210.879C105.361 210.71 105.116 210.45 104.94 210.098C104.771 209.746 104.687 209.306 104.687 208.778V205.456H105.611V208.679C105.611 209.229 105.732 209.643 105.974 209.922C106.216 210.201 106.557 210.34 106.997 210.34C107.305 210.34 107.583 210.267 107.833 210.12C108.082 209.966 108.276 209.75 108.416 209.471C108.562 209.185 108.636 208.833 108.636 208.415V205.456H109.56V211H108.724L108.669 210.032C108.5 210.377 108.251 210.648 107.921 210.846C107.591 211.037 107.217 211.132 106.799 211.132ZM111.091 211V205.456H111.927L111.993 206.512C112.118 206.263 112.276 206.05 112.466 205.874C112.664 205.698 112.899 205.562 113.17 205.467C113.449 205.372 113.764 205.324 114.116 205.324V206.292H113.775C113.541 206.292 113.317 206.325 113.104 206.391C112.892 206.45 112.701 206.549 112.532 206.688C112.371 206.827 112.243 207.018 112.147 207.26C112.059 207.495 112.015 207.788 112.015 208.14V211H111.091ZM116.967 211.132C116.519 211.132 116.145 211.055 115.845 210.901C115.544 210.74 115.32 210.531 115.174 210.274C115.027 210.01 114.954 209.724 114.954 209.416C114.954 209.042 115.049 208.727 115.24 208.47C115.438 208.206 115.713 208.008 116.065 207.876C116.424 207.737 116.846 207.667 117.33 207.667H118.793C118.793 207.322 118.738 207.036 118.628 206.809C118.525 206.574 118.371 206.398 118.166 206.281C117.968 206.164 117.718 206.105 117.418 206.105C117.066 206.105 116.761 206.193 116.505 206.369C116.248 206.545 116.09 206.805 116.032 207.15H115.086C115.13 206.754 115.262 206.424 115.482 206.16C115.709 205.889 115.995 205.683 116.34 205.544C116.684 205.397 117.044 205.324 117.418 205.324C117.931 205.324 118.356 205.419 118.694 205.61C119.038 205.793 119.295 206.054 119.464 206.391C119.632 206.721 119.717 207.113 119.717 207.568V211H118.892L118.837 210.021C118.763 210.175 118.668 210.322 118.551 210.461C118.441 210.593 118.309 210.71 118.155 210.813C118.008 210.908 117.836 210.985 117.638 211.044C117.44 211.103 117.216 211.132 116.967 211.132ZM117.11 210.351C117.366 210.351 117.597 210.3 117.803 210.197C118.015 210.087 118.195 209.94 118.342 209.757C118.488 209.566 118.598 209.357 118.672 209.13C118.752 208.903 118.793 208.664 118.793 208.415V208.382H117.407C117.047 208.382 116.758 208.426 116.538 208.514C116.318 208.595 116.16 208.712 116.065 208.866C115.969 209.013 115.922 209.181 115.922 209.372C115.922 209.57 115.966 209.742 116.054 209.889C116.149 210.036 116.285 210.149 116.461 210.23C116.644 210.311 116.86 210.351 117.11 210.351ZM121.146 211V205.456H121.982L122.026 206.424C122.202 206.079 122.451 205.812 122.774 205.621C123.104 205.423 123.478 205.324 123.896 205.324C124.329 205.324 124.703 205.412 125.018 205.588C125.333 205.757 125.579 206.017 125.755 206.369C125.931 206.714 126.019 207.154 126.019 207.689V211H125.095V207.788C125.095 207.231 124.97 206.813 124.721 206.534C124.479 206.255 124.134 206.116 123.687 206.116C123.379 206.116 123.104 206.193 122.862 206.347C122.62 206.494 122.426 206.71 122.279 206.996C122.14 207.275 122.07 207.623 122.07 208.041V211H121.146ZM129.64 211C129.31 211 129.024 210.949 128.782 210.846C128.54 210.743 128.353 210.571 128.221 210.329C128.097 210.08 128.034 209.746 128.034 209.328V206.237H127.066V205.456H128.034L128.155 204.114H128.958V205.456H130.564V206.237H128.958V209.328C128.958 209.673 129.028 209.907 129.167 210.032C129.307 210.149 129.552 210.208 129.904 210.208H130.498V211H129.64Z" fill="black"/>
<path d="M76.825 263V255.3H79.311C79.9123 255.3 80.4037 255.403 80.785 255.608C81.1663 255.806 81.4487 256.074 81.632 256.411C81.8153 256.748 81.907 257.13 81.907 257.555C81.907 257.966 81.8117 258.343 81.621 258.688C81.4377 259.033 81.1517 259.308 80.763 259.513C80.3743 259.718 79.8757 259.821 79.267 259.821H77.749V263H76.825ZM80.895 263L79.201 259.557H80.235L81.984 263H80.895ZM77.749 259.095H79.245C79.8317 259.095 80.2607 258.952 80.532 258.666C80.8107 258.38 80.95 258.013 80.95 257.566C80.95 257.111 80.8143 256.752 80.543 256.488C80.279 256.217 79.8427 256.081 79.234 256.081H77.749V259.095ZM85.4432 263.132C84.9299 263.132 84.4679 263.015 84.0572 262.78C83.6466 262.538 83.3239 262.201 83.0892 261.768C82.8546 261.328 82.7372 260.818 82.7372 260.239C82.7372 259.645 82.8546 259.132 83.0892 258.699C83.3312 258.259 83.6576 257.922 84.0682 257.687C84.4862 257.445 84.9519 257.324 85.4652 257.324C85.9932 257.324 86.4589 257.445 86.8622 257.687C87.2729 257.922 87.5956 258.259 87.8302 258.699C88.0722 259.132 88.1932 259.641 88.1932 260.228C88.1932 260.815 88.0722 261.328 87.8302 261.768C87.5882 262.201 87.2619 262.538 86.8512 262.78C86.4406 263.015 85.9712 263.132 85.4432 263.132ZM85.4542 262.34C85.7696 262.34 86.0629 262.263 86.3342 262.109C86.6056 261.948 86.8256 261.709 86.9942 261.394C87.1629 261.079 87.2472 260.69 87.2472 260.228C87.2472 259.759 87.1629 259.37 86.9942 259.062C86.8329 258.747 86.6166 258.512 86.3452 258.358C86.0812 258.197 85.7879 258.116 85.4652 258.116C85.1572 258.116 84.8639 258.197 84.5852 258.358C84.3139 258.512 84.0939 258.747 83.9252 259.062C83.7639 259.37 83.6832 259.759 83.6832 260.228C83.6832 260.69 83.7639 261.079 83.9252 261.394C84.0939 261.709 84.3102 261.948 84.5742 262.109C84.8456 262.263 85.1389 262.34 85.4542 262.34ZM91.9638 263.132C91.4504 263.132 90.9884 263.015 90.5778 262.78C90.1671 262.538 89.8444 262.201 89.6098 261.768C89.3751 261.328 89.2578 260.818 89.2578 260.239C89.2578 259.645 89.3751 259.132 89.6098 258.699C89.8518 258.259 90.1781 257.922 90.5888 257.687C91.0068 257.445 91.4724 257.324 91.9858 257.324C92.5138 257.324 92.9794 257.445 93.3828 257.687C93.7934 257.922 94.1161 258.259 94.3508 258.699C94.5928 259.132 94.7138 259.641 94.7138 260.228C94.7138 260.815 94.5928 261.328 94.3508 261.768C94.1088 262.201 93.7824 262.538 93.3718 262.78C92.9611 263.015 92.4918 263.132 91.9638 263.132ZM91.9748 262.34C92.2901 262.34 92.5834 262.263 92.8548 262.109C93.1261 261.948 93.3461 261.709 93.5148 261.394C93.6834 261.079 93.7678 260.69 93.7678 260.228C93.7678 259.759 93.6834 259.37 93.5148 259.062C93.3534 258.747 93.1371 258.512 92.8658 258.358C92.6018 258.197 92.3084 258.116 91.9858 258.116C91.6778 258.116 91.3844 258.197 91.1058 258.358C90.8344 258.512 90.6144 258.747 90.4458 259.062C90.2844 259.37 90.2038 259.759 90.2038 260.228C90.2038 260.69 90.2844 261.079 90.4458 261.394C90.6144 261.709 90.8308 261.948 91.0948 262.109C91.3661 262.263 91.6594 262.34 91.9748 262.34ZM96.0093 263V257.456H96.8453L96.9003 258.248C97.0763 257.962 97.3109 257.738 97.6043 257.577C97.9049 257.408 98.2313 257.324 98.5833 257.324C98.8693 257.324 99.1259 257.364 99.3533 257.445C99.5879 257.518 99.7933 257.636 99.9693 257.797C100.153 257.951 100.296 258.149 100.398 258.391C100.589 258.054 100.853 257.793 101.19 257.61C101.528 257.419 101.883 257.324 102.257 257.324C102.69 257.324 103.064 257.412 103.379 257.588C103.695 257.757 103.94 258.017 104.116 258.369C104.292 258.714 104.38 259.154 104.38 259.689V263H103.467V259.788C103.467 259.231 103.354 258.813 103.126 258.534C102.899 258.255 102.576 258.116 102.158 258.116C101.872 258.116 101.616 258.193 101.388 258.347C101.161 258.494 100.981 258.71 100.849 258.996C100.717 259.282 100.651 259.634 100.651 260.052V263H99.7273V259.788C99.7273 259.231 99.6136 258.813 99.3863 258.534C99.1589 258.255 98.8399 258.116 98.4293 258.116C98.1506 258.116 97.8976 258.193 97.6703 258.347C97.4429 258.494 97.2633 258.71 97.1313 258.996C96.9993 259.282 96.9333 259.634 96.9333 260.052V263H96.0093Z" fill="black"/>
<path d="M76.825 313V305.3H79.311C79.9123 305.3 80.4037 305.403 80.785 305.608C81.1663 305.806 81.4487 306.074 81.632 306.411C81.8153 306.748 81.907 307.13 81.907 307.555C81.907 307.966 81.8117 308.343 81.621 308.688C81.4377 309.033 81.1517 309.308 80.763 309.513C80.3743 309.718 79.8757 309.821 79.267 309.821H77.749V313H76.825ZM80.895 313L79.201 309.557H80.235L81.984 313H80.895ZM77.749 309.095H79.245C79.8317 309.095 80.2607 308.952 80.532 308.666C80.8107 308.38 80.95 308.013 80.95 307.566C80.95 307.111 80.8143 306.752 80.543 306.488C80.279 306.217 79.8427 306.081 79.234 306.081H77.749V309.095ZM85.3992 313.132C84.8859 313.132 84.4276 313.011 84.0242 312.769C83.6209 312.527 83.3056 312.19 83.0782 311.757C82.8509 311.317 82.7372 310.807 82.7372 310.228C82.7372 309.641 82.8472 309.132 83.0672 308.699C83.2946 308.266 83.6099 307.929 84.0132 307.687C84.4239 307.445 84.8932 307.324 85.4212 307.324C85.9639 307.324 86.4259 307.445 86.8072 307.687C87.1886 307.929 87.4782 308.248 87.6762 308.644C87.8816 309.033 87.9842 309.462 87.9842 309.931C87.9842 310.004 87.9842 310.081 87.9842 310.162C87.9842 310.243 87.9806 310.334 87.9732 310.437H83.4302V309.722H87.0712C87.0492 309.216 86.8806 308.82 86.5652 308.534C86.2572 308.248 85.8686 308.105 85.3992 308.105C85.0912 308.105 84.8016 308.178 84.5302 308.325C84.2589 308.464 84.0426 308.673 83.8812 308.952C83.7199 309.223 83.6392 309.564 83.6392 309.975V310.283C83.6392 310.738 83.7199 311.119 83.8812 311.427C84.0499 311.735 84.2662 311.966 84.5302 312.12C84.8016 312.274 85.0912 312.351 85.3992 312.351C85.7879 312.351 86.1069 312.267 86.3562 312.098C86.6129 311.922 86.7999 311.684 86.9172 311.383H87.8302C87.7349 311.72 87.5772 312.021 87.3572 312.285C87.1372 312.542 86.8622 312.747 86.5322 312.901C86.2096 313.055 85.8319 313.132 85.3992 313.132ZM91.7172 313.132C91.1965 313.132 90.7272 313.011 90.3092 312.769C89.8985 312.527 89.5759 312.19 89.3412 311.757C89.1065 311.317 88.9892 310.811 88.9892 310.239C88.9892 309.652 89.1065 309.143 89.3412 308.71C89.5759 308.277 89.8985 307.94 90.3092 307.698C90.7272 307.449 91.1965 307.324 91.7172 307.324C92.3772 307.324 92.9272 307.496 93.3672 307.841C93.8072 308.178 94.0859 308.633 94.2032 309.205H93.2572C93.1839 308.86 93.0042 308.593 92.7182 308.402C92.4322 308.211 92.0949 308.116 91.7062 308.116C91.3909 308.116 91.0975 308.197 90.8262 308.358C90.5622 308.512 90.3459 308.747 90.1772 309.062C90.0159 309.377 89.9352 309.766 89.9352 310.228C89.9352 310.573 89.9829 310.881 90.0782 311.152C90.1735 311.416 90.3019 311.636 90.4632 311.812C90.6245 311.988 90.8115 312.124 91.0242 312.219C91.2442 312.307 91.4715 312.351 91.7062 312.351C91.9702 312.351 92.2085 312.311 92.4212 312.23C92.6339 312.142 92.8135 312.014 92.9602 311.845C93.1069 311.676 93.2059 311.478 93.2572 311.251H94.2032C94.0859 311.808 93.8035 312.263 93.3562 312.615C92.9162 312.96 92.3699 313.132 91.7172 313.132ZM97.9461 313.132C97.4328 313.132 96.9745 313.011 96.5711 312.769C96.1678 312.527 95.8525 312.19 95.6251 311.757C95.3978 311.317 95.2841 310.807 95.2841 310.228C95.2841 309.641 95.3941 309.132 95.6141 308.699C95.8415 308.266 96.1568 307.929 96.5601 307.687C96.9708 307.445 97.4401 307.324 97.9681 307.324C98.5108 307.324 98.9728 307.445 99.3541 307.687C99.7355 307.929 100.025 308.248 100.223 308.644C100.428 309.033 100.531 309.462 100.531 309.931C100.531 310.004 100.531 310.081 100.531 310.162C100.531 310.243 100.527 310.334 100.52 310.437H95.9771V309.722H99.6181C99.5961 309.216 99.4275 308.82 99.1121 308.534C98.8041 308.248 98.4155 308.105 97.9461 308.105C97.6381 308.105 97.3485 308.178 97.0771 308.325C96.8058 308.464 96.5895 308.673 96.4281 308.952C96.2668 309.223 96.1861 309.564 96.1861 309.975V310.283C96.1861 310.738 96.2668 311.119 96.4281 311.427C96.5968 311.735 96.8131 311.966 97.0771 312.12C97.3485 312.274 97.6381 312.351 97.9461 312.351C98.3348 312.351 98.6538 312.267 98.9031 312.098C99.1598 311.922 99.3468 311.684 99.4641 311.383H100.377C100.282 311.72 100.124 312.021 99.9041 312.285C99.6841 312.542 99.4091 312.747 99.0791 312.901C98.7565 313.055 98.3788 313.132 97.9461 313.132ZM101.767 315.42V307.456H102.603L102.68 308.358C102.797 308.182 102.948 308.017 103.131 307.863C103.314 307.702 103.534 307.573 103.791 307.478C104.048 307.375 104.345 307.324 104.682 307.324C105.217 307.324 105.683 307.452 106.079 307.709C106.482 307.966 106.794 308.314 107.014 308.754C107.241 309.187 107.355 309.682 107.355 310.239C107.355 310.796 107.241 311.295 107.014 311.735C106.794 312.168 106.482 312.509 106.079 312.758C105.676 313.007 105.206 313.132 104.671 313.132C104.224 313.132 103.828 313.04 103.483 312.857C103.138 312.674 102.874 312.417 102.691 312.087V315.42H101.767ZM104.561 312.329C104.92 312.329 105.239 312.241 105.518 312.065C105.804 311.889 106.024 311.647 106.178 311.339C106.339 311.024 106.42 310.653 106.42 310.228C106.42 309.81 106.339 309.443 106.178 309.128C106.024 308.813 105.804 308.567 105.518 308.391C105.239 308.215 104.92 308.127 104.561 308.127C104.194 308.127 103.872 308.215 103.593 308.391C103.314 308.567 103.098 308.813 102.944 309.128C102.79 309.443 102.713 309.81 102.713 310.228C102.713 310.653 102.79 311.024 102.944 311.339C103.098 311.647 103.314 311.889 103.593 312.065C103.872 312.241 104.194 312.329 104.561 312.329ZM110.627 313C110.297 313 110.011 312.949 109.769 312.846C109.527 312.743 109.34 312.571 109.208 312.329C109.083 312.08 109.021 311.746 109.021 311.328V308.237H108.053V307.456H109.021L109.142 306.114H109.945V307.456H111.551V308.237H109.945V311.328C109.945 311.673 110.014 311.907 110.154 312.032C110.293 312.149 110.539 312.208 110.891 312.208H111.485V313H110.627ZM112.844 313V307.456H113.768V313H112.844ZM113.306 306.279C113.123 306.279 112.969 306.22 112.844 306.103C112.727 305.978 112.668 305.824 112.668 305.641C112.668 305.458 112.727 305.311 112.844 305.201C112.969 305.084 113.123 305.025 113.306 305.025C113.482 305.025 113.633 305.084 113.757 305.201C113.882 305.311 113.944 305.458 113.944 305.641C113.944 305.824 113.882 305.978 113.757 306.103C113.633 306.22 113.482 306.279 113.306 306.279ZM117.874 313.132C117.361 313.132 116.899 313.015 116.488 312.78C116.077 312.538 115.755 312.201 115.52 311.768C115.285 311.328 115.168 310.818 115.168 310.239C115.168 309.645 115.285 309.132 115.52 308.699C115.762 308.259 116.088 307.922 116.499 307.687C116.917 307.445 117.383 307.324 117.896 307.324C118.424 307.324 118.89 307.445 119.293 307.687C119.704 307.922 120.026 308.259 120.261 308.699C120.503 309.132 120.624 309.641 120.624 310.228C120.624 310.815 120.503 311.328 120.261 311.768C120.019 312.201 119.693 312.538 119.282 312.78C118.871 313.015 118.402 313.132 117.874 313.132ZM117.885 312.34C118.2 312.34 118.494 312.263 118.765 312.109C119.036 311.948 119.256 311.709 119.425 311.394C119.594 311.079 119.678 310.69 119.678 310.228C119.678 309.759 119.594 309.37 119.425 309.062C119.264 308.747 119.047 308.512 118.776 308.358C118.512 308.197 118.219 308.116 117.896 308.116C117.588 308.116 117.295 308.197 117.016 308.358C116.745 308.512 116.525 308.747 116.356 309.062C116.195 309.37 116.114 309.759 116.114 310.228C116.114 310.69 116.195 311.079 116.356 311.394C116.525 311.709 116.741 311.948 117.005 312.109C117.276 312.263 117.57 312.34 117.885 312.34ZM121.919 313V307.456H122.755L122.799 308.424C122.975 308.079 123.225 307.812 123.547 307.621C123.877 307.423 124.251 307.324 124.669 307.324C125.102 307.324 125.476 307.412 125.791 307.588C126.107 307.757 126.352 308.017 126.528 308.369C126.704 308.714 126.792 309.154 126.792 309.689V313H125.868V309.788C125.868 309.231 125.744 308.813 125.494 308.534C125.252 308.255 124.908 308.116 124.46 308.116C124.152 308.116 123.877 308.193 123.635 308.347C123.393 308.494 123.199 308.71 123.052 308.996C122.913 309.275 122.843 309.623 122.843 310.041V313H121.919Z" fill="black"/>
<path d="M54.9583 260.332C56.1341 260.332 57.0833 259.439 57.0833 258.332C57.0833 257.225 56.1341 256.332 54.9583 256.332C53.7824 256.332 52.8333 257.225 52.8333 258.332C52.8333 259.439 53.7824 260.332 54.9583 260.332ZM54.9583 257.665C55.3478 257.665 55.6666 257.965 55.6666 258.332C55.6666 258.699 55.3478 258.999 54.9583 258.999C54.5687 258.999 54.2499 258.699 54.2499 258.332C54.2499 257.965 54.5687 257.665 54.9583 257.665ZM63.4583 255.665H57.7916V260.999H52.1249V254.332H50.7083V264.332H52.1249V262.332H64.8749V264.332H66.2916V258.332C66.2916 256.859 65.0237 255.665 63.4583 255.665ZM64.8749 260.999H59.2083V256.999H63.4583C64.2374 256.999 64.8749 257.599 64.8749 258.332V260.999Z" fill="black"/>
<path d="M52.125 314.665H64.875M58.5 307.332V305.332M58.5 307.332H57.0833C56.144 307.332 55.2432 307.683 54.579 308.308C53.9148 308.933 53.5417 309.781 53.5417 310.665V312.665H63.4583V310.665C63.4583 309.781 63.0852 308.933 62.421 308.308C61.7568 307.683 60.856 307.332 59.9167 307.332H58.5ZM58.5 305.332H57.0833M58.5 305.332H59.9167" stroke="black" stroke-linecap="round" stroke-linejoin="round"/>
<path d="M94.748 674V666.08H95.848V669.358C96.0313 669.035 96.2843 668.782 96.607 668.599C96.937 668.416 97.3 668.324 97.696 668.324C98.136 668.324 98.5137 668.416 98.829 668.599C99.1443 668.775 99.3863 669.043 99.555 669.402C99.7237 669.754 99.808 670.198 99.808 670.733V674H98.719V670.854C98.719 670.333 98.609 669.941 98.389 669.677C98.169 669.406 97.8427 669.27 97.41 669.27C97.1167 669.27 96.8527 669.34 96.618 669.479C96.3833 669.618 96.1963 669.824 96.057 670.095C95.9177 670.359 95.848 670.682 95.848 671.063V674H94.748ZM103.492 674C103.147 674 102.846 673.945 102.59 673.835C102.333 673.725 102.135 673.542 101.996 673.285C101.856 673.028 101.787 672.68 101.787 672.24V669.391H100.83V668.456H101.787L101.919 667.07H102.887V668.456H104.46V669.391H102.887V672.251C102.887 672.566 102.953 672.783 103.085 672.9C103.217 673.01 103.444 673.065 103.767 673.065H104.405V674H103.492ZM107.95 674C107.605 674 107.304 673.945 107.048 673.835C106.791 673.725 106.593 673.542 106.454 673.285C106.314 673.028 106.245 672.68 106.245 672.24V669.391H105.288V668.456H106.245L106.377 667.07H107.345V668.456H108.918V669.391H107.345V672.251C107.345 672.566 107.411 672.783 107.543 672.9C107.675 673.01 107.902 673.065 108.225 673.065H108.863V674H107.95ZM110.131 676.42V668.456H111.121L111.231 669.314C111.348 669.145 111.495 668.988 111.671 668.841C111.847 668.687 112.056 668.562 112.298 668.467C112.547 668.372 112.837 668.324 113.167 668.324C113.695 668.324 114.157 668.452 114.553 668.709C114.956 668.966 115.268 669.314 115.488 669.754C115.715 670.187 115.829 670.682 115.829 671.239C115.829 671.796 115.715 672.295 115.488 672.735C115.26 673.168 114.945 673.509 114.542 673.758C114.146 674.007 113.684 674.132 113.156 674.132C112.723 674.132 112.342 674.048 112.012 673.879C111.682 673.703 111.421 673.461 111.231 673.153V676.42H110.131ZM112.98 673.175C113.317 673.175 113.614 673.094 113.871 672.933C114.135 672.772 114.34 672.544 114.487 672.251C114.641 671.958 114.718 671.617 114.718 671.228C114.718 670.839 114.641 670.502 114.487 670.216C114.34 669.923 114.135 669.695 113.871 669.534C113.614 669.365 113.317 669.281 112.98 669.281C112.635 669.281 112.331 669.365 112.067 669.534C111.81 669.695 111.608 669.923 111.462 670.216C111.315 670.502 111.242 670.839 111.242 671.228C111.242 671.617 111.315 671.958 111.462 672.251C111.608 672.544 111.81 672.772 112.067 672.933C112.331 673.094 112.635 673.175 112.98 673.175ZM119.258 674.132C118.789 674.132 118.378 674.055 118.026 673.901C117.674 673.747 117.396 673.531 117.19 673.252C116.985 672.973 116.86 672.647 116.816 672.273H117.938C117.975 672.449 118.045 672.61 118.147 672.757C118.257 672.904 118.404 673.021 118.587 673.109C118.778 673.197 119.002 673.241 119.258 673.241C119.5 673.241 119.698 673.208 119.852 673.142C120.014 673.069 120.131 672.973 120.204 672.856C120.278 672.731 120.314 672.599 120.314 672.46C120.314 672.255 120.263 672.101 120.16 671.998C120.065 671.888 119.918 671.804 119.72 671.745C119.53 671.679 119.299 671.62 119.027 671.569C118.771 671.525 118.521 671.466 118.279 671.393C118.045 671.312 117.832 671.213 117.641 671.096C117.458 670.979 117.311 670.832 117.201 670.656C117.091 670.473 117.036 670.249 117.036 669.985C117.036 669.67 117.121 669.387 117.289 669.138C117.458 668.881 117.696 668.683 118.004 668.544C118.32 668.397 118.69 668.324 119.115 668.324C119.731 668.324 120.226 668.471 120.6 668.764C120.974 669.057 121.194 669.472 121.26 670.007H120.193C120.164 669.758 120.054 669.567 119.863 669.435C119.673 669.296 119.42 669.226 119.104 669.226C118.789 669.226 118.547 669.288 118.378 669.413C118.21 669.538 118.125 669.703 118.125 669.908C118.125 670.04 118.173 670.157 118.268 670.26C118.364 670.363 118.503 670.451 118.686 670.524C118.877 670.59 119.108 670.652 119.379 670.711C119.768 670.784 120.116 670.876 120.424 670.986C120.732 671.096 120.978 671.257 121.161 671.47C121.345 671.683 121.436 671.987 121.436 672.383C121.444 672.728 121.356 673.032 121.172 673.296C120.996 673.56 120.743 673.765 120.413 673.912C120.091 674.059 119.706 674.132 119.258 674.132ZM123.171 674.055C122.959 674.055 122.783 673.989 122.643 673.857C122.511 673.718 122.445 673.553 122.445 673.362C122.445 673.164 122.511 672.999 122.643 672.867C122.783 672.728 122.959 672.658 123.171 672.658C123.384 672.658 123.556 672.728 123.688 672.867C123.82 672.999 123.886 673.164 123.886 673.362C123.886 673.553 123.82 673.718 123.688 673.857C123.556 673.989 123.384 674.055 123.171 674.055ZM123.171 669.721C122.959 669.721 122.783 669.655 122.643 669.523C122.511 669.384 122.445 669.219 122.445 669.028C122.445 668.83 122.511 668.665 122.643 668.533C122.783 668.394 122.959 668.324 123.171 668.324C123.384 668.324 123.556 668.394 123.688 668.533C123.82 668.665 123.886 668.83 123.886 669.028C123.886 669.219 123.82 669.384 123.688 669.523C123.556 669.655 123.384 669.721 123.171 669.721ZM124.676 675.111L127.426 665.541H128.504L125.754 675.111H124.676ZM127.791 675.111L130.541 665.541H131.619L128.869 675.111H127.791ZM133.801 674L132.173 668.456H133.262L134.472 673.076L134.263 673.065L135.605 668.456H136.837L138.179 673.065L137.97 673.076L139.169 668.456H140.28L138.652 674H137.519L136.111 669.193H136.331L134.923 674H133.801ZM142.394 674L140.766 668.456H141.855L143.065 673.076L142.856 673.065L144.198 668.456H145.43L146.772 673.065L146.563 673.076L147.762 668.456H148.873L147.245 674H146.112L144.704 669.193H144.924L143.516 674H142.394ZM150.988 674L149.36 668.456H150.449L151.659 673.076L151.45 673.065L152.792 668.456H154.024L155.366 673.065L155.157 673.076L156.356 668.456H157.467L155.839 674H154.706L153.298 669.193H153.518L152.11 674H150.988ZM158.588 674.055C158.376 674.055 158.2 673.989 158.06 673.857C157.928 673.718 157.862 673.553 157.862 673.362C157.862 673.164 157.928 672.999 158.06 672.867C158.2 672.728 158.376 672.658 158.588 672.658C158.801 672.658 158.973 672.728 159.105 672.867C159.237 672.999 159.303 673.164 159.303 673.362C159.303 673.553 159.237 673.718 159.105 673.857C158.973 673.989 158.801 674.055 158.588 674.055ZM161.322 674L159.694 668.456H160.783L161.993 673.076L161.784 673.065L163.126 668.456H164.358L165.7 673.065L165.491 673.076L166.69 668.456H167.801L166.173 674H165.04L163.632 669.193H163.852L162.444 674H161.322ZM171.109 674.132C170.581 674.132 170.111 674.011 169.701 673.769C169.29 673.527 168.967 673.19 168.733 672.757C168.505 672.324 168.392 671.822 168.392 671.25C168.392 670.663 168.505 670.154 168.733 669.721C168.967 669.281 169.29 668.94 169.701 668.698C170.111 668.449 170.588 668.324 171.131 668.324C171.673 668.324 172.139 668.445 172.528 668.687C172.916 668.929 173.217 669.252 173.43 669.655C173.642 670.051 173.749 670.491 173.749 670.975C173.749 671.048 173.745 671.129 173.738 671.217C173.738 671.298 173.734 671.389 173.727 671.492H169.195V670.711H172.649C172.627 670.249 172.473 669.89 172.187 669.633C171.901 669.369 171.545 669.237 171.12 669.237C170.819 669.237 170.544 669.307 170.295 669.446C170.045 669.578 169.844 669.776 169.69 670.04C169.543 670.297 169.47 670.623 169.47 671.019V671.327C169.47 671.738 169.543 672.086 169.69 672.372C169.844 672.651 170.045 672.863 170.295 673.01C170.544 673.149 170.815 673.219 171.109 673.219C171.461 673.219 171.75 673.142 171.978 672.988C172.205 672.834 172.374 672.625 172.484 672.361H173.584C173.488 672.698 173.327 673.003 173.1 673.274C172.872 673.538 172.59 673.747 172.253 673.901C171.923 674.055 171.541 674.132 171.109 674.132ZM177.996 674.132C177.695 674.132 177.42 674.088 177.171 674C176.929 673.919 176.716 673.806 176.533 673.659C176.349 673.512 176.195 673.344 176.071 673.153L175.961 674H174.971V666.08H176.071V669.325C176.247 669.046 176.492 668.812 176.808 668.621C177.13 668.423 177.526 668.324 177.996 668.324C178.524 668.324 178.989 668.452 179.393 668.709C179.796 668.958 180.108 669.303 180.328 669.743C180.555 670.176 180.669 670.674 180.669 671.239C180.669 671.789 180.555 672.284 180.328 672.724C180.108 673.164 179.796 673.509 179.393 673.758C178.989 674.007 178.524 674.132 177.996 674.132ZM177.82 673.175C178.157 673.175 178.454 673.094 178.711 672.933C178.975 672.772 179.18 672.544 179.327 672.251C179.481 671.958 179.558 671.617 179.558 671.228C179.558 670.839 179.481 670.502 179.327 670.216C179.18 669.923 178.975 669.695 178.711 669.534C178.454 669.365 178.157 669.281 177.82 669.281C177.475 669.281 177.171 669.365 176.907 669.534C176.65 669.695 176.448 669.923 176.302 670.216C176.155 670.502 176.082 670.839 176.082 671.228C176.082 671.617 176.155 671.958 176.302 672.251C176.448 672.544 176.65 672.772 176.907 672.933C177.171 673.094 177.475 673.175 177.82 673.175ZM184.098 674.132C183.629 674.132 183.218 674.055 182.866 673.901C182.514 673.747 182.235 673.531 182.03 673.252C181.825 672.973 181.7 672.647 181.656 672.273H182.778C182.815 672.449 182.884 672.61 182.987 672.757C183.097 672.904 183.244 673.021 183.427 673.109C183.618 673.197 183.841 673.241 184.098 673.241C184.34 673.241 184.538 673.208 184.692 673.142C184.853 673.069 184.971 672.973 185.044 672.856C185.117 672.731 185.154 672.599 185.154 672.46C185.154 672.255 185.103 672.101 185 671.998C184.905 671.888 184.758 671.804 184.56 671.745C184.369 671.679 184.138 671.62 183.867 671.569C183.61 671.525 183.361 671.466 183.119 671.393C182.884 671.312 182.672 671.213 182.481 671.096C182.298 670.979 182.151 670.832 182.041 670.656C181.931 670.473 181.876 670.249 181.876 669.985C181.876 669.67 181.96 669.387 182.129 669.138C182.298 668.881 182.536 668.683 182.844 668.544C183.159 668.397 183.53 668.324 183.955 668.324C184.571 668.324 185.066 668.471 185.44 668.764C185.814 669.057 186.034 669.472 186.1 670.007H185.033C185.004 669.758 184.894 669.567 184.703 669.435C184.512 669.296 184.259 669.226 183.944 669.226C183.629 669.226 183.387 669.288 183.218 669.413C183.049 669.538 182.965 669.703 182.965 669.908C182.965 670.04 183.013 670.157 183.108 670.26C183.203 670.363 183.343 670.451 183.526 670.524C183.717 670.59 183.948 670.652 184.219 670.711C184.608 670.784 184.956 670.876 185.264 670.986C185.572 671.096 185.818 671.257 186.001 671.47C186.184 671.683 186.276 671.987 186.276 672.383C186.283 672.728 186.195 673.032 186.012 673.296C185.836 673.56 185.583 673.765 185.253 673.912C184.93 674.059 184.545 674.132 184.098 674.132ZM187.648 674V668.456H188.748V674H187.648ZM188.209 667.411C187.997 667.411 187.821 667.345 187.681 667.213C187.549 667.081 187.483 666.912 187.483 666.707C187.483 666.509 187.549 666.348 187.681 666.223C187.821 666.091 187.997 666.025 188.209 666.025C188.415 666.025 188.587 666.091 188.726 666.223C188.866 666.348 188.935 666.509 188.935 666.707C188.935 666.912 188.866 667.081 188.726 667.213C188.587 667.345 188.415 667.411 188.209 667.411ZM192.598 674C192.254 674 191.953 673.945 191.696 673.835C191.44 673.725 191.242 673.542 191.102 673.285C190.963 673.028 190.893 672.68 190.893 672.24V669.391H189.936V668.456H190.893L191.025 667.07H191.993V668.456H193.566V669.391H191.993V672.251C191.993 672.566 192.059 672.783 192.191 672.9C192.323 673.01 192.551 673.065 192.873 673.065H193.511V674H192.598ZM197.137 674.132C196.609 674.132 196.14 674.011 195.729 673.769C195.318 673.527 194.996 673.19 194.761 672.757C194.534 672.324 194.42 671.822 194.42 671.25C194.42 670.663 194.534 670.154 194.761 669.721C194.996 669.281 195.318 668.94 195.729 668.698C196.14 668.449 196.616 668.324 197.159 668.324C197.702 668.324 198.167 668.445 198.556 668.687C198.945 668.929 199.245 669.252 199.458 669.655C199.671 670.051 199.777 670.491 199.777 670.975C199.777 671.048 199.773 671.129 199.766 671.217C199.766 671.298 199.762 671.389 199.755 671.492H195.223V670.711H198.677C198.655 670.249 198.501 669.89 198.215 669.633C197.929 669.369 197.573 669.237 197.148 669.237C196.847 669.237 196.572 669.307 196.323 669.446C196.074 669.578 195.872 669.776 195.718 670.04C195.571 670.297 195.498 670.623 195.498 671.019V671.327C195.498 671.738 195.571 672.086 195.718 672.372C195.872 672.651 196.074 672.863 196.323 673.01C196.572 673.149 196.844 673.219 197.137 673.219C197.489 673.219 197.779 673.142 198.006 672.988C198.233 672.834 198.402 672.625 198.512 672.361H199.612C199.517 672.698 199.355 673.003 199.128 673.274C198.901 673.538 198.618 673.747 198.281 673.901C197.951 674.055 197.57 674.132 197.137 674.132ZM201.439 674.055C201.226 674.055 201.05 673.989 200.911 673.857C200.779 673.718 200.713 673.553 200.713 673.362C200.713 673.164 200.779 672.999 200.911 672.867C201.05 672.728 201.226 672.658 201.439 672.658C201.652 672.658 201.824 672.728 201.956 672.867C202.088 672.999 202.154 673.164 202.154 673.362C202.154 673.553 202.088 673.718 201.956 673.857C201.824 673.989 201.652 674.055 201.439 674.055ZM205.925 674.132C205.39 674.132 204.913 674.011 204.495 673.769C204.077 673.52 203.747 673.179 203.505 672.746C203.271 672.313 203.153 671.811 203.153 671.239C203.153 670.66 203.271 670.154 203.505 669.721C203.747 669.281 204.077 668.94 204.495 668.698C204.913 668.449 205.39 668.324 205.925 668.324C206.6 668.324 207.165 668.5 207.619 668.852C208.074 669.204 208.364 669.681 208.488 670.282H207.344C207.271 669.959 207.102 669.71 206.838 669.534C206.582 669.358 206.274 669.27 205.914 669.27C205.621 669.27 205.35 669.347 205.1 669.501C204.851 669.648 204.649 669.868 204.495 670.161C204.349 670.447 204.275 670.803 204.275 671.228C204.275 671.543 204.319 671.826 204.407 672.075C204.495 672.317 204.613 672.522 204.759 672.691C204.913 672.86 205.089 672.988 205.287 673.076C205.485 673.157 205.694 673.197 205.914 673.197C206.156 673.197 206.373 673.16 206.563 673.087C206.761 673.006 206.926 672.889 207.058 672.735C207.198 672.581 207.293 672.398 207.344 672.185H208.488C208.364 672.772 208.074 673.245 207.619 673.604C207.165 673.956 206.6 674.132 205.925 674.132ZM212.305 674.132C211.785 674.132 211.315 674.011 210.897 673.769C210.487 673.527 210.16 673.19 209.918 672.757C209.684 672.317 209.566 671.811 209.566 671.239C209.566 670.652 209.687 670.143 209.929 669.71C210.171 669.27 210.501 668.929 210.919 668.687C211.337 668.445 211.807 668.324 212.327 668.324C212.855 668.324 213.325 668.445 213.735 668.687C214.146 668.929 214.469 669.266 214.703 669.699C214.945 670.132 215.066 670.641 215.066 671.228C215.066 671.815 214.945 672.324 214.703 672.757C214.469 673.19 214.142 673.527 213.724 673.769C213.306 674.011 212.833 674.132 212.305 674.132ZM212.305 673.186C212.606 673.186 212.877 673.113 213.119 672.966C213.369 672.819 213.567 672.603 213.713 672.317C213.867 672.024 213.944 671.661 213.944 671.228C213.944 670.795 213.871 670.436 213.724 670.15C213.578 669.857 213.38 669.637 213.13 669.49C212.888 669.343 212.621 669.27 212.327 669.27C212.034 669.27 211.763 669.343 211.513 669.49C211.264 669.637 211.062 669.857 210.908 670.15C210.762 670.436 210.688 670.795 210.688 671.228C210.688 671.661 210.762 672.024 210.908 672.317C211.062 672.603 211.26 672.819 211.502 672.966C211.752 673.113 212.019 673.186 212.305 673.186ZM216.36 674V668.456H217.35L217.427 669.237C217.603 668.951 217.838 668.727 218.131 668.566C218.425 668.405 218.755 668.324 219.121 668.324C219.4 668.324 219.653 668.364 219.88 668.445C220.108 668.518 220.309 668.632 220.485 668.786C220.661 668.94 220.804 669.131 220.914 669.358C221.112 669.035 221.376 668.782 221.706 668.599C222.044 668.416 222.399 668.324 222.773 668.324C223.221 668.324 223.606 668.416 223.928 668.599C224.251 668.775 224.497 669.043 224.665 669.402C224.834 669.754 224.918 670.194 224.918 670.722V674H223.829V670.832C223.829 670.319 223.723 669.93 223.51 669.666C223.305 669.402 223.001 669.27 222.597 669.27C222.326 669.27 222.084 669.34 221.871 669.479C221.659 669.618 221.49 669.82 221.365 670.084C221.248 670.348 221.189 670.671 221.189 671.052V674H220.089V670.832C220.089 670.319 219.983 669.93 219.77 669.666C219.565 669.402 219.261 669.27 218.857 669.27C218.601 669.27 218.366 669.34 218.153 669.479C217.941 669.618 217.772 669.82 217.647 670.084C217.523 670.348 217.46 670.671 217.46 671.052V674H216.36Z" fill="black"/>
<defs>
<filter id="filter0_d_1288_502" x="17" y="115" width="292" height="585" filterUnits="userSpaceOnUse" color-interpolation-filters="sRGB">
<feFlood flood-opacity="0" result="BackgroundImageFix"/>
<feColorMatrix in="SourceAlpha" type="matrix" values="0 0 0 0 0 0 0 0 0 0 0 0 0 0 0 0 0 0 127 0" result="hardAlpha"/>
<feOffset dy="4"/>
<feGaussianBlur stdDeviation="2"/>
<feComposite in2="hardAlpha" operator="out"/>
<feColorMatrix type="matrix" values="0 0 0 0 0 0 0 0 0 0 0 0 0 0 0 0 0 0 0.25 0"/>
<feBlend mode="normal" in2="BackgroundImageFix" result="effect1_dropShadow_1288_502"/>
<feBlend mode="normal" in="SourceGraphic" in2="effect1_dropShadow_1288_502" result="shape"/>
</filter>
<filter id="filter1_d_1288_502" x="37" y="187" width="253" height="44" filterUnits="userSpaceOnUse" color-interpolation-filters="sRGB">
<feFlood flood-opacity="0" result="BackgroundImageFix"/>
<feColorMatrix in="SourceAlpha" type="matrix" values="0 0 0 0 0 0 0 0 0 0 0 0 0 0 0 0 0 0 127 0" result="hardAlpha"/>
<feOffset dy="1"/>
<feGaussianBlur stdDeviation="2"/>
<feComposite in2="hardAlpha" operator="out"/>
<feColorMatrix type="matrix" values="0 0 0 0 0 0 0 0 0 0 0 0 0 0 0 0 0 0 0.1 0"/>
<feBlend mode="normal" in2="BackgroundImageFix" result="effect1_dropShadow_1288_502"/>
<feBlend mode="normal" in="SourceGraphic" in2="effect1_dropShadow_1288_502" result="shape"/>
</filter>
<filter id="filter2_d_1288_502" x="37" y="238" width="253" height="44" filterUnits="userSpaceOnUse" color-interpolation-filters="sRGB">
<feFlood flood-opacity="0" result="BackgroundImageFix"/>
<feColorMatrix in="SourceAlpha" type="matrix" values="0 0 0 0 0 0 0 0 0 0 0 0 0 0 0 0 0 0 127 0" result="hardAlpha"/>
<feOffset dy="1"/>
<feGaussianBlur stdDeviation="2"/>
<feComposite in2="hardAlpha" operator="out"/>
<feColorMatrix type="matrix" values="0 0 0 0 0 0 0 0 0 0 0 0 0 0 0 0 0 0 0.1 0"/>
<feBlend mode="normal" in2="BackgroundImageFix" result="effect1_dropShadow_1288_502"/>
<feBlend mode="normal" in="SourceGraphic" in2="effect1_dropShadow_1288_502" result="shape"/>
</filter>
<filter id="filter3_d_1288_502" x="37" y="289" width="253" height="44" filterUnits="userSpaceOnUse" color-interpolation-filters="sRGB">
<feFlood flood-opacity="0" result="BackgroundImageFix"/>
<feColorMatrix in="SourceAlpha" type="matrix" values="0 0 0 0 0 0 0 0 0 0 0 0 0 0 0 0 0 0 127 0" result="hardAlpha"/>
<feOffset dy="1"/>
<feGaussianBlur stdDeviation="2"/>
<feComposite in2="hardAlpha" operator="out"/>
<feColorMatrix type="matrix" values="0 0 0 0 0 0 0 0 0 0 0 0 0 0 0 0 0 0 0.1 0"/>
<feBlend mode="normal" in2="BackgroundImageFix" result="effect1_dropShadow_1288_502"/>
<feBlend mode="normal" in="SourceGraphic" in2="effect1_dropShadow_1288_502" result="shape"/>
</filter>
</defs>
</svg>
