<svg width="46" height="43" viewBox="0 0 46 43" fill="none" xmlns="http://www.w3.org/2000/svg">
<path d="M7.47316 1.23794C3.16091 1.23794 1.91173 4.37488 1.82617 5.94335V27.9732C1.82617 31.9086 5.59083 32.7499 7.47316 32.6786H22.104C23.6441 34.3184 27.1349 38.0257 28.7777 39.7367C29.8044 40.5922 30.2322 41.2339 30.8311 41.2339C32.0632 41.2339 32.5423 40.2358 32.6279 39.7367V32.6786H38.5316C43.6652 32.6786 44.4352 29.5417 44.1786 27.9732V5.94335C44.1786 2.00792 40.4139 1.16665 38.5316 1.23794H7.47316Z" stroke="black" stroke-width="1.78064"/>
<circle cx="13.5745" cy="15.8711" r="2.55394" stroke="#5D5FEF" stroke-width="1.02158"/>
<circle cx="22.7683" cy="15.8711" r="2.55394" stroke="#5D5FEF" stroke-width="1.02158"/>
<circle cx="31.9632" cy="15.8711" r="3.06473" fill="#5D5FEF"/>
<rect x="9.48828" y="6.16724" width="14.3021" height="1.53236" fill="black"/>
<rect x="9.48828" y="22.5112" width="27.0718" height="0.510788" fill="black"/>
<rect x="9.48828" y="26.5974" width="27.0718" height="0.510788" fill="black"/>
</svg>
