<svg width="323" height="708" viewBox="0 0 323 708" fill="none" xmlns="http://www.w3.org/2000/svg">
<rect width="323" height="708" rx="38" fill="white"/>
<rect x="30" y="35" width="259" height="49" rx="12" fill="#D9D9D9"/>
<rect x="110" y="44" width="169" height="29" rx="12" fill="white"/>
<path d="M123.748 63V55.08H124.848V58.358C125.031 58.0353 125.284 57.7823 125.607 57.599C125.937 57.4157 126.3 57.324 126.696 57.324C127.136 57.324 127.514 57.4157 127.829 57.599C128.144 57.775 128.386 58.0427 128.555 58.402C128.724 58.754 128.808 59.1977 128.808 59.733V63H127.719V59.854C127.719 59.3333 127.609 58.941 127.389 58.677C127.169 58.4057 126.843 58.27 126.41 58.27C126.117 58.27 125.853 58.3397 125.618 58.479C125.383 58.6183 125.196 58.8237 125.057 59.095C124.918 59.359 124.848 59.6817 124.848 60.063V63H123.748ZM132.492 63C132.147 63 131.846 62.945 131.59 62.835C131.333 62.725 131.135 62.5417 130.996 62.285C130.856 62.0283 130.787 61.68 130.787 61.24V58.391H129.83V57.456H130.787L130.919 56.07H131.887V57.456H133.46V58.391H131.887V61.251C131.887 61.5663 131.953 61.7827 132.085 61.9C132.217 62.01 132.444 62.065 132.767 62.065H133.405V63H132.492ZM136.95 63C136.605 63 136.304 62.945 136.048 62.835C135.791 62.725 135.593 62.5417 135.454 62.285C135.314 62.0283 135.245 61.68 135.245 61.24V58.391H134.288V57.456H135.245L135.377 56.07H136.345V57.456H137.918V58.391H136.345V61.251C136.345 61.5663 136.411 61.7827 136.543 61.9C136.675 62.01 136.902 62.065 137.225 62.065H137.863V63H136.95ZM139.131 65.42V57.456H140.121L140.231 58.314C140.348 58.1453 140.495 57.9877 140.671 57.841C140.847 57.687 141.056 57.5623 141.298 57.467C141.547 57.3717 141.837 57.324 142.167 57.324C142.695 57.324 143.157 57.4523 143.553 57.709C143.956 57.9657 144.268 58.314 144.488 58.754C144.715 59.1867 144.829 59.6817 144.829 60.239C144.829 60.7963 144.715 61.295 144.488 61.735C144.26 62.1677 143.945 62.5087 143.542 62.758C143.146 63.0073 142.684 63.132 142.156 63.132C141.723 63.132 141.342 63.0477 141.012 62.879C140.682 62.703 140.421 62.461 140.231 62.153V65.42H139.131ZM141.98 62.175C142.317 62.175 142.614 62.0943 142.871 61.933C143.135 61.7717 143.34 61.5443 143.487 61.251C143.641 60.9577 143.718 60.6167 143.718 60.228C143.718 59.8393 143.641 59.502 143.487 59.216C143.34 58.9227 143.135 58.6953 142.871 58.534C142.614 58.3653 142.317 58.281 141.98 58.281C141.635 58.281 141.331 58.3653 141.067 58.534C140.81 58.6953 140.608 58.9227 140.462 59.216C140.315 59.502 140.242 59.8393 140.242 60.228C140.242 60.6167 140.315 60.9577 140.462 61.251C140.608 61.5443 140.81 61.7717 141.067 61.933C141.331 62.0943 141.635 62.175 141.98 62.175ZM146.553 63.055C146.341 63.055 146.165 62.989 146.025 62.857C145.893 62.7177 145.827 62.5527 145.827 62.362C145.827 62.164 145.893 61.999 146.025 61.867C146.165 61.7277 146.341 61.658 146.553 61.658C146.766 61.658 146.938 61.7277 147.07 61.867C147.202 61.999 147.268 62.164 147.268 62.362C147.268 62.5527 147.202 62.7177 147.07 62.857C146.938 62.989 146.766 63.055 146.553 63.055ZM146.553 58.721C146.341 58.721 146.165 58.655 146.025 58.523C145.893 58.3837 145.827 58.2187 145.827 58.028C145.827 57.83 145.893 57.665 146.025 57.533C146.165 57.3937 146.341 57.324 146.553 57.324C146.766 57.324 146.938 57.3937 147.07 57.533C147.202 57.665 147.268 57.83 147.268 58.028C147.268 58.2187 147.202 58.3837 147.07 58.523C146.938 58.655 146.766 58.721 146.553 58.721ZM148.058 64.111L150.808 54.541H151.886L149.136 64.111H148.058ZM151.173 64.111L153.923 54.541H155.001L152.251 64.111H151.173ZM157.183 63L155.555 57.456H156.644L157.854 62.076L157.645 62.065L158.987 57.456H160.219L161.561 62.065L161.352 62.076L162.551 57.456H163.662L162.034 63H160.901L159.493 58.193H159.713L158.305 63H157.183ZM165.776 63L164.148 57.456H165.237L166.447 62.076L166.238 62.065L167.58 57.456H168.812L170.154 62.065L169.945 62.076L171.144 57.456H172.255L170.627 63H169.494L168.086 58.193H168.306L166.898 63H165.776ZM174.37 63L172.742 57.456H173.831L175.041 62.076L174.832 62.065L176.174 57.456H177.406L178.748 62.065L178.539 62.076L179.738 57.456H180.849L179.221 63H178.088L176.68 58.193H176.9L175.492 63H174.37ZM181.97 63.055C181.758 63.055 181.582 62.989 181.442 62.857C181.31 62.7177 181.244 62.5527 181.244 62.362C181.244 62.164 181.31 61.999 181.442 61.867C181.582 61.7277 181.758 61.658 181.97 61.658C182.183 61.658 182.355 61.7277 182.487 61.867C182.619 61.999 182.685 62.164 182.685 62.362C182.685 62.5527 182.619 62.7177 182.487 62.857C182.355 62.989 182.183 63.055 181.97 63.055ZM183.894 63V55.08H184.994V58.358C185.177 58.0353 185.43 57.7823 185.753 57.599C186.083 57.4157 186.446 57.324 186.842 57.324C187.282 57.324 187.659 57.4157 187.975 57.599C188.29 57.775 188.532 58.0427 188.701 58.402C188.869 58.754 188.954 59.1977 188.954 59.733V63H187.865V59.854C187.865 59.3333 187.755 58.941 187.535 58.677C187.315 58.4057 186.988 58.27 186.556 58.27C186.262 58.27 185.998 58.3397 185.764 58.479C185.529 58.6183 185.342 58.8237 185.203 59.095C185.063 59.359 184.994 59.6817 184.994 60.063V63H183.894ZM192.868 63.132C192.34 63.132 191.871 63.011 191.46 62.769C191.05 62.527 190.727 62.1897 190.492 61.757C190.265 61.3243 190.151 60.822 190.151 60.25C190.151 59.6633 190.265 59.1537 190.492 58.721C190.727 58.281 191.05 57.94 191.46 57.698C191.871 57.4487 192.348 57.324 192.89 57.324C193.433 57.324 193.899 57.445 194.287 57.687C194.676 57.929 194.977 58.2517 195.189 58.655C195.402 59.051 195.508 59.491 195.508 59.975C195.508 60.0483 195.505 60.129 195.497 60.217C195.497 60.2977 195.494 60.3893 195.486 60.492H190.954V59.711H194.408C194.386 59.249 194.232 58.8897 193.946 58.633C193.66 58.369 193.305 58.237 192.879 58.237C192.579 58.237 192.304 58.3067 192.054 58.446C191.805 58.578 191.603 58.776 191.449 59.04C191.303 59.2967 191.229 59.623 191.229 60.019V60.327C191.229 60.7377 191.303 61.086 191.449 61.372C191.603 61.6507 191.805 61.8633 192.054 62.01C192.304 62.1493 192.575 62.219 192.868 62.219C193.22 62.219 193.51 62.142 193.737 61.988C193.965 61.834 194.133 61.625 194.243 61.361H195.343C195.248 61.6983 195.087 62.0027 194.859 62.274C194.632 62.538 194.35 62.747 194.012 62.901C193.682 63.055 193.301 63.132 192.868 63.132ZM196.73 63V55.08H197.83V63H196.73ZM199.341 63V55.08H200.441V63H199.341ZM204.481 63.132C203.96 63.132 203.491 63.011 203.073 62.769C202.662 62.527 202.336 62.1897 202.094 61.757C201.859 61.317 201.742 60.811 201.742 60.239C201.742 59.6523 201.863 59.1427 202.105 58.71C202.347 58.27 202.677 57.929 203.095 57.687C203.513 57.445 203.982 57.324 204.503 57.324C205.031 57.324 205.5 57.445 205.911 57.687C206.322 57.929 206.644 58.2663 206.879 58.699C207.121 59.1317 207.242 59.6413 207.242 60.228C207.242 60.8147 207.121 61.3243 206.879 61.757C206.644 62.1897 206.318 62.527 205.9 62.769C205.482 63.011 205.009 63.132 204.481 63.132ZM204.481 62.186C204.782 62.186 205.053 62.1127 205.295 61.966C205.544 61.8193 205.742 61.603 205.889 61.317C206.043 61.0237 206.12 60.6607 206.12 60.228C206.12 59.7953 206.047 59.436 205.9 59.15C205.753 58.8567 205.555 58.6367 205.306 58.49C205.064 58.3433 204.796 58.27 204.503 58.27C204.21 58.27 203.938 58.3433 203.689 58.49C203.44 58.6367 203.238 58.8567 203.084 59.15C202.937 59.436 202.864 59.7953 202.864 60.228C202.864 60.6607 202.937 61.0237 203.084 61.317C203.238 61.603 203.436 61.8193 203.678 61.966C203.927 62.1127 204.195 62.186 204.481 62.186ZM208.976 63.055C208.763 63.055 208.587 62.989 208.448 62.857C208.316 62.7177 208.25 62.5527 208.25 62.362C208.25 62.164 208.316 61.999 208.448 61.867C208.587 61.7277 208.763 61.658 208.976 61.658C209.189 61.658 209.361 61.7277 209.493 61.867C209.625 61.999 209.691 62.164 209.691 62.362C209.691 62.5527 209.625 62.7177 209.493 62.857C209.361 62.989 209.189 63.055 208.976 63.055ZM213.462 63.132C212.927 63.132 212.45 63.011 212.032 62.769C211.614 62.5197 211.284 62.1787 211.042 61.746C210.808 61.3133 210.69 60.811 210.69 60.239C210.69 59.6597 210.808 59.1537 211.042 58.721C211.284 58.281 211.614 57.94 212.032 57.698C212.45 57.4487 212.927 57.324 213.462 57.324C214.137 57.324 214.702 57.5 215.156 57.852C215.611 58.204 215.901 58.6807 216.025 59.282H214.881C214.808 58.9593 214.639 58.71 214.375 58.534C214.119 58.358 213.811 58.27 213.451 58.27C213.158 58.27 212.887 58.347 212.637 58.501C212.388 58.6477 212.186 58.8677 212.032 59.161C211.886 59.447 211.812 59.8027 211.812 60.228C211.812 60.5433 211.856 60.8257 211.944 61.075C212.032 61.317 212.15 61.5223 212.296 61.691C212.45 61.8597 212.626 61.988 212.824 62.076C213.022 62.1567 213.231 62.197 213.451 62.197C213.693 62.197 213.91 62.1603 214.1 62.087C214.298 62.0063 214.463 61.889 214.595 61.735C214.735 61.581 214.83 61.3977 214.881 61.185H216.025C215.901 61.7717 215.611 62.2447 215.156 62.604C214.702 62.956 214.137 63.132 213.462 63.132ZM219.842 63.132C219.322 63.132 218.852 63.011 218.434 62.769C218.024 62.527 217.697 62.1897 217.455 61.757C217.221 61.317 217.103 60.811 217.103 60.239C217.103 59.6523 217.224 59.1427 217.466 58.71C217.708 58.27 218.038 57.929 218.456 57.687C218.874 57.445 219.344 57.324 219.864 57.324C220.392 57.324 220.862 57.445 221.272 57.687C221.683 57.929 222.006 58.2663 222.24 58.699C222.482 59.1317 222.603 59.6413 222.603 60.228C222.603 60.8147 222.482 61.3243 222.24 61.757C222.006 62.1897 221.679 62.527 221.261 62.769C220.843 63.011 220.37 63.132 219.842 63.132ZM219.842 62.186C220.143 62.186 220.414 62.1127 220.656 61.966C220.906 61.8193 221.104 61.603 221.25 61.317C221.404 61.0237 221.481 60.6607 221.481 60.228C221.481 59.7953 221.408 59.436 221.261 59.15C221.115 58.8567 220.917 58.6367 220.667 58.49C220.425 58.3433 220.158 58.27 219.864 58.27C219.571 58.27 219.3 58.3433 219.05 58.49C218.801 58.6367 218.599 58.8567 218.445 59.15C218.299 59.436 218.225 59.7953 218.225 60.228C218.225 60.6607 218.299 61.0237 218.445 61.317C218.599 61.603 218.797 61.8193 219.039 61.966C219.289 62.1127 219.556 62.186 219.842 62.186ZM223.897 63V57.456H224.887L224.964 58.237C225.14 57.951 225.375 57.7273 225.668 57.566C225.962 57.4047 226.292 57.324 226.658 57.324C226.937 57.324 227.19 57.3643 227.417 57.445C227.645 57.5183 227.846 57.632 228.022 57.786C228.198 57.94 228.341 58.1307 228.451 58.358C228.649 58.0353 228.913 57.7823 229.243 57.599C229.581 57.4157 229.936 57.324 230.31 57.324C230.758 57.324 231.143 57.4157 231.465 57.599C231.788 57.775 232.034 58.0427 232.202 58.402C232.371 58.754 232.455 59.194 232.455 59.722V63H231.366V59.832C231.366 59.3187 231.26 58.93 231.047 58.666C230.842 58.402 230.538 58.27 230.134 58.27C229.863 58.27 229.621 58.3397 229.408 58.479C229.196 58.6183 229.027 58.82 228.902 59.084C228.785 59.348 228.726 59.6707 228.726 60.052V63H227.626V59.832C227.626 59.3187 227.52 58.93 227.307 58.666C227.102 58.402 226.798 58.27 226.394 58.27C226.138 58.27 225.903 58.3397 225.69 58.479C225.478 58.6183 225.309 58.82 225.184 59.084C225.06 59.348 224.997 59.6707 224.997 60.052V63H223.897ZM233.426 64.111L236.176 54.541H237.254L234.504 64.111H233.426Z" fill="black"/>
<path d="M73.5833 60C73.5833 63.1826 74.8081 66.2348 76.9882 68.4853C79.1683 70.7357 82.1252 72 85.2083 72C88.2954 72 91.2533 70.7467 93.475 68.5333L91.5375 66.5333C90.724 67.4219 89.7427 68.1289 88.6541 68.6104C87.5654 69.092 86.3927 69.3381 85.2083 69.3333C77.1483 69.3333 73.1183 59.28 78.8146 53.4C84.5108 47.52 94.25 51.6933 94.25 60H90.375L95.5417 65.3333H95.6708L100.708 60H96.8333C96.8333 56.8174 95.6086 53.7652 93.4285 51.5147C91.2483 49.2643 88.2915 48 85.2083 48C82.1252 48 79.1683 49.2643 76.9882 51.5147C74.8081 53.7652 73.5833 56.8174 73.5833 60Z" fill="#5C5C5C"/>
<path d="M51 60.5L62.25 49.25L64 51.125L54.75 60.5L64 69.875L62.25 71.75L51 60.5Z" fill="#5C5C5C"/>
<path d="M157.5 118L178.718 130.25V154.75L157.5 167L136.282 154.75V130.25L157.5 118Z" fill="#D9D9D9"/>
<rect x="30" y="198" width="259" height="113" rx="3" fill="#D9D9D9"/>
<rect x="49" y="343" width="217" height="13" rx="5" fill="#D9D9D9"/>
<rect x="49" y="372" width="217" height="14" rx="5" fill="#D9D9D9"/>
<rect x="69" y="402" width="177" height="13" rx="5" fill="#D9D9D9"/>
<rect x="30" y="645" width="52" height="13" rx="5" fill="#D9D9D9"/>
<rect x="137" y="645" width="52" height="13" rx="5" fill="#D9D9D9"/>
<rect x="237" y="645" width="52" height="13" rx="5" fill="#D9D9D9"/>
<rect x="73" y="458" width="173" height="55" rx="3" fill="#E9E9E9"/>
<rect x="91" y="479" width="138" height="14" rx="5" fill="#D9D9D9"/>
<ellipse cx="56" cy="595.5" rx="26" ry="26.5" fill="#D9D9D9"/>
<ellipse cx="163" cy="595.5" rx="26" ry="26.5" fill="#D9D9D9"/>
<ellipse cx="263" cy="595.5" rx="26" ry="26.5" fill="#D9D9D9"/>
</svg>
