<svg width="44" height="53" viewBox="0 0 44 53" fill="none" xmlns="http://www.w3.org/2000/svg">
<rect x="1.81543" y="1.23145" width="40.7609" height="50" rx="5.96624" stroke="black" stroke-width="2"/>
<mask id="mask0_51_379" style="mask-type:alpha" maskUnits="userSpaceOnUse" x="12" y="15" width="21" height="22">
<path d="M28.5354 28.1415L25.2569 26.5025C25.1601 26.4543 25.0523 26.4326 24.9443 26.4394C24.8364 26.4462 24.7322 26.4814 24.6422 26.5414L23.0358 27.6119C22.2225 27.1956 21.5609 26.534 21.1445 25.7208L22.2162 24.1156C22.2761 24.0256 22.3113 23.9214 22.3182 23.8135C22.325 23.7055 22.3032 23.5977 22.2551 23.5009L20.6159 20.2228C20.5649 20.1202 20.4863 20.0339 20.3889 19.9736C20.2915 19.9134 20.1792 19.8815 20.0647 19.8816C19.0322 19.8816 18.0419 20.2918 17.3118 21.0218C16.5817 21.7518 16.1715 22.742 16.1715 23.7744C16.1742 26.1102 17.1034 28.3495 18.7552 30.0011C20.4069 31.6527 22.6464 32.5817 24.9823 32.5845C26.0149 32.5845 27.0051 32.1743 27.7352 31.4443C28.4653 30.7142 28.8755 29.7241 28.8755 28.6917C28.8755 28.5774 28.8437 28.4654 28.7836 28.3682C28.7236 28.2711 28.6376 28.1926 28.5354 28.1415ZM24.9823 31.3552C22.9724 31.3527 21.0454 30.5532 19.6242 29.1321C18.2029 27.711 17.4034 25.7842 17.4009 23.7744C17.401 23.1316 17.6336 22.5105 18.0557 22.0257C18.4779 21.5409 19.0611 21.2251 19.6979 21.1365L20.9949 23.7304L19.9305 25.3264C19.8745 25.4106 19.8402 25.5073 19.8306 25.6079C19.8209 25.7085 19.8362 25.8099 19.8751 25.9032C20.4404 27.247 21.5095 28.316 22.8534 28.8812C22.9467 28.9201 23.0481 28.9354 23.1487 28.9257C23.2493 28.9161 23.346 28.8818 23.4302 28.8259L25.0264 27.7615L27.6205 29.0584C27.5319 29.6951 27.2161 30.2783 26.7313 30.7004C26.2464 31.1226 25.6252 31.3551 24.9823 31.3552ZM22.5235 15.7839C20.712 15.7836 18.9314 16.2541 17.3566 17.1493C15.7817 18.0446 14.4667 19.3338 13.5405 20.8905C12.6142 22.4473 12.1086 24.218 12.0733 26.0291C12.0379 27.8401 12.474 29.6293 13.3388 31.221L12.1483 34.7931C12.064 35.0458 12.0518 35.317 12.113 35.5762C12.1741 35.8355 12.3063 36.0726 12.4947 36.261C12.6831 36.4493 12.9202 36.5815 13.1795 36.6427C13.4388 36.7039 13.71 36.6916 13.9627 36.6074L17.5352 35.417C18.9336 36.1758 20.4869 36.6053 22.0765 36.6728C23.6662 36.7402 25.2503 36.4438 26.708 35.8061C28.1657 35.1684 29.4585 34.2064 30.4879 32.9932C31.5172 31.7801 32.256 30.3479 32.6478 28.806C33.0395 27.264 33.074 25.653 32.7485 24.0956C32.4231 22.5383 31.7463 21.0759 30.7697 19.8198C29.7932 18.5638 28.5427 17.5473 27.1136 16.8479C25.6845 16.1484 24.1146 15.7846 22.5235 15.7839ZM22.5235 35.4528C20.9027 35.4532 19.3104 35.0264 17.9071 34.2153C17.8135 34.1616 17.7076 34.133 17.5997 34.1324C17.5336 34.1327 17.4679 34.1435 17.405 34.1641L13.5744 35.4405C13.5383 35.4526 13.4995 35.4543 13.4625 35.4456C13.4255 35.4369 13.3916 35.418 13.3647 35.3911C13.3378 35.3642 13.3189 35.3303 13.3101 35.2932C13.3014 35.2562 13.3032 35.2175 13.3152 35.1814L14.5917 31.3552C14.6194 31.2725 14.6291 31.1849 14.6202 31.0981C14.6114 31.0114 14.5842 30.9276 14.5405 30.8522C13.5234 29.0954 13.1146 27.0521 13.3775 25.0392C13.6403 23.0264 14.5602 21.1566 15.9943 19.7198C17.4285 18.2831 19.2967 17.3598 21.3092 17.0931C23.3217 16.8265 25.366 17.2314 27.1248 18.245C28.8837 19.2587 30.2589 20.8244 31.0369 22.6993C31.815 24.5742 31.9526 26.6535 31.4282 28.6145C30.9038 30.5756 29.7468 32.3087 28.1368 33.5452C26.5267 34.7816 24.5536 35.4522 22.5235 35.4528Z" fill="black"/>
</mask>
<g mask="url(#mask0_51_379)">
<rect x="7.68945" y="14.5371" width="27.9477" height="26.5469" fill="black"/>
<path d="M19.8433 18.5386L23.4973 19.6926V20.3084L25.8009 22.2321L30.011 24.9253C30.064 26.6181 30.1381 30.0807 30.011 30.3885C29.8839 30.6963 27.522 32.8252 26.357 33.8511H21.273L16.9835 31.6197L14.9976 27.1567V21.3088L19.8433 18.5386Z" fill="#5D5FEF"/>
</g>
</svg>
