<svg width="46" height="41" viewBox="0 0 46 41" fill="none" xmlns="http://www.w3.org/2000/svg">
<path d="M18.4903 1.95104C7.40706 3.43542 -0.00837517 14.1073 2.71859 24.6698C4.20168 30.4667 8.58715 35.2948 14.376 37.4667C25.5549 41.701 38.0416 34.3104 39.6363 22.5292C40.7526 14.2635 35.7771 6.15417 27.66 2.99792C24.933 1.95104 21.4565 1.54479 18.4903 1.95104ZM21.4087 2.91979C21.919 3.38854 22.4931 4.79479 22.9555 6.73229C23.2107 7.84166 23.6572 10.3417 23.6094 10.4042C23.5137 10.5135 20.2126 10.5604 19.2877 10.4979L18.283 10.4042L18.3468 9.98229C18.5063 8.82604 19.1123 6.09166 19.3993 5.21666C19.9096 3.60729 20.4997 2.68542 20.9781 2.68542C21.0578 2.70104 21.2651 2.79479 21.4087 2.91979ZM19.2717 3.06042C18.4425 4.88854 17.98 6.43541 17.5654 8.90416C17.4378 9.62291 17.3102 10.2323 17.2784 10.2479C17.1986 10.3417 14.8225 9.87291 13.5627 9.52916L12.4783 9.23229L12.9088 8.46666C14.3441 5.93541 16.3056 4.02917 18.3309 3.20104C19.0963 2.90417 19.3674 2.85729 19.2717 3.06042ZM23.5296 3.20104C25.0287 3.79479 26.5596 5.02917 27.7716 6.62291C28.4573 7.52916 29.3025 8.91979 29.3025 9.13854C29.3025 9.34166 27.2134 9.87291 25.0287 10.2479C24.5184 10.326 24.5662 10.4354 24.2951 8.74791C24.1835 8.04479 23.9443 6.88854 23.7529 6.16979C23.4659 5.06041 23.2745 4.54479 22.6207 3.06042C22.5409 2.85729 22.7482 2.88854 23.5296 3.20104ZM15.4923 3.90417C14.36 4.81042 12.9088 6.62291 12.0636 8.23229C11.8723 8.57604 11.7128 8.88854 11.6809 8.91979C11.6171 9.02916 8.55525 7.66979 8.60309 7.52916C8.66688 7.37291 10.2457 6.12291 10.9633 5.65416C12.0477 4.95104 13.5627 4.20104 14.7268 3.77917C15.3328 3.57604 15.875 3.40417 15.9547 3.38854C16.0823 3.38854 15.8591 3.62292 15.4923 3.90417ZM27.038 3.74792C28.2819 4.16979 29.765 4.91979 30.9291 5.66979C31.7743 6.21666 33.2893 7.43542 33.3053 7.56042C33.3212 7.68542 30.2912 9.01354 30.2115 8.91979C30.1956 8.90416 30.0201 8.59166 29.8447 8.23229C29.0633 6.73229 27.5643 4.82604 26.4161 3.90417C26.0493 3.62292 25.8101 3.38854 25.8739 3.38854C25.9377 3.38854 26.4639 3.54479 27.038 3.74792ZM8.74662 8.71666C9.1453 8.91979 9.87887 9.23229 10.3732 9.43541L11.2663 9.79479L10.8197 10.951C9.9905 13.0604 9.4164 15.8573 9.22503 18.5917L9.1453 19.7792H6.08344H3.03753L3.11727 18.8729C3.40432 15.7792 4.40899 12.9354 6.09939 10.451C6.75322 9.49791 7.74195 8.35729 7.90142 8.35729C7.96521 8.34166 8.34794 8.51354 8.74662 8.71666ZM34.6927 8.98229C36.9572 11.576 38.4402 15.1229 38.807 18.9198L38.8868 19.7635H35.8249H32.763L32.6355 18.1073C32.4122 15.3885 31.7424 12.4354 30.9291 10.4667L30.6421 9.77916L31.6627 9.35729C32.2208 9.12291 32.9385 8.81041 33.2574 8.62291C33.5923 8.46666 33.9112 8.32604 33.991 8.31041C34.0548 8.34166 34.3737 8.63854 34.6927 8.98229ZM13.8338 10.5448C14.5514 10.7167 15.572 10.951 16.0983 11.0448C16.6405 11.1229 17.1029 11.2323 17.1508 11.2635C17.1667 11.2948 17.1508 11.8885 17.087 12.576C16.9275 14.1229 16.7202 17.5292 16.7202 18.8104V19.7635H13.4032H10.0862L10.1659 18.5135C10.3254 16.0917 10.8835 13.2792 11.5852 11.3417C12.0158 10.1542 12.0955 10.0448 12.3347 10.1385C12.4464 10.1854 13.1321 10.3573 13.8338 10.5448ZM30.2115 11.1229C30.961 13.0448 31.5351 15.951 31.7265 18.576L31.8062 19.7635H28.5052H25.2041L25.1244 17.5448C25.0765 16.326 24.9649 14.4354 24.8692 13.326C24.6778 11.1542 24.6938 11.1229 25.2838 11.1229C25.6506 11.1229 28.0905 10.576 28.9357 10.3104C29.3025 10.201 29.6534 10.1073 29.7171 10.1229C29.7969 10.1385 30.0042 10.576 30.2115 11.1229ZM23.7848 11.4667C23.7848 11.4979 23.8645 12.3573 23.9602 13.3729C24.0399 14.3885 24.1675 16.2479 24.2154 17.4979L24.2951 19.7792H20.9621H17.6292L17.7089 17.5135C17.7568 16.2635 17.8684 14.4042 17.9641 13.3885C18.0598 12.3729 18.1395 11.5135 18.1395 11.4667C18.1395 11.4354 19.4153 11.4042 20.9621 11.4042C22.509 11.4042 23.7848 11.4198 23.7848 11.4667ZM9.22503 21.8573C9.4164 24.6073 10.0224 27.5135 10.8676 29.6385L11.2663 30.6698L10.7241 30.8729C10.437 30.9823 9.67155 31.326 9.01772 31.6229L7.85358 32.1698L7.29543 31.5448C5.03093 29.076 3.46811 25.3417 3.13322 21.576L3.05348 20.6854H6.09939H9.16124L9.22503 21.8573ZM16.7202 21.6854C16.7202 22.9667 16.9116 26.2479 17.087 27.8729C17.1508 28.5604 17.1986 29.1385 17.1667 29.1698C17.1508 29.1854 16.4332 29.3573 15.6039 29.5135C14.7587 29.6698 13.6424 29.9354 13.148 30.076C12.6377 30.2323 12.1753 30.3417 12.1274 30.3104C11.9679 30.2167 11.2982 28.2479 10.9473 26.8573C10.5486 25.201 10.2935 23.6229 10.1819 21.9198L10.1021 20.6854H13.4191H16.7202V21.6854ZM24.1994 22.9042C24.1356 24.951 23.9921 26.8417 23.8167 28.4198L23.7529 29.0604H20.9462C19.3993 29.0604 18.1395 29.0448 18.1395 28.9979C18.1395 28.951 18.0598 28.0917 17.9641 27.076C17.8684 26.0448 17.7568 24.1854 17.7089 22.951L17.6292 20.6854H20.9621H24.2951L24.1994 22.9042ZM31.7424 21.8573C31.6149 23.7167 31.3438 25.451 30.9132 27.076C30.5304 28.5135 29.9882 30.0917 29.8128 30.2635C29.765 30.3104 29.2866 30.2167 28.7284 30.0604C28.1703 29.9042 27.0699 29.6385 26.2566 29.4823C25.4433 29.326 24.7735 29.1698 24.7576 29.1542C24.7416 29.1385 24.8054 28.201 24.9011 27.1073C25.0127 25.9979 25.1084 24.0917 25.1563 22.8729L25.236 20.6542H28.5371H31.8381L31.7424 21.8573ZM38.807 21.5135C38.5838 23.826 37.9299 26.2167 36.989 28.0135C36.3831 29.1854 35.2668 30.8417 34.581 31.576L34.0548 32.1542L32.8906 31.6073C32.2368 31.3104 31.4713 30.9667 31.1683 30.8573L30.6261 30.6542L30.9132 29.9667C31.7265 28.0135 32.3963 25.0604 32.6195 22.326L32.7471 20.6854H35.809H38.8708L38.807 21.5135ZM23.0353 29.9823L23.6413 30.0604L23.5775 30.4823C23.2745 32.6542 22.4771 35.6854 21.9828 36.6698C21.6957 37.2479 21.2014 37.7635 20.9462 37.7635C20.4678 37.7635 19.8937 36.8417 19.3674 35.2323C19.0804 34.3729 18.4903 31.6385 18.3149 30.4667L18.2511 30.0448L18.7455 29.9979C19.6226 29.9198 22.3974 29.9198 23.0353 29.9823ZM17.3581 30.4042C17.374 30.5604 17.5016 31.1854 17.6132 31.826C17.8843 33.4823 18.4425 35.4979 18.889 36.5448C19.1123 37.0448 19.2717 37.4979 19.2399 37.5135C19.1442 37.6073 18.0757 37.1854 17.2465 36.701C15.7315 35.826 14.0251 33.9823 12.8929 31.9823L12.4623 31.2167L13.6105 30.8885C14.5833 30.6229 16.6405 30.1854 17.1348 30.1542C17.2305 30.1385 17.3262 30.2635 17.3581 30.4042ZM26.5915 30.4979C28.0586 30.7792 29.3185 31.1542 29.3185 31.3104C29.3185 31.5292 28.4733 32.9198 27.7875 33.826C26.5596 35.4354 25.0446 36.6542 23.5456 37.2479C22.525 37.6698 22.4931 37.6229 22.9236 36.7479C23.434 35.7167 23.9443 33.8885 24.2632 31.9823C24.4067 31.1229 24.5503 30.3729 24.5662 30.2792C24.5981 30.1229 24.7257 30.1385 26.5915 30.4979ZM12.0477 32.1698C12.7972 33.6385 14.3441 35.6229 15.4923 36.5448C15.8591 36.826 16.0983 37.0604 16.0345 37.0604C15.9707 37.0604 15.4444 36.9042 14.8703 36.701C13.6265 36.2792 12.1434 35.5292 10.9792 34.7792C10.0543 34.1854 8.60309 33.0135 8.60309 32.8573C8.58715 32.8104 8.8423 32.6542 9.16124 32.5292C11.0271 31.7167 11.4895 31.5292 11.6012 31.5292C11.665 31.5292 11.8723 31.8104 12.0477 32.1698ZM31.1524 31.8573C32.476 32.4042 33.3212 32.8104 33.3053 32.8885C33.2893 33.0448 31.7584 34.2323 30.8175 34.8417C30.2912 35.1854 29.446 35.6542 28.9676 35.9042C28.1384 36.3104 26.1609 37.0604 25.8898 37.0604C25.826 37.0604 26.0971 36.7792 26.5118 36.4354C27.7078 35.451 29.3504 33.326 29.9563 32.0135C30.068 31.7479 30.2115 31.5292 30.2593 31.5292C30.3072 31.5292 30.7059 31.6854 31.1524 31.8573Z" fill="black"/>
<g clip-path="url(#clip0_51_326)">
<path d="M34.5575 16.8381C34.4608 16.8325 34.364 16.8466 34.2739 16.8795C34.1838 16.9123 34.1026 16.9631 34.0361 17.0283C33.9697 17.0934 33.9196 17.1712 33.8893 17.2563C33.8591 17.3413 33.8496 17.4315 33.8613 17.5203L34.8585 27.4052C34.9223 27.8852 35.5364 28.1089 35.9374 27.7981L38.0418 26.2216L38.9853 27.7314C39.5279 28.5996 40.3888 28.8129 41.3286 28.3117C42.2684 27.8104 42.4991 27.0148 41.9565 26.1466L41.0163 24.6423L43.5098 23.7593C44.0017 23.5938 44.0992 22.9905 43.6813 22.6995L34.913 16.9593C34.8099 16.8876 34.6864 16.8455 34.5575 16.8381Z" fill="#5D5FEF" stroke="#F4F5F6" stroke-width="1.64948"/>
</g>
<defs>
<clipPath id="clip0_51_326">
<rect width="13.1959" height="12.1905" fill="white" transform="translate(32.3022 16.6133)"/>
</clipPath>
</defs>
</svg>
