<svg width="20" height="20" viewBox="0 0 20 20" fill="none" xmlns="http://www.w3.org/2000/svg">
<path d="M16.7464 9.99442C16.7464 9.12339 16.5688 8.29146 16.2135 7.4986C15.8582 6.70575 15.378 6.02084 14.7729 5.44389C14.1677 4.86693 13.4493 4.40908 12.6178 4.07035C11.7862 3.73162 10.9136 3.56226 10 3.56226C9.08642 3.56226 8.21384 3.73162 7.38225 4.07035C6.55066 4.40908 5.83229 4.86693 5.22714 5.44389C4.62199 6.02084 4.14178 6.70575 3.7865 7.4986C3.43122 8.29146 3.25358 9.12339 3.25358 9.99442C3.25358 10.8654 3.43122 11.6974 3.7865 12.4902C4.14178 13.2831 4.62199 13.968 5.22714 14.5449C5.83229 15.1219 6.55066 15.5798 7.38225 15.9185C8.21384 16.2572 9.08642 16.4266 10 16.4266C10.9136 16.4266 11.7862 16.2572 12.6178 15.9185C13.4493 15.5798 14.1677 15.1219 14.7729 14.5449C15.378 13.968 15.8582 13.2831 16.2135 12.4902C16.5688 11.6974 16.7464 10.8654 16.7464 9.99442ZM19.9791 13.0877C19.9479 13.1993 19.8698 13.2738 19.7448 13.311L16.3248 14.383V17.8001C16.3248 17.9192 16.274 18.016 16.1725 18.0905C16.0554 18.1649 15.9422 18.1798 15.8328 18.1351L12.4128 17.0854L10.3045 19.8548C10.2264 19.9516 10.1249 20 10 20C9.87507 20 9.77356 19.9516 9.69547 19.8548L7.58722 17.0854L4.16715 18.1351C4.05784 18.1798 3.94462 18.1649 3.82749 18.0905C3.72598 18.016 3.67523 17.9192 3.67523 17.8001V14.383L0.255166 13.311C0.130232 13.2738 0.0521487 13.1993 0.0209153 13.0877C-0.0181266 12.9611 -0.00250983 12.8532 0.0677654 12.7638L2.17602 9.99442L0.0677654 7.22501C-0.00250983 7.12823 -0.0181266 7.02029 0.0209153 6.90117C0.0521487 6.7895 0.130232 6.71506 0.255166 6.67783L3.67523 5.60581V2.18872C3.67523 2.06961 3.72598 1.97283 3.82749 1.89838C3.94462 1.82393 4.05784 1.80905 4.16715 1.85371L7.58722 2.90341L9.69547 0.134003C9.76575 0.0446678 9.86726 0 10 0C10.1327 0 10.2343 0.0446678 10.3045 0.134003L12.4128 2.90341L15.8328 1.85371C15.9422 1.80905 16.0554 1.82393 16.1725 1.89838C16.274 1.97283 16.3248 2.06961 16.3248 2.18872V5.60581L19.7448 6.67783C19.8698 6.71506 19.9479 6.7895 19.9791 6.90117C20.0181 7.02029 20.0025 7.12823 19.9322 7.22501L17.824 9.99442L19.9322 12.7638C20.0025 12.8532 20.0181 12.9611 19.9791 13.0877Z" fill="black"/>
<ellipse cx="9.94752" cy="10.1099" rx="6.88697" ry="6.56616" fill="black"/>
</svg>
