<svg width="20" height="20" viewBox="0 0 20 20" fill="none" xmlns="http://www.w3.org/2000/svg">
<path d="M8.95059 0.630377C9.05756 0.438572 9.21078 0.279428 9.39498 0.168818C9.57918 0.0582081 9.78792 0 10.0004 0C10.2128 0 10.4215 0.0582081 10.6057 0.168818C10.7899 0.279428 10.9432 0.438572 11.0501 0.630377L13.7669 5.50369L19.043 6.69815C19.2505 6.74527 19.4426 6.84842 19.6001 6.9973C19.7576 7.14619 19.875 7.33561 19.9406 7.54668C20.0062 7.75776 20.0177 7.98311 19.974 8.20028C19.9302 8.41745 19.8328 8.61884 19.6913 8.78439L16.0949 12.9904L16.6392 18.6021C16.6607 18.8231 16.6263 19.0461 16.5395 19.2488C16.4527 19.4516 16.3165 19.627 16.1446 19.7575C15.9726 19.8881 15.7709 19.9692 15.5595 19.9928C15.3482 20.0164 15.1346 19.9817 14.9401 19.892L10.0004 17.6169L5.0606 19.892C4.86612 19.9817 4.65254 20.0164 4.44119 19.9928C4.22984 19.9692 4.02811 19.8881 3.85615 19.7575C3.68419 19.627 3.54802 19.4516 3.46122 19.2488C3.37443 19.0461 3.34005 18.8231 3.36152 18.6021L3.90585 12.9904L0.309406 8.7854C0.167714 8.61987 0.0700535 8.4184 0.0261753 8.20109C-0.017703 7.98379 -0.0062641 7.75826 0.0593499 7.54702C0.124964 7.33578 0.242457 7.14622 0.400101 6.99727C0.557744 6.84831 0.750022 6.74517 0.957738 6.69815L6.23382 5.50369L8.95059 0.630377Z" fill="black"/>
</svg>
