<svg width="20" height="20" viewBox="0 0 20 20" fill="none" xmlns="http://www.w3.org/2000/svg">
<path d="M17.965 2.99145L17.0067 2.03311C16.8912 1.9162 16.7536 1.82338 16.602 1.76003C16.4504 1.69668 16.2877 1.66406 16.1233 1.66406C15.959 1.66406 15.7963 1.69668 15.6447 1.76003C15.493 1.82338 15.3555 1.9162 15.24 2.03311L10.8333 6.44061V9.16478H13.5583L17.965 4.75811C18.0819 4.64262 18.1747 4.50508 18.2381 4.35344C18.3014 4.20181 18.3341 4.03911 18.3341 3.87478C18.3341 3.71045 18.3014 3.54775 18.2381 3.39612C18.1747 3.24448 18.0819 3.10694 17.965 2.99145ZM12.9825 7.87311H12.1242V7.01478L15 4.14228L15.8583 5.00061L12.9825 7.87311Z" fill="#A3AED0"/>
<path d="M15.8333 15.8333H4.16667V4.16667H9.16667V2.5H4.16667C3.72504 2.50132 3.30189 2.67734 2.98961 2.98961C2.67734 3.30189 2.50132 3.72504 2.5 4.16667V15.8333C2.50132 16.275 2.67734 16.6981 2.98961 17.0104C3.30189 17.3227 3.72504 17.4987 4.16667 17.5H15.8333C16.275 17.4987 16.6981 17.3227 17.0104 17.0104C17.3227 16.6981 17.4987 16.275 17.5 15.8333V10.8333H15.8333V15.8333Z" fill="#A3AED0"/>
</svg>
