<svg width="20" height="20" viewBox="0 0 20 20" fill="none" xmlns="http://www.w3.org/2000/svg">
<g clip-path="url(#clip0_1082_969)">
<path fill-rule="evenodd" clip-rule="evenodd" d="M4.16666 3.33203C3.50362 3.33203 2.86773 3.59542 2.39889 4.06426C1.93005 4.53311 1.66666 5.16899 1.66666 5.83203V14.9987C1.66666 15.6617 1.93005 16.2976 2.39889 16.7665C2.86773 17.2353 3.50362 17.4987 4.16666 17.4987H15.8333C16.4964 17.4987 17.1322 17.2353 17.6011 16.7665C18.0699 16.2976 18.3333 15.6617 18.3333 14.9987V5.83203C18.3333 5.16899 18.0699 4.53311 17.6011 4.06426C17.1322 3.59542 16.4964 3.33203 15.8333 3.33203H4.16666ZM3.33332 5.83203C3.33332 5.61102 3.42112 5.39906 3.5774 5.24278C3.73368 5.0865 3.94564 4.9987 4.16666 4.9987H8.03832C8.20484 4.9988 8.36751 5.04879 8.50535 5.14222C8.64319 5.23565 8.74988 5.36823 8.81166 5.52286L9.64082 7.5937C9.82634 8.05758 10.1466 8.45523 10.5603 8.73537C10.9739 9.01551 11.4621 9.16528 11.9617 9.16536H16.6667V14.9987C16.6667 15.2197 16.5789 15.4317 16.4226 15.588C16.2663 15.7442 16.0543 15.832 15.8333 15.832H4.16666C3.94564 15.832 3.73368 15.7442 3.5774 15.588C3.42112 15.4317 3.33332 15.2197 3.33332 14.9987V5.83203ZM16.6667 7.4987H11.9617C11.7951 7.49859 11.6325 7.4486 11.4946 7.35518C11.3568 7.26175 11.2501 7.12917 11.1883 6.97453L10.3975 4.9987H15.8333C16.0543 4.9987 16.2663 5.0865 16.4226 5.24278C16.5789 5.39906 16.6667 5.61102 16.6667 5.83203V7.4987Z" fill="#A3AED0"/>
</g>
<defs>
<clipPath id="clip0_1082_969">
<rect width="20" height="20" fill="white"/>
</clipPath>
</defs>
</svg>
