<svg width="20" height="20" viewBox="0 0 20 20" fill="none" xmlns="http://www.w3.org/2000/svg">
<path d="M10.6539 14.6523C10.7413 14.7394 10.8106 14.8429 10.858 14.9569C10.9053 15.0708 10.9296 15.193 10.9296 15.3164C10.9296 15.4398 10.9053 15.562 10.858 15.6759C10.8106 15.7899 10.7413 15.8934 10.6539 15.9805L10.1898 16.4445C9.31048 17.3239 8.11781 17.8179 6.87421 17.8179C5.63061 17.8179 4.43795 17.3239 3.55859 16.4445C2.67923 15.5652 2.18521 14.3725 2.18521 13.1289C2.18521 11.8853 2.67923 10.6926 3.55859 9.81328L5.44296 7.92969C6.28787 7.08269 7.42466 6.5908 8.62048 6.55478C9.8163 6.51876 10.9806 6.94133 11.875 7.73593C11.9673 7.81801 12.0426 7.91747 12.0965 8.02863C12.1504 8.1398 12.1819 8.26049 12.1891 8.38382C12.1964 8.50714 12.1793 8.63069 12.1388 8.74741C12.0983 8.86413 12.0352 8.97172 11.9531 9.06406C11.871 9.1564 11.7716 9.23166 11.6604 9.28556C11.5493 9.33946 11.4286 9.37093 11.3052 9.37819C11.1819 9.38544 11.0584 9.36833 10.9416 9.32784C10.8249 9.28735 10.7173 9.22426 10.625 9.14218C10.0887 8.66588 9.39065 8.41248 8.67368 8.43383C7.95671 8.45518 7.27499 8.74966 6.76796 9.25703L4.88515 11.1383C4.35762 11.6658 4.06125 12.3813 4.06125 13.1273C4.06125 13.8734 4.35762 14.5889 4.88515 15.1164C5.41268 15.6439 6.12817 15.9403 6.87421 15.9403C7.62026 15.9403 8.33574 15.6439 8.86328 15.1164L9.32734 14.6523C9.41441 14.5652 9.5178 14.496 9.63161 14.4488C9.74542 14.4017 9.86742 14.3774 9.99062 14.3774C10.1138 14.3774 10.2358 14.4017 10.3496 14.4488C10.4634 14.496 10.5668 14.5652 10.6539 14.6523ZM16.4414 3.55859C15.5613 2.68058 14.3689 2.1875 13.1258 2.1875C11.8826 2.1875 10.6902 2.68058 9.81015 3.55859L9.34609 4.02265C9.16997 4.19877 9.07102 4.43764 9.07102 4.68672C9.07102 4.93579 9.16997 5.17466 9.34609 5.35078C9.52221 5.5269 9.76108 5.62584 10.0102 5.62584C10.2592 5.62584 10.4981 5.5269 10.6742 5.35078L11.1383 4.88672C11.6658 4.35918 12.3813 4.06282 13.1273 4.06282C13.8734 4.06282 14.5889 4.35918 15.1164 4.88672C15.6439 5.41425 15.9403 6.12974 15.9403 6.87578C15.9403 7.62182 15.6439 8.33731 15.1164 8.86484L13.2328 10.7492C12.7253 11.2564 12.0432 11.5504 11.3261 11.5712C10.6089 11.592 9.91096 11.3379 9.37499 10.8609C9.28266 10.7789 9.17506 10.7158 9.05834 10.6753C8.94163 10.6348 8.81808 10.6177 8.69475 10.6249C8.57142 10.6322 8.45073 10.6637 8.33957 10.7176C8.2284 10.7715 8.12895 10.8467 8.04687 10.9391C7.96479 11.0314 7.90171 11.139 7.86121 11.2557C7.82072 11.3724 7.80361 11.496 7.81087 11.6193C7.81812 11.7426 7.8496 11.8633 7.90349 11.9745C7.95739 12.0856 8.03266 12.1851 8.12499 12.2672C9.01873 13.0616 10.1823 13.4845 11.3775 13.4492C12.5728 13.4139 13.7094 12.9231 14.5547 12.0773L16.4391 10.1937C17.3181 9.31389 17.812 8.12116 17.8125 6.87744C17.8129 5.63371 17.3198 4.44064 16.4414 3.56015V3.55859Z" fill="#A3AED0"/>
</svg>
