<svg width="20" height="20" viewBox="0 0 20 20" fill="none" xmlns="http://www.w3.org/2000/svg">
<path d="M13.6333 11.668C13.7 11.118 13.75 10.568 13.75 10.0013C13.75 9.43464 13.7 8.88464 13.6333 8.33464H16.45C16.5833 8.86797 16.6667 9.4263 16.6667 10.0013C16.6667 10.5763 16.5833 11.1346 16.45 11.668M12.1583 16.3013C12.6583 15.3763 13.0417 14.3763 13.3083 13.3346H15.7667C14.9593 14.7249 13.6784 15.778 12.1583 16.3013ZM11.95 11.668H8.04999C7.96666 11.118 7.91666 10.568 7.91666 10.0013C7.91666 9.43464 7.96666 8.8763 8.04999 8.33464H11.95C12.025 8.8763 12.0833 9.43464 12.0833 10.0013C12.0833 10.568 12.025 11.118 11.95 11.668ZM9.99999 16.6346C9.30832 15.6346 8.74999 14.5263 8.40832 13.3346H11.5917C11.25 14.5263 10.6917 15.6346 9.99999 16.6346ZM6.66666 6.66797H4.23332C5.03237 5.27398 6.31232 4.21921 7.83332 3.7013C7.33332 4.6263 6.95832 5.6263 6.66666 6.66797ZM4.23332 13.3346H6.66666C6.95832 14.3763 7.33332 15.3763 7.83332 16.3013C6.31551 15.7777 5.03736 14.7244 4.23332 13.3346ZM3.54999 11.668C3.41666 11.1346 3.33332 10.5763 3.33332 10.0013C3.33332 9.4263 3.41666 8.86797 3.54999 8.33464H6.36666C6.29999 8.88464 6.24999 9.43464 6.24999 10.0013C6.24999 10.568 6.29999 11.118 6.36666 11.668M9.99999 3.35964C10.6917 4.35964 11.25 5.4763 11.5917 6.66797H8.40832C8.74999 5.4763 9.30832 4.35964 9.99999 3.35964ZM15.7667 6.66797H13.3083C13.0475 5.63585 12.6613 4.63955 12.1583 3.7013C13.6917 4.2263 14.9667 5.28464 15.7667 6.66797ZM9.99999 1.66797C5.39166 1.66797 1.66666 5.41797 1.66666 10.0013C1.66666 12.2114 2.54463 14.3311 4.10743 15.8939C4.88125 16.6677 5.79991 17.2815 6.81096 17.7003C7.82201 18.1191 8.90564 18.3346 9.99999 18.3346C12.2101 18.3346 14.3297 17.4567 15.8925 15.8939C17.4553 14.3311 18.3333 12.2114 18.3333 10.0013C18.3333 8.90695 18.1178 7.82332 17.699 6.81227C17.2802 5.80123 16.6664 4.88257 15.8925 4.10875C15.1187 3.33492 14.2001 2.7211 13.189 2.30231C12.178 1.88352 11.0943 1.66797 9.99999 1.66797Z" fill="#A3AED0"/>
</svg>
