<svg width="16" height="16" viewBox="0 0 16 16" fill="none" xmlns="http://www.w3.org/2000/svg">
<path d="M14.6667 2H4.66667C4.20667 2 3.84667 2.23333 3.60667 2.58667L0 8L3.60667 13.4067C3.84667 13.76 4.20667 14 4.66667 14H14.6667C15.0203 14 15.3594 13.8595 15.6095 13.6095C15.8595 13.3594 16 13.0203 16 12.6667V3.33333C16 2.97971 15.8595 2.64057 15.6095 2.39052C15.3594 2.14048 15.0203 2 14.6667 2ZM12.6667 10.3933L11.7267 11.3333L9.33333 8.94L6.94 11.3333L6 10.3933L8.39333 8L6 5.60667L6.94 4.66667L9.33333 7.06L11.7267 4.66667L12.6667 5.60667L10.2733 8" fill="#A3AED0"/>
</svg>
