<svg width="18" height="18" viewBox="0 0 18 18" fill="none" xmlns="http://www.w3.org/2000/svg">
<path d="M12.2198 1.71974C12.3604 1.57914 12.5511 1.50015 12.75 1.50015C12.9489 1.50015 13.1396 1.57914 13.2803 1.71974L16.2803 4.71974C16.4209 4.86039 16.4998 5.05112 16.4998 5.24999C16.4998 5.44887 16.4209 5.6396 16.2803 5.78024L6.53025 15.5302C6.38963 15.6709 6.1989 15.75 6 15.75H3C2.80109 15.75 2.61032 15.671 2.46967 15.5303C2.32902 15.3897 2.25 15.1989 2.25 15V12C2.25004 11.8011 2.32909 11.6104 2.46975 11.4697L9.96975 3.96974L12.2198 1.71974ZM10.5 5.56049L3.75 12.3105V14.25H5.6895L12.4395 7.49999L10.5 5.56049ZM13.5 6.43949L14.6895 5.24999L12.75 3.31049L11.5605 4.49999L13.5 6.43949Z" fill="#5D5FEF"/>
</svg>
