<svg width="23" height="23" viewBox="0 0 23 23" fill="none" xmlns="http://www.w3.org/2000/svg">
<path d="M7.66602 15.3333H15.3327V7.66665H7.66602V15.3333Z" stroke="#A3AED0" stroke-width="2" stroke-linecap="round" stroke-linejoin="round"/>
<path d="M3.83301 17.25C3.83301 17.7583 4.03494 18.2458 4.39439 18.6053C4.75383 18.9647 5.24134 19.1667 5.74967 19.1667H17.2497C17.758 19.1667 18.2455 18.9647 18.605 18.6053C18.9644 18.2458 19.1663 17.7583 19.1663 17.25V5.74999C19.1663 5.24166 18.9644 4.75415 18.605 4.3947C18.2455 4.03526 17.758 3.83332 17.2497 3.83332H5.74967C5.24134 3.83332 4.75383 4.03526 4.39439 4.3947C4.03494 4.75415 3.83301 5.24166 3.83301 5.74999V17.25Z" stroke="#A3AED0" stroke-width="2" stroke-linecap="round" stroke-linejoin="round"/>
</svg>
