<svg width="62" height="82" viewBox="0 0 62 82" fill="none" xmlns="http://www.w3.org/2000/svg">
<path d="M4.77953 81L1.47244 77.7059C1.31496 54.6471 1 7.77647 1 4.76471C1 1.75294 3.51969 1 4.77953 1H57.2205C60.2441 1 61 3.5098 61 4.76471V77.7059L57.6929 81L54.3858 77.7059L51.0787 81L47.7717 77.7059L44.4646 81L41.1575 77.7059L37.8504 81L34.5433 77.7059L31.2362 81L27.9291 77.7059L24.622 81L21.315 77.7059L18.0079 81L14.7008 77.7059L11.3937 81L8.08661 77.7059L4.77953 81Z" fill="white" stroke="black" stroke-width="1.2"/>
</svg>
