<svg width="20" height="20" viewBox="0 0 20 20" fill="none" xmlns="http://www.w3.org/2000/svg">
<path d="M1.89844 10C1.89844 13.3941 1.89844 16.8912 3.08466 17.9456C4.27087 19 6.18006 19 9.99844 19C13.8168 19 15.726 19 16.9122 17.9456C18.0984 16.8912 18.0984 13.3941 18.0984 10" stroke="black" stroke-width="1.5"/>
<path d="M12.3943 11.9794L17.9721 10.306C18.3419 10.1951 18.5269 10.1396 18.6638 10.0296C18.7833 9.93358 18.8763 9.80848 18.9339 9.66637C19 9.50365 19 9.3106 19 8.92459C19 7.4059 19 6.64658 18.7033 6.06707C18.4451 5.56283 18.0348 5.15259 17.5306 4.8944C16.9511 4.59766 16.1917 4.59766 14.6731 4.59766H5.32688C3.80824 4.59766 3.04892 4.59766 2.46941 4.8944C1.96518 5.15259 1.55493 5.56283 1.29674 6.06707C1 6.64658 1 7.4059 1 8.92459C1 9.3106 1 9.50365 1.06602 9.66637C1.12369 9.80848 1.21671 9.93358 1.33627 10.0296C1.47317 10.1396 1.65806 10.1951 2.02785 10.306L7.60571 11.9794" stroke="black" stroke-width="1.5"/>
<path d="M11.8 10.4492H8.2C7.95147 10.4492 7.75 10.6507 7.75 10.8992V12.8446C7.75 13.0285 7.86203 13.194 8.03287 13.2623L8.66296 13.5144C9.52129 13.8577 10.4787 13.8577 11.337 13.5144L11.9671 13.2623C12.138 13.194 12.25 13.0285 12.25 12.8446V10.8992C12.25 10.6507 12.0485 10.4492 11.8 10.4492Z" stroke="black" stroke-width="1.5" stroke-linecap="round"/>
<path d="M7.45312 2.8C7.82377 1.75133 8.82391 1 9.9995 1C11.1751 1 12.1752 1.75133 12.5459 2.8" stroke="black" stroke-width="1.5" stroke-linecap="round"/>
</svg>
