<svg width="16" height="16" viewBox="0 0 16 16" fill="none" xmlns="http://www.w3.org/2000/svg">
<path d="M13.3022 12.1749H11.4985C11.3191 12.1749 11.147 12.1037 11.0202 11.9768C10.8933 11.85 10.8221 11.6779 10.8221 11.4985C10.8221 11.3192 10.8933 11.1471 11.0202 11.0203C11.147 10.8934 11.3191 10.8221 11.4985 10.8221H13.3022C13.6011 10.8221 13.8879 10.7034 14.0993 10.492C14.3107 10.2806 14.4295 9.99381 14.4295 9.69485V6.08748C14.4295 5.78851 14.3107 5.50178 14.0993 5.29037C13.8879 5.07896 13.6011 4.96018 13.3022 4.96018H2.48006C2.18108 4.96018 1.89435 5.07896 1.68294 5.29037C1.47153 5.50178 1.35276 5.78851 1.35276 6.08748V9.69485C1.35276 9.99381 1.47153 10.2806 1.68294 10.492C1.89435 10.7034 2.18108 10.8221 2.48006 10.8221H4.28374C4.46313 10.8221 4.63517 10.8934 4.76202 11.0203C4.88886 11.1471 4.96013 11.3192 4.96013 11.4985C4.96013 11.6779 4.88886 11.85 4.76202 11.9768C4.63517 12.1037 4.46313 12.1749 4.28374 12.1749H2.48006C1.8223 12.1749 1.19149 11.9136 0.726397 11.4485C0.26129 10.9834 0 10.3526 0 9.69485V6.08748C0 5.42973 0.26129 4.79892 0.726397 4.33382C1.19149 3.86871 1.8223 3.60742 2.48006 3.60742H13.3022C13.9599 3.60742 14.5907 3.86871 15.0558 4.33382C15.521 4.79892 15.7822 5.42973 15.7822 6.08748V9.69485C15.7822 10.3526 15.521 10.9834 15.0558 11.4485C14.5907 11.9136 13.9599 12.1749 13.3022 12.1749Z" fill="black"/>
<path d="M11.4985 4.96012C11.3199 4.95779 11.1492 4.88578 11.0228 4.75944C10.8965 4.63309 10.8245 4.46241 10.8221 4.28374V1.35276H4.96018V4.28374C4.96018 4.46313 4.88892 4.63517 4.76208 4.76202C4.63523 4.88886 4.46319 4.96012 4.2838 4.96012C4.10442 4.96012 3.93237 4.88886 3.80553 4.76202C3.67869 4.63517 3.60742 4.46313 3.60742 4.28374V1.1273C3.60742 0.828323 3.72619 0.541592 3.9376 0.330182C4.14901 0.118773 4.43574 0 4.73472 0H11.0476C11.3466 0 11.6334 0.118773 11.8447 0.330182C12.0561 0.541592 12.1749 0.828323 12.1749 1.1273V4.28374C12.1726 4.46241 12.1006 4.63309 11.9743 4.75944C11.8479 4.88578 11.6772 4.95779 11.4985 4.96012Z" fill="black"/>
<path d="M11.0476 15.7823H4.73472C4.43574 15.7823 4.14901 15.6636 3.9376 15.4522C3.72619 15.2408 3.60742 14.954 3.60742 14.655V8.34214C3.60742 8.04318 3.72619 7.7564 3.9376 7.54501C4.14901 7.33362 4.43574 7.21484 4.73472 7.21484H11.0476C11.3466 7.21484 11.6334 7.33362 11.8447 7.54501C12.0561 7.7564 12.1749 8.04318 12.1749 8.34214V14.655C12.1749 14.954 12.0561 15.2408 11.8447 15.4522C11.6334 15.6636 11.3466 15.7823 11.0476 15.7823ZM4.96018 14.4296H10.8221V8.56761H4.96018V14.4296Z" fill="black"/>
</svg>
