<svg width="18" height="16" viewBox="0 0 18 16" fill="none" xmlns="http://www.w3.org/2000/svg">
<path fill-rule="evenodd" clip-rule="evenodd" d="M8.46024 0.215303C8.76256 -0.0717678 9.23745 -0.0717678 9.53977 0.215303L15.8006 6.16188L17.7572 8.02021C18.0701 8.31742 18.0822 8.81147 17.7841 9.12367C17.4861 9.43578 16.9907 9.4478 16.6776 9.15052L16.0435 8.54821V14.439C16.0435 15.3011 15.3427 16 14.4783 16H10.5652H7.43478H3.52174C2.65729 16 1.95652 15.3011 1.95652 14.439V8.54821L1.32234 9.15052C1.00935 9.4478 0.51398 9.43578 0.215894 9.12367C-0.0821911 8.81147 -0.0701092 8.31742 0.24288 8.02021L2.1994 6.16188L8.46024 0.215303ZM3.52174 7.06154V14.439H6.65218V10.5366C6.65218 9.24339 7.7033 8.19512 9 8.19512C10.2967 8.19512 11.3478 9.24339 11.3478 10.5366V14.439H14.4783V7.06154L9 1.8583L3.52174 7.06154ZM9.78261 14.439V10.5366C9.78261 10.1055 9.43224 9.7561 9 9.7561C8.56777 9.7561 8.21739 10.1055 8.21739 10.5366V14.439H9.78261Z" fill="black"/>
</svg>
