<svg width="20" height="20" viewBox="0 0 20 20" fill="none" xmlns="http://www.w3.org/2000/svg">
<circle cx="10" cy="10" r="10" fill="#212430"/>
<path fill-rule="evenodd" clip-rule="evenodd" d="M5.83989 9.76486C5.63475 10.0042 5.63475 10.3574 5.83989 10.5967L8.87561 14.1384C9.10531 14.4064 9.50878 14.4374 9.77677 14.2077C10.0448 13.978 10.0758 13.5745 9.84609 13.3065L7.16687 10.1808L9.84609 7.05503C10.0758 6.78704 10.0448 6.38358 9.77677 6.15387C9.50878 5.92416 9.10531 5.9552 8.87561 6.22319L5.83989 9.76486Z" fill="#A3AED0"/>
<path fill-rule="evenodd" clip-rule="evenodd" d="M9.83989 9.76486C9.63475 10.0042 9.63475 10.3574 9.83989 10.5967L12.8756 14.1384C13.1053 14.4064 13.5088 14.4374 13.7768 14.2077C14.0448 13.978 14.0758 13.5745 13.8461 13.3065L11.1669 10.1808L13.8461 7.05503C14.0758 6.78704 14.0448 6.38358 13.7768 6.15387C13.5088 5.92416 13.1053 5.9552 12.8756 6.22319L9.83989 9.76486Z" fill="#A3AED0"/>
</svg>
