<svg width="26" height="20" viewBox="0 0 26 20" fill="none" xmlns="http://www.w3.org/2000/svg">
<path d="M3.81867e-08 16.7977L1.19452e-08 18.9983C5.34805e-09 19.5515 0.448478 20 1.0017 20L24.858 20C25.4112 20 25.8597 19.5515 25.8597 18.9983L25.8597 16.7977C25.8597 16.2445 25.4112 15.796 24.858 15.796L1.0017 15.796C0.448478 15.796 4.47838e-08 16.2445 3.81867e-08 16.7977Z" fill="#737791"/>
<path d="M3.81867e-08 8.79773L1.19452e-08 10.9983C5.34805e-09 11.5515 0.448478 12 1.0017 12L24.858 12C25.4112 12 25.8597 11.5515 25.8597 10.9983L25.8597 8.79773C25.8597 8.2445 25.4112 7.79603 24.858 7.79603L1.0017 7.79603C0.448478 7.79603 4.47838e-08 8.2445 3.81867e-08 8.79773Z" fill="#737791"/>
<path d="M3.81867e-08 1.00085L1.19452e-08 3.20142C5.34805e-09 3.75465 0.448478 4.20313 1.0017 4.20313L24.858 4.20313C25.4112 4.20313 25.8597 3.75465 25.8597 3.20142L25.8597 1.00085C25.8597 0.447629 25.4112 -0.000849421 24.858 -0.000849427L1.0017 -0.000849712C0.448478 -0.000849718 4.47838e-08 0.447628 3.81867e-08 1.00085Z" fill="#737791"/>
</svg>
