<svg width="168" height="42" viewBox="0 0 168 42" fill="none" xmlns="http://www.w3.org/2000/svg">
<path d="M64.2963 30.2L59.1963 22.18H62.2963L67.5163 30.2H64.2963ZM60.9963 28.24C59.6363 28.24 58.4363 27.9333 57.3963 27.32C56.3563 26.7067 55.5429 25.86 54.9563 24.78C54.3696 23.6867 54.0763 22.4267 54.0763 21C54.0763 19.5733 54.3696 18.32 54.9563 17.24C55.5429 16.1467 56.3563 15.2933 57.3963 14.68C58.4363 14.0667 59.6363 13.76 60.9963 13.76C62.3696 13.76 63.5763 14.0667 64.6163 14.68C65.6563 15.2933 66.4629 16.1467 67.0363 17.24C67.6229 18.32 67.9163 19.5733 67.9163 21C67.9163 22.4267 67.6229 23.6867 67.0363 24.78C66.4629 25.86 65.6563 26.7067 64.6163 27.32C63.5763 27.9333 62.3696 28.24 60.9963 28.24ZM60.9963 25.82C61.8496 25.82 62.5829 25.6267 63.1963 25.24C63.8229 24.84 64.3096 24.28 64.6563 23.56C65.0029 22.84 65.1763 21.9867 65.1763 21C65.1763 20 65.0029 19.1467 64.6563 18.44C64.3096 17.72 63.8229 17.1667 63.1963 16.78C62.5829 16.3933 61.8496 16.2 60.9963 16.2C60.1563 16.2 59.4229 16.3933 58.7963 16.78C58.1696 17.1667 57.6829 17.72 57.3363 18.44C56.9896 19.1467 56.8163 20 56.8163 21C56.8163 21.9867 56.9896 22.84 57.3363 23.56C57.6829 24.28 58.1696 24.84 58.7963 25.24C59.4229 25.6267 60.1563 25.82 60.9963 25.82ZM70.2198 28V14H75.4398C76.5732 14 77.5065 14.1933 78.2398 14.58C78.9732 14.9667 79.5198 15.4867 79.8798 16.14C80.2398 16.78 80.4198 17.4933 80.4198 18.28C80.4198 19.0267 80.2465 19.7267 79.8998 20.38C79.5532 21.02 79.0065 21.54 78.2598 21.94C77.5265 22.3267 76.5798 22.52 75.4198 22.52H72.9198V28H70.2198ZM77.4798 28L74.5998 21.84H77.5198L80.5598 28H77.4798ZM72.9198 20.56H75.2798C76.0932 20.56 76.6932 20.36 77.0798 19.96C77.4665 19.56 77.6598 19.0333 77.6598 18.38C77.6598 17.7267 77.4665 17.2133 77.0798 16.84C76.7065 16.4533 76.1065 16.26 75.2798 16.26H72.9198V20.56ZM92.3641 28.24C91.3507 28.24 90.4441 28.0667 89.6441 27.72C88.8574 27.3733 88.2307 26.8667 87.7641 26.2C87.3107 25.5333 87.0774 24.7267 87.0641 23.78H89.9241C89.9374 24.1933 90.0441 24.5667 90.2441 24.9C90.4441 25.2333 90.7174 25.5 91.0641 25.7C91.4241 25.8867 91.8507 25.98 92.3441 25.98C92.7707 25.98 93.1374 25.9133 93.4441 25.78C93.7641 25.6333 94.0107 25.4333 94.1841 25.18C94.3574 24.9267 94.4441 24.6267 94.4441 24.28C94.4441 23.88 94.3441 23.5467 94.1441 23.28C93.9574 23.0133 93.6907 22.7867 93.3441 22.6C93.0107 22.4133 92.6174 22.2467 92.1641 22.1C91.7241 21.94 91.2574 21.7733 90.7641 21.6C89.6574 21.24 88.8107 20.76 88.2241 20.16C87.6507 19.56 87.3641 18.7667 87.3641 17.78C87.3641 16.94 87.5641 16.22 87.9641 15.62C88.3774 15.02 88.9441 14.56 89.6641 14.24C90.3841 13.92 91.2041 13.76 92.1241 13.76C93.0707 13.76 93.8974 13.9267 94.6041 14.26C95.3241 14.58 95.8907 15.0467 96.3041 15.66C96.7307 16.2733 96.9507 16.9933 96.9641 17.82H94.0841C94.0707 17.5133 93.9774 17.2267 93.8041 16.96C93.6441 16.68 93.4174 16.46 93.1241 16.3C92.8307 16.1267 92.4841 16.04 92.0841 16.04C91.7374 16.0267 91.4174 16.08 91.1241 16.2C90.8441 16.32 90.6174 16.5 90.4441 16.74C90.2841 16.9667 90.2041 17.2533 90.2041 17.6C90.2041 17.9333 90.2841 18.2133 90.4441 18.44C90.6174 18.6667 90.8507 18.8667 91.1441 19.04C91.4374 19.2 91.7841 19.3533 92.1841 19.5C92.5841 19.6333 93.0174 19.7733 93.4841 19.92C94.1774 20.16 94.8174 20.4467 95.4041 20.78C95.9907 21.1 96.4574 21.52 96.8041 22.04C97.1507 22.56 97.3241 23.2467 97.3241 24.1C97.3241 24.8333 97.1307 25.5133 96.7441 26.14C96.3574 26.7667 95.7974 27.2733 95.0641 27.66C94.3441 28.0467 93.4441 28.24 92.3641 28.24ZM104.434 28.24C103.421 28.24 102.521 28.0133 101.734 27.56C100.948 27.1067 100.334 26.4867 99.8944 25.7C99.4544 24.9133 99.2344 24.0133 99.2344 23C99.2344 21.96 99.4544 21.0467 99.8944 20.26C100.334 19.46 100.948 18.8333 101.734 18.38C102.521 17.9133 103.421 17.68 104.434 17.68C105.728 17.68 106.814 18.02 107.694 18.7C108.574 19.38 109.134 20.3133 109.374 21.5H106.514C106.394 21.0333 106.141 20.6667 105.754 20.4C105.381 20.1333 104.934 20 104.414 20C103.948 20 103.528 20.12 103.154 20.36C102.794 20.5867 102.508 20.9267 102.294 21.38C102.094 21.82 101.994 22.3467 101.994 22.96C101.994 23.4267 102.054 23.8467 102.174 24.22C102.294 24.58 102.461 24.8933 102.674 25.16C102.888 25.4133 103.141 25.6067 103.434 25.74C103.741 25.8733 104.068 25.94 104.414 25.94C104.761 25.94 105.074 25.88 105.354 25.76C105.648 25.64 105.894 25.4733 106.094 25.26C106.294 25.0333 106.434 24.76 106.514 24.44H109.374C109.134 25.6 108.568 26.5267 107.674 27.22C106.794 27.9 105.714 28.24 104.434 28.24ZM115.103 28.24C114.263 28.24 113.569 28.1067 113.023 27.84C112.476 27.56 112.069 27.1933 111.803 26.74C111.549 26.2733 111.423 25.76 111.423 25.2C111.423 24.5867 111.576 24.0467 111.883 23.58C112.203 23.1133 112.676 22.7467 113.303 22.48C113.943 22.2133 114.743 22.08 115.703 22.08H118.203C118.203 21.5867 118.136 21.18 118.003 20.86C117.869 20.5267 117.663 20.28 117.383 20.12C117.103 19.96 116.729 19.88 116.263 19.88C115.756 19.88 115.323 19.9933 114.963 20.22C114.616 20.4333 114.403 20.7667 114.323 21.22H111.703C111.769 20.5 112.003 19.88 112.403 19.36C112.816 18.8267 113.356 18.4133 114.023 18.12C114.703 17.8267 115.456 17.68 116.283 17.68C117.229 17.68 118.049 17.84 118.743 18.16C119.436 18.48 119.969 18.94 120.343 19.54C120.716 20.14 120.903 20.88 120.903 21.76V28H118.623L118.323 26.46C118.176 26.7267 118.003 26.9667 117.803 27.18C117.603 27.3933 117.369 27.58 117.103 27.74C116.836 27.9 116.536 28.02 116.203 28.1C115.869 28.1933 115.503 28.24 115.103 28.24ZM115.743 26.16C116.089 26.16 116.396 26.1 116.663 25.98C116.943 25.8467 117.183 25.6733 117.383 25.46C117.583 25.2333 117.736 24.98 117.843 24.7C117.963 24.4067 118.043 24.0933 118.083 23.76V23.74H116.023C115.609 23.74 115.269 23.7933 115.003 23.9C114.749 23.9933 114.563 24.1333 114.443 24.32C114.323 24.5067 114.263 24.72 114.263 24.96C114.263 25.2267 114.323 25.4467 114.443 25.62C114.563 25.7933 114.736 25.9267 114.963 26.02C115.189 26.1133 115.449 26.16 115.743 26.16ZM123.422 28V17.92H125.802L126.002 19.56C126.308 19 126.742 18.5467 127.302 18.2C127.875 17.8533 128.555 17.68 129.342 17.68C130.182 17.68 130.888 17.8533 131.462 18.2C132.035 18.5467 132.468 19.0533 132.762 19.72C133.068 20.3867 133.222 21.2067 133.222 22.18V28H130.542V22.44C130.542 21.64 130.368 21.0267 130.022 20.6C129.688 20.1733 129.168 19.96 128.462 19.96C128.008 19.96 127.602 20.0667 127.242 20.28C126.895 20.4933 126.622 20.8 126.422 21.2C126.222 21.5867 126.122 22.06 126.122 22.62V28H123.422ZM135.765 28V17.92H138.145L138.345 19.56C138.652 19 139.085 18.5467 139.645 18.2C140.219 17.8533 140.899 17.68 141.685 17.68C142.525 17.68 143.232 17.8533 143.805 18.2C144.379 18.5467 144.812 19.0533 145.105 19.72C145.412 20.3867 145.565 21.2067 145.565 22.18V28H142.885V22.44C142.885 21.64 142.712 21.0267 142.365 20.6C142.032 20.1733 141.512 19.96 140.805 19.96C140.352 19.96 139.945 20.0667 139.585 20.28C139.239 20.4933 138.965 20.8 138.765 21.2C138.565 21.5867 138.465 22.06 138.465 22.62V28H135.765ZM152.949 28.24C151.936 28.24 151.036 28.0267 150.249 27.6C149.476 27.16 148.869 26.5533 148.429 25.78C148.002 24.9933 147.789 24.0867 147.789 23.06C147.789 22.0067 148.002 21.08 148.429 20.28C148.856 19.4667 149.456 18.8333 150.229 18.38C151.016 17.9133 151.922 17.68 152.949 17.68C153.949 17.68 154.822 17.9 155.569 18.34C156.316 18.78 156.896 19.3733 157.309 20.12C157.722 20.8667 157.929 21.7133 157.929 22.66C157.929 22.7933 157.929 22.9467 157.929 23.12C157.929 23.28 157.916 23.4467 157.889 23.62H149.709V21.98H155.209C155.169 21.3267 154.936 20.8133 154.509 20.44C154.096 20.0667 153.576 19.88 152.949 19.88C152.496 19.88 152.076 19.9867 151.689 20.2C151.302 20.4 150.996 20.7133 150.769 21.14C150.556 21.5667 150.449 22.1067 150.449 22.76V23.34C150.449 23.8867 150.549 24.3667 150.749 24.78C150.962 25.18 151.256 25.4933 151.629 25.72C152.002 25.9333 152.436 26.04 152.929 26.04C153.422 26.04 153.829 25.9333 154.149 25.72C154.482 25.5067 154.729 25.2333 154.889 24.9H157.649C157.462 25.5267 157.149 26.0933 156.709 26.6C156.269 27.1067 155.729 27.5067 155.089 27.8C154.449 28.0933 153.736 28.24 152.949 28.24ZM160.14 28V17.92H162.54L162.8 19.78C163.04 19.34 163.34 18.9667 163.7 18.66C164.074 18.3533 164.494 18.1133 164.96 17.94C165.44 17.7667 165.967 17.68 166.54 17.68V20.54H165.62C165.22 20.54 164.847 20.5867 164.5 20.68C164.167 20.7733 163.874 20.9267 163.62 21.14C163.367 21.34 163.174 21.62 163.04 21.98C162.907 22.34 162.84 22.7933 162.84 23.34V28H160.14Z" fill="white"/>
<rect x="0.15918" width="41.0381" height="41.0381" rx="10" fill="#5D5FEF"/>
<g opacity="0.06">
<mask id="mask0_247_315" style="mask-type:alpha" maskUnits="userSpaceOnUse" x="0" y="0" width="42" height="42">
<rect x="0.15918" width="41.0381" height="41.0381" rx="8.23794" fill="#5D5FEF"/>
</mask>
<g mask="url(#mask0_247_315)">
<path d="M-14.5562 40.812C19.5244 41.8451 41.8144 23.8144 48.6994 14.6699L44.5039 45.0071H-14.5562V40.812Z" fill="black"/>
</g>
</g>
<rect x="10.1757" y="9.94672" width="8.44936" height="8.44936" rx="1.57787" stroke="white" stroke-width="1.89344"/>
<rect x="10.1757" y="22.6401" width="8.44936" height="8.44936" rx="1.57787" stroke="white" stroke-width="1.89344"/>
<path d="M26.7339 22.4453V30.9505" stroke="white" stroke-width="1.89344" stroke-linecap="round"/>
<path d="M22.4814 26.6973L30.9866 26.6973" stroke="white" stroke-width="1.89344" stroke-linecap="round"/>
<rect x="22.7309" y="9.94672" width="8.44936" height="8.44936" rx="1.57787" stroke="white" stroke-width="1.89344"/>
</svg>
